<svg width="362" height="362" viewBox="0 0 362 362" fill="none" xmlns="http://www.w3.org/2000/svg">
<circle cx="180.732" cy="180.732" r="180.732" fill="url(#paint0_linear_60_74)"/>
<g clip-path="url(#clip0_60_74)">
<path d="M198.082 59.8582C201.462 61.918 203.444 64.9015 204.521 68.6412C204.521 69.1112 204.521 69.5812 204.521 70.0654C204.893 69.9871 205.265 69.9087 205.649 69.828C211.969 68.9563 217.151 70.1905 222.325 73.8931C226.974 77.659 229.641 82.7299 230.633 88.5809C231.208 94.9692 229.17 100.361 225.164 105.257C224.058 106.58 222.929 107.882 221.796 109.183C220.786 110.351 219.804 111.541 218.823 112.734C218.34 113.32 218.34 113.32 217.848 113.917C217.523 114.33 217.199 114.742 216.865 115.167C216.559 115.542 216.559 115.542 216.248 115.924C214.656 117.979 214.032 119.753 213.571 122.288C211.514 132.001 206.712 139.159 200.248 146.501C199.274 147.614 198.306 148.733 197.341 149.854C197.116 150.109 196.891 150.363 196.659 150.626C195.548 151.915 194.749 152.867 194.551 154.572C194.9 155.715 194.9 155.715 195.471 156.827C195.652 157.206 195.832 157.586 196.018 157.977C196.161 158.263 196.303 158.55 196.45 158.845C196.913 158.648 197.375 158.452 197.851 158.25C199.572 157.518 201.293 156.788 203.014 156.057C203.757 155.741 204.501 155.425 205.245 155.109C206.316 154.654 207.387 154.199 208.458 153.745C208.789 153.604 209.119 153.464 209.46 153.319C214.07 151.363 217.641 150.32 222.516 152.185C228.257 154.997 229.775 161.558 231.823 167.151C232.072 167.824 232.321 168.497 232.57 169.169C233.234 170.964 233.895 172.76 234.555 174.556C235.242 176.422 235.932 178.286 236.621 180.151C237.457 182.414 238.294 184.677 239.129 186.94C240.856 191.624 242.592 196.304 244.338 200.981C244.548 201.546 244.759 202.11 244.976 202.692C245.767 204.811 246.559 206.93 247.35 209.048C247.881 210.468 248.411 211.888 248.94 213.308C249.17 213.922 249.17 213.922 249.405 214.549C251.119 219.147 252.624 223.484 250.929 228.367C248.04 234.247 241.179 236.479 235.558 239.256C234.848 239.609 234.138 239.962 233.427 240.315C231.706 241.171 229.983 242.024 228.259 242.876C228.831 244.321 229.405 245.765 229.98 247.208C230.216 247.804 230.216 247.804 230.457 248.412C231.876 251.975 233.384 255.498 234.906 259.018C235.584 259.025 235.584 259.025 236.276 259.031C237.972 259.051 239.668 259.082 241.364 259.117C242.095 259.13 242.826 259.14 243.556 259.147C248.33 259.193 252.348 259.338 256.18 262.49C258.463 265.294 259.692 268.378 260.898 271.747C261.048 272.155 261.198 272.562 261.353 272.982C262.441 275.976 262.441 275.976 262.441 277.059C261.894 277.273 261.347 277.487 260.783 277.708C260.232 277.923 260.232 277.923 259.669 278.143C258.827 278.473 257.986 278.802 257.144 279.132C254.731 280.076 252.317 281.02 249.904 281.965C245.394 283.73 240.884 285.495 236.373 287.257C235.011 287.789 233.649 288.322 232.288 288.854C230.493 289.556 228.697 290.257 226.901 290.957C222.236 292.778 217.581 294.622 212.937 296.498C211.525 297.065 210.114 297.632 208.702 298.2C207.801 298.563 206.901 298.929 206.002 299.297C204.763 299.804 203.522 300.304 202.279 300.802C201.914 300.954 201.549 301.106 201.173 301.262C199.741 301.83 198.54 302.222 196.99 302.211C195.596 301.572 195.374 300.938 194.809 299.528C194.623 299.068 194.438 298.608 194.247 298.134C194.063 297.642 193.88 297.15 193.691 296.642C193.408 295.896 193.408 295.896 193.119 295.134C191.559 290.814 190.716 287.353 192.339 282.915C194.013 279.723 197.096 277.364 199.76 274.988C200.492 274.331 201.207 273.658 201.921 272.981C202.352 272.59 202.782 272.199 203.226 271.796C204.136 270.261 204.134 270.032 203.788 268.375C203.572 267.626 203.341 266.88 203.097 266.139C202.941 265.627 202.941 265.627 202.783 265.104C202.458 264.058 202.111 263.021 201.758 261.983C201.633 261.61 201.508 261.237 201.379 260.852C200.984 259.676 200.587 258.501 200.189 257.327C199.919 256.523 199.649 255.719 199.379 254.915C198.721 252.959 198.061 251.003 197.4 249.048C195.247 248.774 193.094 248.504 190.941 248.237C190.21 248.146 189.479 248.054 188.749 247.96C187.692 247.826 186.635 247.695 185.577 247.565C185.257 247.523 184.936 247.481 184.606 247.439C180.501 246.941 177.294 246.943 173.469 248.631C173.096 248.788 172.724 248.945 172.34 249.107C171.116 249.624 169.897 250.152 168.677 250.68C167.81 251.049 166.942 251.417 166.074 251.784C164.273 252.546 162.472 253.312 160.673 254.081C156.949 255.669 153.206 257.214 149.464 258.759C147.441 259.595 145.419 260.434 143.396 261.273C142.585 261.609 141.774 261.946 140.963 262.282C140.562 262.448 140.16 262.615 139.747 262.786C116.632 272.37 116.632 272.37 115.416 272.875C114.604 273.211 113.793 273.548 112.982 273.884C110.959 274.723 108.935 275.562 106.912 276.401C103.633 277.76 100.354 279.12 97.0754 280.48C96.4464 280.74 96.4464 280.74 95.8047 281.007C94.959 281.357 94.1133 281.708 93.2677 282.059C91.2031 282.915 89.1383 283.771 87.0727 284.625C83.6885 286.025 80.3055 287.426 76.9357 288.861C75.642 289.411 74.3468 289.958 73.0515 290.505C72.1789 290.875 71.3087 291.251 70.4385 291.627C69.9243 291.844 69.4101 292.061 68.8803 292.284C68.4373 292.474 67.9944 292.664 67.538 292.859C66.2595 293.232 65.6772 293.27 64.4684 292.726C63.6598 291.363 63.6598 291.363 62.9254 289.669C62.6782 289.112 62.431 288.554 62.1762 287.98C61.6199 286.554 61.6199 286.554 61.6199 285.604C62.0788 285.416 62.5378 285.229 63.0106 285.035C71.9506 281.375 80.886 277.705 89.8085 274.002C90.2076 273.837 90.6068 273.671 91.0181 273.501C94.3015 272.138 97.5845 270.775 100.867 269.411C106.932 266.892 112.997 264.375 119.065 261.867C119.587 261.651 119.587 261.651 120.12 261.431C122.289 260.534 124.46 259.641 126.632 258.751C127.16 258.533 127.689 258.315 128.234 258.09C128.945 257.799 128.945 257.799 129.671 257.503C130.079 257.335 130.488 257.168 130.908 256.996C131.884 256.644 131.884 256.644 132.833 256.644C132.673 256.166 132.512 255.687 132.347 255.194C130.835 250.689 129.326 246.183 127.819 241.676C127.044 239.359 126.269 237.042 125.491 234.726C124.741 232.492 123.994 230.257 123.247 228.022C122.962 227.168 122.676 226.315 122.389 225.461C121.988 224.268 121.589 223.075 121.191 221.881C121.072 221.526 120.952 221.172 120.828 220.807C120.362 219.401 120.015 218.256 120.015 216.765C119.757 216.869 119.5 216.973 119.235 217.08C112.954 219.614 106.673 222.146 100.391 224.676C97.3526 225.9 94.3148 227.124 91.2777 228.35C88.3449 229.534 85.4112 230.716 82.4769 231.896C81.3595 232.346 80.2424 232.797 79.1256 233.248C77.5572 233.882 75.9878 234.513 74.4181 235.144C73.9602 235.329 73.5022 235.515 73.0304 235.707C70.2155 236.833 67.3879 237.785 64.4684 238.604C63.9917 237.437 63.5172 236.27 63.0441 235.102C62.8403 234.605 62.8403 234.605 62.6324 234.097C61.6199 231.59 61.6199 231.59 61.6199 230.533C76.1642 224.582 90.7236 218.67 105.297 212.792C109.8 210.976 114.299 209.154 118.798 207.329C119.147 207.188 119.495 207.046 119.855 206.9C121.238 206.339 122.621 205.778 124.004 205.217C125.795 204.49 127.586 203.764 129.377 203.038C129.754 202.885 130.131 202.733 130.519 202.575C131.283 202.266 132.047 201.957 132.811 201.649C134.685 200.891 136.555 200.127 138.419 199.345C141.759 197.951 145.041 196.679 148.537 195.735C153.408 194.397 153.408 194.397 157.52 191.603C159.633 187.511 160.072 183.005 160.588 178.489C161.152 174.951 162.741 172.786 165.591 170.714C165.488 170.422 165.386 170.13 165.28 169.829C165.148 169.445 165.015 169.061 164.879 168.666C164.681 168.096 164.681 168.096 164.479 167.514C164.167 166.441 164.167 166.441 164.167 165.016C163.658 164.981 163.658 164.981 163.139 164.944C137.843 163.147 137.843 163.147 128.543 156.226C124.647 153.463 120.477 153.422 115.861 153.088C107.241 152.422 99.1323 151.59 92.8054 144.988C89.0505 140.454 86.9709 135.064 87.138 129.163C87.8243 122.353 90.3978 117.485 95.3275 112.793C96.7015 111.748 98.1082 110.813 99.6003 109.945C99.4289 109.52 99.2576 109.095 99.081 108.658C97.384 104.236 96.3888 100.71 97.9386 96.0879C100.131 91.2745 104.221 89.8372 108.895 88.0614C112.575 86.6852 116.276 85.3682 119.977 84.0506C122.201 83.2588 124.424 82.4639 126.648 81.6693C127.8 81.2574 128.953 80.8458 130.105 80.4342C135.795 78.4024 141.481 76.3567 147.165 74.3085C148.134 73.9593 149.104 73.6101 150.074 73.2609C152.024 72.5584 153.975 71.8558 155.925 71.1531C160.723 69.4247 165.521 67.697 170.32 65.9694C172.311 65.2524 174.302 64.5354 176.293 63.818C177.201 63.4914 178.109 63.1652 179.017 62.8398C180.918 62.1583 182.816 61.4731 184.706 60.7608C185.285 60.5449 185.865 60.3291 186.462 60.1067C186.941 59.9245 187.42 59.7424 187.913 59.5547C191.174 58.6135 194.92 58.4995 198.082 59.8582ZM189.158 68.5283C188.384 68.8062 188.384 68.8062 187.594 69.0898C187.032 69.2955 186.469 69.5012 185.889 69.7131C185.29 69.9294 184.691 70.1455 184.092 70.3613C182.468 70.9476 180.844 71.5376 179.221 72.1282C177.507 72.751 175.792 73.3703 174.077 73.9899C171.23 75.019 168.383 76.05 165.537 77.0822C160.978 78.7355 156.416 80.3809 151.853 82.0248C151.244 82.2441 150.636 82.4633 150.027 82.6826C149.728 82.7903 149.429 82.8979 149.122 83.0089C147.029 83.7631 144.936 84.5188 142.844 85.2752C137.593 87.1729 132.341 89.0659 127.078 90.9307C124.852 91.7197 122.627 92.5117 120.402 93.3038C119.364 93.6723 118.325 94.0392 117.285 94.4042C115.864 94.9033 114.446 95.4078 113.027 95.9136C112.405 96.1295 112.405 96.1295 111.77 96.3498C108.706 97.4384 108.706 97.4384 106.247 99.5002C105.805 102.273 106.718 104.481 107.742 107.005C107.975 107.601 107.975 107.601 108.214 108.208C108.719 109.491 109.233 110.772 109.748 112.052C110.099 112.934 110.45 113.817 110.801 114.7C111.656 116.85 112.519 118.997 113.383 121.143C113.795 122.168 114.202 123.195 114.607 124.222C120.252 138.538 128.086 147.512 142.287 153.756C150.571 156.907 161.519 157.609 170.339 157.42C170.42 157.708 170.5 157.996 170.584 158.292C171.438 161.247 172.473 164.079 173.662 166.915C175.485 166.611 177.059 166.074 178.76 165.356C179.267 165.143 179.773 164.93 180.295 164.711C181.08 164.378 181.08 164.378 181.881 164.037C182.68 163.701 182.68 163.701 183.496 163.358C184.808 162.805 186.119 162.25 187.43 161.693C186.859 158.856 186.105 156.371 184.871 153.747C184.581 152.673 184.581 152.673 184.962 151.75C185.499 150.828 186.053 150.079 186.757 149.281C187.122 148.863 187.122 148.863 187.495 148.437C187.758 148.141 188.02 147.845 188.291 147.54C188.563 147.227 188.836 146.915 189.117 146.593C190.512 144.997 191.917 143.412 193.333 141.835C201.512 132.669 206.931 122.519 207.014 109.945C207.023 109.589 207.033 109.234 207.043 108.867C207.091 101.611 204.499 94.7211 202.236 87.9281C201.946 87.0455 201.657 86.1627 201.368 85.2798C200.666 83.1429 199.951 81.0105 199.231 78.8795C198.832 77.6853 198.445 76.4878 198.059 75.2891C197.818 74.5603 197.577 73.8317 197.335 73.1031C197.232 72.7736 197.129 72.4441 197.023 72.1046C196.31 69.9966 195.521 68.8392 193.602 67.6916C191.782 67.6916 190.834 67.9206 189.158 68.5283ZM207.844 78.1363C208.811 81.8345 209.938 85.4574 211.138 89.0853C212.72 93.9333 213.994 98.7686 214.966 103.773C216.509 102.262 217.962 100.728 219.328 99.0552C219.808 98.4759 219.808 98.4759 220.298 97.885C222.447 94.7296 222.437 91.3222 222.087 87.6314C221.131 83.825 218.698 81.1352 215.381 79.1451C212.808 78.1383 210.577 78.0899 207.844 78.1363ZM99.3425 121.554C96.7541 124.237 96.1743 126.672 96.0396 130.359C96.1853 134.73 97.5771 137.761 100.568 140.936C104.615 144.49 110.601 144.68 115.742 144.602C115.063 143.149 114.241 141.815 113.384 140.461C110.618 136.043 108.632 131.417 106.692 126.591C106.369 125.8 106.045 125.009 105.721 124.218C104.941 122.311 104.168 120.402 103.398 118.49C102.005 118.49 100.302 120.67 99.3425 121.554ZM210.359 160.458C209.858 160.677 209.357 160.897 208.841 161.123C207.201 161.842 205.564 162.569 203.928 163.295C202.227 164.045 200.525 164.793 198.823 165.541C197.67 166.047 196.517 166.554 195.365 167.062C191.666 168.69 187.955 170.284 184.229 171.85C183.765 172.046 183.3 172.242 182.822 172.444C179.282 173.936 179.282 173.936 177.533 174.662C176.338 175.158 175.146 175.66 173.955 176.164C173.606 176.306 173.257 176.449 172.898 176.596C171.093 177.366 169.833 177.962 168.915 179.734C168.507 181.041 168.507 181.041 168.256 182.486C168.154 183.02 168.051 183.553 167.946 184.103C167.844 184.659 167.743 185.214 167.639 185.787C167.532 186.335 167.425 186.884 167.315 187.449C166.442 192.095 166.258 195.62 167.797 200.083C167.931 200.485 168.064 200.887 168.202 201.301C168.641 202.619 169.088 203.933 169.536 205.248C169.844 206.166 170.151 207.085 170.458 208.003C171.266 210.413 172.08 212.821 172.895 215.228C173.562 217.198 174.223 219.17 174.884 221.142C176.248 225.21 177.615 229.276 178.991 233.34C179.118 233.717 179.245 234.094 179.376 234.482C179.996 236.339 179.996 236.339 180.783 238.129C185.401 239.388 190.503 239.619 195.247 240.19C196.605 240.355 197.961 240.526 199.318 240.696C200.19 240.802 201.062 240.908 201.934 241.013C202.335 241.064 202.736 241.115 203.15 241.168C207.159 241.637 210.079 240.987 213.651 239.191C214.022 239.01 214.392 238.828 214.774 238.641C215.978 238.049 217.178 237.451 218.378 236.853C219.208 236.443 220.037 236.033 220.867 235.623C222.537 234.798 224.205 233.971 225.872 233.141C227.715 232.225 229.562 231.319 231.412 230.42C232.649 229.818 233.884 229.213 235.118 228.608C235.957 228.197 236.798 227.79 237.639 227.383C238.14 227.136 238.64 226.888 239.156 226.633C239.588 226.422 240.019 226.21 240.464 225.993C241.645 225.252 242.268 224.607 242.976 223.411C242.932 221.516 242.294 220.03 241.524 218.328C241.266 217.755 241.266 217.755 241.002 217.169C240.87 216.879 240.739 216.589 240.603 216.29C239.837 216.545 239.837 216.545 239.056 216.805C233.4 218.691 227.744 220.576 222.087 222.462C221.995 222.118 221.904 221.774 221.809 221.42C221.172 219.053 220.526 216.705 219.713 214.391C220.271 214.285 220.828 214.178 221.403 214.068C224.733 213.328 227.924 212.139 231.137 211.008C231.781 210.784 232.425 210.559 233.069 210.335C234.631 209.791 236.193 209.243 237.754 208.694C237.221 207.161 236.686 205.628 236.152 204.095C236.001 203.662 235.851 203.229 235.696 202.783C235.549 202.362 235.402 201.941 235.25 201.508C235.116 201.122 234.982 200.737 234.844 200.34C234.416 199.157 233.955 197.991 233.481 196.825C229.409 197.617 225.517 198.917 221.583 200.208C220.893 200.432 220.204 200.657 219.514 200.881C217.839 201.426 216.165 201.974 214.491 202.522C213.708 200.015 212.924 197.509 212.117 194.926C218.071 192.889 224.024 190.853 230.158 188.754C229.255 185.746 228.342 182.832 227.22 179.912C227.091 179.571 226.962 179.23 226.828 178.879C226.515 178.056 226.2 177.233 225.885 176.411C224.002 176.992 222.12 177.575 220.238 178.158C219.599 178.356 218.961 178.553 218.322 178.75C213.957 180.096 213.957 180.096 209.623 181.535C207.844 182.108 207.844 182.108 206.42 182.108C205.637 179.601 204.854 177.094 204.046 174.512C204.594 174.405 205.142 174.299 205.706 174.189C209.189 173.415 212.559 172.24 215.945 171.129C216.635 170.904 217.324 170.68 218.014 170.456C219.689 169.911 221.363 169.363 223.037 168.814C222.675 166.899 222.148 165.154 221.464 163.325C221.27 162.796 221.076 162.266 220.876 161.721C220.161 160.212 219.641 159.349 218.289 158.37C215.363 157.926 212.961 159.292 210.359 160.458ZM155.262 201.869C154.947 201.996 154.632 202.122 154.308 202.253C153.301 202.657 152.295 203.064 151.289 203.472C150.607 203.746 149.926 204.021 149.244 204.295C147.571 204.968 145.899 205.644 144.227 206.32C144.521 209.656 145.637 212.696 146.705 215.854C146.903 216.448 147.102 217.042 147.306 217.653C147.724 218.904 148.144 220.154 148.566 221.404C149.106 223.006 149.643 224.61 150.18 226.214C150.692 227.746 151.206 229.277 151.72 230.809C151.913 231.386 152.106 231.962 152.305 232.556C152.574 233.353 152.574 233.353 152.848 234.165C153.006 234.634 153.164 235.103 153.326 235.585C153.693 236.694 153.693 236.694 154.197 237.654C153.887 237.712 153.578 237.769 153.259 237.828C150.975 238.266 148.79 238.747 146.601 239.553C145.274 236.334 144.085 233.091 142.992 229.785C142.839 229.326 142.686 228.866 142.528 228.393C142.208 227.429 141.888 226.466 141.568 225.502C141.082 224.033 140.592 222.564 140.103 221.096C139.79 220.155 139.477 219.214 139.164 218.272C138.947 217.62 138.947 217.62 138.725 216.953C137.975 214.687 137.267 212.419 136.631 210.118C134.649 210.443 132.89 211.074 131.023 211.81C130.196 212.134 130.196 212.134 129.352 212.464C128.934 212.63 128.516 212.796 128.086 212.967C128.367 215.393 128.91 217.606 129.696 219.921C129.811 220.267 129.926 220.613 130.045 220.97C130.423 222.104 130.804 223.237 131.186 224.37C131.451 225.161 131.715 225.953 131.979 226.744C132.531 228.397 133.085 230.049 133.641 231.701C134.354 233.821 135.064 235.942 135.772 238.063C136.448 240.086 137.126 242.109 137.803 244.132C137.933 244.519 138.062 244.905 138.195 245.304C138.561 246.394 138.927 247.483 139.293 248.573C139.402 248.897 139.51 249.222 139.622 249.556C140.187 251.232 140.187 251.232 140.904 252.846C143.946 251.882 146.887 250.756 149.826 249.514C150.257 249.333 150.689 249.152 151.133 248.965C152.501 248.391 153.868 247.815 155.236 247.238C156.143 246.857 157.051 246.476 157.959 246.095C162.727 244.092 167.489 242.075 172.238 240.028C171.502 236.271 170.323 232.715 169.081 229.099C168.864 228.459 168.646 227.819 168.429 227.179C167.858 225.501 167.286 223.825 166.712 222.149C166.134 220.458 165.559 218.767 164.983 217.075C164.333 215.165 163.682 213.254 163.029 211.344C161.811 207.775 160.606 204.202 159.419 200.623C157.922 200.623 156.631 201.313 155.262 201.869ZM214.389 248.131C214.041 248.301 213.693 248.471 213.334 248.646C213.021 248.802 212.708 248.959 212.386 249.12C211.168 249.523 211.168 249.523 206.895 249.998C208.462 254.698 210.028 259.398 211.643 264.24C215.099 263.492 215.099 263.492 218.41 262.471C218.824 262.324 219.239 262.177 219.666 262.026C220.292 261.8 220.292 261.8 220.93 261.57C221.364 261.416 221.797 261.261 222.244 261.102C223.3 260.726 224.356 260.348 225.41 259.967C224.375 256.701 223.13 253.582 221.761 250.443C221.563 249.986 221.366 249.53 221.163 249.06C220.681 247.948 220.198 246.836 219.713 245.725C218.127 245.725 215.837 247.392 214.389 248.131ZM221.286 269.819C220.957 269.919 220.628 270.02 220.289 270.123C215.717 271.556 212.709 273.611 209.504 277.17C208.496 278.287 207.481 279.267 206.331 280.234C204.911 281.454 203.53 282.706 202.177 284.002C201.642 284.511 201.642 284.511 201.096 285.029C200.136 286.218 199.89 286.941 199.774 288.453C200.181 289.992 200.181 289.992 200.723 291.301C203.006 291.007 205.029 290.347 207.156 289.502C207.511 289.364 207.866 289.226 208.232 289.083C209.419 288.619 210.605 288.15 211.791 287.681C212.632 287.351 213.472 287.021 214.313 286.691C222.134 283.613 229.93 280.471 237.724 277.326C238.03 277.203 238.335 277.079 238.649 276.953C240.69 276.129 242.73 275.304 244.77 274.479C245.295 274.267 245.82 274.054 246.362 273.836C246.841 273.641 247.321 273.447 247.815 273.247C248.235 273.077 248.655 272.907 249.087 272.732C249.75 272.456 250.405 272.158 251.047 271.836C250.377 269.353 250.377 269.353 248.673 267.564C247.43 267.374 246.301 267.274 245.052 267.241C244.686 267.228 244.321 267.216 243.944 267.203C242.741 267.171 241.539 267.156 240.336 267.148C239.719 267.144 239.719 267.144 239.091 267.139C232.866 267.14 227.212 267.912 221.286 269.819Z" fill="white"/>
<path d="M271.936 155.521C274.756 155.521 277.576 155.521 280.482 155.521C280.521 156.49 280.56 157.46 280.6 158.458C281.046 164.5 282.721 169.949 287.247 174.155C291.252 177.305 295.469 178.336 300.421 179.259C300.421 181.922 300.421 184.585 300.421 187.329C299.442 187.506 298.463 187.682 297.454 187.863C291.889 189.068 287.113 191.271 283.955 196.164C281.112 201.101 280.781 205.484 280.482 211.067C277.662 211.067 274.842 211.067 271.936 211.067C271.897 209.843 271.858 208.619 271.817 207.358C271.556 202.168 270.229 197.474 266.714 193.501C262.329 189.614 258.102 188.36 252.471 187.329C252.471 184.666 252.471 182.003 252.471 179.259C253.627 179.004 254.782 178.749 255.973 178.487C259.335 177.692 261.948 176.456 264.815 174.511C265.15 174.365 265.486 174.22 265.831 174.07C266.959 173.42 267.153 172.846 267.663 171.662C268.376 170.506 269.1 169.358 269.829 168.211C271.337 165.348 271.627 162.516 271.758 159.348C271.846 157.454 271.846 157.454 271.936 155.521ZM276.209 174.511C275.821 175.019 275.821 175.019 275.424 175.537C273.093 178.498 270.764 180.909 267.663 183.057C268.947 184.38 270.237 185.604 271.669 186.766C273.504 188.306 274.85 190.116 276.209 192.077C276.474 191.735 276.739 191.393 277.012 191.04C278.098 189.715 279.239 188.509 280.452 187.3C280.848 186.903 281.244 186.505 281.652 186.096C282.798 185.01 283.981 184.023 285.229 183.057C284.965 182.866 284.701 182.676 284.428 182.48C281.637 180.4 279.406 178.107 277.158 175.46C276.845 175.147 276.532 174.834 276.209 174.511Z" fill="white"/>
<path d="M82.9833 155.521C85.8033 155.521 88.6234 155.521 91.5289 155.521C91.6023 157.254 91.6023 157.254 91.6772 159.022C92.0351 165.235 93.7147 169.833 98.3238 174.185C102.131 177.378 106.194 178.248 110.994 179.259C110.994 181.922 110.994 184.585 110.994 187.329C109.829 187.594 108.663 187.858 107.463 188.131C103.186 189.165 99.6923 190.558 96.7512 193.976C96.5174 194.243 96.2836 194.511 96.0428 194.786C91.9806 199.748 91.7262 204.9 91.5289 211.067C88.7088 211.067 85.8888 211.067 82.9833 211.067C82.9441 210.019 82.9049 208.972 82.8646 207.892C82.4924 201.473 80.651 196.591 75.9213 192.196C72.1086 189.042 68.3592 188.26 63.5183 187.329C63.5183 184.666 63.5183 182.003 63.5183 179.259C64.6737 179.004 65.8292 178.749 67.0196 178.487C72.4112 177.183 76.4172 174.857 79.66 170.238C81.7281 166.488 82.5273 163.181 82.7756 158.933C82.8441 157.807 82.9127 156.681 82.9833 155.521ZM86.7813 174.511C86.6308 174.736 86.4802 174.96 86.3251 175.192C84.2902 178.075 81.8419 180.279 79.1852 182.582C78.8719 182.895 78.5586 183.208 78.2357 183.531C78.8372 183.999 79.441 184.463 80.0457 184.926C80.5497 185.314 80.5497 185.314 81.0639 185.71C82.0533 186.46 82.0533 186.46 83.458 186.855C83.7838 187.483 84.0979 188.117 84.4075 188.754C85.1658 189.735 85.9701 190.663 86.7813 191.602C88.4641 191.041 88.6935 190.588 89.6892 189.169C91.4293 186.84 93.4376 185.198 95.8017 183.531C95.4596 183.189 95.1175 182.847 94.765 182.495C92.1038 179.833 89.4425 177.172 86.7813 174.511Z" fill="white"/>
<path d="M256.269 76.7119C259.089 76.7119 261.909 76.7119 264.815 76.7119C264.854 77.8478 264.893 78.9836 264.933 80.1539C265.289 86.6368 267.328 91.3977 272.114 95.8505C275.694 98.7176 279.873 99.522 284.28 100.45C284.28 103.113 284.28 105.776 284.28 108.521C283.124 108.775 281.969 109.03 280.778 109.292C275.923 110.458 271.725 112.558 268.613 116.591C266.29 120.421 265.189 124.218 264.993 128.668C264.905 130.445 264.905 130.445 264.815 132.258C261.995 132.258 259.175 132.258 256.269 132.258C256.23 131.122 256.191 129.987 256.15 128.816C255.808 122.467 253.891 117.73 249.207 113.387C245.394 110.233 241.645 109.451 236.804 108.521C236.804 105.857 236.804 103.194 236.804 100.45C237.96 100.195 239.115 99.9405 240.306 99.6782C245.161 98.5117 249.359 96.4122 252.471 92.3788C254.794 88.549 255.895 84.7518 256.091 80.3023C256.179 78.525 256.179 78.525 256.269 76.7119ZM260.542 95.7021C260.169 96.1201 259.797 96.5381 259.413 96.9688C258.909 97.5259 258.405 98.0828 257.901 98.6397C257.657 98.9141 257.413 99.1886 257.162 99.4714C255.436 101.369 253.654 102.82 251.522 104.248C251.845 104.502 252.168 104.757 252.501 105.019C252.961 105.391 253.421 105.763 253.895 106.147C254.159 106.354 254.422 106.56 254.693 106.774C256.862 108.538 258.477 110.499 260.067 112.793C261.691 112.252 261.795 112.003 262.678 110.627C264.506 108.063 266.972 106.455 269.562 104.722C269.22 104.457 268.878 104.192 268.526 103.919C267.2 102.833 265.995 101.693 264.785 100.479C264.189 99.8854 264.189 99.8854 263.582 99.2795C262.495 98.1332 261.509 96.95 260.542 95.7021Z" fill="white"/>
<path d="M185.531 78.6106C188.168 83.1034 190.265 87.6062 191.91 92.5565C192.066 93.0241 192.223 93.4916 192.384 93.9734C195.839 104.735 195.916 116.359 191.139 126.68C189.481 129.843 187.442 132.455 185.056 135.106C183.354 134.379 182.194 133.365 180.872 132.08C180.295 131.531 180.295 131.531 179.705 130.971C178.884 129.884 178.884 129.884 178.932 128.872C179.359 127.985 179.359 127.985 180.397 126.798C184.66 121.855 186.343 115.056 186.139 108.635C185.423 100.378 182.972 92.9295 179.036 85.6633C178.409 84.3077 178.409 84.3077 178.409 82.4086C179.605 81.3924 179.605 81.3924 181.169 80.3909C181.681 80.0556 182.193 79.7202 182.721 79.3747C184.106 78.6106 184.106 78.6106 185.531 78.6106Z" fill="white"/>
</g>
<defs>
<linearGradient id="paint0_linear_60_74" x1="180.732" y1="0" x2="180.732" y2="261.558" gradientUnits="userSpaceOnUse">
<stop stop-color="#ED8229"/>
<stop offset="1" stop-color="#FAB83A"/>
</linearGradient>
<clipPath id="clip0_60_74">
<rect width="243.075" height="243.075" fill="white" transform="translate(59.2451 59.1455)"/>
</clipPath>
</defs>
</svg>
