<svg width="38" height="38" viewBox="0 0 38 38" fill="none" xmlns="http://www.w3.org/2000/svg">
<rect width="38" height="38" rx="12" fill="white"/>
<g clip-path="url(#clip0_211_9)">
<path d="M29.3593 9.00793C29.6927 9.27088 29.9079 9.65055 30 10.0625C30.0536 10.5945 30.0237 11.0872 29.7073 11.5342C29.6625 11.5886 29.6169 11.6424 29.5703 11.6953C29.5488 11.7214 29.5272 11.7474 29.505 11.7742C29.2544 12.0535 28.8749 12.2683 28.4971 12.3052C28.3983 12.309 28.2996 12.3115 28.2007 12.313C28.1455 12.3142 28.1455 12.3142 28.0892 12.3155C27.8436 12.3148 27.6976 12.2729 27.481 12.1492C27.321 12.0845 27.2201 12.0614 27.0559 12.122C26.7992 12.2522 26.5611 12.412 26.3227 12.5727C26.0465 12.7581 25.7601 12.925 25.4731 13.0929C25.3839 13.1453 25.2951 13.1984 25.2065 13.2516C24.96 13.3997 24.7144 13.5456 24.4585 13.6773C24.0964 13.8533 24.0964 13.8533 23.8823 14.1737C23.8578 14.3421 23.8578 14.3421 23.8582 14.5086C23.8513 14.8964 23.5833 15.2352 23.3399 15.5195C22.9457 15.8361 22.4634 16.0287 21.9541 16.0058C21.425 15.9449 20.9944 15.7512 20.6253 15.3626C20.4362 15.1193 20.2946 14.8365 20.2461 14.5313C20.1893 14.5134 20.1893 14.5134 20.1314 14.4951C20.0015 14.4499 19.884 14.3983 19.7614 14.3364C19.7182 14.3148 19.675 14.2931 19.6305 14.2708C19.5845 14.2474 19.5384 14.2241 19.491 14.2001C19.4428 14.1759 19.3947 14.1518 19.3452 14.1269C19.2175 14.0627 19.0899 13.9984 18.9624 13.9341C18.7837 13.8439 18.605 13.7539 18.4262 13.6641C18.3312 13.6164 18.2364 13.5685 18.1415 13.5206C18.0126 13.4558 17.8834 13.3917 17.7539 13.3281C17.7104 13.3065 17.667 13.2848 17.6222 13.2626C17.5803 13.2424 17.5385 13.2223 17.4955 13.2016C17.4583 13.1836 17.4212 13.1655 17.3829 13.1469C17.2685 13.1091 17.2203 13.1131 17.1094 13.1563C17.043 13.1958 16.9777 13.2371 16.9133 13.2798C16.5351 13.5102 16.1324 13.5964 15.6914 13.543C15.5438 13.5016 15.4012 13.4547 15.2579 13.4003C15.1011 13.3637 15.0572 13.3772 14.918 13.457C14.7981 13.5423 14.6835 13.6335 14.5689 13.7256C14.2956 13.9416 14.02 14.1535 13.739 14.3594C13.7052 14.3842 13.6713 14.4091 13.6364 14.4346C13.5337 14.5099 13.4309 14.585 13.3281 14.6602C12.7501 15.0832 12.1779 15.5134 11.6094 15.9492C11.6154 15.9745 11.6215 15.9997 11.6277 16.0257C11.7502 16.5528 11.7142 17.0536 11.4524 17.5374C11.1336 18.0198 10.7073 18.2999 10.1484 18.428C9.56363 18.4889 9.03668 18.3458 8.56666 17.9822C8.23757 17.6748 8.00745 17.232 7.98138 16.7807C7.98036 16.713 7.98032 16.6453 7.98121 16.5776C7.9816 16.5419 7.98198 16.5062 7.98238 16.4694C7.99645 15.9683 8.18014 15.5913 8.51563 15.2188C8.91091 14.8654 9.40359 14.685 9.9336 14.7031C10.1825 14.7403 10.4344 14.7797 10.659 14.8963C10.7882 14.9308 10.7882 14.9308 10.876 14.8753C10.9742 14.8041 11.0661 14.7283 11.1582 14.6494C11.2277 14.5926 11.2972 14.5359 11.3668 14.4792C11.4009 14.4512 11.435 14.4231 11.4701 14.3942C11.5962 14.2924 11.7262 14.1996 11.8591 14.1069C12.113 13.929 12.3596 13.7423 12.6057 13.5537C12.9073 13.3228 13.2102 13.094 13.5161 12.8689C13.549 12.8447 13.5819 12.8205 13.6159 12.7955C13.8054 12.6564 13.9959 12.519 14.1875 12.3828C14.1737 12.3335 14.1598 12.2841 14.1455 12.2333C14.0163 11.7134 14.0757 11.2031 14.3287 10.7334C14.5821 10.3176 14.9419 10.0415 15.399 9.88727C15.9207 9.76088 16.4433 9.82007 16.9125 10.0763C17.3419 10.3395 17.627 10.733 17.7647 11.2173C17.7891 11.3219 17.7962 11.4049 17.7895 11.513C17.7842 11.6605 17.7928 11.7697 17.8399 11.9102C18.0072 12.064 18.2033 12.1496 18.408 12.2425C18.4658 12.2705 18.5236 12.2987 18.5812 12.327C18.7327 12.4008 18.8851 12.4722 19.0379 12.5431C19.1939 12.616 19.3487 12.6912 19.5036 12.7662C19.8074 12.9128 20.1123 13.0568 20.418 13.1992C20.4408 13.1699 20.4637 13.1406 20.4872 13.1103C20.5328 13.0525 20.5328 13.0525 20.5793 12.9934C20.6092 12.9552 20.6392 12.917 20.67 12.8777C20.9263 12.5755 21.2783 12.3821 21.6641 12.2969C22.262 12.2607 22.717 12.3065 23.2121 12.672C23.3024 12.7301 23.3628 12.7542 23.4688 12.7695C23.5485 12.7417 23.5485 12.7417 23.6252 12.6896C23.6563 12.6704 23.6875 12.6512 23.7196 12.6315C23.7538 12.6097 23.788 12.5879 23.8232 12.5654C23.9001 12.5179 23.9771 12.4704 24.054 12.4229C24.097 12.3963 24.14 12.3696 24.1843 12.3422C24.4342 12.1888 24.6869 12.04 24.9393 11.8907C25.0828 11.8059 25.2262 11.7208 25.3696 11.6357C25.4105 11.6115 25.4105 11.6115 25.4523 11.5867C25.7514 11.4091 26.0496 11.23 26.3477 11.0508C26.3406 10.9958 26.3335 10.9409 26.3262 10.8843C26.2606 10.2666 26.3385 9.7457 26.7344 9.2461C27.4553 8.46229 28.5047 8.41207 29.3593 9.00793Z" fill="#356CF9"/>
<path d="M26.9997 15.9416C27.0555 15.941 27.1113 15.9405 27.1688 15.9399C27.23 15.9396 27.2913 15.9392 27.3526 15.939C27.3988 15.9387 27.3988 15.9387 27.446 15.9384C27.6093 15.9375 27.7726 15.9369 27.936 15.9365C28.1043 15.936 28.2725 15.9346 28.4408 15.9329C28.5705 15.9317 28.7002 15.9314 28.8299 15.9312C28.8919 15.931 28.9539 15.9305 29.0159 15.9297C29.6322 15.9223 29.6322 15.9223 29.8711 16.1211C29.9785 16.2721 30.0161 16.3755 30.0166 16.5601C30.017 16.6047 30.0174 16.6492 30.0178 16.6951C30.0175 16.7681 30.0175 16.7681 30.0172 16.8426C30.0175 16.8945 30.0178 16.9464 30.0181 16.9999C30.0188 17.1438 30.0189 17.2878 30.0187 17.4317C30.0187 17.587 30.0194 17.7423 30.02 17.8976C30.0211 18.2018 30.0215 18.506 30.0215 18.8102C30.0216 19.0575 30.0219 19.3048 30.0223 19.552C30.0234 20.2531 30.024 20.9541 30.0239 21.6551C30.0239 21.6929 30.0239 21.7307 30.0239 21.7696C30.0239 21.8075 30.0239 21.8453 30.0239 21.8843C30.0238 22.4976 30.025 23.1109 30.0269 23.7242C30.0287 24.3539 30.0296 24.9836 30.0295 25.6133C30.0295 25.9669 30.0298 26.3204 30.0312 26.674C30.0324 26.975 30.0326 27.2759 30.0318 27.5769C30.0314 27.7305 30.0313 27.884 30.0325 28.0376C30.0337 28.2041 30.0329 28.3706 30.0319 28.5371C30.0329 28.6098 30.0329 28.6098 30.0339 28.684C30.0303 28.9517 30.0007 29.1079 29.81 29.3019C29.6314 29.4429 29.439 29.4522 29.2193 29.4532C29.1678 29.4536 29.1163 29.454 29.0632 29.4544C28.9807 29.4544 28.9807 29.4544 28.8964 29.4543C28.8387 29.4545 28.7811 29.4547 28.7234 29.4549C28.6028 29.4552 28.4822 29.4552 28.3616 29.4549C28.2077 29.4547 28.0538 29.4554 27.8999 29.4564C27.7808 29.4571 27.6618 29.4571 27.5428 29.457C27.4586 29.457 27.3745 29.4576 27.2904 29.4582C26.9621 29.4565 26.7251 29.4443 26.4631 29.2319C26.3323 29.0672 26.294 28.9126 26.2937 28.7048C26.2935 28.6609 26.2932 28.6171 26.293 28.572C26.2932 28.5241 26.2933 28.4763 26.2935 28.427C26.2933 28.3759 26.2932 28.3248 26.293 28.2722C26.2926 28.1306 26.2926 27.9891 26.2928 27.8475C26.2929 27.6947 26.2925 27.542 26.2922 27.3892C26.2917 27.09 26.2916 26.7908 26.2917 26.4917C26.2918 26.2485 26.2917 26.0053 26.2915 25.7622C26.2915 25.7276 26.2915 25.693 26.2914 25.6573C26.2914 25.587 26.2913 25.5167 26.2913 25.4464C26.2908 24.7872 26.2909 24.128 26.2912 23.4687C26.2914 22.8655 26.2909 22.2624 26.2901 21.6592C26.2893 21.0399 26.2889 20.4206 26.2891 19.8013C26.2891 19.4536 26.289 19.1059 26.2884 18.7582C26.2879 18.4622 26.2879 18.1662 26.2884 17.8702C26.2886 17.7192 26.2887 17.5682 26.2882 17.4172C26.2876 17.2535 26.2881 17.0898 26.2886 16.9261C26.2883 16.8784 26.288 16.8306 26.2876 16.7814C26.2893 16.5441 26.2958 16.367 26.4336 16.164C26.6307 15.9861 26.7369 15.9438 26.9997 15.9416Z" fill="#356CF9"/>
<path d="M14.8758 17.1447C14.9541 17.1439 14.9541 17.1439 15.034 17.1431C15.0903 17.1428 15.1466 17.1424 15.2047 17.1421C15.2335 17.1419 15.2623 17.1418 15.2919 17.1416C15.4445 17.1407 15.597 17.1401 15.7495 17.1397C15.9063 17.1392 16.0631 17.1377 16.2199 17.136C16.3411 17.1349 16.4623 17.1345 16.5835 17.1344C16.6692 17.1341 16.7549 17.1329 16.8405 17.1318C17.1515 17.1325 17.362 17.1533 17.625 17.3242C17.7667 17.4751 17.8022 17.6139 17.8025 17.8173C17.8027 17.8569 17.8029 17.8965 17.803 17.9373C17.803 17.9809 17.8029 18.0245 17.8029 18.0694C17.803 18.1157 17.8032 18.1619 17.8033 18.2096C17.8037 18.3653 17.8037 18.5211 17.8038 18.6769C17.804 18.7882 17.8042 18.8996 17.8044 19.011C17.805 19.314 17.8053 19.6171 17.8055 19.9202C17.8056 20.1094 17.8058 20.2987 17.806 20.4879C17.8065 21.0117 17.8069 21.5355 17.8071 22.0594C17.8071 22.1097 17.8071 22.1097 17.8071 22.161C17.8071 22.2114 17.8071 22.2114 17.8071 22.2628C17.8072 22.3309 17.8072 22.399 17.8072 22.4671C17.8072 22.5009 17.8072 22.5347 17.8072 22.5695C17.8074 23.117 17.8081 23.6645 17.8091 24.2119C17.8102 24.7739 17.8107 25.3359 17.8108 25.8979C17.8108 26.2135 17.811 26.529 17.8118 26.8446C17.8125 27.1414 17.8126 27.4382 17.8122 27.735C17.8122 27.844 17.8124 27.953 17.8128 28.062C17.8134 28.2107 17.8131 28.3593 17.8127 28.508C17.8132 28.5729 17.8132 28.5729 17.8137 28.6392C17.8121 28.8668 17.7991 29.0316 17.668 29.2266C17.4516 29.3933 17.2965 29.4466 17.0268 29.4483C16.9745 29.4487 16.9221 29.4492 16.8682 29.4496C16.8115 29.4498 16.7549 29.45 16.6965 29.4501C16.6376 29.4504 16.5788 29.4506 16.52 29.4509C16.3966 29.4513 16.2732 29.4516 16.1498 29.4517C15.9923 29.452 15.8348 29.453 15.6773 29.4542C15.5557 29.455 15.4341 29.4553 15.3125 29.4553C15.2264 29.4555 15.1403 29.4563 15.0541 29.4571C14.777 29.4564 14.5578 29.4557 14.3164 29.3125C14.165 29.1492 14.0963 29.0439 14.0958 28.8234C14.0956 28.7835 14.0954 28.7437 14.0952 28.7027C14.0952 28.6586 14.0952 28.6146 14.0952 28.5692C14.0951 28.5226 14.0949 28.4761 14.0948 28.4281C14.0943 28.271 14.0941 28.1139 14.094 27.9569C14.0937 27.8446 14.0934 27.7324 14.0931 27.6202C14.0923 27.2828 14.0918 26.9453 14.0914 26.6078C14.0913 26.449 14.091 26.2901 14.0908 26.1312C14.0901 25.6033 14.0894 25.0753 14.0891 24.5473C14.089 24.4102 14.089 24.2732 14.0889 24.1361C14.0889 24.102 14.0888 24.068 14.0888 24.0329C14.0885 23.481 14.0874 22.929 14.086 22.3771C14.0846 21.8107 14.0838 21.2442 14.0836 20.6778C14.0836 20.3596 14.0832 20.0415 14.0821 19.7234C14.081 19.4242 14.0809 19.125 14.0813 18.8258C14.0814 18.7158 14.0811 18.6059 14.0805 18.496C14.0797 18.3461 14.08 18.1963 14.0806 18.0464C14.0801 18.0027 14.0797 17.9591 14.0792 17.9141C14.0815 17.6603 14.1065 17.5186 14.2734 17.3242C14.4595 17.1556 14.631 17.147 14.8758 17.1447Z" fill="#356CF9"/>
<path d="M20.9388 19.5947C20.993 19.5942 21.0472 19.5938 21.1031 19.5934C21.1623 19.5932 21.2216 19.593 21.2809 19.5928C21.3417 19.5926 21.4026 19.5924 21.4634 19.5921C21.5911 19.5917 21.7187 19.5914 21.8463 19.5913C22.0094 19.591 22.1725 19.59 22.3356 19.5888C22.4614 19.588 22.5871 19.5877 22.7128 19.5877C22.773 19.5875 22.8331 19.5872 22.8932 19.5866C22.9775 19.5859 23.0618 19.5861 23.1461 19.5863C23.194 19.5861 23.2419 19.5859 23.2913 19.5858C23.5025 19.6106 23.6411 19.6834 23.783 19.8406C23.9094 20.0233 23.9048 20.1642 23.9048 20.3808C23.9049 20.4174 23.9051 20.4539 23.9052 20.4916C23.9057 20.6148 23.9059 20.7381 23.9061 20.8613C23.9063 20.9494 23.9066 21.0374 23.9069 21.1255C23.9077 21.3653 23.9081 21.6051 23.9085 21.8449C23.9087 21.9946 23.9089 22.1444 23.9092 22.2941C23.91 22.7623 23.9106 23.2305 23.911 23.6987C23.9114 24.2397 23.9126 24.7806 23.9143 25.3215C23.9156 25.7393 23.9162 26.1571 23.9164 26.5749C23.9165 26.8246 23.9169 27.0743 23.9179 27.324C23.9189 27.5588 23.9191 27.7937 23.9187 28.0286C23.9187 28.1148 23.9189 28.2011 23.9195 28.2873C23.9203 28.405 23.92 28.5227 23.9194 28.6404C23.9199 28.6745 23.9203 28.7086 23.9208 28.7438C23.9182 28.967 23.8718 29.0911 23.7266 29.2695C23.5405 29.4382 23.369 29.4468 23.1242 29.449C23.0459 29.4499 23.0459 29.4499 22.966 29.4507C22.9097 29.451 22.8534 29.4513 22.7954 29.4517C22.7666 29.4518 22.7377 29.452 22.7081 29.4522C22.5556 29.4531 22.403 29.4537 22.2505 29.4541C22.0937 29.4546 21.9369 29.4561 21.7801 29.4578C21.6589 29.4589 21.5377 29.4592 21.4165 29.4594C21.3308 29.4597 21.2451 29.4608 21.1595 29.462C20.8485 29.4613 20.638 29.4405 20.375 29.2695C20.1914 29.074 20.1968 28.873 20.1971 28.6173C20.197 28.5811 20.1968 28.5448 20.1967 28.5075C20.1963 28.3856 20.1963 28.2636 20.1962 28.1417C20.196 28.0545 20.1958 27.9673 20.1956 27.88C20.195 27.6427 20.1947 27.4054 20.1945 27.1681C20.1944 27.0199 20.1942 26.8717 20.194 26.7235C20.1935 26.26 20.193 25.7966 20.1929 25.3331C20.1927 24.7977 20.1919 24.2623 20.1907 23.727C20.1897 23.3134 20.1893 22.8998 20.1893 22.4862C20.1892 22.239 20.189 21.9919 20.1882 21.7448C20.1875 21.5123 20.1874 21.2799 20.1878 21.0474C20.1878 20.9621 20.1876 20.8768 20.1872 20.7914C20.1866 20.675 20.1869 20.5585 20.1873 20.442C20.187 20.4083 20.1867 20.3745 20.1863 20.3397C20.1882 20.133 20.2223 19.9918 20.332 19.8164C20.5309 19.6325 20.6726 19.5963 20.9388 19.5947Z" fill="#356CF9"/>
<path d="M9.06095 22.0295C9.12253 22.0295 9.1841 22.0294 9.24567 22.0293C9.37429 22.0292 9.50288 22.0297 9.6315 22.0307C9.79587 22.0319 9.96021 22.0318 10.1246 22.0313C10.2516 22.031 10.3786 22.0313 10.5056 22.0319C10.5662 22.032 10.6268 22.0321 10.6873 22.0319C10.7722 22.0318 10.857 22.0326 10.9418 22.0334C10.9899 22.0336 11.038 22.0339 11.0876 22.0341C11.2974 22.06 11.4369 22.1326 11.5798 22.2871C11.6932 22.4551 11.7009 22.5815 11.7016 22.7797C11.7019 22.8332 11.7022 22.8868 11.7026 22.942C11.7027 23.0014 11.7028 23.0609 11.7029 23.1203C11.7032 23.1829 11.7035 23.2454 11.7038 23.3079C11.7047 23.5134 11.7051 23.7189 11.7055 23.9244C11.7057 23.9952 11.7059 24.066 11.7061 24.1368C11.7069 24.4695 11.7075 24.8022 11.7079 25.1348C11.7083 25.5186 11.7094 25.9023 11.7112 26.286C11.7125 26.5827 11.7131 26.8795 11.7132 27.1762C11.7133 27.3534 11.7137 27.5305 11.7148 27.7077C11.7158 27.8745 11.716 28.0412 11.7155 28.208C11.7155 28.2691 11.7158 28.3301 11.7164 28.3911C11.7195 28.7299 11.7134 28.9827 11.5234 29.2695C11.3206 29.4267 11.1323 29.4467 10.8814 29.4483C10.8299 29.4487 10.7784 29.4491 10.7253 29.4496C10.6421 29.4498 10.6421 29.4498 10.5571 29.4501C10.4993 29.4504 10.4415 29.4506 10.3837 29.4509C10.2626 29.4513 10.1415 29.4516 10.0204 29.4517C9.86583 29.452 9.71125 29.453 9.55666 29.4542C9.43726 29.455 9.31786 29.4552 9.19846 29.4553C9.11394 29.4555 9.02943 29.4563 8.94492 29.4571C8.59687 29.4562 8.37513 29.4455 8.10116 29.2182C7.92314 28.9954 7.97093 28.6916 7.97356 28.4214C7.97341 28.3565 7.97317 28.2916 7.97284 28.2267C7.97223 28.051 7.97296 27.8752 7.97397 27.6994C7.97483 27.5153 7.97458 27.3312 7.97448 27.1471C7.97448 26.838 7.97533 26.529 7.97671 26.2199C7.97829 25.8626 7.97867 25.5054 7.97837 25.1482C7.9781 24.8043 7.97856 24.4604 7.9794 24.1166C7.97975 23.9703 7.97987 23.8241 7.9798 23.6778C7.97976 23.5056 7.98037 23.3334 7.98149 23.1612C7.98179 23.098 7.98188 23.0348 7.98174 22.9716C7.98158 22.8854 7.98229 22.7991 7.98305 22.7128C7.98321 22.6645 7.98337 22.6163 7.98353 22.5666C8.00977 22.3609 8.09006 22.2546 8.2479 22.1246C8.49716 21.9954 8.7876 22.027 9.06095 22.0295Z" fill="#356CF9"/>
</g>
<defs>
<clipPath id="clip0_211_9">
<rect width="22" height="22" fill="white" transform="translate(8 8)"/>
</clipPath>
</defs>
</svg>
