<svg width="557" height="64" viewBox="0 0 557 64" fill="none" xmlns="http://www.w3.org/2000/svg">
<path d="M39.3276 14.0027C39.3276 16.5702 38.4214 18.7903 36.6091 20.663C34.7968 22.5056 32.1538 23.8346 28.6801 24.6501C30.5529 25.1636 31.9725 26.0094 32.9391 27.1874C33.9057 28.3352 34.389 29.6643 34.389 31.1745C34.389 33.5608 33.6338 35.6299 32.1236 37.3818C30.6435 39.1337 28.4687 40.4929 25.5992 41.4595C22.7297 42.3959 19.2711 42.8641 15.2236 42.8641C13.7133 42.8641 12.5051 42.8188 11.5989 42.7282C11.5687 43.5739 11.2062 44.2082 10.5115 44.6311C9.81679 45.054 8.92573 45.2654 7.83833 45.2654C6.75093 45.2654 5.9958 45.0238 5.57292 44.5405C5.18025 44.0572 5.01412 43.3474 5.07453 42.411C5.34638 38.1822 5.87497 33.7571 6.66032 29.1357C7.44566 24.484 8.44244 19.9985 9.65066 15.6791C9.8621 14.924 10.285 14.3954 10.9193 14.0933C11.5536 13.7913 12.3843 13.6402 13.4112 13.6402C15.2538 13.6402 16.1751 14.1537 16.1751 15.1807C16.1751 15.6036 16.0844 16.0869 15.9032 16.6306C15.1179 18.9866 14.3325 22.1884 13.5472 26.2359C12.7618 30.2533 12.203 34.0894 11.8708 37.7442C13.3206 37.8651 14.4986 37.9255 15.4048 37.9255C19.6336 37.9255 22.7297 37.3214 24.693 36.1131C26.6866 34.8747 27.6834 33.304 27.6834 31.4011C27.6834 30.072 27.1095 28.9544 25.9616 28.0483C24.844 27.1421 22.9562 26.6437 20.2981 26.5531C19.694 26.5229 19.2711 26.3719 19.0295 26.1C18.7878 25.8282 18.667 25.3902 18.667 24.7861C18.667 23.9101 18.8482 23.2003 19.2107 22.6566C19.5732 22.1129 20.2377 21.8259 21.2043 21.7957C23.3489 21.7353 25.282 21.4182 27.0037 20.8443C28.7557 20.2703 30.13 19.4699 31.1268 18.4429C32.1236 17.3857 32.622 16.1624 32.622 14.7729C32.622 13.021 31.7611 11.6467 30.0394 10.6499C28.3177 9.6229 25.6747 9.10941 22.1104 9.10941C18.8784 9.10941 15.7522 9.53229 12.7316 10.378C9.71107 11.1936 7.1436 12.2357 5.02922 13.5043C4.06264 14.0782 3.24709 14.3652 2.58257 14.3652C2.03887 14.3652 1.616 14.1839 1.31394 13.8215C1.04209 13.4288 0.906166 12.9455 0.906166 12.3716C0.906166 11.6165 1.05719 10.967 1.35925 10.4233C1.69151 9.87965 2.46175 9.26044 3.66997 8.56571C6.20723 7.11585 9.18248 5.98314 12.5957 5.16759C16.0089 4.35204 19.4977 3.94427 23.0619 3.94427C28.5291 3.94427 32.6069 4.86553 35.2951 6.70807C37.9834 8.55061 39.3276 10.9822 39.3276 14.0027ZM54.279 34.2555C54.6716 34.2555 54.9737 34.4367 55.1851 34.7992C55.4268 35.1617 55.5476 35.6601 55.5476 36.2944C55.5476 37.3818 55.2908 38.3181 54.7773 39.1035C53.9316 40.4023 52.814 41.4142 51.4245 42.1391C50.0653 42.8641 48.4342 43.2265 46.5312 43.2265C43.6315 43.2265 41.3812 42.3657 39.7803 40.644C38.1794 38.892 37.379 36.536 37.379 33.5759C37.379 31.4917 37.8169 29.5585 38.6929 27.7764C39.5689 25.9641 40.7771 24.5293 42.3176 23.4721C43.8883 22.4149 45.6553 21.8863 47.6186 21.8863C49.3706 21.8863 50.7751 22.4149 51.8323 23.4721C52.8895 24.4991 53.4181 25.9037 53.4181 27.6858C53.4181 29.77 52.663 31.5672 51.1527 33.0775C49.6726 34.5576 47.1354 35.7356 43.5409 36.6115C44.2658 38.001 45.4892 38.6957 47.2109 38.6957C48.4493 38.6957 49.4612 38.4088 50.2465 37.8349C51.0621 37.261 51.9984 36.2944 53.0556 34.9351C53.4181 34.482 53.8259 34.2555 54.279 34.2555ZM46.8484 26.3266C45.7308 26.3266 44.7793 26.976 43.994 28.2748C43.2388 29.5736 42.8613 31.1443 42.8613 32.9869V33.0775C44.6434 32.6546 46.048 32.0203 47.0749 31.1745C48.1019 30.3288 48.6154 29.3471 48.6154 28.2295C48.6154 27.6556 48.4493 27.2025 48.117 26.8703C47.815 26.5078 47.3921 26.3266 46.8484 26.3266ZM88.8846 32.8963C89.2772 32.8963 89.5793 33.0775 89.7907 33.44C90.0324 33.8024 90.1532 34.3008 90.1532 34.9351C90.1532 36.1433 89.8662 37.0797 89.2923 37.7442C87.9935 39.3451 86.5738 40.6591 85.0334 41.6861C83.4929 42.713 81.7259 43.2265 79.7323 43.2265C73.5704 43.2265 70.4894 38.892 70.4894 30.2231C70.4894 28.894 70.5347 27.5499 70.6253 26.1906H68.8583C67.9521 26.1906 67.3329 26.0245 67.0007 25.6922C66.6986 25.36 66.5476 24.8314 66.5476 24.1064C66.5476 22.4149 67.2272 21.5692 68.5865 21.5692H71.169C71.6825 18.2466 72.4679 15.2109 73.5251 12.4622C74.5823 9.71352 75.8509 7.52362 77.331 5.89252C78.8412 4.26142 80.4572 3.44588 82.1789 3.44588C83.4476 3.44588 84.4444 4.00468 85.1693 5.12228C85.8942 6.23989 86.2567 7.64444 86.2567 9.33595C86.2567 14.0178 84.2933 18.0956 80.3666 21.5692H85.4411C85.9244 21.5692 86.2718 21.6749 86.4832 21.8863C86.6947 22.0978 86.8004 22.4905 86.8004 23.0644C86.8004 25.1485 85.0938 26.1906 81.6806 26.1906H76.1529C76.0925 27.7009 76.0623 28.8789 76.0623 29.7247C76.0623 32.866 76.4248 35.0711 77.1497 36.3397C77.9049 37.6083 79.0829 38.2426 80.6838 38.2426C81.9826 38.2426 83.1304 37.85 84.1272 37.0646C85.124 36.2793 86.302 35.1013 87.6612 33.5306C88.0237 33.1077 88.4315 32.8963 88.8846 32.8963ZM80.9556 7.79547C80.5025 7.79547 79.989 8.36938 79.4151 9.51719C78.8714 10.6348 78.3428 12.2055 77.8293 14.2292C77.3461 16.2228 76.9383 18.4429 76.606 20.8896C78.3882 19.3491 79.7172 17.6274 80.5932 15.7244C81.4993 13.7913 81.9524 12.0393 81.9524 10.4687C81.9524 8.68653 81.6201 7.79547 80.9556 7.79547ZM111.61 32.8963C112.003 32.8963 112.305 33.0775 112.516 33.44C112.758 33.8024 112.879 34.3008 112.879 34.9351C112.879 36.1433 112.592 37.0797 112.018 37.7442C110.629 39.3451 109.194 40.6591 107.714 41.6861C106.264 42.713 104.603 43.2265 102.73 43.2265C101.189 43.2265 100.026 42.7886 99.241 41.9126C98.4557 41.0064 98.063 39.7076 98.063 38.0161C98.063 37.1703 98.2745 35.6601 98.6973 33.4853C99.09 31.5823 99.2864 30.2684 99.2864 29.5434C99.2864 29.0602 99.1202 28.8185 98.788 28.8185C98.3953 28.8185 97.8365 29.332 97.1116 30.359C96.3866 31.3558 95.6617 32.6848 94.9368 34.3461C94.2118 36.0074 93.6228 37.7593 93.1697 39.6019C92.5958 42.0183 91.1762 43.2265 88.9108 43.2265C88.0046 43.2265 87.4005 42.9094 87.0984 42.2751C86.8266 41.6105 86.6907 40.4325 86.6907 38.741C86.6907 37.7744 86.7058 37.0042 86.736 36.4303L86.7813 32.8056C86.7813 28.154 87.2495 23.306 88.1858 18.2617C89.1524 13.2174 90.557 8.98859 92.3995 5.57536C94.2722 2.13194 96.5074 0.41022 99.1051 0.41022C100.495 0.41022 101.612 1.01433 102.458 2.22255C103.334 3.40057 103.772 4.94105 103.772 6.844C103.772 9.89475 102.881 13.0663 101.099 16.3587C99.3166 19.6209 96.4168 23.4419 92.3995 27.8217C92.3089 29.3924 92.2636 31.0084 92.2636 32.6697C93.2604 30.1022 94.3629 28.0181 95.5711 26.4172C96.8095 24.7861 98.0177 23.6232 99.1957 22.9284C100.404 22.2337 101.506 21.8863 102.503 21.8863C104.467 21.8863 105.448 22.868 105.448 24.8314C105.448 26.0094 105.116 28.1389 104.451 31.2198C103.878 33.8477 103.591 35.5845 103.591 36.4303C103.591 37.6385 104.029 38.2426 104.905 38.2426C105.509 38.2426 106.219 37.8802 107.034 37.1552C107.88 36.4001 108.997 35.1919 110.387 33.5306C110.749 33.1077 111.157 32.8963 111.61 32.8963ZM98.1536 4.89574C97.6099 4.89574 97.0058 5.68108 96.3413 7.25177C95.6768 8.79225 95.0274 10.8915 94.3931 13.5496C93.7889 16.1775 93.2906 19.047 92.8979 22.1582C94.7706 19.9532 96.3111 17.5519 97.5193 14.9542C98.7578 12.3565 99.377 10.0005 99.377 7.88609C99.377 6.91951 99.2713 6.17947 99.0598 5.66598C98.8484 5.15249 98.5463 4.89574 98.1536 4.89574ZM125.427 34.2555C125.82 34.2555 126.122 34.4367 126.333 34.7992C126.575 35.1617 126.696 35.6601 126.696 36.2944C126.696 37.3818 126.439 38.3181 125.925 39.1035C125.08 40.4023 123.962 41.4142 122.573 42.1391C121.213 42.8641 119.582 43.2265 117.679 43.2265C114.78 43.2265 112.529 42.3657 110.928 40.644C109.328 38.892 108.527 36.536 108.527 33.5759C108.527 31.4917 108.965 29.5585 109.841 27.7764C110.717 25.9641 111.925 24.5293 113.466 23.4721C115.036 22.4149 116.803 21.8863 118.767 21.8863C120.519 21.8863 121.923 22.4149 122.98 23.4721C124.038 24.4991 124.566 25.9037 124.566 27.6858C124.566 29.77 123.811 31.5672 122.301 33.0775C120.821 34.5576 118.283 35.7356 114.689 36.6115C115.414 38.001 116.637 38.6957 118.359 38.6957C119.597 38.6957 120.609 38.4088 121.395 37.8349C122.21 37.261 123.147 36.2944 124.204 34.9351C124.566 34.482 124.974 34.2555 125.427 34.2555ZM117.997 26.3266C116.879 26.3266 115.927 26.976 115.142 28.2748C114.387 29.5736 114.009 31.1443 114.009 32.9869V33.0775C115.792 32.6546 117.196 32.0203 118.223 31.1745C119.25 30.3288 119.764 29.3471 119.764 28.2295C119.764 27.6556 119.597 27.2025 119.265 26.8703C118.963 26.5078 118.54 26.3266 117.997 26.3266ZM148.479 43.2265C145.519 43.2265 143.208 42.3959 141.547 40.7346C139.916 39.0431 139.1 36.823 139.1 34.0743C139.1 31.6276 139.584 29.483 140.55 27.6405C141.517 25.798 142.77 24.3783 144.311 23.3815C145.851 22.3847 147.467 21.8863 149.159 21.8863C150.82 21.8863 152.104 22.3847 153.01 23.3815C153.946 24.3481 154.414 25.6016 154.414 27.1421C154.414 28.4107 154.128 29.483 153.554 30.359C153.01 31.235 152.285 31.6729 151.379 31.6729C150.805 31.6729 150.337 31.537 149.974 31.2652C149.642 30.9933 149.476 30.6157 149.476 30.1324C149.476 29.921 149.506 29.6794 149.566 29.4075C149.627 29.1357 149.672 28.9393 149.702 28.8185C149.853 28.3654 149.929 27.9425 149.929 27.5499C149.929 27.1572 149.823 26.8552 149.612 26.6437C149.431 26.4323 149.159 26.3266 148.796 26.3266C148.102 26.3266 147.452 26.6437 146.848 27.278C146.244 27.8821 145.761 28.7128 145.398 29.77C145.036 30.8272 144.854 31.9901 144.854 33.2587C144.854 36.7626 146.38 38.5145 149.431 38.5145C150.669 38.5145 151.998 38.1067 153.418 37.2912C154.868 36.4454 156.287 35.1919 157.677 33.5306C158.039 33.1077 158.447 32.8963 158.9 32.8963C159.293 32.8963 159.595 33.0775 159.806 33.44C160.048 33.8024 160.169 34.3008 160.169 34.9351C160.169 36.0829 159.882 37.0193 159.308 37.7442C157.888 39.4962 156.182 40.8554 154.188 41.822C152.225 42.7584 150.322 43.2265 148.479 43.2265ZM181.652 32.8963C182.045 32.8963 182.347 33.0775 182.558 33.44C182.8 33.8024 182.921 34.3008 182.921 34.9351C182.921 36.1433 182.634 37.0797 182.06 37.7442C180.671 39.3451 179.236 40.6591 177.756 41.6861C176.306 42.713 174.645 43.2265 172.772 43.2265C171.231 43.2265 170.068 42.7886 169.283 41.9126C168.498 41.0064 168.105 39.7076 168.105 38.0161C168.105 37.1703 168.316 35.6601 168.739 33.4853C169.132 31.5823 169.328 30.2684 169.328 29.5434C169.328 29.0602 169.162 28.8185 168.83 28.8185C168.437 28.8185 167.878 29.332 167.154 30.359C166.429 31.3558 165.704 32.6848 164.979 34.3461C164.254 36.0074 163.665 37.7593 163.212 39.6019C162.638 42.0183 161.218 43.2265 158.953 43.2265C158.047 43.2265 157.442 42.9094 157.14 42.2751C156.869 41.6105 156.733 40.4325 156.733 38.741C156.733 37.7744 156.748 37.0042 156.778 36.4303L156.823 32.8056C156.823 28.154 157.291 23.306 158.228 18.2617C159.194 13.2174 160.599 8.98859 162.441 5.57536C164.314 2.13194 166.549 0.41022 169.147 0.41022C170.537 0.41022 171.654 1.01433 172.5 2.22255C173.376 3.40057 173.814 4.94105 173.814 6.844C173.814 9.89475 172.923 13.0663 171.141 16.3587C169.359 19.6209 166.459 23.4419 162.441 27.8217C162.351 29.3924 162.306 31.0084 162.306 32.6697C163.302 30.1022 164.405 28.0181 165.613 26.4172C166.851 24.7861 168.06 23.6232 169.238 22.9284C170.446 22.2337 171.548 21.8863 172.545 21.8863C174.509 21.8863 175.49 22.868 175.49 24.8314C175.49 26.0094 175.158 28.1389 174.493 31.2198C173.92 33.8477 173.633 35.5845 173.633 36.4303C173.633 37.6385 174.071 38.2426 174.947 38.2426C175.551 38.2426 176.261 37.8802 177.076 37.1552C177.922 36.4001 179.039 35.1919 180.429 33.5306C180.791 33.1077 181.199 32.8963 181.652 32.8963ZM168.196 4.89574C167.652 4.89574 167.048 5.68108 166.383 7.25177C165.719 8.79225 165.069 10.8915 164.435 13.5496C163.831 16.1775 163.333 19.047 162.94 22.1582C164.813 19.9532 166.353 17.5519 167.561 14.9542C168.8 12.3565 169.419 10.0005 169.419 7.88609C169.419 6.91951 169.313 6.17947 169.102 5.66598C168.89 5.15249 168.588 4.89574 168.196 4.89574ZM184.822 43.2265C182.949 43.2265 181.454 42.5469 180.336 41.1877C179.219 39.8284 178.66 38.0463 178.66 35.8413C178.66 33.4249 179.219 31.1443 180.336 28.9997C181.454 26.8249 182.934 25.0881 184.776 23.7893C186.649 22.4602 188.628 21.7957 190.712 21.7957C191.376 21.7957 191.814 21.9317 192.026 22.2035C192.267 22.4451 192.464 22.8982 192.615 23.5627C193.249 23.4419 193.914 23.3815 194.608 23.3815C196.088 23.3815 196.828 23.9101 196.828 24.9673C196.828 25.6016 196.602 27.1119 196.149 29.4981C195.454 32.9718 195.107 35.3882 195.107 36.7475C195.107 37.2005 195.212 37.563 195.424 37.8349C195.665 38.1067 195.967 38.2426 196.33 38.2426C196.904 38.2426 197.599 37.8802 198.414 37.1552C199.23 36.4001 200.332 35.1919 201.722 33.5306C202.084 33.1077 202.492 32.8963 202.945 32.8963C203.338 32.8963 203.64 33.0775 203.851 33.44C204.093 33.8024 204.214 34.3008 204.214 34.9351C204.214 36.1433 203.927 37.0797 203.353 37.7442C202.114 39.2847 200.8 40.5836 199.411 41.6408C198.021 42.6979 196.677 43.2265 195.378 43.2265C194.382 43.2265 193.46 42.8943 192.615 42.2298C191.799 41.535 191.18 40.5987 190.757 39.4206C189.186 41.9579 187.208 43.2265 184.822 43.2265ZM186.453 38.6504C187.117 38.6504 187.752 38.2577 188.356 37.4724C188.96 36.687 189.398 35.645 189.67 34.3461L191.346 26.0094C190.077 26.0396 188.899 26.5229 187.812 27.4593C186.755 28.3654 185.909 29.5736 185.275 31.0839C184.64 32.5942 184.323 34.1951 184.323 35.8866C184.323 36.823 184.504 37.5177 184.867 37.9708C185.26 38.4239 185.788 38.6504 186.453 38.6504ZM203.748 43.2265C202.6 43.2265 201.785 42.6224 201.301 41.4142C200.848 40.206 200.622 38.2728 200.622 35.6148C200.622 31.688 201.181 27.9577 202.298 24.4236C202.57 23.5476 203.008 22.9133 203.612 22.5207C204.247 22.0978 205.122 21.8863 206.24 21.8863C206.844 21.8863 207.267 21.9619 207.509 22.1129C207.75 22.2639 207.871 22.5509 207.871 22.9737C207.871 23.457 207.645 24.5444 207.192 26.2359C206.889 27.4442 206.648 28.5014 206.467 29.4075C206.285 30.3137 206.134 31.4313 206.014 32.7603C207.01 30.1627 208.128 28.0483 209.366 26.4172C210.605 24.7861 211.813 23.6232 212.991 22.9284C214.199 22.2337 215.302 21.8863 216.299 21.8863C218.262 21.8863 219.244 22.868 219.244 24.8314C219.244 26.0094 218.911 28.1389 218.247 31.2198C217.673 33.8477 217.386 35.5845 217.386 36.4303C217.386 37.6385 217.824 38.2426 218.7 38.2426C219.304 38.2426 220.014 37.8802 220.829 37.1552C221.675 36.4001 222.793 35.1919 224.182 33.5306C224.545 33.1077 224.952 32.8963 225.405 32.8963C225.798 32.8963 226.1 33.0775 226.312 33.44C226.553 33.8024 226.674 34.3008 226.674 34.9351C226.674 36.1433 226.387 37.0797 225.813 37.7442C224.514 39.3451 223.11 40.6591 221.6 41.6861C220.12 42.713 218.428 43.2265 216.525 43.2265C214.985 43.2265 213.822 42.7886 213.036 41.9126C212.251 41.0064 211.858 39.7076 211.858 38.0161C211.858 37.1703 212.07 35.6601 212.493 33.4853C212.885 31.5823 213.082 30.2684 213.082 29.5434C213.082 29.0602 212.915 28.8185 212.583 28.8185C212.191 28.8185 211.632 29.332 210.907 30.359C210.212 31.3558 209.487 32.6848 208.732 34.3461C208.007 36.0074 207.418 37.7593 206.965 39.6019C206.633 41.0215 206.24 41.9881 205.787 42.5016C205.364 42.9849 204.684 43.2265 203.748 43.2265ZM246.206 32.9869C246.599 32.9869 246.901 33.1832 247.112 33.5759C247.354 33.9383 247.475 34.4065 247.475 34.9804C247.475 35.6752 247.369 36.2189 247.158 36.6115C246.946 37.0042 246.614 37.3516 246.161 37.6536C243.563 39.4055 241.66 40.7044 240.452 41.5501L237.552 43.4984C236.405 49.7509 234.894 54.6593 233.022 58.2236C231.179 61.818 228.823 63.6153 225.953 63.6153C224.413 63.6153 223.159 63.132 222.193 62.1654C221.226 61.229 220.743 59.9906 220.743 58.4501C220.743 56.3055 221.589 53.9948 223.28 51.518C224.972 49.0713 228.143 46.0508 232.795 42.4563L233.067 40.6893C232.553 41.5048 231.874 42.1391 231.028 42.5922C230.212 43.0151 229.397 43.2265 228.581 43.2265C226.709 43.2265 225.213 42.5469 224.096 41.1877C222.978 39.8284 222.419 38.0463 222.419 35.8413C222.419 33.4249 222.978 31.1443 224.096 28.9997C225.213 26.8249 226.693 25.0881 228.536 23.7893C230.409 22.4602 232.387 21.7957 234.471 21.7957C235.136 21.7957 235.574 21.9317 235.785 22.2035C236.027 22.4451 236.223 22.8982 236.374 23.5627C236.948 23.4419 237.613 23.3815 238.368 23.3815C239.123 23.3815 239.652 23.5023 239.954 23.744C240.286 23.9554 240.452 24.3934 240.452 25.0579C240.452 25.4204 240.437 25.7073 240.407 25.9188C240.286 26.8552 239.908 29.2263 239.274 33.0322C239.153 33.7571 239.017 34.5576 238.866 35.4335C238.745 36.2793 238.61 37.1854 238.459 38.152C240.784 36.3397 243.02 34.7388 245.164 33.3493C245.557 33.1077 245.904 32.9869 246.206 32.9869ZM230.212 38.6504C230.907 38.6504 231.572 38.2275 232.206 37.3818C232.84 36.536 233.293 35.3278 233.565 33.7571L235.015 26.0094C233.777 26.0396 232.629 26.5229 231.572 27.4593C230.514 28.3654 229.669 29.5736 229.034 31.0839C228.4 32.5942 228.083 34.1951 228.083 35.8866C228.083 36.823 228.264 37.5177 228.627 37.9708C229.019 38.4239 229.548 38.6504 230.212 38.6504ZM226.452 59.2204C227.207 59.2204 228.053 58.3142 228.989 56.5019C229.956 54.6895 230.877 51.8049 231.753 47.848C229.427 49.8415 227.751 51.6388 226.724 53.2397C225.697 54.8406 225.183 56.2451 225.183 57.4533C225.183 57.9668 225.274 58.3897 225.455 58.722C225.666 59.0542 225.999 59.2204 226.452 59.2204ZM260.909 34.2555C261.302 34.2555 261.604 34.4367 261.816 34.7992C262.057 35.1617 262.178 35.6601 262.178 36.2944C262.178 37.3818 261.921 38.3181 261.408 39.1035C260.562 40.4023 259.444 41.4142 258.055 42.1391C256.696 42.8641 255.065 43.2265 253.162 43.2265C250.262 43.2265 248.012 42.3657 246.411 40.644C244.81 38.892 244.009 36.536 244.009 33.5759C244.009 31.4917 244.447 29.5585 245.323 27.7764C246.199 25.9641 247.408 24.5293 248.948 23.4721C250.519 22.4149 252.286 21.8863 254.249 21.8863C256.001 21.8863 257.406 22.4149 258.463 23.4721C259.52 24.4991 260.049 25.9037 260.049 27.6858C260.049 29.77 259.293 31.5672 257.783 33.0775C256.303 34.5576 253.766 35.7356 250.171 36.6115C250.896 38.001 252.12 38.6957 253.841 38.6957C255.08 38.6957 256.092 38.4088 256.877 37.8349C257.693 37.261 258.629 36.2944 259.686 34.9351C260.049 34.482 260.456 34.2555 260.909 34.2555ZM253.479 26.3266C252.361 26.3266 251.41 26.976 250.624 28.2748C249.869 29.5736 249.492 31.1443 249.492 32.9869V33.0775C251.274 32.6546 252.678 32.0203 253.705 31.1745C254.732 30.3288 255.246 29.3471 255.246 28.2295C255.246 27.6556 255.08 27.2025 254.748 26.8703C254.445 26.5078 254.023 26.3266 253.479 26.3266ZM266.077 50.1587C265.413 50.1587 264.884 50.0077 264.491 49.7056C264.099 49.4036 263.902 48.9203 263.902 48.2558C263.902 47.9839 263.948 47.6668 264.038 47.3043C264.37 45.9148 264.612 44.6311 264.763 43.4531C264.944 42.2751 265.035 40.9611 265.035 39.5113C265.035 38.001 265.382 36.8381 266.077 36.0225C266.802 35.207 267.723 34.7992 268.841 34.7992C269.928 34.7992 270.744 35.1013 271.288 35.7054C271.861 36.2793 272.148 37.0646 272.148 38.0614C272.148 39.1186 271.831 40.5231 271.197 42.2751C270.563 44.027 269.792 45.7336 268.886 47.3949C268.282 48.5125 267.799 49.2525 267.436 49.615C267.104 49.9775 266.651 50.1587 266.077 50.1587ZM326.132 14.0027C326.132 16.5702 325.226 18.7903 323.414 20.663C321.602 22.5056 318.959 23.8346 315.485 24.6501C317.358 25.1636 318.777 26.0094 319.744 27.1874C320.711 28.3352 321.194 29.6643 321.194 31.1745C321.194 33.5608 320.439 35.6299 318.928 37.3818C317.448 39.1337 315.274 40.4929 312.404 41.4595C309.535 42.3959 306.076 42.8641 302.028 42.8641C300.518 42.8641 299.31 42.8188 298.404 42.7282C298.374 43.5739 298.011 44.2082 297.316 44.6311C296.622 45.054 295.731 45.2654 294.643 45.2654C293.556 45.2654 292.801 45.0238 292.378 44.5405C291.985 44.0572 291.819 43.3474 291.879 42.411C292.151 38.1822 292.68 33.7571 293.465 29.1357C294.251 24.484 295.247 19.9985 296.456 15.6791C296.667 14.924 297.09 14.3954 297.724 14.0933C298.359 13.7913 299.189 13.6402 300.216 13.6402C302.059 13.6402 302.98 14.1537 302.98 15.1807C302.98 15.6036 302.889 16.0869 302.708 16.6306C301.923 18.9866 301.137 22.1884 300.352 26.2359C299.567 30.2533 299.008 34.0894 298.676 37.7442C300.126 37.8651 301.304 37.9255 302.21 37.9255C306.438 37.9255 309.535 37.3214 311.498 36.1131C313.491 34.8747 314.488 33.304 314.488 31.4011C314.488 30.072 313.914 28.9544 312.767 28.0483C311.649 27.1421 309.761 26.6437 307.103 26.5531C306.499 26.5229 306.076 26.3719 305.834 26.1C305.593 25.8282 305.472 25.3902 305.472 24.7861C305.472 23.9101 305.653 23.2003 306.016 22.6566C306.378 22.1129 307.043 21.8259 308.009 21.7957C310.154 21.7353 312.087 21.4182 313.809 20.8443C315.561 20.2703 316.935 19.4699 317.932 18.4429C318.928 17.3857 319.427 16.1624 319.427 14.7729C319.427 13.021 318.566 11.6467 316.844 10.6499C315.123 9.6229 312.48 9.10941 308.915 9.10941C305.683 9.10941 302.557 9.53229 299.537 10.378C296.516 11.1936 293.949 12.2357 291.834 13.5043C290.868 14.0782 290.052 14.3652 289.387 14.3652C288.844 14.3652 288.421 14.1839 288.119 13.8215C287.847 13.4288 287.711 12.9455 287.711 12.3716C287.711 11.6165 287.862 10.967 288.164 10.4233C288.496 9.87965 289.267 9.26044 290.475 8.56571C293.012 7.11585 295.987 5.98314 299.401 5.16759C302.814 4.35204 306.303 3.94427 309.867 3.94427C315.334 3.94427 319.412 4.86553 322.1 6.70807C324.788 8.55061 326.132 10.9822 326.132 14.0027ZM341.084 34.2555C341.477 34.2555 341.779 34.4367 341.99 34.7992C342.232 35.1617 342.353 35.6601 342.353 36.2944C342.353 37.3818 342.096 38.3181 341.582 39.1035C340.737 40.4023 339.619 41.4142 338.229 42.1391C336.87 42.8641 335.239 43.2265 333.336 43.2265C330.436 43.2265 328.186 42.3657 326.585 40.644C324.984 38.892 324.184 36.536 324.184 33.5759C324.184 31.4917 324.622 29.5585 325.498 27.7764C326.374 25.9641 327.582 24.5293 329.122 23.4721C330.693 22.4149 332.46 21.8863 334.424 21.8863C336.175 21.8863 337.58 22.4149 338.637 23.4721C339.694 24.4991 340.223 25.9037 340.223 27.6858C340.223 29.77 339.468 31.5672 337.958 33.0775C336.478 34.5576 333.94 35.7356 330.346 36.6115C331.071 38.001 332.294 38.6957 334.016 38.6957C335.254 38.6957 336.266 38.4088 337.051 37.8349C337.867 37.261 338.803 36.2944 339.861 34.9351C340.223 34.482 340.631 34.2555 341.084 34.2555ZM333.653 26.3266C332.536 26.3266 331.584 26.976 330.799 28.2748C330.044 29.5736 329.666 31.1443 329.666 32.9869V33.0775C331.448 32.6546 332.853 32.0203 333.88 31.1745C334.907 30.3288 335.42 29.3471 335.42 28.2295C335.42 27.6556 335.254 27.2025 334.922 26.8703C334.62 26.5078 334.197 26.3266 333.653 26.3266ZM375.689 32.8963C376.082 32.8963 376.384 33.0775 376.596 33.44C376.837 33.8024 376.958 34.3008 376.958 34.9351C376.958 36.1433 376.671 37.0797 376.097 37.7442C374.798 39.3451 373.379 40.6591 371.838 41.6861C370.298 42.713 368.531 43.2265 366.537 43.2265C360.375 43.2265 357.294 38.892 357.294 30.2231C357.294 28.894 357.34 27.5499 357.43 26.1906H355.663C354.757 26.1906 354.138 26.0245 353.806 25.6922C353.504 25.36 353.352 24.8314 353.352 24.1064C353.352 22.4149 354.032 21.5692 355.391 21.5692H357.974C358.487 18.2466 359.273 15.2109 360.33 12.4622C361.387 9.71352 362.656 7.52362 364.136 5.89252C365.646 4.26142 367.262 3.44588 368.984 3.44588C370.252 3.44588 371.249 4.00468 371.974 5.12228C372.699 6.23989 373.062 7.64444 373.062 9.33595C373.062 14.0178 371.098 18.0956 367.172 21.5692H372.246C372.729 21.5692 373.077 21.6749 373.288 21.8863C373.5 22.0978 373.605 22.4905 373.605 23.0644C373.605 25.1485 371.899 26.1906 368.485 26.1906H362.958C362.897 27.7009 362.867 28.8789 362.867 29.7247C362.867 32.866 363.23 35.0711 363.955 36.3397C364.71 37.6083 365.888 38.2426 367.489 38.2426C368.788 38.2426 369.935 37.85 370.932 37.0646C371.929 36.2793 373.107 35.1013 374.466 33.5306C374.829 33.1077 375.236 32.8963 375.689 32.8963ZM367.761 7.79547C367.307 7.79547 366.794 8.36938 366.22 9.51719C365.676 10.6348 365.148 12.2055 364.634 14.2292C364.151 16.2228 363.743 18.4429 363.411 20.8896C365.193 19.3491 366.522 17.6274 367.398 15.7244C368.304 13.7913 368.757 12.0393 368.757 10.4687C368.757 8.68653 368.425 7.79547 367.761 7.79547ZM398.415 32.8963C398.808 32.8963 399.11 33.0775 399.321 33.44C399.563 33.8024 399.684 34.3008 399.684 34.9351C399.684 36.1433 399.397 37.0797 398.823 37.7442C397.433 39.3451 395.999 40.6591 394.519 41.6861C393.069 42.713 391.407 43.2265 389.535 43.2265C387.994 43.2265 386.831 42.7886 386.046 41.9126C385.261 41.0064 384.868 39.7076 384.868 38.0161C384.868 37.1703 385.079 35.6601 385.502 33.4853C385.895 31.5823 386.091 30.2684 386.091 29.5434C386.091 29.0602 385.925 28.8185 385.593 28.8185C385.2 28.8185 384.641 29.332 383.916 30.359C383.192 31.3558 382.467 32.6848 381.742 34.3461C381.017 36.0074 380.428 37.7593 379.975 39.6019C379.401 42.0183 377.981 43.2265 375.716 43.2265C374.81 43.2265 374.205 42.9094 373.903 42.2751C373.632 41.6105 373.496 40.4325 373.496 38.741C373.496 37.7744 373.511 37.0042 373.541 36.4303L373.586 32.8056C373.586 28.154 374.054 23.306 374.991 18.2617C375.957 13.2174 377.362 8.98859 379.204 5.57536C381.077 2.13194 383.312 0.41022 385.91 0.41022C387.299 0.41022 388.417 1.01433 389.263 2.22255C390.139 3.40057 390.577 4.94105 390.577 6.844C390.577 9.89475 389.686 13.0663 387.904 16.3587C386.121 19.6209 383.222 23.4419 379.204 27.8217C379.114 29.3924 379.068 31.0084 379.068 32.6697C380.065 30.1022 381.168 28.0181 382.376 26.4172C383.614 24.7861 384.823 23.6232 386.001 22.9284C387.209 22.2337 388.311 21.8863 389.308 21.8863C391.272 21.8863 392.253 22.868 392.253 24.8314C392.253 26.0094 391.921 28.1389 391.256 31.2198C390.683 33.8477 390.396 35.5845 390.396 36.4303C390.396 37.6385 390.834 38.2426 391.71 38.2426C392.314 38.2426 393.023 37.8802 393.839 37.1552C394.685 36.4001 395.802 35.1919 397.192 33.5306C397.554 33.1077 397.962 32.8963 398.415 32.8963ZM384.959 4.89574C384.415 4.89574 383.811 5.68108 383.146 7.25177C382.482 8.79225 381.832 10.8915 381.198 13.5496C380.594 16.1775 380.095 19.047 379.703 22.1582C381.576 19.9532 383.116 17.5519 384.324 14.9542C385.563 12.3565 386.182 10.0005 386.182 7.88609C386.182 6.91951 386.076 6.17947 385.865 5.66598C385.653 5.15249 385.351 4.89574 384.959 4.89574ZM412.232 34.2555C412.625 34.2555 412.927 34.4367 413.138 34.7992C413.38 35.1617 413.501 35.6601 413.501 36.2944C413.501 37.3818 413.244 38.3181 412.73 39.1035C411.885 40.4023 410.767 41.4142 409.378 42.1391C408.018 42.8641 406.387 43.2265 404.484 43.2265C401.585 43.2265 399.334 42.3657 397.733 40.644C396.132 38.892 395.332 36.536 395.332 33.5759C395.332 31.4917 395.77 29.5585 396.646 27.7764C397.522 25.9641 398.73 24.5293 400.271 23.4721C401.841 22.4149 403.608 21.8863 405.572 21.8863C407.324 21.8863 408.728 22.4149 409.785 23.4721C410.843 24.4991 411.371 25.9037 411.371 27.6858C411.371 29.77 410.616 31.5672 409.106 33.0775C407.626 34.5576 405.088 35.7356 401.494 36.6115C402.219 38.001 403.442 38.6957 405.164 38.6957C406.402 38.6957 407.414 38.4088 408.2 37.8349C409.015 37.261 409.951 36.2944 411.009 34.9351C411.371 34.482 411.779 34.2555 412.232 34.2555ZM404.801 26.3266C403.684 26.3266 402.732 26.976 401.947 28.2748C401.192 29.5736 400.814 31.1443 400.814 32.9869V33.0775C402.596 32.6546 404.001 32.0203 405.028 31.1745C406.055 30.3288 406.568 29.3471 406.568 28.2295C406.568 27.6556 406.402 27.2025 406.07 26.8703C405.768 26.5078 405.345 26.3266 404.801 26.3266ZM464.644 5.43944C465.49 5.56026 466.063 5.81701 466.365 6.20968C466.698 6.60235 466.864 7.11585 466.864 7.75016C466.864 9.83434 465.746 10.8009 463.511 10.6499L461.925 10.514C460.143 10.3629 458.361 10.2421 456.579 10.1515C454.827 10.0609 452.984 10.0156 451.051 10.0156H449.012C448.65 14.486 448.272 18.5637 447.88 22.2488L455.673 22.1129C456.79 22.1129 457.53 22.3092 457.893 22.7019C458.286 23.0946 458.482 23.6232 458.482 24.2877C458.482 25.3147 458.18 26.1302 457.576 26.7343C456.972 27.3082 456.111 27.5952 454.993 27.5952H447.245L446.974 29.5434C446.339 34.5274 444.98 38.0765 442.896 40.1909C440.842 42.3053 438.002 43.3625 434.378 43.3625C432.324 43.3625 430.436 42.9245 428.714 42.0485C426.993 41.1424 425.724 40.055 424.908 38.7863C424.576 38.2728 424.41 37.6536 424.41 36.9287C424.41 36.2038 424.576 35.5694 424.908 35.0257C425.271 34.482 425.709 34.2102 426.222 34.2102C426.585 34.2102 426.932 34.331 427.264 34.5727C427.627 34.8143 428.08 35.2825 428.624 35.9772C430.074 37.8802 431.871 38.8316 434.015 38.8316C435.737 38.8316 437.172 38.1369 438.32 36.7475C439.498 35.3278 440.253 33.1077 440.585 30.0871L440.857 27.5952H438.682C437.987 27.5952 437.383 27.3989 436.87 27.0062C436.387 26.6135 436.145 26.0547 436.145 25.3298C436.145 24.3934 436.387 23.6836 436.87 23.2003C437.353 22.6868 438.063 22.43 438.999 22.43C439.845 22.43 440.676 22.4149 441.491 22.3847C441.854 19.0621 442.246 15.0297 442.669 10.2874C439.407 10.5895 437.111 11.1181 435.782 11.8732C434.453 12.6284 433.789 13.746 433.789 15.226C433.789 16.253 434.091 17.2347 434.695 18.1711C434.876 18.4429 434.967 18.7148 434.967 18.9866C434.967 19.5303 434.665 20.0136 434.061 20.4365C433.457 20.8292 432.777 21.0255 432.022 21.0255C431.206 21.0255 430.512 20.7838 429.938 20.3006C429.575 19.9985 429.228 19.3793 428.896 18.4429C428.563 17.5065 428.397 16.4645 428.397 15.3166C428.397 11.5712 430.315 8.85266 434.151 7.16116C438.018 5.46964 443.651 4.62389 451.051 4.62389C456.186 4.62389 460.717 4.89574 464.644 5.43944ZM463.507 43.2265C462.148 43.2265 461.03 42.6073 460.154 41.3689C459.309 40.1003 458.886 38.5296 458.886 36.6568C458.886 34.3914 459.037 32.3223 459.339 30.4496C459.641 28.5467 460.139 26.538 460.834 24.4236C461.136 23.5174 461.559 22.868 462.103 22.4754C462.646 22.0827 463.507 21.8863 464.685 21.8863C465.35 21.8863 465.803 21.9921 466.044 22.2035C466.316 22.4149 466.452 22.7321 466.452 23.155C466.452 23.3966 466.286 24.2122 465.954 25.6016C465.652 26.7192 465.41 27.7311 465.229 28.6373C464.625 31.8089 464.323 33.9232 464.323 34.9804C464.323 35.6148 464.398 36.0678 464.549 36.3397C464.7 36.5813 464.942 36.7021 465.274 36.7021C465.727 36.7021 466.286 36.2491 466.951 35.3429C467.645 34.4367 468.37 33.0624 469.125 31.2198C469.911 29.3773 470.666 27.1119 471.391 24.4236C471.632 23.5174 471.995 22.868 472.478 22.4754C472.992 22.0827 473.747 21.8863 474.744 21.8863C475.438 21.8863 475.922 21.977 476.193 22.1582C476.465 22.3092 476.601 22.6113 476.601 23.0644C476.601 23.8195 476.224 25.8886 475.469 29.2716C474.623 33.1379 474.2 35.5241 474.2 36.4303C474.2 37.0042 474.321 37.4573 474.562 37.7895C474.804 38.0916 475.121 38.2426 475.514 38.2426C476.118 38.2426 476.828 37.8802 477.643 37.1552C478.489 36.4001 479.607 35.1919 480.996 33.5306C481.359 33.1077 481.766 32.8963 482.219 32.8963C482.612 32.8963 482.914 33.0775 483.126 33.44C483.367 33.8024 483.488 34.3008 483.488 34.9351C483.488 36.1433 483.201 37.0797 482.627 37.7442C481.328 39.3451 479.924 40.6591 478.414 41.6861C476.934 42.713 475.242 43.2265 473.339 43.2265C471.889 43.2265 470.817 42.6677 470.122 41.5501C469.458 40.4325 469.125 38.8618 469.125 36.8381C468.612 38.892 467.842 40.4778 466.815 41.5954C465.788 42.6828 464.685 43.2265 463.507 43.2265ZM500.022 32.8963C500.414 32.8963 500.716 33.0775 500.928 33.44C501.17 33.8024 501.29 34.3008 501.29 34.9351C501.29 36.1433 501.003 37.0797 500.43 37.7442C499.131 39.3451 497.711 40.6591 496.171 41.6861C494.63 42.713 492.863 43.2265 490.869 43.2265C484.708 43.2265 481.627 38.892 481.627 30.2231C481.627 28.894 481.672 27.5499 481.763 26.1906H479.995C479.089 26.1906 478.47 26.0245 478.138 25.6922C477.836 25.36 477.685 24.8314 477.685 24.1064C477.685 22.4149 478.364 21.5692 479.724 21.5692H482.306C482.82 18.2466 483.605 15.2109 484.662 12.4622C485.719 9.71352 486.988 7.52362 488.468 5.89252C489.978 4.26142 491.594 3.44588 493.316 3.44588C494.585 3.44588 495.582 4.00468 496.306 5.12228C497.031 6.23989 497.394 7.64444 497.394 9.33595C497.394 14.0178 495.431 18.0956 491.504 21.5692H496.578C497.062 21.5692 497.409 21.6749 497.62 21.8863C497.832 22.0978 497.938 22.4905 497.938 23.0644C497.938 25.1485 496.231 26.1906 492.818 26.1906H487.29C487.23 27.7009 487.2 28.8789 487.2 29.7247C487.2 32.866 487.562 35.0711 488.287 36.3397C489.042 37.6083 490.22 38.2426 491.821 38.2426C493.12 38.2426 494.268 37.85 495.264 37.0646C496.261 36.2793 497.439 35.1013 498.798 33.5306C499.161 33.1077 499.569 32.8963 500.022 32.8963ZM492.093 7.79547C491.64 7.79547 491.126 8.36938 490.552 9.51719C490.009 10.6348 489.48 12.2055 488.967 14.2292C488.483 16.2228 488.075 18.4429 487.743 20.8896C489.525 19.3491 490.854 17.6274 491.73 15.7244C492.637 13.7913 493.09 12.0393 493.09 10.4687C493.09 8.68653 492.757 7.79547 492.093 7.79547ZM502.223 43.2265C500.863 43.2265 499.746 42.6073 498.87 41.3689C498.024 40.1003 497.601 38.5296 497.601 36.6568C497.601 34.3914 497.752 32.3223 498.054 30.4496C498.356 28.5467 498.855 26.538 499.55 24.4236C499.852 23.5174 500.274 22.868 500.818 22.4754C501.362 22.0827 502.223 21.8863 503.401 21.8863C504.065 21.8863 504.518 21.9921 504.76 22.2035C505.032 22.4149 505.168 22.7321 505.168 23.155C505.168 23.3966 505.002 24.2122 504.669 25.6016C504.367 26.7192 504.126 27.7311 503.944 28.6373C503.34 31.8089 503.038 33.9232 503.038 34.9804C503.038 35.6148 503.114 36.0678 503.265 36.3397C503.416 36.5813 503.657 36.7021 503.99 36.7021C504.443 36.7021 505.002 36.2491 505.666 35.3429C506.361 34.4367 507.086 33.0624 507.841 31.2198C508.626 29.3773 509.381 27.1119 510.106 24.4236C510.348 23.5174 510.71 22.868 511.194 22.4754C511.707 22.0827 512.462 21.8863 513.459 21.8863C514.154 21.8863 514.637 21.977 514.909 22.1582C515.181 22.3092 515.317 22.6113 515.317 23.0644C515.317 23.8195 514.939 25.8886 514.184 29.2716C513.338 33.1379 512.915 35.5241 512.915 36.4303C512.915 37.0042 513.036 37.4573 513.278 37.7895C513.52 38.0916 513.837 38.2426 514.229 38.2426C514.834 38.2426 515.543 37.8802 516.359 37.1552C517.205 36.4001 518.322 35.1919 519.712 33.5306C520.074 33.1077 520.482 32.8963 520.935 32.8963C521.328 32.8963 521.63 33.0775 521.841 33.44C522.083 33.8024 522.204 34.3008 522.204 34.9351C522.204 36.1433 521.917 37.0797 521.343 37.7442C520.044 39.3451 518.639 40.6591 517.129 41.6861C515.649 42.713 513.958 43.2265 512.055 43.2265C510.605 43.2265 509.532 42.6677 508.838 41.5501C508.173 40.4325 507.841 38.8618 507.841 36.8381C507.327 38.892 506.557 40.4778 505.53 41.5954C504.503 42.6828 503.401 43.2265 502.223 43.2265ZM521.747 43.2265C520.599 43.2265 519.783 42.6224 519.3 41.4142C518.847 40.206 518.62 38.2728 518.62 35.6148C518.62 31.688 519.179 27.9577 520.297 24.4236C520.569 23.5476 521.007 22.9133 521.611 22.5207C522.245 22.0978 523.121 21.8863 524.239 21.8863C524.843 21.8863 525.266 21.9619 525.507 22.1129C525.749 22.2639 525.87 22.5509 525.87 22.9737C525.87 23.457 525.643 24.5444 525.19 26.2359C524.888 27.4442 524.646 28.5014 524.465 29.4075C524.284 30.3137 524.133 31.4313 524.012 32.7603C525.009 30.1627 526.127 28.0483 527.365 26.4172C528.603 24.7861 529.812 23.6232 530.99 22.9284C532.198 22.2337 533.3 21.8863 534.297 21.8863C536.26 21.8863 537.242 22.868 537.242 24.8314C537.242 25.2241 537.106 26.1755 536.834 27.6858C536.593 28.894 536.472 29.6492 536.472 29.9512C536.472 31.0084 536.849 31.537 537.605 31.537C538.45 31.537 539.538 30.8725 540.867 29.5434C541.259 29.1508 541.667 28.9544 542.09 28.9544C542.483 28.9544 542.785 29.1357 542.996 29.4981C543.238 29.8304 543.359 30.2835 543.359 30.8574C543.359 31.975 543.057 32.8509 542.453 33.4853C541.607 34.3612 540.61 35.1164 539.462 35.7507C538.345 36.3548 537.152 36.6568 535.883 36.6568C534.282 36.6568 533.059 36.2491 532.213 35.4335C531.397 34.618 530.99 33.5155 530.99 32.126C530.99 31.6729 531.035 31.2198 531.126 30.7668C531.186 30.1627 531.216 29.7549 531.216 29.5434C531.216 29.0602 531.05 28.8185 530.718 28.8185C530.265 28.8185 529.661 29.332 528.905 30.359C528.181 31.3558 527.456 32.6848 526.731 34.3461C526.006 36.0074 525.417 37.7593 524.964 39.6019C524.631 41.0215 524.239 41.9881 523.786 42.5016C523.363 42.9849 522.683 43.2265 521.747 43.2265ZM555.369 34.2555C555.762 34.2555 556.064 34.4367 556.275 34.7992C556.517 35.1617 556.638 35.6601 556.638 36.2944C556.638 37.3818 556.381 38.3181 555.867 39.1035C555.022 40.4023 553.904 41.4142 552.515 42.1391C551.155 42.8641 549.524 43.2265 547.621 43.2265C544.722 43.2265 542.471 42.3657 540.87 40.644C539.269 38.892 538.469 36.536 538.469 33.5759C538.469 31.4917 538.907 29.5585 539.783 27.7764C540.659 25.9641 541.867 24.5293 543.408 23.4721C544.978 22.4149 546.745 21.8863 548.709 21.8863C550.461 21.8863 551.865 22.4149 552.922 23.4721C553.98 24.4991 554.508 25.9037 554.508 27.6858C554.508 29.77 553.753 31.5672 552.243 33.0775C550.763 34.5576 548.225 35.7356 544.631 36.6115C545.356 38.001 546.579 38.6957 548.301 38.6957C549.539 38.6957 550.551 38.4088 551.337 37.8349C552.152 37.261 553.088 36.2944 554.146 34.9351C554.508 34.482 554.916 34.2555 555.369 34.2555ZM547.938 26.3266C546.821 26.3266 545.869 26.976 545.084 28.2748C544.329 29.5736 543.951 31.1443 543.951 32.9869V33.0775C545.733 32.6546 547.138 32.0203 548.165 31.1745C549.192 30.3288 549.705 29.3471 549.705 28.2295C549.705 27.6556 549.539 27.2025 549.207 26.8703C548.905 26.5078 548.482 26.3266 547.938 26.3266Z" fill="white"/>
</svg>
