<svg width="1272" height="825" viewBox="0 0 1272 825" fill="none" xmlns="http://www.w3.org/2000/svg">
<rect width="1272" height="825" rx="32" fill="white"/>
<path d="M37.056 54.112C36.2347 54.112 35.4987 53.9787 34.848 53.712C34.1973 53.4453 33.6747 53.0507 33.28 52.528C32.896 52.0053 32.6933 51.376 32.672 50.64H35.584C35.6267 51.056 35.7707 51.376 36.016 51.6C36.2613 51.8133 36.5813 51.92 36.976 51.92C37.3813 51.92 37.7013 51.8293 37.936 51.648C38.1707 51.456 38.288 51.1947 38.288 50.864C38.288 50.5867 38.192 50.3573 38 50.176C37.8187 49.9947 37.5893 49.8453 37.312 49.728C37.0453 49.6107 36.6613 49.4773 36.16 49.328C35.4347 49.104 34.8427 48.88 34.384 48.656C33.9253 48.432 33.5307 48.1013 33.2 47.664C32.8693 47.2267 32.704 46.656 32.704 45.952C32.704 44.9067 33.0827 44.0907 33.84 43.504C34.5973 42.9067 35.584 42.608 36.8 42.608C38.0373 42.608 39.0347 42.9067 39.792 43.504C40.5493 44.0907 40.9547 44.912 41.008 45.968H38.048C38.0267 45.6053 37.8933 45.3227 37.648 45.12C37.4027 44.9067 37.088 44.8 36.704 44.8C36.3733 44.8 36.1067 44.8907 35.904 45.072C35.7013 45.2427 35.6 45.4933 35.6 45.824C35.6 46.1867 35.7707 46.4693 36.112 46.672C36.4533 46.8747 36.9867 47.0933 37.712 47.328C38.4373 47.5733 39.024 47.808 39.472 48.032C39.9307 48.256 40.3253 48.5813 40.656 49.008C40.9867 49.4347 41.152 49.984 41.152 50.656C41.152 51.296 40.9867 51.8773 40.656 52.4C40.336 52.9227 39.8667 53.3387 39.248 53.648C38.6293 53.9573 37.8987 54.112 37.056 54.112ZM47.8118 51.68V54H46.4198C45.4278 54 44.6544 53.76 44.0998 53.28C43.5451 52.7893 43.2678 51.9947 43.2678 50.896V47.344H42.1798V45.072H43.2678V42.896H46.0038V45.072H47.7958V47.344H46.0038V50.928C46.0038 51.1947 46.0678 51.3867 46.1958 51.504C46.3238 51.6213 46.5371 51.68 46.8358 51.68H47.8118ZM48.7918 49.52C48.7918 48.6027 48.9624 47.7973 49.3038 47.104C49.6558 46.4107 50.1304 45.8773 50.7278 45.504C51.3251 45.1307 51.9918 44.944 52.7278 44.944C53.3571 44.944 53.9064 45.072 54.3758 45.328C54.8558 45.584 55.2238 45.92 55.4798 46.336V45.072H58.2158V54H55.4798V52.736C55.2131 53.152 54.8398 53.488 54.3598 53.744C53.8904 54 53.3411 54.128 52.7118 54.128C51.9864 54.128 51.3251 53.9413 50.7278 53.568C50.1304 53.184 49.6558 52.6453 49.3038 51.952C48.9624 51.248 48.7918 50.4373 48.7918 49.52ZM55.4798 49.536C55.4798 48.8533 55.2878 48.3147 54.9038 47.92C54.5304 47.5253 54.0718 47.328 53.5278 47.328C52.9838 47.328 52.5198 47.5253 52.1358 47.92C51.7624 48.304 51.5758 48.8373 51.5758 49.52C51.5758 50.2027 51.7624 50.7467 52.1358 51.152C52.5198 51.5467 52.9838 51.744 53.5278 51.744C54.0718 51.744 54.5304 51.5467 54.9038 51.152C55.2878 50.7573 55.4798 50.2187 55.4798 49.536ZM65.1711 51.68V54H63.7791C62.7871 54 62.0138 53.76 61.4591 53.28C60.9045 52.7893 60.6271 51.9947 60.6271 50.896V47.344H59.5391V45.072H60.6271V42.896H63.3631V45.072H65.1551V47.344H63.3631V50.928C63.3631 51.1947 63.4271 51.3867 63.5551 51.504C63.6831 51.6213 63.8965 51.68 64.1951 51.68H65.1711ZM68.0711 44.144C67.5911 44.144 67.1965 44.0053 66.8871 43.728C66.5885 43.44 66.4391 43.088 66.4391 42.672C66.4391 42.2453 66.5885 41.8933 66.8871 41.616C67.1965 41.328 67.5911 41.184 68.0711 41.184C68.5405 41.184 68.9245 41.328 69.2231 41.616C69.5325 41.8933 69.6871 42.2453 69.6871 42.672C69.6871 43.088 69.5325 43.44 69.2231 43.728C68.9245 44.0053 68.5405 44.144 68.0711 44.144ZM69.4311 45.072V54H66.6951V45.072H69.4311ZM75.0459 54.128C74.2672 54.128 73.5739 53.9947 72.9659 53.728C72.3579 53.4613 71.8779 53.0987 71.5259 52.64C71.1739 52.1707 70.9765 51.648 70.9339 51.072H73.6379C73.6699 51.3813 73.8139 51.632 74.0699 51.824C74.3259 52.016 74.6405 52.112 75.0139 52.112C75.3552 52.112 75.6165 52.048 75.7979 51.92C75.9899 51.7813 76.0859 51.6053 76.0859 51.392C76.0859 51.136 75.9525 50.9493 75.6859 50.832C75.4192 50.704 74.9872 50.5653 74.3899 50.416C73.7499 50.2667 73.2165 50.112 72.7899 49.952C72.3632 49.7813 71.9952 49.52 71.6859 49.168C71.3765 48.8053 71.2219 48.32 71.2219 47.712C71.2219 47.2 71.3605 46.736 71.6379 46.32C71.9259 45.8933 72.3419 45.5573 72.8859 45.312C73.4405 45.0667 74.0965 44.944 74.8539 44.944C75.9739 44.944 76.8539 45.2213 77.4939 45.776C78.1445 46.3307 78.5179 47.0667 78.6139 47.984H76.0859C76.0432 47.6747 75.9045 47.4293 75.6699 47.248C75.4459 47.0667 75.1472 46.976 74.7739 46.976C74.4539 46.976 74.2085 47.04 74.0379 47.168C73.8672 47.2853 73.7819 47.4507 73.7819 47.664C73.7819 47.92 73.9152 48.112 74.1819 48.24C74.4592 48.368 74.8859 48.496 75.4619 48.624C76.1232 48.7947 76.6619 48.9653 77.0779 49.136C77.4939 49.296 77.8565 49.5627 78.1659 49.936C78.4859 50.2987 78.6512 50.7893 78.6619 51.408C78.6619 51.9307 78.5125 52.4 78.2139 52.816C77.9259 53.2213 77.5045 53.5413 76.9499 53.776C76.4059 54.0107 75.7712 54.128 75.0459 54.128ZM85.3118 51.68V54H83.9198C82.9278 54 82.1544 53.76 81.5998 53.28C81.0451 52.7893 80.7678 51.9947 80.7678 50.896V47.344H79.6798V45.072H80.7678V42.896H83.5038V45.072H85.2958V47.344H83.5038V50.928C83.5038 51.1947 83.5678 51.3867 83.6958 51.504C83.8238 51.6213 84.0371 51.68 84.3358 51.68H85.3118ZM88.2118 44.144C87.7318 44.144 87.3371 44.0053 87.0278 43.728C86.7291 43.44 86.5798 43.088 86.5798 42.672C86.5798 42.2453 86.7291 41.8933 87.0278 41.616C87.3371 41.328 87.7318 41.184 88.2118 41.184C88.6811 41.184 89.0651 41.328 89.3638 41.616C89.6731 41.8933 89.8278 42.2453 89.8278 42.672C89.8278 43.088 89.6731 43.44 89.3638 43.728C89.0651 44.0053 88.6811 44.144 88.2118 44.144ZM89.5718 45.072V54H86.8358V45.072H89.5718ZM91.0105 49.536C91.0105 48.608 91.1972 47.7973 91.5705 47.104C91.9545 46.4107 92.4825 45.8773 93.1545 45.504C93.8372 45.1307 94.6158 44.944 95.4905 44.944C96.6105 44.944 97.5438 45.2373 98.2905 45.824C99.0478 46.4107 99.5438 47.2373 99.7785 48.304H96.8665C96.6212 47.6213 96.1465 47.28 95.4425 47.28C94.9412 47.28 94.5412 47.4773 94.2425 47.872C93.9438 48.256 93.7945 48.8107 93.7945 49.536C93.7945 50.2613 93.9438 50.8213 94.2425 51.216C94.5412 51.6 94.9412 51.792 95.4425 51.792C96.1465 51.792 96.6212 51.4507 96.8665 50.768H99.7785C99.5438 51.8133 99.0478 52.6347 98.2905 53.232C97.5332 53.8293 96.5998 54.128 95.4905 54.128C94.6158 54.128 93.8372 53.9413 93.1545 53.568C92.4825 53.1947 91.9545 52.6613 91.5705 51.968C91.1972 51.2747 91.0105 50.464 91.0105 49.536ZM104.874 54.128C104.095 54.128 103.402 53.9947 102.794 53.728C102.186 53.4613 101.706 53.0987 101.354 52.64C101.002 52.1707 100.805 51.648 100.762 51.072H103.466C103.498 51.3813 103.642 51.632 103.898 51.824C104.154 52.016 104.469 52.112 104.842 52.112C105.183 52.112 105.445 52.048 105.626 51.92C105.818 51.7813 105.914 51.6053 105.914 51.392C105.914 51.136 105.781 50.9493 105.514 50.832C105.247 50.704 104.815 50.5653 104.218 50.416C103.578 50.2667 103.045 50.112 102.618 49.952C102.191 49.7813 101.823 49.52 101.514 49.168C101.205 48.8053 101.05 48.32 101.05 47.712C101.05 47.2 101.189 46.736 101.466 46.32C101.754 45.8933 102.17 45.5573 102.714 45.312C103.269 45.0667 103.925 44.944 104.682 44.944C105.802 44.944 106.682 45.2213 107.322 45.776C107.973 46.3307 108.346 47.0667 108.442 47.984H105.914C105.871 47.6747 105.733 47.4293 105.498 47.248C105.274 47.0667 104.975 46.976 104.602 46.976C104.282 46.976 104.037 47.04 103.866 47.168C103.695 47.2853 103.61 47.4507 103.61 47.664C103.61 47.92 103.743 48.112 104.01 48.24C104.287 48.368 104.714 48.496 105.29 48.624C105.951 48.7947 106.49 48.9653 106.906 49.136C107.322 49.296 107.685 49.5627 107.994 49.936C108.314 50.2987 108.479 50.7893 108.49 51.408C108.49 51.9307 108.341 52.4 108.042 52.816C107.754 53.2213 107.333 53.5413 106.778 53.776C106.234 54.0107 105.599 54.128 104.874 54.128Z" fill="#212633"/>
<rect x="126" y="32" width="120" height="32" rx="8" fill="#F3F6FF"/>
<path d="M148.976 43.312V53H147.702V45.776L144.482 53H143.586L140.352 45.762V53H139.078V43.312H140.45L144.034 51.32L147.618 43.312H148.976ZM154.483 53.126C153.764 53.126 153.111 52.9627 152.523 52.636C151.944 52.3093 151.487 51.8473 151.151 51.25C150.824 50.6433 150.661 49.9433 150.661 49.15C150.661 48.366 150.829 47.6753 151.165 47.078C151.51 46.4713 151.977 46.0093 152.565 45.692C153.153 45.3653 153.811 45.202 154.539 45.202C155.267 45.202 155.925 45.3653 156.513 45.692C157.101 46.0093 157.563 46.4667 157.899 47.064C158.244 47.6613 158.417 48.3567 158.417 49.15C158.417 49.9433 158.239 50.6433 157.885 51.25C157.539 51.8473 157.068 52.3093 156.471 52.636C155.873 52.9627 155.211 53.126 154.483 53.126ZM154.483 52.006C154.94 52.006 155.369 51.8987 155.771 51.684C156.172 51.4693 156.494 51.1473 156.737 50.718C156.989 50.2887 157.115 49.766 157.115 49.15C157.115 48.534 156.993 48.0113 156.751 47.582C156.508 47.1527 156.191 46.8353 155.799 46.63C155.407 46.4153 154.982 46.308 154.525 46.308C154.058 46.308 153.629 46.4153 153.237 46.63C152.854 46.8353 152.546 47.1527 152.313 47.582C152.079 48.0113 151.963 48.534 151.963 49.15C151.963 49.7753 152.075 50.3027 152.299 50.732C152.532 51.1613 152.84 51.4833 153.223 51.698C153.605 51.9033 154.025 52.006 154.483 52.006ZM163.83 45.188C164.763 45.188 165.519 45.4727 166.098 46.042C166.676 46.602 166.966 47.414 166.966 48.478V53H165.706V48.66C165.706 47.8947 165.514 47.3113 165.132 46.91C164.749 46.4993 164.226 46.294 163.564 46.294C162.892 46.294 162.355 46.504 161.954 46.924C161.562 47.344 161.366 47.9553 161.366 48.758V53H160.092V45.328H161.366V46.42C161.618 46.028 161.958 45.7247 162.388 45.51C162.826 45.2953 163.307 45.188 163.83 45.188ZM170.601 46.378V50.9C170.601 51.2733 170.68 51.5393 170.839 51.698C170.997 51.8473 171.273 51.922 171.665 51.922H172.603V53H171.455C170.745 53 170.213 52.8367 169.859 52.51C169.504 52.1833 169.327 51.6467 169.327 50.9V46.378H168.333V45.328H169.327V43.396H170.601V45.328H172.603V46.378H170.601ZM177.954 45.188C178.533 45.188 179.056 45.314 179.522 45.566C179.989 45.8087 180.353 46.1773 180.614 46.672C180.885 47.1667 181.02 47.7687 181.02 48.478V53H179.76V48.66C179.76 47.8947 179.569 47.3113 179.186 46.91C178.804 46.4993 178.281 46.294 177.618 46.294C176.946 46.294 176.41 46.504 176.008 46.924C175.616 47.344 175.42 47.9553 175.42 48.758V53H174.146V42.64H175.42V46.42C175.672 46.028 176.018 45.7247 176.456 45.51C176.904 45.2953 177.404 45.188 177.954 45.188Z" fill="#212633"/>
<path fill-rule="evenodd" clip-rule="evenodd" d="M231.354 45.6464C231.549 45.8417 231.549 46.1583 231.354 46.3536L226.354 51.3536C226.158 51.5488 225.842 51.5488 225.646 51.3536L220.646 46.3536C220.451 46.1583 220.451 45.8417 220.646 45.6464C220.842 45.4512 221.158 45.4512 221.354 45.6464L226 50.2929L230.646 45.6464C230.842 45.4512 231.158 45.4512 231.354 45.6464Z" fill="#356CF9" stroke="#356CF9" stroke-linecap="round" stroke-linejoin="round"/>
<rect x="723" y="33" width="116" height="30" rx="8" fill="#F3F6FF"/>
<rect x="731" y="40" width="16" height="16" rx="4" fill="#F93535"/>
<path d="M761.87 53L759.546 49.01H758.006V53H756.732V43.242H759.882C760.62 43.242 761.24 43.368 761.744 43.62C762.258 43.872 762.64 44.2127 762.892 44.642C763.144 45.0713 763.27 45.5613 763.27 46.112C763.27 46.784 763.074 47.3767 762.682 47.89C762.3 48.4033 761.721 48.744 760.946 48.912L763.396 53H761.87ZM758.006 47.988H759.882C760.573 47.988 761.091 47.82 761.436 47.484C761.782 47.1387 761.954 46.6813 761.954 46.112C761.954 45.5333 761.782 45.0853 761.436 44.768C761.1 44.4507 760.582 44.292 759.882 44.292H758.006V47.988ZM772.25 48.87C772.25 49.1127 772.236 49.3693 772.208 49.64H766.076C766.123 50.396 766.379 50.9887 766.846 51.418C767.322 51.838 767.896 52.048 768.568 52.048C769.119 52.048 769.576 51.922 769.94 51.67C770.313 51.4087 770.575 51.0633 770.724 50.634H772.096C771.891 51.3713 771.48 51.9733 770.864 52.44C770.248 52.8973 769.483 53.126 768.568 53.126C767.84 53.126 767.187 52.9627 766.608 52.636C766.039 52.3093 765.591 51.8473 765.264 51.25C764.937 50.6433 764.774 49.9433 764.774 49.15C764.774 48.3567 764.933 47.6613 765.25 47.064C765.567 46.4667 766.011 46.0093 766.58 45.692C767.159 45.3653 767.821 45.202 768.568 45.202C769.296 45.202 769.94 45.3607 770.5 45.678C771.06 45.9953 771.489 46.434 771.788 46.994C772.096 47.5447 772.25 48.17 772.25 48.87ZM770.934 48.604C770.934 48.1187 770.827 47.7033 770.612 47.358C770.397 47.0033 770.103 46.7373 769.73 46.56C769.366 46.3733 768.96 46.28 768.512 46.28C767.868 46.28 767.317 46.4853 766.86 46.896C766.412 47.3067 766.155 47.876 766.09 48.604H770.934ZM783.158 45.188C783.755 45.188 784.287 45.314 784.754 45.566C785.22 45.8087 785.589 46.1773 785.86 46.672C786.13 47.1667 786.266 47.7687 786.266 48.478V53H785.006V48.66C785.006 47.8947 784.814 47.3113 784.432 46.91C784.058 46.4993 783.55 46.294 782.906 46.294C782.243 46.294 781.716 46.5087 781.324 46.938C780.932 47.358 780.736 47.9693 780.736 48.772V53H779.476V48.66C779.476 47.8947 779.284 47.3113 778.902 46.91C778.528 46.4993 778.02 46.294 777.376 46.294C776.713 46.294 776.186 46.5087 775.794 46.938C775.402 47.358 775.206 47.9693 775.206 48.772V53H773.932V45.328H775.206V46.434C775.458 46.0327 775.794 45.7247 776.214 45.51C776.643 45.2953 777.114 45.188 777.628 45.188C778.272 45.188 778.841 45.3327 779.336 45.622C779.83 45.9113 780.199 46.336 780.442 46.896C780.656 46.3547 781.011 45.9347 781.506 45.636C782 45.3373 782.551 45.188 783.158 45.188ZM787.879 49.136C787.879 48.352 788.038 47.666 788.355 47.078C788.673 46.4807 789.107 46.0187 789.657 45.692C790.217 45.3653 790.838 45.202 791.519 45.202C792.191 45.202 792.775 45.3467 793.269 45.636C793.764 45.9253 794.133 46.2893 794.375 46.728V45.328H795.663V53H794.375V51.572C794.123 52.02 793.745 52.3933 793.241 52.692C792.747 52.9813 792.168 53.126 791.505 53.126C790.824 53.126 790.208 52.958 789.657 52.622C789.107 52.286 788.673 51.8147 788.355 51.208C788.038 50.6013 787.879 49.9107 787.879 49.136ZM794.375 49.15C794.375 48.5713 794.259 48.0673 794.025 47.638C793.792 47.2087 793.475 46.882 793.073 46.658C792.681 46.4247 792.247 46.308 791.771 46.308C791.295 46.308 790.861 46.42 790.469 46.644C790.077 46.868 789.765 47.1947 789.531 47.624C789.298 48.0533 789.181 48.5573 789.181 49.136C789.181 49.724 789.298 50.2373 789.531 50.676C789.765 51.1053 790.077 51.4367 790.469 51.67C790.861 51.894 791.295 52.006 791.771 52.006C792.247 52.006 792.681 51.894 793.073 51.67C793.475 51.4367 793.792 51.1053 794.025 50.676C794.259 50.2373 794.375 49.7287 794.375 49.15ZM798.474 44.082C798.232 44.082 798.026 43.998 797.858 43.83C797.69 43.662 797.606 43.4567 797.606 43.214C797.606 42.9713 797.69 42.766 797.858 42.598C798.026 42.43 798.232 42.346 798.474 42.346C798.708 42.346 798.904 42.43 799.062 42.598C799.23 42.766 799.314 42.9713 799.314 43.214C799.314 43.4567 799.23 43.662 799.062 43.83C798.904 43.998 798.708 44.082 798.474 44.082ZM799.09 45.328V53H797.816V45.328H799.09ZM805 45.188C805.933 45.188 806.689 45.4727 807.268 46.042C807.846 46.602 808.136 47.414 808.136 48.478V53H806.876V48.66C806.876 47.8947 806.684 47.3113 806.302 46.91C805.919 46.4993 805.396 46.294 804.734 46.294C804.062 46.294 803.525 46.504 803.124 46.924C802.732 47.344 802.536 47.9553 802.536 48.758V53H801.262V45.328H802.536V46.42C802.788 46.028 803.128 45.7247 803.558 45.51C803.996 45.2953 804.477 45.188 805 45.188ZM810.875 44.082C810.632 44.082 810.427 43.998 810.259 43.83C810.091 43.662 810.007 43.4567 810.007 43.214C810.007 42.9713 810.091 42.766 810.259 42.598C810.427 42.43 810.632 42.346 810.875 42.346C811.108 42.346 811.304 42.43 811.463 42.598C811.631 42.766 811.715 42.9713 811.715 43.214C811.715 43.4567 811.631 43.662 811.463 43.83C811.304 43.998 811.108 44.082 810.875 44.082ZM811.491 45.328V53H810.217V45.328H811.491ZM817.4 45.188C818.333 45.188 819.089 45.4727 819.668 46.042C820.247 46.602 820.536 47.414 820.536 48.478V53H819.276V48.66C819.276 47.8947 819.085 47.3113 818.702 46.91C818.319 46.4993 817.797 46.294 817.134 46.294C816.462 46.294 815.925 46.504 815.524 46.924C815.132 47.344 814.936 47.9553 814.936 48.758V53H813.662V45.328H814.936V46.42C815.188 46.028 815.529 45.7247 815.958 45.51C816.397 45.2953 816.877 45.188 817.4 45.188ZM825.781 45.202C826.444 45.202 827.022 45.3467 827.517 45.636C828.021 45.9253 828.394 46.2893 828.637 46.728V45.328H829.925V53.168C829.925 53.868 829.776 54.4887 829.477 55.03C829.178 55.5807 828.749 56.01 828.189 56.318C827.638 56.626 826.994 56.78 826.257 56.78C825.249 56.78 824.409 56.542 823.737 56.066C823.065 55.59 822.668 54.9413 822.547 54.12H823.807C823.947 54.5867 824.236 54.96 824.675 55.24C825.114 55.5293 825.641 55.674 826.257 55.674C826.957 55.674 827.526 55.4547 827.965 55.016C828.413 54.5773 828.637 53.9613 828.637 53.168V51.558C828.385 52.006 828.012 52.3793 827.517 52.678C827.022 52.9767 826.444 53.126 825.781 53.126C825.1 53.126 824.479 52.958 823.919 52.622C823.368 52.286 822.934 51.8147 822.617 51.208C822.3 50.6013 822.141 49.9107 822.141 49.136C822.141 48.352 822.3 47.666 822.617 47.078C822.934 46.4807 823.368 46.0187 823.919 45.692C824.479 45.3653 825.1 45.202 825.781 45.202ZM828.637 49.15C828.637 48.5713 828.52 48.0673 828.287 47.638C828.054 47.2087 827.736 46.882 827.335 46.658C826.943 46.4247 826.509 46.308 826.033 46.308C825.557 46.308 825.123 46.42 824.731 46.644C824.339 46.868 824.026 47.1947 823.793 47.624C823.56 48.0533 823.443 48.5573 823.443 49.136C823.443 49.724 823.56 50.2373 823.793 50.676C824.026 51.1053 824.339 51.4367 824.731 51.67C825.123 51.894 825.557 52.006 826.033 52.006C826.509 52.006 826.943 51.894 827.335 51.67C827.736 51.4367 828.054 51.1053 828.287 50.676C828.52 50.2373 828.637 49.7287 828.637 49.15Z" fill="#212633"/>
<rect x="855" y="33" width="115" height="30" rx="8" fill="#F3F6FF"/>
<rect x="863" y="40" width="16" height="16" rx="4" fill="#356CF9"/>
<path d="M890.141 43.242V53H888.867V43.242H890.141ZM896.05 45.188C896.984 45.188 897.74 45.4727 898.318 46.042C898.897 46.602 899.186 47.414 899.186 48.478V53H897.926V48.66C897.926 47.8947 897.735 47.3113 897.352 46.91C896.97 46.4993 896.447 46.294 895.784 46.294C895.112 46.294 894.576 46.504 894.174 46.924C893.782 47.344 893.586 47.9553 893.586 48.758V53H892.312V45.328H893.586V46.42C893.838 46.028 894.179 45.7247 894.608 45.51C895.047 45.2953 895.528 45.188 896.05 45.188ZM906.587 47.33V48.408H901.001V47.33H906.587ZM915.502 46.098C915.502 46.91 915.222 47.5867 914.662 48.128C914.112 48.66 913.267 48.926 912.128 48.926H910.252V53H908.978V43.242H912.128C913.23 43.242 914.065 43.508 914.634 44.04C915.213 44.572 915.502 45.258 915.502 46.098ZM912.128 47.876C912.838 47.876 913.36 47.722 913.696 47.414C914.032 47.106 914.2 46.6673 914.2 46.098C914.2 44.894 913.51 44.292 912.128 44.292H910.252V47.876H912.128ZM918.36 46.574C918.584 46.1353 918.901 45.7947 919.312 45.552C919.732 45.3093 920.24 45.188 920.838 45.188V46.504H920.502C919.074 46.504 918.36 47.2787 918.36 48.828V53H917.086V45.328H918.36V46.574ZM925.654 53.126C924.936 53.126 924.282 52.9627 923.694 52.636C923.116 52.3093 922.658 51.8473 922.322 51.25C921.996 50.6433 921.832 49.9433 921.832 49.15C921.832 48.366 922 47.6753 922.336 47.078C922.682 46.4713 923.148 46.0093 923.736 45.692C924.324 45.3653 924.982 45.202 925.71 45.202C926.438 45.202 927.096 45.3653 927.684 45.692C928.272 46.0093 928.734 46.4667 929.07 47.064C929.416 47.6613 929.588 48.3567 929.588 49.15C929.588 49.9433 929.411 50.6433 929.056 51.25C928.711 51.8473 928.24 52.3093 927.642 52.636C927.045 52.9627 926.382 53.126 925.654 53.126ZM925.654 52.006C926.112 52.006 926.541 51.8987 926.942 51.684C927.344 51.4693 927.666 51.1473 927.908 50.718C928.16 50.2887 928.286 49.766 928.286 49.15C928.286 48.534 928.165 48.0113 927.922 47.582C927.68 47.1527 927.362 46.8353 926.97 46.63C926.578 46.4153 926.154 46.308 925.696 46.308C925.23 46.308 924.8 46.4153 924.408 46.63C924.026 46.8353 923.718 47.1527 923.484 47.582C923.251 48.0113 923.134 48.534 923.134 49.15C923.134 49.7753 923.246 50.3027 923.47 50.732C923.704 51.1613 924.012 51.4833 924.394 51.698C924.777 51.9033 925.197 52.006 925.654 52.006ZM930.788 49.15C930.788 48.3567 930.946 47.666 931.264 47.078C931.581 46.4807 932.02 46.0187 932.58 45.692C933.149 45.3653 933.798 45.202 934.526 45.202C935.468 45.202 936.243 45.4307 936.85 45.888C937.466 46.3453 937.872 46.98 938.068 47.792H936.696C936.565 47.3253 936.308 46.9567 935.926 46.686C935.552 46.4153 935.086 46.28 934.526 46.28C933.798 46.28 933.21 46.532 932.762 47.036C932.314 47.5307 932.09 48.2353 932.09 49.15C932.09 50.074 932.314 50.788 932.762 51.292C933.21 51.796 933.798 52.048 934.526 52.048C935.086 52.048 935.552 51.9173 935.926 51.656C936.299 51.3947 936.556 51.0213 936.696 50.536H938.068C937.862 51.32 937.452 51.95 936.836 52.426C936.22 52.8927 935.45 53.126 934.526 53.126C933.798 53.126 933.149 52.9627 932.58 52.636C932.02 52.3093 931.581 51.8473 931.264 51.25C930.946 50.6527 930.788 49.9527 930.788 49.15ZM946.767 48.87C946.767 49.1127 946.753 49.3693 946.725 49.64H940.593C940.64 50.396 940.897 50.9887 941.363 51.418C941.839 51.838 942.413 52.048 943.085 52.048C943.636 52.048 944.093 51.922 944.457 51.67C944.831 51.4087 945.092 51.0633 945.241 50.634H946.613C946.408 51.3713 945.997 51.9733 945.381 52.44C944.765 52.8973 944 53.126 943.085 53.126C942.357 53.126 941.704 52.9627 941.125 52.636C940.556 52.3093 940.108 51.8473 939.781 51.25C939.455 50.6433 939.291 49.9433 939.291 49.15C939.291 48.3567 939.45 47.6613 939.767 47.064C940.085 46.4667 940.528 46.0093 941.097 45.692C941.676 45.3653 942.339 45.202 943.085 45.202C943.813 45.202 944.457 45.3607 945.017 45.678C945.577 45.9953 946.007 46.434 946.305 46.994C946.613 47.5447 946.767 48.17 946.767 48.87ZM945.451 48.604C945.451 48.1187 945.344 47.7033 945.129 47.358C944.915 47.0033 944.621 46.7373 944.247 46.56C943.883 46.3733 943.477 46.28 943.029 46.28C942.385 46.28 941.835 46.4853 941.377 46.896C940.929 47.3067 940.673 47.876 940.607 48.604H945.451ZM951.165 53.126C950.577 53.126 950.05 53.028 949.583 52.832C949.116 52.6267 948.748 52.3467 948.477 51.992C948.206 51.628 948.057 51.2127 948.029 50.746H949.345C949.382 51.1287 949.56 51.4413 949.877 51.684C950.204 51.9267 950.628 52.048 951.151 52.048C951.636 52.048 952.019 51.9407 952.299 51.726C952.579 51.5113 952.719 51.2407 952.719 50.914C952.719 50.578 952.57 50.3307 952.271 50.172C951.972 50.004 951.51 49.8407 950.885 49.682C950.316 49.5327 949.849 49.3833 949.485 49.234C949.13 49.0753 948.822 48.8467 948.561 48.548C948.309 48.24 948.183 47.8387 948.183 47.344C948.183 46.952 948.3 46.5927 948.533 46.266C948.766 45.9393 949.098 45.6827 949.527 45.496C949.956 45.3 950.446 45.202 950.997 45.202C951.846 45.202 952.532 45.4167 953.055 45.846C953.578 46.2753 953.858 46.8633 953.895 47.61H952.621C952.593 47.2087 952.43 46.8867 952.131 46.644C951.842 46.4013 951.45 46.28 950.955 46.28C950.498 46.28 950.134 46.378 949.863 46.574C949.592 46.77 949.457 47.0267 949.457 47.344C949.457 47.596 949.536 47.806 949.695 47.974C949.863 48.1327 950.068 48.2633 950.311 48.366C950.563 48.4593 950.908 48.5667 951.347 48.688C951.898 48.8373 952.346 48.9867 952.691 49.136C953.036 49.276 953.33 49.4907 953.573 49.78C953.825 50.0693 953.956 50.4473 953.965 50.914C953.965 51.334 953.848 51.712 953.615 52.048C953.382 52.384 953.05 52.65 952.621 52.846C952.201 53.0327 951.716 53.126 951.165 53.126ZM958.48 53.126C957.892 53.126 957.364 53.028 956.898 52.832C956.431 52.6267 956.062 52.3467 955.792 51.992C955.521 51.628 955.372 51.2127 955.344 50.746H956.66C956.697 51.1287 956.874 51.4413 957.192 51.684C957.518 51.9267 957.943 52.048 958.466 52.048C958.951 52.048 959.334 51.9407 959.614 51.726C959.894 51.5113 960.034 51.2407 960.034 50.914C960.034 50.578 959.884 50.3307 959.586 50.172C959.287 50.004 958.825 49.8407 958.2 49.682C957.63 49.5327 957.164 49.3833 956.8 49.234C956.445 49.0753 956.137 48.8467 955.876 48.548C955.624 48.24 955.498 47.8387 955.498 47.344C955.498 46.952 955.614 46.5927 955.848 46.266C956.081 45.9393 956.412 45.6827 956.842 45.496C957.271 45.3 957.761 45.202 958.312 45.202C959.161 45.202 959.847 45.4167 960.37 45.846C960.892 46.2753 961.172 46.8633 961.21 47.61H959.936C959.908 47.2087 959.744 46.8867 959.446 46.644C959.156 46.4013 958.764 46.28 958.27 46.28C957.812 46.28 957.448 46.378 957.178 46.574C956.907 46.77 956.772 47.0267 956.772 47.344C956.772 47.596 956.851 47.806 957.01 47.974C957.178 48.1327 957.383 48.2633 957.626 48.366C957.878 48.4593 958.223 48.5667 958.662 48.688C959.212 48.8373 959.66 48.9867 960.006 49.136C960.351 49.276 960.645 49.4907 960.888 49.78C961.14 50.0693 961.27 50.4473 961.28 50.914C961.28 51.334 961.163 51.712 960.93 52.048C960.696 52.384 960.365 52.65 959.936 52.846C959.516 53.0327 959.03 53.126 958.48 53.126Z" fill="#212633"/>
<rect x="986" y="33" width="118" height="30" rx="8" fill="#F3F6FF"/>
<rect x="994" y="40" width="16" height="16" rx="4" fill="#F9AB35"/>
<path d="M1023.05 43.242C1024.11 43.242 1025.03 43.4427 1025.81 43.844C1026.59 44.236 1027.19 44.8007 1027.6 45.538C1028.02 46.2753 1028.23 47.1433 1028.23 48.142C1028.23 49.1407 1028.02 50.0087 1027.6 50.746C1027.19 51.474 1026.59 52.034 1025.81 52.426C1025.03 52.8087 1024.11 53 1023.05 53H1020.01V43.242H1023.05ZM1023.05 51.95C1024.31 51.95 1025.27 51.6187 1025.93 50.956C1026.59 50.284 1026.93 49.346 1026.93 48.142C1026.93 46.9287 1026.59 45.9813 1025.92 45.3C1025.25 44.6187 1024.3 44.278 1023.05 44.278H1021.28V51.95H1023.05ZM1036.71 45.328V53H1035.44V51.866C1035.2 52.258 1034.85 52.566 1034.42 52.79C1033.99 53.0047 1033.51 53.112 1032.99 53.112C1032.39 53.112 1031.85 52.9907 1031.38 52.748C1030.9 52.496 1030.52 52.1227 1030.24 51.628C1029.97 51.1333 1029.84 50.5313 1029.84 49.822V45.328H1031.1V49.654C1031.1 50.41 1031.29 50.9933 1031.67 51.404C1032.05 51.8053 1032.58 52.006 1033.24 52.006C1033.92 52.006 1034.46 51.796 1034.85 51.376C1035.24 50.956 1035.44 50.3447 1035.44 49.542V45.328H1036.71ZM1045.86 48.87C1045.86 49.1127 1045.85 49.3693 1045.82 49.64H1039.69C1039.74 50.396 1039.99 50.9887 1040.46 51.418C1040.94 51.838 1041.51 52.048 1042.18 52.048C1042.73 52.048 1043.19 51.922 1043.55 51.67C1043.93 51.4087 1044.19 51.0633 1044.34 50.634H1045.71C1045.5 51.3713 1045.09 51.9733 1044.48 52.44C1043.86 52.8973 1043.1 53.126 1042.18 53.126C1041.45 53.126 1040.8 52.9627 1040.22 52.636C1039.65 52.3093 1039.2 51.8473 1038.88 51.25C1038.55 50.6433 1038.39 49.9433 1038.39 49.15C1038.39 48.3567 1038.55 47.6613 1038.86 47.064C1039.18 46.4667 1039.62 46.0093 1040.19 45.692C1040.77 45.3653 1041.43 45.202 1042.18 45.202C1042.91 45.202 1043.55 45.3607 1044.11 45.678C1044.67 45.9953 1045.1 46.434 1045.4 46.994C1045.71 47.5447 1045.86 48.17 1045.86 48.87ZM1044.55 48.604C1044.55 48.1187 1044.44 47.7033 1044.23 47.358C1044.01 47.0033 1043.72 46.7373 1043.34 46.56C1042.98 46.3733 1042.57 46.28 1042.13 46.28C1041.48 46.28 1040.93 46.4853 1040.47 46.896C1040.03 47.3067 1039.77 47.876 1039.7 48.604H1044.55ZM1059.1 54.848L1057.16 52.902C1056.68 53.0327 1056.2 53.098 1055.7 53.098C1054.8 53.098 1053.97 52.888 1053.22 52.468C1052.48 52.0387 1051.88 51.446 1051.45 50.69C1051.02 49.9247 1050.8 49.066 1050.8 48.114C1050.8 47.162 1051.02 46.308 1051.45 45.552C1051.88 44.7867 1052.48 44.194 1053.22 43.774C1053.97 43.3447 1054.8 43.13 1055.7 43.13C1056.62 43.13 1057.45 43.3447 1058.19 43.774C1058.94 44.194 1059.53 44.782 1059.96 45.538C1060.39 46.294 1060.6 47.1527 1060.6 48.114C1060.6 49.0473 1060.4 49.8873 1059.99 50.634C1059.57 51.3807 1059.01 51.9687 1058.29 52.398L1060.76 54.848H1059.1ZM1052.1 48.114C1052.1 48.8887 1052.26 49.57 1052.57 50.158C1052.88 50.746 1053.31 51.1987 1053.85 51.516C1054.4 51.8333 1055.02 51.992 1055.7 51.992C1056.38 51.992 1056.99 51.8333 1057.54 51.516C1058.09 51.1987 1058.52 50.746 1058.82 50.158C1059.14 49.57 1059.3 48.8887 1059.3 48.114C1059.3 47.33 1059.14 46.6487 1058.82 46.07C1058.52 45.482 1058.09 45.0293 1057.55 44.712C1057.01 44.3947 1056.39 44.236 1055.7 44.236C1055.01 44.236 1054.39 44.3947 1053.85 44.712C1053.31 45.0293 1052.88 45.482 1052.57 46.07C1052.26 46.6487 1052.1 47.33 1052.1 48.114ZM1069.11 45.328V53H1067.84V51.866C1067.6 52.258 1067.26 52.566 1066.82 52.79C1066.39 53.0047 1065.91 53.112 1065.39 53.112C1064.79 53.112 1064.26 52.9907 1063.78 52.748C1063.3 52.496 1062.93 52.1227 1062.65 51.628C1062.38 51.1333 1062.24 50.5313 1062.24 49.822V45.328H1063.5V49.654C1063.5 50.41 1063.69 50.9933 1064.07 51.404C1064.46 51.8053 1064.98 52.006 1065.64 52.006C1066.32 52.006 1066.86 51.796 1067.25 51.376C1067.64 50.956 1067.84 50.3447 1067.84 49.542V45.328H1069.11ZM1071.92 44.082C1071.68 44.082 1071.48 43.998 1071.31 43.83C1071.14 43.662 1071.06 43.4567 1071.06 43.214C1071.06 42.9713 1071.14 42.766 1071.31 42.598C1071.48 42.43 1071.68 42.346 1071.92 42.346C1072.16 42.346 1072.35 42.43 1072.51 42.598C1072.68 42.766 1072.76 42.9713 1072.76 43.214C1072.76 43.4567 1072.68 43.662 1072.51 43.83C1072.35 43.998 1072.16 44.082 1071.92 44.082ZM1072.54 45.328V53H1071.27V45.328H1072.54ZM1075.66 51.95H1079.43V53H1074.21V51.95L1077.93 46.364H1074.23V45.328H1079.4V46.364L1075.66 51.95ZM1088.08 48.87C1088.08 49.1127 1088.07 49.3693 1088.04 49.64H1081.91C1081.95 50.396 1082.21 50.9887 1082.68 51.418C1083.15 51.838 1083.73 52.048 1084.4 52.048C1084.95 52.048 1085.41 51.922 1085.77 51.67C1086.15 51.4087 1086.41 51.0633 1086.56 50.634H1087.93C1087.72 51.3713 1087.31 51.9733 1086.7 52.44C1086.08 52.8973 1085.31 53.126 1084.4 53.126C1083.67 53.126 1083.02 52.9627 1082.44 52.636C1081.87 52.3093 1081.42 51.8473 1081.1 51.25C1080.77 50.6433 1080.61 49.9433 1080.61 49.15C1080.61 48.3567 1080.76 47.6613 1081.08 47.064C1081.4 46.4667 1081.84 46.0093 1082.41 45.692C1082.99 45.3653 1083.65 45.202 1084.4 45.202C1085.13 45.202 1085.77 45.3607 1086.33 45.678C1086.89 45.9953 1087.32 46.434 1087.62 46.994C1087.93 47.5447 1088.08 48.17 1088.08 48.87ZM1086.77 48.604C1086.77 48.1187 1086.66 47.7033 1086.44 47.358C1086.23 47.0033 1085.94 46.7373 1085.56 46.56C1085.2 46.3733 1084.79 46.28 1084.34 46.28C1083.7 46.28 1083.15 46.4853 1082.69 46.896C1082.24 47.3067 1081.99 47.876 1081.92 48.604H1086.77ZM1092.48 53.126C1091.89 53.126 1091.36 53.028 1090.9 52.832C1090.43 52.6267 1090.06 52.3467 1089.79 51.992C1089.52 51.628 1089.37 51.2127 1089.34 50.746H1090.66C1090.7 51.1287 1090.87 51.4413 1091.19 51.684C1091.52 51.9267 1091.94 52.048 1092.47 52.048C1092.95 52.048 1093.33 51.9407 1093.61 51.726C1093.89 51.5113 1094.03 51.2407 1094.03 50.914C1094.03 50.578 1093.88 50.3307 1093.59 50.172C1093.29 50.004 1092.82 49.8407 1092.2 49.682C1091.63 49.5327 1091.16 49.3833 1090.8 49.234C1090.44 49.0753 1090.14 48.8467 1089.88 48.548C1089.62 48.24 1089.5 47.8387 1089.5 47.344C1089.5 46.952 1089.61 46.5927 1089.85 46.266C1090.08 45.9393 1090.41 45.6827 1090.84 45.496C1091.27 45.3 1091.76 45.202 1092.31 45.202C1093.16 45.202 1093.85 45.4167 1094.37 45.846C1094.89 46.2753 1095.17 46.8633 1095.21 47.61H1093.94C1093.91 47.2087 1093.74 46.8867 1093.45 46.644C1093.16 46.4013 1092.76 46.28 1092.27 46.28C1091.81 46.28 1091.45 46.378 1091.18 46.574C1090.91 46.77 1090.77 47.0267 1090.77 47.344C1090.77 47.596 1090.85 47.806 1091.01 47.974C1091.18 48.1327 1091.38 48.2633 1091.63 48.366C1091.88 48.4593 1092.22 48.5667 1092.66 48.688C1093.21 48.8373 1093.66 48.9867 1094.01 49.136C1094.35 49.276 1094.64 49.4907 1094.89 49.78C1095.14 50.0693 1095.27 50.4473 1095.28 50.914C1095.28 51.334 1095.16 51.712 1094.93 52.048C1094.7 52.384 1094.36 52.65 1093.94 52.846C1093.52 53.0327 1093.03 53.126 1092.48 53.126Z" fill="#212633"/>
<rect x="1120" y="33" width="120" height="30" rx="8" fill="#F3F6FF"/>
<rect x="1128" y="40" width="16" height="16" rx="4" fill="#34C759"/>
<path d="M1152.6 48.114C1152.6 47.162 1152.82 46.308 1153.25 45.552C1153.68 44.7867 1154.26 44.1893 1155 43.76C1155.74 43.3307 1156.57 43.116 1157.47 43.116C1158.54 43.116 1159.47 43.3727 1160.26 43.886C1161.05 44.3993 1161.63 45.1273 1162 46.07H1160.47C1160.2 45.482 1159.81 45.0293 1159.29 44.712C1158.79 44.3947 1158.18 44.236 1157.47 44.236C1156.79 44.236 1156.18 44.3947 1155.64 44.712C1155.1 45.0293 1154.67 45.482 1154.37 46.07C1154.06 46.6487 1153.9 47.33 1153.9 48.114C1153.9 48.8887 1154.06 49.57 1154.37 50.158C1154.67 50.7367 1155.1 51.1847 1155.64 51.502C1156.18 51.8193 1156.79 51.978 1157.47 51.978C1158.18 51.978 1158.79 51.824 1159.29 51.516C1159.81 51.1987 1160.2 50.746 1160.47 50.158H1162C1161.63 51.0913 1161.05 51.8147 1160.26 52.328C1159.47 52.832 1158.54 53.084 1157.47 53.084C1156.57 53.084 1155.74 52.874 1155 52.454C1154.26 52.0247 1153.68 51.432 1153.25 50.676C1152.82 49.92 1152.6 49.066 1152.6 48.114ZM1167.24 53.126C1166.52 53.126 1165.87 52.9627 1165.28 52.636C1164.7 52.3093 1164.24 51.8473 1163.91 51.25C1163.58 50.6433 1163.42 49.9433 1163.42 49.15C1163.42 48.366 1163.58 47.6753 1163.92 47.078C1164.27 46.4713 1164.73 46.0093 1165.32 45.692C1165.91 45.3653 1166.57 45.202 1167.29 45.202C1168.02 45.202 1168.68 45.3653 1169.27 45.692C1169.86 46.0093 1170.32 46.4667 1170.65 47.064C1171 47.6613 1171.17 48.3567 1171.17 49.15C1171.17 49.9433 1171 50.6433 1170.64 51.25C1170.3 51.8473 1169.82 52.3093 1169.23 52.636C1168.63 52.9627 1167.97 53.126 1167.24 53.126ZM1167.24 52.006C1167.7 52.006 1168.13 51.8987 1168.53 51.684C1168.93 51.4693 1169.25 51.1473 1169.49 50.718C1169.74 50.2887 1169.87 49.766 1169.87 49.15C1169.87 48.534 1169.75 48.0113 1169.51 47.582C1169.26 47.1527 1168.95 46.8353 1168.55 46.63C1168.16 46.4153 1167.74 46.308 1167.28 46.308C1166.81 46.308 1166.38 46.4153 1165.99 46.63C1165.61 46.8353 1165.3 47.1527 1165.07 47.582C1164.84 48.0113 1164.72 48.534 1164.72 49.15C1164.72 49.7753 1164.83 50.3027 1165.05 50.732C1165.29 51.1613 1165.6 51.4833 1165.98 51.698C1166.36 51.9033 1166.78 52.006 1167.24 52.006ZM1182.07 45.188C1182.67 45.188 1183.2 45.314 1183.67 45.566C1184.14 45.8087 1184.5 46.1773 1184.78 46.672C1185.05 47.1667 1185.18 47.7687 1185.18 48.478V53H1183.92V48.66C1183.92 47.8947 1183.73 47.3113 1183.35 46.91C1182.97 46.4993 1182.47 46.294 1181.82 46.294C1181.16 46.294 1180.63 46.5087 1180.24 46.938C1179.85 47.358 1179.65 47.9693 1179.65 48.772V53H1178.39V48.66C1178.39 47.8947 1178.2 47.3113 1177.82 46.91C1177.44 46.4993 1176.94 46.294 1176.29 46.294C1175.63 46.294 1175.1 46.5087 1174.71 46.938C1174.32 47.358 1174.12 47.9693 1174.12 48.772V53H1172.85V45.328H1174.12V46.434C1174.37 46.0327 1174.71 45.7247 1175.13 45.51C1175.56 45.2953 1176.03 45.188 1176.54 45.188C1177.19 45.188 1177.76 45.3327 1178.25 45.622C1178.75 45.9113 1179.11 46.336 1179.36 46.896C1179.57 46.3547 1179.93 45.9347 1180.42 45.636C1180.92 45.3373 1181.47 45.188 1182.07 45.188ZM1188.55 46.742C1188.8 46.3033 1189.17 45.9393 1189.67 45.65C1190.17 45.3513 1190.75 45.202 1191.42 45.202C1192.1 45.202 1192.71 45.3653 1193.26 45.692C1193.82 46.0187 1194.26 46.4807 1194.58 47.078C1194.9 47.666 1195.06 48.352 1195.06 49.136C1195.06 49.9107 1194.9 50.6013 1194.58 51.208C1194.26 51.8147 1193.82 52.286 1193.26 52.622C1192.71 52.958 1192.1 53.126 1191.42 53.126C1190.76 53.126 1190.18 52.9813 1189.68 52.692C1189.18 52.3933 1188.81 52.0247 1188.55 51.586V56.64H1187.27V45.328H1188.55V46.742ZM1193.75 49.136C1193.75 48.5573 1193.64 48.0533 1193.4 47.624C1193.17 47.1947 1192.85 46.868 1192.45 46.644C1192.06 46.42 1191.63 46.308 1191.15 46.308C1190.68 46.308 1190.25 46.4247 1189.85 46.658C1189.46 46.882 1189.14 47.2133 1188.9 47.652C1188.66 48.0813 1188.55 48.5807 1188.55 49.15C1188.55 49.7287 1188.66 50.2373 1188.9 50.676C1189.14 51.1053 1189.46 51.4367 1189.85 51.67C1190.25 51.894 1190.68 52.006 1191.15 52.006C1191.63 52.006 1192.06 51.894 1192.45 51.67C1192.85 51.4367 1193.17 51.1053 1193.4 50.676C1193.64 50.2373 1193.75 49.724 1193.75 49.136ZM1198.01 42.64V53H1196.73V42.64H1198.01ZM1207.18 48.87C1207.18 49.1127 1207.16 49.3693 1207.14 49.64H1201C1201.05 50.396 1201.31 50.9887 1201.77 51.418C1202.25 51.838 1202.82 52.048 1203.5 52.048C1204.05 52.048 1204.5 51.922 1204.87 51.67C1205.24 51.4087 1205.5 51.0633 1205.65 50.634H1207.02C1206.82 51.3713 1206.41 51.9733 1205.79 52.44C1205.18 52.8973 1204.41 53.126 1203.5 53.126C1202.77 53.126 1202.11 52.9627 1201.54 52.636C1200.97 52.3093 1200.52 51.8473 1200.19 51.25C1199.86 50.6433 1199.7 49.9433 1199.7 49.15C1199.7 48.3567 1199.86 47.6613 1200.18 47.064C1200.49 46.4667 1200.94 46.0093 1201.51 45.692C1202.09 45.3653 1202.75 45.202 1203.5 45.202C1204.22 45.202 1204.87 45.3607 1205.43 45.678C1205.99 45.9953 1206.42 46.434 1206.72 46.994C1207.02 47.5447 1207.18 48.17 1207.18 48.87ZM1205.86 48.604C1205.86 48.1187 1205.75 47.7033 1205.54 47.358C1205.32 47.0033 1205.03 46.7373 1204.66 46.56C1204.29 46.3733 1203.89 46.28 1203.44 46.28C1202.8 46.28 1202.24 46.4853 1201.79 46.896C1201.34 47.3067 1201.08 47.876 1201.02 48.604H1205.86ZM1210.41 46.378V50.9C1210.41 51.2733 1210.49 51.5393 1210.65 51.698C1210.81 51.8473 1211.09 51.922 1211.48 51.922H1212.42V53H1211.27C1210.56 53 1210.03 52.8367 1209.67 52.51C1209.32 52.1833 1209.14 51.6467 1209.14 50.9V46.378H1208.15V45.328H1209.14V43.396H1210.41V45.328H1212.42V46.378H1210.41ZM1220.96 48.87C1220.96 49.1127 1220.94 49.3693 1220.92 49.64H1214.78C1214.83 50.396 1215.09 50.9887 1215.55 51.418C1216.03 51.838 1216.6 52.048 1217.28 52.048C1217.83 52.048 1218.28 51.922 1218.65 51.67C1219.02 51.4087 1219.28 51.0633 1219.43 50.634H1220.8C1220.6 51.3713 1220.19 51.9733 1219.57 52.44C1218.96 52.8973 1218.19 53.126 1217.28 53.126C1216.55 53.126 1215.9 52.9627 1215.32 52.636C1214.75 52.3093 1214.3 51.8473 1213.97 51.25C1213.65 50.6433 1213.48 49.9433 1213.48 49.15C1213.48 48.3567 1213.64 47.6613 1213.96 47.064C1214.28 46.4667 1214.72 46.0093 1215.29 45.692C1215.87 45.3653 1216.53 45.202 1217.28 45.202C1218 45.202 1218.65 45.3607 1219.21 45.678C1219.77 45.9953 1220.2 46.434 1220.5 46.994C1220.8 47.5447 1220.96 48.17 1220.96 48.87ZM1219.64 48.604C1219.64 48.1187 1219.54 47.7033 1219.32 47.358C1219.11 47.0033 1218.81 46.7373 1218.44 46.56C1218.07 46.3733 1217.67 46.28 1217.22 46.28C1216.58 46.28 1216.03 46.4853 1215.57 46.896C1215.12 47.3067 1214.86 47.876 1214.8 48.604H1219.64ZM1222.16 49.136C1222.16 48.352 1222.32 47.666 1222.64 47.078C1222.96 46.4807 1223.39 46.0187 1223.94 45.692C1224.5 45.3653 1225.13 45.202 1225.82 45.202C1226.42 45.202 1226.97 45.342 1227.48 45.622C1228 45.8927 1228.39 46.252 1228.66 46.7V42.64H1229.95V53H1228.66V51.558C1228.41 52.0153 1228.04 52.3933 1227.54 52.692C1227.05 52.9813 1226.47 53.126 1225.8 53.126C1225.12 53.126 1224.5 52.958 1223.94 52.622C1223.39 52.286 1222.96 51.8147 1222.64 51.208C1222.32 50.6013 1222.16 49.9107 1222.16 49.136ZM1228.66 49.15C1228.66 48.5713 1228.54 48.0673 1228.31 47.638C1228.08 47.2087 1227.76 46.882 1227.36 46.658C1226.97 46.4247 1226.53 46.308 1226.06 46.308C1225.58 46.308 1225.15 46.42 1224.75 46.644C1224.36 46.868 1224.05 47.1947 1223.82 47.624C1223.58 48.0533 1223.47 48.5573 1223.47 49.136C1223.47 49.724 1223.58 50.2373 1223.82 50.676C1224.05 51.1053 1224.36 51.4367 1224.75 51.67C1225.15 51.894 1225.58 52.006 1226.06 52.006C1226.53 52.006 1226.97 51.894 1227.36 51.67C1227.76 51.4367 1228.08 51.1053 1228.31 50.676C1228.54 50.2373 1228.66 49.7287 1228.66 49.15Z" fill="#212633"/>
<path d="M46.7892 120.426C46.8546 119.567 47.1859 118.895 47.7832 118.41C48.3806 117.925 49.1552 117.682 50.1072 117.682C50.7419 117.682 51.2879 117.799 51.7452 118.032C52.2119 118.256 52.5619 118.564 52.7952 118.956C53.0379 119.348 53.1592 119.791 53.1592 120.286C53.1592 120.865 52.9912 121.364 52.6552 121.784C52.3286 122.204 51.8992 122.475 51.3672 122.596V122.666C51.9739 122.815 52.4546 123.109 52.8092 123.548C53.1639 123.987 53.3412 124.561 53.3412 125.27C53.3412 125.802 53.2199 126.283 52.9772 126.712C52.7346 127.132 52.3706 127.463 51.8852 127.706C51.3999 127.949 50.8166 128.07 50.1352 128.07C49.1459 128.07 48.3339 127.813 47.6992 127.3C47.0646 126.777 46.7099 126.04 46.6352 125.088H47.8672C47.9326 125.648 48.1612 126.105 48.5532 126.46C48.9452 126.815 49.4679 126.992 50.1212 126.992C50.7746 126.992 51.2692 126.824 51.6052 126.488C51.9506 126.143 52.1232 125.699 52.1232 125.158C52.1232 124.458 51.8899 123.954 51.4232 123.646C50.9566 123.338 50.2519 123.184 49.3092 123.184H48.9872V122.12H49.3232C50.1819 122.111 50.8306 121.971 51.2692 121.7C51.7079 121.42 51.9272 120.991 51.9272 120.412C51.9272 119.917 51.7639 119.521 51.4372 119.222C51.1199 118.923 50.6626 118.774 50.0652 118.774C49.4866 118.774 49.0199 118.923 48.6652 119.222C48.3106 119.521 48.1006 119.922 48.0352 120.426H46.7892ZM55.0614 122.834C55.0614 121.229 55.3227 119.978 55.8454 119.082C56.368 118.177 57.2827 117.724 58.5894 117.724C59.8867 117.724 60.7967 118.177 61.3194 119.082C61.842 119.978 62.1034 121.229 62.1034 122.834C62.1034 124.467 61.842 125.737 61.3194 126.642C60.7967 127.547 59.8867 128 58.5894 128C57.2827 128 56.368 127.547 55.8454 126.642C55.3227 125.737 55.0614 124.467 55.0614 122.834ZM60.8434 122.834C60.8434 122.022 60.7874 121.336 60.6754 120.776C60.5727 120.207 60.3534 119.749 60.0174 119.404C59.6907 119.059 59.2147 118.886 58.5894 118.886C57.9547 118.886 57.4694 119.059 57.1334 119.404C56.8067 119.749 56.5874 120.207 56.4754 120.776C56.3727 121.336 56.3214 122.022 56.3214 122.834C56.3214 123.674 56.3727 124.379 56.4754 124.948C56.5874 125.517 56.8067 125.975 57.1334 126.32C57.4694 126.665 57.9547 126.838 58.5894 126.838C59.2147 126.838 59.6907 126.665 60.0174 126.32C60.3534 125.975 60.5727 125.517 60.6754 124.948C60.7874 124.379 60.8434 123.674 60.8434 122.834ZM73.5628 125.83H69.3068L68.5228 128H67.1788L70.7068 118.298H72.1768L75.6908 128H74.3468L73.5628 125.83ZM73.1988 124.794L71.4348 119.866L69.6708 124.794H73.1988ZM84.0324 120.328V128H82.7584V126.866C82.5157 127.258 82.1751 127.566 81.7364 127.79C81.3071 128.005 80.8311 128.112 80.3084 128.112C79.7111 128.112 79.1744 127.991 78.6984 127.748C78.2224 127.496 77.8444 127.123 77.5644 126.628C77.2937 126.133 77.1584 125.531 77.1584 124.822V120.328H78.4184V124.654C78.4184 125.41 78.6097 125.993 78.9924 126.404C79.3751 126.805 79.8977 127.006 80.5604 127.006C81.2417 127.006 81.7784 126.796 82.1704 126.376C82.5624 125.956 82.7584 125.345 82.7584 124.542V120.328H84.0324ZM89.3475 120.202C90.0101 120.202 90.5888 120.347 91.0835 120.636C91.5875 120.925 91.9608 121.289 92.2035 121.728V120.328H93.4915V128.168C93.4915 128.868 93.3421 129.489 93.0435 130.03C92.7448 130.581 92.3155 131.01 91.7555 131.318C91.2048 131.626 90.5608 131.78 89.8235 131.78C88.8155 131.78 87.9755 131.542 87.3035 131.066C86.6315 130.59 86.2348 129.941 86.1135 129.12H87.3735C87.5135 129.587 87.8028 129.96 88.2415 130.24C88.6801 130.529 89.2075 130.674 89.8235 130.674C90.5235 130.674 91.0928 130.455 91.5315 130.016C91.9795 129.577 92.2035 128.961 92.2035 128.168V126.558C91.9515 127.006 91.5781 127.379 91.0835 127.678C90.5888 127.977 90.0101 128.126 89.3475 128.126C88.6661 128.126 88.0455 127.958 87.4855 127.622C86.9348 127.286 86.5008 126.815 86.1835 126.208C85.8661 125.601 85.7075 124.911 85.7075 124.136C85.7075 123.352 85.8661 122.666 86.1835 122.078C86.5008 121.481 86.9348 121.019 87.4855 120.692C88.0455 120.365 88.6661 120.202 89.3475 120.202ZM92.2035 124.15C92.2035 123.571 92.0868 123.067 91.8535 122.638C91.6201 122.209 91.3028 121.882 90.9015 121.658C90.5095 121.425 90.0755 121.308 89.5995 121.308C89.1235 121.308 88.6895 121.42 88.2975 121.644C87.9055 121.868 87.5928 122.195 87.3595 122.624C87.1261 123.053 87.0095 123.557 87.0095 124.136C87.0095 124.724 87.1261 125.237 87.3595 125.676C87.5928 126.105 87.9055 126.437 88.2975 126.67C88.6895 126.894 89.1235 127.006 89.5995 127.006C90.0755 127.006 90.5095 126.894 90.9015 126.67C91.3028 126.437 91.6201 126.105 91.8535 125.676C92.0868 125.237 92.2035 124.729 92.2035 124.15ZM99.0128 126.978C100.198 126.026 101.127 125.247 101.799 124.64C102.471 124.024 103.035 123.385 103.493 122.722C103.959 122.05 104.193 121.392 104.193 120.748C104.193 120.141 104.043 119.665 103.745 119.32C103.455 118.965 102.984 118.788 102.331 118.788C101.696 118.788 101.201 118.989 100.847 119.39C100.501 119.782 100.315 120.309 100.287 120.972H99.0548C99.0922 119.927 99.4095 119.119 100.007 118.55C100.604 117.981 101.374 117.696 102.317 117.696C103.278 117.696 104.039 117.962 104.599 118.494C105.168 119.026 105.453 119.759 105.453 120.692C105.453 121.467 105.219 122.223 104.753 122.96C104.295 123.688 103.773 124.332 103.185 124.892C102.597 125.443 101.845 126.087 100.931 126.824H105.747V127.888H99.0128V126.978ZM107.22 122.834C107.22 121.229 107.481 119.978 108.004 119.082C108.526 118.177 109.441 117.724 110.748 117.724C112.045 117.724 112.955 118.177 113.478 119.082C114 119.978 114.262 121.229 114.262 122.834C114.262 124.467 114 125.737 113.478 126.642C112.955 127.547 112.045 128 110.748 128C109.441 128 108.526 127.547 108.004 126.642C107.481 125.737 107.22 124.467 107.22 122.834ZM113.002 122.834C113.002 122.022 112.946 121.336 112.834 120.776C112.731 120.207 112.512 119.749 112.176 119.404C111.849 119.059 111.373 118.886 110.748 118.886C110.113 118.886 109.628 119.059 109.292 119.404C108.965 119.749 108.746 120.207 108.634 120.776C108.531 121.336 108.48 122.022 108.48 122.834C108.48 123.674 108.531 124.379 108.634 124.948C108.746 125.517 108.965 125.975 109.292 126.32C109.628 126.665 110.113 126.838 110.748 126.838C111.373 126.838 111.849 126.665 112.176 126.32C112.512 125.975 112.731 125.517 112.834 124.948C112.946 124.379 113.002 123.674 113.002 122.834ZM115.857 126.978C117.042 126.026 117.971 125.247 118.643 124.64C119.315 124.024 119.879 123.385 120.337 122.722C120.803 122.05 121.037 121.392 121.037 120.748C121.037 120.141 120.887 119.665 120.589 119.32C120.299 118.965 119.828 118.788 119.175 118.788C118.54 118.788 118.045 118.989 117.691 119.39C117.345 119.782 117.159 120.309 117.131 120.972H115.899C115.936 119.927 116.253 119.119 116.851 118.55C117.448 117.981 118.218 117.696 119.161 117.696C120.122 117.696 120.883 117.962 121.443 118.494C122.012 119.026 122.297 119.759 122.297 120.692C122.297 121.467 122.063 122.223 121.597 122.96C121.139 123.688 120.617 124.332 120.029 124.892C119.441 125.443 118.689 126.087 117.775 126.824H122.591V127.888H115.857V126.978ZM123.755 125.746V124.78L128.669 117.976H130.195V124.64H131.595V125.746H130.195V128H128.935V125.746H123.755ZM128.991 119.306L125.225 124.64H128.991V119.306Z" fill="#212633"/>
<path d="M51.1613 270.978C52.3466 270.026 53.2753 269.247 53.9473 268.64C54.6193 268.024 55.1839 267.385 55.6413 266.722C56.1079 266.05 56.3413 265.392 56.3413 264.748C56.3413 264.141 56.1919 263.665 55.8933 263.32C55.6039 262.965 55.1326 262.788 54.4793 262.788C53.8446 262.788 53.3499 262.989 52.9953 263.39C52.6499 263.782 52.4633 264.309 52.4353 264.972H51.2033C51.2406 263.927 51.5579 263.119 52.1553 262.55C52.7526 261.981 53.5226 261.696 54.4653 261.696C55.4266 261.696 56.1873 261.962 56.7473 262.494C57.3166 263.026 57.6013 263.759 57.6013 264.692C57.6013 265.467 57.3679 266.223 56.9013 266.96C56.4439 267.688 55.9213 268.332 55.3333 268.892C54.7453 269.443 53.9939 270.087 53.0793 270.824H57.8953V271.888H51.1613V270.978ZM59.032 263.04V261.878H61.664V272H60.376V263.04H59.032ZM73.5628 269.83H69.3068L68.5228 272H67.1788L70.7068 262.298H72.1768L75.6908 272H74.3468L73.5628 269.83ZM73.1988 268.794L71.4348 263.866L69.6708 268.794H73.1988ZM84.0324 264.328V272H82.7584V270.866C82.5157 271.258 82.1751 271.566 81.7364 271.79C81.3071 272.005 80.8311 272.112 80.3084 272.112C79.7111 272.112 79.1744 271.991 78.6984 271.748C78.2224 271.496 77.8444 271.123 77.5644 270.628C77.2937 270.133 77.1584 269.531 77.1584 268.822V264.328H78.4184V268.654C78.4184 269.41 78.6097 269.993 78.9924 270.404C79.3751 270.805 79.8977 271.006 80.5604 271.006C81.2417 271.006 81.7784 270.796 82.1704 270.376C82.5624 269.956 82.7584 269.345 82.7584 268.542V264.328H84.0324ZM89.3475 264.202C90.0101 264.202 90.5888 264.347 91.0835 264.636C91.5875 264.925 91.9608 265.289 92.2035 265.728V264.328H93.4915V272.168C93.4915 272.868 93.3421 273.489 93.0435 274.03C92.7448 274.581 92.3155 275.01 91.7555 275.318C91.2048 275.626 90.5608 275.78 89.8235 275.78C88.8155 275.78 87.9755 275.542 87.3035 275.066C86.6315 274.59 86.2348 273.941 86.1135 273.12H87.3735C87.5135 273.587 87.8028 273.96 88.2415 274.24C88.6801 274.529 89.2075 274.674 89.8235 274.674C90.5235 274.674 91.0928 274.455 91.5315 274.016C91.9795 273.577 92.2035 272.961 92.2035 272.168V270.558C91.9515 271.006 91.5781 271.379 91.0835 271.678C90.5888 271.977 90.0101 272.126 89.3475 272.126C88.6661 272.126 88.0455 271.958 87.4855 271.622C86.9348 271.286 86.5008 270.815 86.1835 270.208C85.8661 269.601 85.7075 268.911 85.7075 268.136C85.7075 267.352 85.8661 266.666 86.1835 266.078C86.5008 265.481 86.9348 265.019 87.4855 264.692C88.0455 264.365 88.6661 264.202 89.3475 264.202ZM92.2035 268.15C92.2035 267.571 92.0868 267.067 91.8535 266.638C91.6201 266.209 91.3028 265.882 90.9015 265.658C90.5095 265.425 90.0755 265.308 89.5995 265.308C89.1235 265.308 88.6895 265.42 88.2975 265.644C87.9055 265.868 87.5928 266.195 87.3595 266.624C87.1261 267.053 87.0095 267.557 87.0095 268.136C87.0095 268.724 87.1261 269.237 87.3595 269.676C87.5928 270.105 87.9055 270.437 88.2975 270.67C88.6895 270.894 89.1235 271.006 89.5995 271.006C90.0755 271.006 90.5095 270.894 90.9015 270.67C91.3028 270.437 91.6201 270.105 91.8535 269.676C92.0868 269.237 92.2035 268.729 92.2035 268.15ZM99.0128 270.978C100.198 270.026 101.127 269.247 101.799 268.64C102.471 268.024 103.035 267.385 103.493 266.722C103.959 266.05 104.193 265.392 104.193 264.748C104.193 264.141 104.043 263.665 103.745 263.32C103.455 262.965 102.984 262.788 102.331 262.788C101.696 262.788 101.201 262.989 100.847 263.39C100.501 263.782 100.315 264.309 100.287 264.972H99.0548C99.0922 263.927 99.4095 263.119 100.007 262.55C100.604 261.981 101.374 261.696 102.317 261.696C103.278 261.696 104.039 261.962 104.599 262.494C105.168 263.026 105.453 263.759 105.453 264.692C105.453 265.467 105.219 266.223 104.753 266.96C104.295 267.688 103.773 268.332 103.185 268.892C102.597 269.443 101.845 270.087 100.931 270.824H105.747V271.888H99.0128V270.978ZM107.22 266.834C107.22 265.229 107.481 263.978 108.004 263.082C108.526 262.177 109.441 261.724 110.748 261.724C112.045 261.724 112.955 262.177 113.478 263.082C114 263.978 114.262 265.229 114.262 266.834C114.262 268.467 114 269.737 113.478 270.642C112.955 271.547 112.045 272 110.748 272C109.441 272 108.526 271.547 108.004 270.642C107.481 269.737 107.22 268.467 107.22 266.834ZM113.002 266.834C113.002 266.022 112.946 265.336 112.834 264.776C112.731 264.207 112.512 263.749 112.176 263.404C111.849 263.059 111.373 262.886 110.748 262.886C110.113 262.886 109.628 263.059 109.292 263.404C108.965 263.749 108.746 264.207 108.634 264.776C108.531 265.336 108.48 266.022 108.48 266.834C108.48 267.674 108.531 268.379 108.634 268.948C108.746 269.517 108.965 269.975 109.292 270.32C109.628 270.665 110.113 270.838 110.748 270.838C111.373 270.838 111.849 270.665 112.176 270.32C112.512 269.975 112.731 269.517 112.834 268.948C112.946 268.379 113.002 267.674 113.002 266.834ZM115.857 270.978C117.042 270.026 117.971 269.247 118.643 268.64C119.315 268.024 119.879 267.385 120.337 266.722C120.803 266.05 121.037 265.392 121.037 264.748C121.037 264.141 120.887 263.665 120.589 263.32C120.299 262.965 119.828 262.788 119.175 262.788C118.54 262.788 118.045 262.989 117.691 263.39C117.345 263.782 117.159 264.309 117.131 264.972H115.899C115.936 263.927 116.253 263.119 116.851 262.55C117.448 261.981 118.218 261.696 119.161 261.696C120.122 261.696 120.883 261.962 121.443 262.494C122.012 263.026 122.297 263.759 122.297 264.692C122.297 265.467 122.063 266.223 121.597 266.96C121.139 267.688 120.617 268.332 120.029 268.892C119.441 269.443 118.689 270.087 117.775 270.824H122.591V271.888H115.857V270.978ZM123.755 269.746V268.78L128.669 261.976H130.195V268.64H131.595V269.746H130.195V272H128.935V269.746H123.755ZM128.991 263.306L125.225 268.64H128.991V263.306Z" fill="#212633"/>
<path d="M51.3894 407.04V405.878H54.0214V416H52.7334V407.04H51.3894ZM62.4398 406.872L58.5478 416H57.2598L61.2078 406.998H55.8038V405.906H62.4398V406.872ZM73.5628 413.83H69.3068L68.5228 416H67.1788L70.7068 406.298H72.1768L75.6908 416H74.3468L73.5628 413.83ZM73.1988 412.794L71.4348 407.866L69.6708 412.794H73.1988ZM84.0324 408.328V416H82.7584V414.866C82.5157 415.258 82.1751 415.566 81.7364 415.79C81.3071 416.005 80.8311 416.112 80.3084 416.112C79.7111 416.112 79.1744 415.991 78.6984 415.748C78.2224 415.496 77.8444 415.123 77.5644 414.628C77.2937 414.133 77.1584 413.531 77.1584 412.822V408.328H78.4184V412.654C78.4184 413.41 78.6097 413.993 78.9924 414.404C79.3751 414.805 79.8977 415.006 80.5604 415.006C81.2417 415.006 81.7784 414.796 82.1704 414.376C82.5624 413.956 82.7584 413.345 82.7584 412.542V408.328H84.0324ZM89.3475 408.202C90.0101 408.202 90.5888 408.347 91.0835 408.636C91.5875 408.925 91.9608 409.289 92.2035 409.728V408.328H93.4915V416.168C93.4915 416.868 93.3421 417.489 93.0435 418.03C92.7448 418.581 92.3155 419.01 91.7555 419.318C91.2048 419.626 90.5608 419.78 89.8235 419.78C88.8155 419.78 87.9755 419.542 87.3035 419.066C86.6315 418.59 86.2348 417.941 86.1135 417.12H87.3735C87.5135 417.587 87.8028 417.96 88.2415 418.24C88.6801 418.529 89.2075 418.674 89.8235 418.674C90.5235 418.674 91.0928 418.455 91.5315 418.016C91.9795 417.577 92.2035 416.961 92.2035 416.168V414.558C91.9515 415.006 91.5781 415.379 91.0835 415.678C90.5888 415.977 90.0101 416.126 89.3475 416.126C88.6661 416.126 88.0455 415.958 87.4855 415.622C86.9348 415.286 86.5008 414.815 86.1835 414.208C85.8661 413.601 85.7075 412.911 85.7075 412.136C85.7075 411.352 85.8661 410.666 86.1835 410.078C86.5008 409.481 86.9348 409.019 87.4855 408.692C88.0455 408.365 88.6661 408.202 89.3475 408.202ZM92.2035 412.15C92.2035 411.571 92.0868 411.067 91.8535 410.638C91.6201 410.209 91.3028 409.882 90.9015 409.658C90.5095 409.425 90.0755 409.308 89.5995 409.308C89.1235 409.308 88.6895 409.42 88.2975 409.644C87.9055 409.868 87.5928 410.195 87.3595 410.624C87.1261 411.053 87.0095 411.557 87.0095 412.136C87.0095 412.724 87.1261 413.237 87.3595 413.676C87.5928 414.105 87.9055 414.437 88.2975 414.67C88.6895 414.894 89.1235 415.006 89.5995 415.006C90.0755 415.006 90.5095 414.894 90.9015 414.67C91.3028 414.437 91.6201 414.105 91.8535 413.676C92.0868 413.237 92.2035 412.729 92.2035 412.15ZM99.0128 414.978C100.198 414.026 101.127 413.247 101.799 412.64C102.471 412.024 103.035 411.385 103.493 410.722C103.959 410.05 104.193 409.392 104.193 408.748C104.193 408.141 104.043 407.665 103.745 407.32C103.455 406.965 102.984 406.788 102.331 406.788C101.696 406.788 101.201 406.989 100.847 407.39C100.501 407.782 100.315 408.309 100.287 408.972H99.0548C99.0922 407.927 99.4095 407.119 100.007 406.55C100.604 405.981 101.374 405.696 102.317 405.696C103.278 405.696 104.039 405.962 104.599 406.494C105.168 407.026 105.453 407.759 105.453 408.692C105.453 409.467 105.219 410.223 104.753 410.96C104.295 411.688 103.773 412.332 103.185 412.892C102.597 413.443 101.845 414.087 100.931 414.824H105.747V415.888H99.0128V414.978ZM107.22 410.834C107.22 409.229 107.481 407.978 108.004 407.082C108.526 406.177 109.441 405.724 110.748 405.724C112.045 405.724 112.955 406.177 113.478 407.082C114 407.978 114.262 409.229 114.262 410.834C114.262 412.467 114 413.737 113.478 414.642C112.955 415.547 112.045 416 110.748 416C109.441 416 108.526 415.547 108.004 414.642C107.481 413.737 107.22 412.467 107.22 410.834ZM113.002 410.834C113.002 410.022 112.946 409.336 112.834 408.776C112.731 408.207 112.512 407.749 112.176 407.404C111.849 407.059 111.373 406.886 110.748 406.886C110.113 406.886 109.628 407.059 109.292 407.404C108.965 407.749 108.746 408.207 108.634 408.776C108.531 409.336 108.48 410.022 108.48 410.834C108.48 411.674 108.531 412.379 108.634 412.948C108.746 413.517 108.965 413.975 109.292 414.32C109.628 414.665 110.113 414.838 110.748 414.838C111.373 414.838 111.849 414.665 112.176 414.32C112.512 413.975 112.731 413.517 112.834 412.948C112.946 412.379 113.002 411.674 113.002 410.834ZM115.857 414.978C117.042 414.026 117.971 413.247 118.643 412.64C119.315 412.024 119.879 411.385 120.337 410.722C120.803 410.05 121.037 409.392 121.037 408.748C121.037 408.141 120.887 407.665 120.589 407.32C120.299 406.965 119.828 406.788 119.175 406.788C118.54 406.788 118.045 406.989 117.691 407.39C117.345 407.782 117.159 408.309 117.131 408.972H115.899C115.936 407.927 116.253 407.119 116.851 406.55C117.448 405.981 118.218 405.696 119.161 405.696C120.122 405.696 120.883 405.962 121.443 406.494C122.012 407.026 122.297 407.759 122.297 408.692C122.297 409.467 122.063 410.223 121.597 410.96C121.139 411.688 120.617 412.332 120.029 412.892C119.441 413.443 118.689 414.087 117.775 414.824H122.591V415.888H115.857V414.978ZM123.755 413.746V412.78L128.669 405.976H130.195V412.64H131.595V413.746H130.195V416H128.935V413.746H123.755ZM128.991 407.306L125.225 412.64H128.991V407.306Z" fill="#212633"/>
<path d="M56.672 557.284C56.7653 557.816 56.98 558.227 57.316 558.516C57.6613 558.805 58.1233 558.95 58.702 558.95C59.4767 558.95 60.046 558.647 60.41 558.04C60.7833 557.433 60.9607 556.411 60.942 554.974C60.746 555.394 60.4193 555.725 59.962 555.968C59.5047 556.201 58.996 556.318 58.436 556.318C57.8107 556.318 57.2507 556.192 56.756 555.94C56.2707 555.679 55.888 555.301 55.608 554.806C55.328 554.311 55.188 553.714 55.188 553.014C55.188 552.015 55.4773 551.213 56.056 550.606C56.6347 549.99 57.456 549.682 58.52 549.682C59.8267 549.682 60.7413 550.107 61.264 550.956C61.796 551.805 62.062 553.07 62.062 554.75C62.062 555.926 61.9547 556.897 61.74 557.662C61.5347 558.427 61.18 559.011 60.676 559.412C60.1813 559.813 59.5 560.014 58.632 560.014C57.68 560.014 56.938 559.757 56.406 559.244C55.874 558.731 55.5707 558.077 55.496 557.284H56.672ZM58.646 555.24C59.2713 555.24 59.7847 555.049 60.186 554.666C60.5873 554.274 60.788 553.747 60.788 553.084C60.788 552.384 60.592 551.819 60.2 551.39C59.808 550.961 59.2573 550.746 58.548 550.746C57.8947 550.746 57.372 550.951 56.98 551.362C56.5973 551.773 56.406 552.314 56.406 552.986C56.406 553.667 56.5973 554.213 56.98 554.624C57.3627 555.035 57.918 555.24 58.646 555.24ZM73.5628 557.83H69.3068L68.5228 560H67.1788L70.7068 550.298H72.1768L75.6908 560H74.3468L73.5628 557.83ZM73.1988 556.794L71.4348 551.866L69.6708 556.794H73.1988ZM84.0324 552.328V560H82.7584V558.866C82.5157 559.258 82.1751 559.566 81.7364 559.79C81.3071 560.005 80.8311 560.112 80.3084 560.112C79.7111 560.112 79.1744 559.991 78.6984 559.748C78.2224 559.496 77.8444 559.123 77.5644 558.628C77.2937 558.133 77.1584 557.531 77.1584 556.822V552.328H78.4184V556.654C78.4184 557.41 78.6097 557.993 78.9924 558.404C79.3751 558.805 79.8977 559.006 80.5604 559.006C81.2417 559.006 81.7784 558.796 82.1704 558.376C82.5624 557.956 82.7584 557.345 82.7584 556.542V552.328H84.0324ZM89.3475 552.202C90.0101 552.202 90.5888 552.347 91.0835 552.636C91.5875 552.925 91.9608 553.289 92.2035 553.728V552.328H93.4915V560.168C93.4915 560.868 93.3421 561.489 93.0435 562.03C92.7448 562.581 92.3155 563.01 91.7555 563.318C91.2048 563.626 90.5608 563.78 89.8235 563.78C88.8155 563.78 87.9755 563.542 87.3035 563.066C86.6315 562.59 86.2348 561.941 86.1135 561.12H87.3735C87.5135 561.587 87.8028 561.96 88.2415 562.24C88.6801 562.529 89.2075 562.674 89.8235 562.674C90.5235 562.674 91.0928 562.455 91.5315 562.016C91.9795 561.577 92.2035 560.961 92.2035 560.168V558.558C91.9515 559.006 91.5781 559.379 91.0835 559.678C90.5888 559.977 90.0101 560.126 89.3475 560.126C88.6661 560.126 88.0455 559.958 87.4855 559.622C86.9348 559.286 86.5008 558.815 86.1835 558.208C85.8661 557.601 85.7075 556.911 85.7075 556.136C85.7075 555.352 85.8661 554.666 86.1835 554.078C86.5008 553.481 86.9348 553.019 87.4855 552.692C88.0455 552.365 88.6661 552.202 89.3475 552.202ZM92.2035 556.15C92.2035 555.571 92.0868 555.067 91.8535 554.638C91.6201 554.209 91.3028 553.882 90.9015 553.658C90.5095 553.425 90.0755 553.308 89.5995 553.308C89.1235 553.308 88.6895 553.42 88.2975 553.644C87.9055 553.868 87.5928 554.195 87.3595 554.624C87.1261 555.053 87.0095 555.557 87.0095 556.136C87.0095 556.724 87.1261 557.237 87.3595 557.676C87.5928 558.105 87.9055 558.437 88.2975 558.67C88.6895 558.894 89.1235 559.006 89.5995 559.006C90.0755 559.006 90.5095 558.894 90.9015 558.67C91.3028 558.437 91.6201 558.105 91.8535 557.676C92.0868 557.237 92.2035 556.729 92.2035 556.15ZM99.0128 558.978C100.198 558.026 101.127 557.247 101.799 556.64C102.471 556.024 103.035 555.385 103.493 554.722C103.959 554.05 104.193 553.392 104.193 552.748C104.193 552.141 104.043 551.665 103.745 551.32C103.455 550.965 102.984 550.788 102.331 550.788C101.696 550.788 101.201 550.989 100.847 551.39C100.501 551.782 100.315 552.309 100.287 552.972H99.0548C99.0922 551.927 99.4095 551.119 100.007 550.55C100.604 549.981 101.374 549.696 102.317 549.696C103.278 549.696 104.039 549.962 104.599 550.494C105.168 551.026 105.453 551.759 105.453 552.692C105.453 553.467 105.219 554.223 104.753 554.96C104.295 555.688 103.773 556.332 103.185 556.892C102.597 557.443 101.845 558.087 100.931 558.824H105.747V559.888H99.0128V558.978ZM107.22 554.834C107.22 553.229 107.481 551.978 108.004 551.082C108.526 550.177 109.441 549.724 110.748 549.724C112.045 549.724 112.955 550.177 113.478 551.082C114 551.978 114.262 553.229 114.262 554.834C114.262 556.467 114 557.737 113.478 558.642C112.955 559.547 112.045 560 110.748 560C109.441 560 108.526 559.547 108.004 558.642C107.481 557.737 107.22 556.467 107.22 554.834ZM113.002 554.834C113.002 554.022 112.946 553.336 112.834 552.776C112.731 552.207 112.512 551.749 112.176 551.404C111.849 551.059 111.373 550.886 110.748 550.886C110.113 550.886 109.628 551.059 109.292 551.404C108.965 551.749 108.746 552.207 108.634 552.776C108.531 553.336 108.48 554.022 108.48 554.834C108.48 555.674 108.531 556.379 108.634 556.948C108.746 557.517 108.965 557.975 109.292 558.32C109.628 558.665 110.113 558.838 110.748 558.838C111.373 558.838 111.849 558.665 112.176 558.32C112.512 557.975 112.731 557.517 112.834 556.948C112.946 556.379 113.002 555.674 113.002 554.834ZM115.857 558.978C117.042 558.026 117.971 557.247 118.643 556.64C119.315 556.024 119.879 555.385 120.337 554.722C120.803 554.05 121.037 553.392 121.037 552.748C121.037 552.141 120.887 551.665 120.589 551.32C120.299 550.965 119.828 550.788 119.175 550.788C118.54 550.788 118.045 550.989 117.691 551.39C117.345 551.782 117.159 552.309 117.131 552.972H115.899C115.936 551.927 116.253 551.119 116.851 550.55C117.448 549.981 118.218 549.696 119.161 549.696C120.122 549.696 120.883 549.962 121.443 550.494C122.012 551.026 122.297 551.759 122.297 552.692C122.297 553.467 122.063 554.223 121.597 554.96C121.139 555.688 120.617 556.332 120.029 556.892C119.441 557.443 118.689 558.087 117.775 558.824H122.591V559.888H115.857V558.978ZM123.755 557.746V556.78L128.669 549.976H130.195V556.64H131.595V557.746H130.195V560H128.935V557.746H123.755ZM128.991 551.306L125.225 556.64H128.991V551.306Z" fill="#212633"/>
<path d="M56.8683 698.736C56.3457 698.531 55.9443 698.232 55.6643 697.84C55.3843 697.448 55.2443 696.972 55.2443 696.412C55.2443 695.908 55.3703 695.455 55.6223 695.054C55.8743 694.643 56.2477 694.321 56.7423 694.088C57.2463 693.845 57.853 693.724 58.5623 693.724C59.2717 693.724 59.8737 693.845 60.3683 694.088C60.8723 694.321 61.2503 694.643 61.5023 695.054C61.7637 695.455 61.8943 695.908 61.8943 696.412C61.8943 696.953 61.7497 697.429 61.4603 697.84C61.171 698.241 60.7743 698.54 60.2703 698.736C60.849 698.913 61.3063 699.226 61.6423 699.674C61.9877 700.113 62.1603 700.645 62.1603 701.27C62.1603 701.877 62.011 702.409 61.7123 702.866C61.4137 703.314 60.989 703.664 60.4383 703.916C59.897 704.159 59.2717 704.28 58.5623 704.28C57.853 704.28 57.2277 704.159 56.6863 703.916C56.1543 703.664 55.739 703.314 55.4403 702.866C55.1417 702.409 54.9923 701.877 54.9923 701.27C54.9923 700.645 55.1603 700.108 55.4963 699.66C55.8323 699.212 56.2897 698.904 56.8683 698.736ZM60.6623 696.566C60.6623 695.997 60.4757 695.558 60.1023 695.25C59.729 694.942 59.2157 694.788 58.5623 694.788C57.9183 694.788 57.4097 694.942 57.0363 695.25C56.663 695.558 56.4763 696.001 56.4763 696.58C56.4763 697.103 56.6677 697.523 57.0503 697.84C57.4423 698.157 57.9463 698.316 58.5623 698.316C59.1877 698.316 59.6917 698.157 60.0743 697.84C60.4663 697.513 60.6623 697.089 60.6623 696.566ZM58.5623 699.296C57.8717 699.296 57.307 699.459 56.8683 699.786C56.4297 700.103 56.2103 700.584 56.2103 701.228C56.2103 701.825 56.4203 702.306 56.8403 702.67C57.2697 703.034 57.8437 703.216 58.5623 703.216C59.281 703.216 59.8503 703.034 60.2703 702.67C60.6903 702.306 60.9003 701.825 60.9003 701.228C60.9003 700.603 60.6857 700.127 60.2563 699.8C59.827 699.464 59.2623 699.296 58.5623 699.296ZM73.5628 701.83H69.3068L68.5228 704H67.1788L70.7068 694.298H72.1768L75.6908 704H74.3468L73.5628 701.83ZM73.1988 700.794L71.4348 695.866L69.6708 700.794H73.1988ZM84.0324 696.328V704H82.7584V702.866C82.5157 703.258 82.1751 703.566 81.7364 703.79C81.3071 704.005 80.8311 704.112 80.3084 704.112C79.7111 704.112 79.1744 703.991 78.6984 703.748C78.2224 703.496 77.8444 703.123 77.5644 702.628C77.2937 702.133 77.1584 701.531 77.1584 700.822V696.328H78.4184V700.654C78.4184 701.41 78.6097 701.993 78.9924 702.404C79.3751 702.805 79.8977 703.006 80.5604 703.006C81.2417 703.006 81.7784 702.796 82.1704 702.376C82.5624 701.956 82.7584 701.345 82.7584 700.542V696.328H84.0324ZM89.3475 696.202C90.0101 696.202 90.5888 696.347 91.0835 696.636C91.5875 696.925 91.9608 697.289 92.2035 697.728V696.328H93.4915V704.168C93.4915 704.868 93.3421 705.489 93.0435 706.03C92.7448 706.581 92.3155 707.01 91.7555 707.318C91.2048 707.626 90.5608 707.78 89.8235 707.78C88.8155 707.78 87.9755 707.542 87.3035 707.066C86.6315 706.59 86.2348 705.941 86.1135 705.12H87.3735C87.5135 705.587 87.8028 705.96 88.2415 706.24C88.6801 706.529 89.2075 706.674 89.8235 706.674C90.5235 706.674 91.0928 706.455 91.5315 706.016C91.9795 705.577 92.2035 704.961 92.2035 704.168V702.558C91.9515 703.006 91.5781 703.379 91.0835 703.678C90.5888 703.977 90.0101 704.126 89.3475 704.126C88.6661 704.126 88.0455 703.958 87.4855 703.622C86.9348 703.286 86.5008 702.815 86.1835 702.208C85.8661 701.601 85.7075 700.911 85.7075 700.136C85.7075 699.352 85.8661 698.666 86.1835 698.078C86.5008 697.481 86.9348 697.019 87.4855 696.692C88.0455 696.365 88.6661 696.202 89.3475 696.202ZM92.2035 700.15C92.2035 699.571 92.0868 699.067 91.8535 698.638C91.6201 698.209 91.3028 697.882 90.9015 697.658C90.5095 697.425 90.0755 697.308 89.5995 697.308C89.1235 697.308 88.6895 697.42 88.2975 697.644C87.9055 697.868 87.5928 698.195 87.3595 698.624C87.1261 699.053 87.0095 699.557 87.0095 700.136C87.0095 700.724 87.1261 701.237 87.3595 701.676C87.5928 702.105 87.9055 702.437 88.2975 702.67C88.6895 702.894 89.1235 703.006 89.5995 703.006C90.0755 703.006 90.5095 702.894 90.9015 702.67C91.3028 702.437 91.6201 702.105 91.8535 701.676C92.0868 701.237 92.2035 700.729 92.2035 700.15ZM99.0128 702.978C100.198 702.026 101.127 701.247 101.799 700.64C102.471 700.024 103.035 699.385 103.493 698.722C103.959 698.05 104.193 697.392 104.193 696.748C104.193 696.141 104.043 695.665 103.745 695.32C103.455 694.965 102.984 694.788 102.331 694.788C101.696 694.788 101.201 694.989 100.847 695.39C100.501 695.782 100.315 696.309 100.287 696.972H99.0548C99.0922 695.927 99.4095 695.119 100.007 694.55C100.604 693.981 101.374 693.696 102.317 693.696C103.278 693.696 104.039 693.962 104.599 694.494C105.168 695.026 105.453 695.759 105.453 696.692C105.453 697.467 105.219 698.223 104.753 698.96C104.295 699.688 103.773 700.332 103.185 700.892C102.597 701.443 101.845 702.087 100.931 702.824H105.747V703.888H99.0128V702.978ZM107.22 698.834C107.22 697.229 107.481 695.978 108.004 695.082C108.526 694.177 109.441 693.724 110.748 693.724C112.045 693.724 112.955 694.177 113.478 695.082C114 695.978 114.262 697.229 114.262 698.834C114.262 700.467 114 701.737 113.478 702.642C112.955 703.547 112.045 704 110.748 704C109.441 704 108.526 703.547 108.004 702.642C107.481 701.737 107.22 700.467 107.22 698.834ZM113.002 698.834C113.002 698.022 112.946 697.336 112.834 696.776C112.731 696.207 112.512 695.749 112.176 695.404C111.849 695.059 111.373 694.886 110.748 694.886C110.113 694.886 109.628 695.059 109.292 695.404C108.965 695.749 108.746 696.207 108.634 696.776C108.531 697.336 108.48 698.022 108.48 698.834C108.48 699.674 108.531 700.379 108.634 700.948C108.746 701.517 108.965 701.975 109.292 702.32C109.628 702.665 110.113 702.838 110.748 702.838C111.373 702.838 111.849 702.665 112.176 702.32C112.512 701.975 112.731 701.517 112.834 700.948C112.946 700.379 113.002 699.674 113.002 698.834ZM115.857 702.978C117.042 702.026 117.971 701.247 118.643 700.64C119.315 700.024 119.879 699.385 120.337 698.722C120.803 698.05 121.037 697.392 121.037 696.748C121.037 696.141 120.887 695.665 120.589 695.32C120.299 694.965 119.828 694.788 119.175 694.788C118.54 694.788 118.045 694.989 117.691 695.39C117.345 695.782 117.159 696.309 117.131 696.972H115.899C115.936 695.927 116.253 695.119 116.851 694.55C117.448 693.981 118.218 693.696 119.161 693.696C120.122 693.696 120.883 693.962 121.443 694.494C122.012 695.026 122.297 695.759 122.297 696.692C122.297 697.467 122.063 698.223 121.597 698.96C121.139 699.688 120.617 700.332 120.029 700.892C119.441 701.443 118.689 702.087 117.775 702.824H122.591V703.888H115.857V702.978ZM123.755 701.746V700.78L128.669 693.976H130.195V700.64H131.595V701.746H130.195V704H128.935V701.746H123.755ZM128.991 695.306L125.225 700.64H128.991V695.306Z" fill="#212633"/>
<line x1="196.5" y1="112" x2="196.5" y2="712" stroke="#F3F6FF"/>
<line x1="312.727" y1="112" x2="312.727" y2="712" stroke="#F3F6FF"/>
<line x1="428.953" y1="112" x2="428.953" y2="712" stroke="#F3F6FF"/>
<line x1="545.18" y1="112" x2="545.18" y2="712" stroke="#F3F6FF"/>
<line x1="661.406" y1="112" x2="661.406" y2="712" stroke="#F3F6FF"/>
<line x1="775.594" y1="112" x2="775.594" y2="712" stroke="#F3F6FF"/>
<line x1="891.82" y1="112" x2="891.82" y2="712" stroke="#F3F6FF"/>
<line x1="1008.05" y1="112" x2="1008.05" y2="712" stroke="#F3F6FF"/>
<line x1="1124.27" y1="112" x2="1124.27" y2="712" stroke="#F3F6FF"/>
<line x1="1240.5" y1="112" x2="1240.5" y2="712" stroke="#F3F6FF"/>
<path d="M196.532 751.04V749.878H199.164V760H197.876V751.04H196.532ZM201.352 754.834C201.352 753.229 201.614 751.978 202.136 751.082C202.659 750.177 203.574 749.724 204.88 749.724C206.178 749.724 207.088 750.177 207.61 751.082C208.133 751.978 208.394 753.229 208.394 754.834C208.394 756.467 208.133 757.737 207.61 758.642C207.088 759.547 206.178 760 204.88 760C203.574 760 202.659 759.547 202.136 758.642C201.614 757.737 201.352 756.467 201.352 754.834ZM207.134 754.834C207.134 754.022 207.078 753.336 206.966 752.776C206.864 752.207 206.644 751.749 206.308 751.404C205.982 751.059 205.506 750.886 204.88 750.886C204.246 750.886 203.76 751.059 203.424 751.404C203.098 751.749 202.878 752.207 202.766 752.776C202.664 753.336 202.612 754.022 202.612 754.834C202.612 755.674 202.664 756.379 202.766 756.948C202.878 757.517 203.098 757.975 203.424 758.32C203.76 758.665 204.246 758.838 204.88 758.838C205.506 758.838 205.982 758.665 206.308 758.32C206.644 757.975 206.864 757.517 206.966 756.948C207.078 756.379 207.134 755.674 207.134 754.834Z" fill="#8E9ABB"/>
<path d="M306.846 758.978C308.031 758.026 308.96 757.247 309.632 756.64C310.304 756.024 310.869 755.385 311.326 754.722C311.793 754.05 312.026 753.392 312.026 752.748C312.026 752.141 311.877 751.665 311.578 751.32C311.289 750.965 310.817 750.788 310.164 750.788C309.529 750.788 309.035 750.989 308.68 751.39C308.335 751.782 308.148 752.309 308.12 752.972H306.888C306.925 751.927 307.243 751.119 307.84 750.55C308.437 749.981 309.207 749.696 310.15 749.696C311.111 749.696 311.872 749.962 312.432 750.494C313.001 751.026 313.286 751.759 313.286 752.692C313.286 753.467 313.053 754.223 312.586 754.96C312.129 755.688 311.606 756.332 311.018 756.892C310.43 757.443 309.679 758.087 308.764 758.824H313.58V759.888H306.846V758.978ZM315.053 754.834C315.053 753.229 315.314 751.978 315.837 751.082C316.359 750.177 317.274 749.724 318.581 749.724C319.878 749.724 320.788 750.177 321.311 751.082C321.833 751.978 322.095 753.229 322.095 754.834C322.095 756.467 321.833 757.737 321.311 758.642C320.788 759.547 319.878 760 318.581 760C317.274 760 316.359 759.547 315.837 758.642C315.314 757.737 315.053 756.467 315.053 754.834ZM320.835 754.834C320.835 754.022 320.779 753.336 320.667 752.776C320.564 752.207 320.345 751.749 320.009 751.404C319.682 751.059 319.206 750.886 318.581 750.886C317.946 750.886 317.461 751.059 317.125 751.404C316.798 751.749 316.579 752.207 316.467 752.776C316.364 753.336 316.313 754.022 316.313 754.834C316.313 755.674 316.364 756.379 316.467 756.948C316.579 757.517 316.798 757.975 317.125 758.32C317.461 758.665 317.946 758.838 318.581 758.838C319.206 758.838 319.682 758.665 320.009 758.32C320.345 757.975 320.564 757.517 320.667 756.948C320.779 756.379 320.835 755.674 320.835 754.834Z" fill="#8E9ABB"/>
<path d="M419.144 752.426C419.209 751.567 419.54 750.895 420.138 750.41C420.735 749.925 421.51 749.682 422.462 749.682C423.096 749.682 423.642 749.799 424.1 750.032C424.566 750.256 424.916 750.564 425.15 750.956C425.392 751.348 425.514 751.791 425.514 752.286C425.514 752.865 425.346 753.364 425.01 753.784C424.683 754.204 424.254 754.475 423.722 754.596V754.666C424.328 754.815 424.809 755.109 425.164 755.548C425.518 755.987 425.696 756.561 425.696 757.27C425.696 757.802 425.574 758.283 425.332 758.712C425.089 759.132 424.725 759.463 424.24 759.706C423.754 759.949 423.171 760.07 422.49 760.07C421.5 760.07 420.688 759.813 420.054 759.3C419.419 758.777 419.064 758.04 418.99 757.088H420.222C420.287 757.648 420.516 758.105 420.908 758.46C421.3 758.815 421.822 758.992 422.476 758.992C423.129 758.992 423.624 758.824 423.96 758.488C424.305 758.143 424.478 757.699 424.478 757.158C424.478 756.458 424.244 755.954 423.778 755.646C423.311 755.338 422.606 755.184 421.664 755.184H421.342V754.12H421.678C422.536 754.111 423.185 753.971 423.624 753.7C424.062 753.42 424.282 752.991 424.282 752.412C424.282 751.917 424.118 751.521 423.792 751.222C423.474 750.923 423.017 750.774 422.42 750.774C421.841 750.774 421.374 750.923 421.02 751.222C420.665 751.521 420.455 751.922 420.39 752.426H419.144ZM427.416 754.834C427.416 753.229 427.677 751.978 428.2 751.082C428.722 750.177 429.637 749.724 430.944 749.724C432.241 749.724 433.151 750.177 433.674 751.082C434.196 751.978 434.458 753.229 434.458 754.834C434.458 756.467 434.196 757.737 433.674 758.642C433.151 759.547 432.241 760 430.944 760C429.637 760 428.722 759.547 428.2 758.642C427.677 757.737 427.416 756.467 427.416 754.834ZM433.198 754.834C433.198 754.022 433.142 753.336 433.03 752.776C432.927 752.207 432.708 751.749 432.372 751.404C432.045 751.059 431.569 750.886 430.944 750.886C430.309 750.886 429.824 751.059 429.488 751.404C429.161 751.749 428.942 752.207 428.83 752.776C428.727 753.336 428.676 754.022 428.676 754.834C428.676 755.674 428.727 756.379 428.83 756.948C428.942 757.517 429.161 757.975 429.488 758.32C429.824 758.665 430.309 758.838 430.944 758.838C431.569 758.838 432.045 758.665 432.372 758.32C432.708 757.975 432.927 757.517 433.03 756.948C433.142 756.379 433.198 755.674 433.198 754.834Z" fill="#8E9ABB"/>
<path d="M531.035 757.746V756.78L535.949 749.976H537.475V756.64H538.875V757.746H537.475V760H536.215V757.746H531.035ZM536.271 751.306L532.505 756.64H536.271V751.306ZM540.148 754.834C540.148 753.229 540.409 751.978 540.932 751.082C541.454 750.177 542.369 749.724 543.676 749.724C544.973 749.724 545.883 750.177 546.406 751.082C546.928 751.978 547.19 753.229 547.19 754.834C547.19 756.467 546.928 757.737 546.406 758.642C545.883 759.547 544.973 760 543.676 760C542.369 760 541.454 759.547 540.932 758.642C540.409 757.737 540.148 756.467 540.148 754.834ZM545.93 754.834C545.93 754.022 545.874 753.336 545.762 752.776C545.659 752.207 545.44 751.749 545.104 751.404C544.777 751.059 544.301 750.886 543.676 750.886C543.041 750.886 542.556 751.059 542.22 751.404C541.893 751.749 541.674 752.207 541.562 752.776C541.459 753.336 541.408 754.022 541.408 754.834C541.408 755.674 541.459 756.379 541.562 756.948C541.674 757.517 541.893 757.975 542.22 758.32C542.556 758.665 543.041 758.838 543.676 758.838C544.301 758.838 544.777 758.665 545.104 758.32C545.44 757.975 545.659 757.517 545.762 756.948C545.874 756.379 545.93 755.674 545.93 754.834Z" fill="#8E9ABB"/>
<path d="M652.008 750.984H647.094V754.176C647.309 753.877 647.626 753.635 648.046 753.448C648.466 753.252 648.919 753.154 649.404 753.154C650.179 753.154 650.809 753.317 651.294 753.644C651.779 753.961 652.125 754.377 652.33 754.89C652.545 755.394 652.652 755.931 652.652 756.5C652.652 757.172 652.526 757.774 652.274 758.306C652.022 758.838 651.635 759.258 651.112 759.566C650.599 759.874 649.959 760.028 649.194 760.028C648.214 760.028 647.421 759.776 646.814 759.272C646.207 758.768 645.839 758.096 645.708 757.256H646.954C647.075 757.788 647.332 758.203 647.724 758.502C648.116 758.801 648.611 758.95 649.208 758.95C649.945 758.95 650.501 758.731 650.874 758.292C651.247 757.844 651.434 757.256 651.434 756.528C651.434 755.8 651.247 755.24 650.874 754.848C650.501 754.447 649.95 754.246 649.222 754.246C648.727 754.246 648.293 754.367 647.92 754.61C647.556 754.843 647.29 755.165 647.122 755.576H645.918V749.864H652.008V750.984ZM654.345 754.834C654.345 753.229 654.606 751.978 655.129 751.082C655.652 750.177 656.566 749.724 657.873 749.724C659.17 749.724 660.08 750.177 660.603 751.082C661.126 751.978 661.387 753.229 661.387 754.834C661.387 756.467 661.126 757.737 660.603 758.642C660.08 759.547 659.17 760 657.873 760C656.566 760 655.652 759.547 655.129 758.642C654.606 757.737 654.345 756.467 654.345 754.834ZM660.127 754.834C660.127 754.022 660.071 753.336 659.959 752.776C659.856 752.207 659.637 751.749 659.301 751.404C658.974 751.059 658.498 750.886 657.873 750.886C657.238 750.886 656.753 751.059 656.417 751.404C656.09 751.749 655.871 752.207 655.759 752.776C655.656 753.336 655.605 754.022 655.605 754.834C655.605 755.674 655.656 756.379 655.759 756.948C655.871 757.517 656.09 757.975 656.417 758.32C656.753 758.665 657.238 758.838 657.873 758.838C658.498 758.838 658.974 758.665 659.301 758.32C659.637 757.975 659.856 757.517 659.959 756.948C660.071 756.379 660.127 755.674 660.127 754.834Z" fill="#8E9ABB"/>
<path d="M763.368 752.286C763.162 751.25 762.523 750.732 761.45 750.732C760.619 750.732 759.998 751.054 759.588 751.698C759.177 752.333 758.976 753.383 758.986 754.848C759.2 754.363 759.555 753.985 760.05 753.714C760.554 753.434 761.114 753.294 761.73 753.294C762.691 753.294 763.456 753.593 764.026 754.19C764.604 754.787 764.894 755.613 764.894 756.668C764.894 757.303 764.768 757.872 764.516 758.376C764.273 758.88 763.9 759.281 763.396 759.58C762.901 759.879 762.299 760.028 761.59 760.028C760.628 760.028 759.877 759.813 759.336 759.384C758.794 758.955 758.416 758.362 758.202 757.606C757.987 756.85 757.88 755.917 757.88 754.806C757.88 751.381 759.074 749.668 761.464 749.668C762.378 749.668 763.097 749.915 763.62 750.41C764.142 750.905 764.45 751.53 764.544 752.286H763.368ZM761.464 754.372C761.062 754.372 760.684 754.456 760.33 754.624C759.975 754.783 759.686 755.03 759.462 755.366C759.247 755.693 759.14 756.094 759.14 756.57C759.14 757.279 759.345 757.858 759.756 758.306C760.166 758.745 760.754 758.964 761.52 758.964C762.173 758.964 762.691 758.763 763.074 758.362C763.466 757.951 763.662 757.401 763.662 756.71C763.662 755.982 763.475 755.413 763.102 755.002C762.728 754.582 762.182 754.372 761.464 754.372ZM766.612 754.834C766.612 753.229 766.874 751.978 767.396 751.082C767.919 750.177 768.834 749.724 770.14 749.724C771.438 749.724 772.348 750.177 772.87 751.082C773.393 751.978 773.654 753.229 773.654 754.834C773.654 756.467 773.393 757.737 772.87 758.642C772.348 759.547 771.438 760 770.14 760C768.834 760 767.919 759.547 767.396 758.642C766.874 757.737 766.612 756.467 766.612 754.834ZM772.394 754.834C772.394 754.022 772.338 753.336 772.226 752.776C772.124 752.207 771.904 751.749 771.568 751.404C771.242 751.059 770.766 750.886 770.14 750.886C769.506 750.886 769.02 751.059 768.684 751.404C768.358 751.749 768.138 752.207 768.026 752.776C767.924 753.336 767.872 754.022 767.872 754.834C767.872 755.674 767.924 756.379 768.026 756.948C768.138 757.517 768.358 757.975 768.684 758.32C769.02 758.665 769.506 758.838 770.14 758.838C770.766 758.838 771.242 758.665 771.568 758.32C771.904 757.975 772.124 757.517 772.226 756.948C772.338 756.379 772.394 755.674 772.394 754.834Z" fill="#8E9ABB"/>
<path d="M878.167 750.872L874.275 760H872.987L876.935 750.998H871.531V749.906H878.167V750.872ZM879.579 754.834C879.579 753.229 879.841 751.978 880.363 751.082C880.886 750.177 881.801 749.724 883.107 749.724C884.405 749.724 885.315 750.177 885.837 751.082C886.36 751.978 886.621 753.229 886.621 754.834C886.621 756.467 886.36 757.737 885.837 758.642C885.315 759.547 884.405 760 883.107 760C881.801 760 880.886 759.547 880.363 758.642C879.841 757.737 879.579 756.467 879.579 754.834ZM885.361 754.834C885.361 754.022 885.305 753.336 885.193 752.776C885.091 752.207 884.871 751.749 884.535 751.404C884.209 751.059 883.733 750.886 883.107 750.886C882.473 750.886 881.987 751.059 881.651 751.404C881.325 751.749 881.105 752.207 880.993 752.776C880.891 753.336 880.839 754.022 880.839 754.834C880.839 755.674 880.891 756.379 880.993 756.948C881.105 757.517 881.325 757.975 881.651 758.32C881.987 758.665 882.473 758.838 883.107 758.838C883.733 758.838 884.209 758.665 884.535 758.32C884.871 757.975 885.091 757.517 885.193 756.948C885.305 756.379 885.361 755.674 885.361 754.834Z" fill="#8E9ABB"/>
<path d="M985.956 754.736C985.433 754.531 985.032 754.232 984.752 753.84C984.472 753.448 984.332 752.972 984.332 752.412C984.332 751.908 984.458 751.455 984.71 751.054C984.962 750.643 985.335 750.321 985.83 750.088C986.334 749.845 986.941 749.724 987.65 749.724C988.359 749.724 988.961 749.845 989.456 750.088C989.96 750.321 990.338 750.643 990.59 751.054C990.851 751.455 990.982 751.908 990.982 752.412C990.982 752.953 990.837 753.429 990.548 753.84C990.259 754.241 989.862 754.54 989.358 754.736C989.937 754.913 990.394 755.226 990.73 755.674C991.075 756.113 991.248 756.645 991.248 757.27C991.248 757.877 991.099 758.409 990.8 758.866C990.501 759.314 990.077 759.664 989.526 759.916C988.985 760.159 988.359 760.28 987.65 760.28C986.941 760.28 986.315 760.159 985.774 759.916C985.242 759.664 984.827 759.314 984.528 758.866C984.229 758.409 984.08 757.877 984.08 757.27C984.08 756.645 984.248 756.108 984.584 755.66C984.92 755.212 985.377 754.904 985.956 754.736ZM989.75 752.566C989.75 751.997 989.563 751.558 989.19 751.25C988.817 750.942 988.303 750.788 987.65 750.788C987.006 750.788 986.497 750.942 986.124 751.25C985.751 751.558 985.564 752.001 985.564 752.58C985.564 753.103 985.755 753.523 986.138 753.84C986.53 754.157 987.034 754.316 987.65 754.316C988.275 754.316 988.779 754.157 989.162 753.84C989.554 753.513 989.75 753.089 989.75 752.566ZM987.65 755.296C986.959 755.296 986.395 755.459 985.956 755.786C985.517 756.103 985.298 756.584 985.298 757.228C985.298 757.825 985.508 758.306 985.928 758.67C986.357 759.034 986.931 759.216 987.65 759.216C988.369 759.216 988.938 759.034 989.358 758.67C989.778 758.306 989.988 757.825 989.988 757.228C989.988 756.603 989.773 756.127 989.344 755.8C988.915 755.464 988.35 755.296 987.65 755.296ZM992.94 754.834C992.94 753.229 993.201 751.978 993.724 751.082C994.247 750.177 995.161 749.724 996.468 749.724C997.765 749.724 998.675 750.177 999.198 751.082C999.721 751.978 999.982 753.229 999.982 754.834C999.982 756.467 999.721 757.737 999.198 758.642C998.675 759.547 997.765 760 996.468 760C995.161 760 994.247 759.547 993.724 758.642C993.201 757.737 992.94 756.467 992.94 754.834ZM998.722 754.834C998.722 754.022 998.666 753.336 998.554 752.776C998.451 752.207 998.232 751.749 997.896 751.404C997.569 751.059 997.093 750.886 996.468 750.886C995.833 750.886 995.348 751.059 995.012 751.404C994.685 751.749 994.466 752.207 994.354 752.776C994.251 753.336 994.2 754.022 994.2 754.834C994.2 755.674 994.251 756.379 994.354 756.948C994.466 757.517 994.685 757.975 995.012 758.32C995.348 758.665 995.833 758.838 996.468 758.838C997.093 758.838 997.569 758.665 997.896 758.32C998.232 757.975 998.451 757.517 998.554 756.948C998.666 756.379 998.722 755.674 998.722 754.834Z" fill="#8E9ABB"/>
<path d="M1097.92 757.284C1098.01 757.816 1098.23 758.227 1098.56 758.516C1098.91 758.805 1099.37 758.95 1099.95 758.95C1100.72 758.95 1101.29 758.647 1101.66 758.04C1102.03 757.433 1102.21 756.411 1102.19 754.974C1101.99 755.394 1101.66 755.725 1101.21 755.968C1100.75 756.201 1100.24 756.318 1099.68 756.318C1099.06 756.318 1098.5 756.192 1098 755.94C1097.52 755.679 1097.13 755.301 1096.85 754.806C1096.57 754.311 1096.43 753.714 1096.43 753.014C1096.43 752.015 1096.72 751.213 1097.3 750.606C1097.88 749.99 1098.7 749.682 1099.77 749.682C1101.07 749.682 1101.99 750.107 1102.51 750.956C1103.04 751.805 1103.31 753.07 1103.31 754.75C1103.31 755.926 1103.2 756.897 1102.99 757.662C1102.78 758.427 1102.43 759.011 1101.92 759.412C1101.43 759.813 1100.75 760.014 1099.88 760.014C1098.93 760.014 1098.18 759.757 1097.65 759.244C1097.12 758.731 1096.82 758.077 1096.74 757.284H1097.92ZM1099.89 755.24C1100.52 755.24 1101.03 755.049 1101.43 754.666C1101.83 754.274 1102.03 753.747 1102.03 753.084C1102.03 752.384 1101.84 751.819 1101.45 751.39C1101.05 750.961 1100.5 750.746 1099.79 750.746C1099.14 750.746 1098.62 750.951 1098.23 751.362C1097.84 751.773 1097.65 752.314 1097.65 752.986C1097.65 753.667 1097.84 754.213 1098.23 754.624C1098.61 755.035 1099.16 755.24 1099.89 755.24ZM1105.1 754.834C1105.1 753.229 1105.36 751.978 1105.88 751.082C1106.4 750.177 1107.32 749.724 1108.63 749.724C1109.92 749.724 1110.83 750.177 1111.36 751.082C1111.88 751.978 1112.14 753.229 1112.14 754.834C1112.14 756.467 1111.88 757.737 1111.36 758.642C1110.83 759.547 1109.92 760 1108.63 760C1107.32 760 1106.4 759.547 1105.88 758.642C1105.36 757.737 1105.1 756.467 1105.1 754.834ZM1110.88 754.834C1110.88 754.022 1110.82 753.336 1110.71 752.776C1110.61 752.207 1110.39 751.749 1110.05 751.404C1109.73 751.059 1109.25 750.886 1108.63 750.886C1107.99 750.886 1107.51 751.059 1107.17 751.404C1106.84 751.749 1106.62 752.207 1106.51 752.776C1106.41 753.336 1106.36 754.022 1106.36 754.834C1106.36 755.674 1106.41 756.379 1106.51 756.948C1106.62 757.517 1106.84 757.975 1107.17 758.32C1107.51 758.665 1107.99 758.838 1108.63 758.838C1109.25 758.838 1109.73 758.665 1110.05 758.32C1110.39 757.975 1110.61 757.517 1110.71 756.948C1110.82 756.379 1110.88 755.674 1110.88 754.834Z" fill="#8E9ABB"/>
<path d="M1210.15 751.04V749.878H1212.79V760H1211.5V751.04H1210.15ZM1214.98 754.834C1214.98 753.229 1215.24 751.978 1215.76 751.082C1216.28 750.177 1217.2 749.724 1218.5 749.724C1219.8 749.724 1220.71 750.177 1221.23 751.082C1221.76 751.978 1222.02 753.229 1222.02 754.834C1222.02 756.467 1221.76 757.737 1221.23 758.642C1220.71 759.547 1219.8 760 1218.5 760C1217.2 760 1216.28 759.547 1215.76 758.642C1215.24 757.737 1214.98 756.467 1214.98 754.834ZM1220.76 754.834C1220.76 754.022 1220.7 753.336 1220.59 752.776C1220.49 752.207 1220.27 751.749 1219.93 751.404C1219.6 751.059 1219.13 750.886 1218.5 750.886C1217.87 750.886 1217.38 751.059 1217.05 751.404C1216.72 751.749 1216.5 752.207 1216.39 752.776C1216.29 753.336 1216.24 754.022 1216.24 754.834C1216.24 755.674 1216.29 756.379 1216.39 756.948C1216.5 757.517 1216.72 757.975 1217.05 758.32C1217.38 758.665 1217.87 758.838 1218.5 758.838C1219.13 758.838 1219.6 758.665 1219.93 758.32C1220.27 757.975 1220.49 757.517 1220.59 756.948C1220.7 756.379 1220.76 755.674 1220.76 754.834ZM1223.77 754.834C1223.77 753.229 1224.03 751.978 1224.55 751.082C1225.07 750.177 1225.99 749.724 1227.29 749.724C1228.59 749.724 1229.5 750.177 1230.02 751.082C1230.55 751.978 1230.81 753.229 1230.81 754.834C1230.81 756.467 1230.55 757.737 1230.02 758.642C1229.5 759.547 1228.59 760 1227.29 760C1225.99 760 1225.07 759.547 1224.55 758.642C1224.03 757.737 1223.77 756.467 1223.77 754.834ZM1229.55 754.834C1229.55 754.022 1229.49 753.336 1229.38 752.776C1229.28 752.207 1229.06 751.749 1228.72 751.404C1228.4 751.059 1227.92 750.886 1227.29 750.886C1226.66 750.886 1226.17 751.059 1225.84 751.404C1225.51 751.749 1225.29 752.207 1225.18 752.776C1225.08 753.336 1225.03 754.022 1225.03 754.834C1225.03 755.674 1225.08 756.379 1225.18 756.948C1225.29 757.517 1225.51 757.975 1225.84 758.32C1226.17 758.665 1226.66 758.838 1227.29 758.838C1227.92 758.838 1228.4 758.665 1228.72 758.32C1229.06 757.975 1229.28 757.517 1229.38 756.948C1229.49 756.379 1229.55 755.674 1229.55 754.834Z" fill="#8E9ABB"/>
<path fill-rule="evenodd" clip-rule="evenodd" d="M196 119.548C196 115.379 199.379 112 203.548 112H1232.45C1236.62 112 1240 115.379 1240 119.548C1240 123.717 1236.62 127.096 1232.45 127.096H203.548C199.379 127.096 196 123.717 196 119.548Z" fill="#F3F6FF"/>
<path fill-rule="evenodd" clip-rule="evenodd" d="M196 120C196 115.582 199.582 112 204 112H338C342.418 112 346 115.582 346 120C346 124.418 342.418 128 338 128H204C199.582 128 196 124.418 196 120Z" fill="#F93535"/>
<path fill-rule="evenodd" clip-rule="evenodd" d="M355 120C355 115.582 358.582 112 363 112H712C716.418 112 720 115.582 720 120C720 124.418 716.418 128 712 128H363C358.582 128 355 124.418 355 120Z" fill="#356CF9"/>
<path fill-rule="evenodd" clip-rule="evenodd" d="M729 120C729 115.582 732.582 112 737 112H970C974.418 112 978 115.582 978 120C978 124.418 974.418 128 970 128H737C732.582 128 729 124.418 729 120Z" fill="#F9AB35"/>
<path fill-rule="evenodd" clip-rule="evenodd" d="M987 120C987 115.582 990.582 112 995 112H1161C1165.42 112 1169 115.582 1169 120C1169 124.418 1165.42 128 1161 128H995C990.582 128 987 124.418 987 120Z" fill="#34C759"/>
<path fill-rule="evenodd" clip-rule="evenodd" d="M196 236.529C196 232.36 199.379 228.981 203.548 228.981H1232.45C1236.62 228.981 1240 232.36 1240 236.529C1240 240.697 1236.62 244.077 1232.45 244.077H203.548C199.379 244.077 196 240.697 196 236.529Z" fill="#F3F6FF"/>
<path fill-rule="evenodd" clip-rule="evenodd" d="M196 236.981C196 232.563 199.582 228.981 204 228.981H401C405.418 228.981 409 232.563 409 236.981C409 241.399 405.418 244.981 401 244.981H204C199.582 244.981 196 241.399 196 236.981Z" fill="#F93535"/>
<path fill-rule="evenodd" clip-rule="evenodd" d="M418 236.981C418 232.563 421.582 228.981 426 228.981H587C591.418 228.981 595 232.563 595 236.981C595 241.399 591.418 244.981 587 244.981H426C421.582 244.981 418 241.399 418 236.981Z" fill="#356CF9"/>
<path fill-rule="evenodd" clip-rule="evenodd" d="M604 236.981C604 232.563 607.582 228.981 612 228.981H717C721.418 228.981 725 232.563 725 236.981C725 241.399 721.418 244.981 717 244.981H612C607.582 244.981 604 241.399 604 236.981Z" fill="#F9AB35"/>
<path fill-rule="evenodd" clip-rule="evenodd" d="M734 236.981C734 232.563 737.582 228.981 742 228.981H1064C1068.42 228.981 1072 232.563 1072 236.981C1072 241.399 1068.42 244.981 1064 244.981H742C737.582 244.981 734 241.399 734 236.981Z" fill="#34C759"/>
<path fill-rule="evenodd" clip-rule="evenodd" d="M196 353.51C196 349.341 199.379 345.962 203.548 345.962H1232.45C1236.62 345.962 1240 349.341 1240 353.51C1240 357.678 1236.62 361.058 1232.45 361.058H203.548C199.379 361.058 196 357.678 196 353.51Z" fill="#F3F6FF"/>
<path fill-rule="evenodd" clip-rule="evenodd" d="M196 353.962C196 349.543 199.582 345.962 204 345.962H260C264.418 345.962 268 349.543 268 353.962C268 358.38 264.418 361.962 260 361.962H204C199.582 361.962 196 358.38 196 353.962Z" fill="#F93535"/>
<path fill-rule="evenodd" clip-rule="evenodd" d="M277 353.962C277 349.543 280.582 345.962 285 345.962H527C531.418 345.962 535 349.543 535 353.962C535 358.38 531.418 361.962 527 361.962H285C280.582 361.962 277 358.38 277 353.962Z" fill="#356CF9"/>
<path fill-rule="evenodd" clip-rule="evenodd" d="M544 353.962C544 349.543 547.582 345.962 552 345.962H897C901.418 345.962 905 349.543 905 353.962C905 358.38 901.418 361.962 897 361.962H552C547.582 361.962 544 358.38 544 353.962Z" fill="#F9AB35"/>
<path fill-rule="evenodd" clip-rule="evenodd" d="M914 353.962C914 349.543 917.582 345.962 922 345.962H1195C1199.42 345.962 1203 349.543 1203 353.962C1203 358.38 1199.42 361.962 1195 361.962H922C917.582 361.962 914 358.38 914 353.962Z" fill="#34C759"/>
<path fill-rule="evenodd" clip-rule="evenodd" d="M196 470.49C196 466.322 199.379 462.943 203.548 462.943H1232.45C1236.62 462.943 1240 466.322 1240 470.49C1240 474.659 1236.62 478.038 1232.45 478.038H203.548C199.379 478.038 196 474.659 196 470.49Z" fill="#F3F6FF"/>
<path fill-rule="evenodd" clip-rule="evenodd" d="M196 470.943C196 466.524 199.582 462.943 204 462.943H588C592.418 462.943 596 466.524 596 470.943C596 475.361 592.418 478.943 588 478.943H204C199.582 478.943 196 475.361 196 470.943Z" fill="#F93535"/>
<path fill-rule="evenodd" clip-rule="evenodd" d="M605 470.943C605 466.524 608.582 462.943 613 462.943H855C859.418 462.943 863 466.524 863 470.943C863 475.361 859.418 478.943 855 478.943H613C608.582 478.943 605 475.361 605 470.943Z" fill="#356CF9"/>
<path fill-rule="evenodd" clip-rule="evenodd" d="M872 470.943C872 466.524 875.582 462.943 880 462.943H985C989.418 462.943 993 466.524 993 470.943C993 475.361 989.418 478.943 985 478.943H880C875.582 478.943 872 475.361 872 470.943Z" fill="#F9AB35"/>
<path fill-rule="evenodd" clip-rule="evenodd" d="M1002 470.943C1002 466.524 1005.58 462.943 1010 462.943H1235C1239.42 462.943 1243 466.524 1243 470.943C1243 475.361 1239.42 478.943 1235 478.943H1010C1005.58 478.943 1002 475.361 1002 470.943Z" fill="#34C759"/>
<path fill-rule="evenodd" clip-rule="evenodd" d="M196 587.471C196 583.303 199.379 579.923 203.548 579.923H1232.45C1236.62 579.923 1240 583.303 1240 587.471C1240 591.64 1236.62 595.019 1232.45 595.019H203.548C199.379 595.019 196 591.64 196 587.471Z" fill="#F3F6FF"/>
<path fill-rule="evenodd" clip-rule="evenodd" d="M196 587.923C196 583.505 199.582 579.923 204 579.923H542.624C547.042 579.923 550.624 583.505 550.624 587.923C550.624 592.342 547.042 595.923 542.624 595.923H204C199.582 595.923 196 592.342 196 587.923Z" fill="#F93535"/>
<path fill-rule="evenodd" clip-rule="evenodd" d="M559.624 587.923C559.624 583.505 563.205 579.923 567.624 579.923H948.624C953.042 579.923 956.624 583.505 956.624 587.923C956.624 592.342 953.042 595.923 948.624 595.923H567.624C563.205 595.923 559.624 592.342 559.624 587.923Z" fill="#356CF9"/>
<path fill-rule="evenodd" clip-rule="evenodd" d="M965.624 587.923C965.624 583.505 969.205 579.923 973.624 579.923H1078.62C1083.04 579.923 1086.62 583.505 1086.62 587.923C1086.62 592.342 1083.04 595.923 1078.62 595.923H973.624C969.205 595.923 965.624 592.342 965.624 587.923Z" fill="#F9AB35"/>
<path fill-rule="evenodd" clip-rule="evenodd" d="M1095.62 587.923C1095.62 583.505 1099.21 579.923 1103.62 579.923H1231.62C1236.04 579.923 1239.62 583.505 1239.62 587.923C1239.62 592.342 1236.04 595.923 1231.62 595.923H1103.62C1099.21 595.923 1095.62 592.342 1095.62 587.923Z" fill="#34C759"/>
<path fill-rule="evenodd" clip-rule="evenodd" d="M196 704.452C196 700.283 199.379 696.904 203.548 696.904H1232.45C1236.62 696.904 1240 700.283 1240 704.452C1240 708.621 1236.62 712 1232.45 712H203.548C199.379 712 196 708.621 196 704.452Z" fill="#F3F6FF"/>
<path fill-rule="evenodd" clip-rule="evenodd" d="M196 704.904C196 700.486 199.582 696.904 204 696.904H433C437.418 696.904 441 700.486 441 704.904C441 709.322 437.418 712.904 433 712.904H204C199.582 712.904 196 709.322 196 704.904Z" fill="#F93535"/>
<path fill-rule="evenodd" clip-rule="evenodd" d="M450 704.904C450 700.486 453.582 696.904 458 696.904H700C704.418 696.904 708 700.486 708 704.904C708 709.322 704.418 712.904 700 712.904H458C453.582 712.904 450 709.322 450 704.904Z" fill="#356CF9"/>
<path fill-rule="evenodd" clip-rule="evenodd" d="M717 704.904C717 700.486 720.582 696.904 725 696.904H830C834.418 696.904 838 700.486 838 704.904C838 709.322 834.418 712.904 830 712.904H725C720.582 712.904 717 709.322 717 704.904Z" fill="#F9AB35"/>
<path fill-rule="evenodd" clip-rule="evenodd" d="M847 704.904C847 700.486 850.582 696.904 855 696.904H1021C1025.42 696.904 1029 700.486 1029 704.904C1029 709.322 1025.42 712.904 1021 712.904H855C850.582 712.904 847 709.322 847 704.904Z" fill="#34C759"/>
</svg>
