<svg width="363" height="362" viewBox="0 0 363 362" fill="none" xmlns="http://www.w3.org/2000/svg">
<circle cx="181.501" cy="180.732" r="180.732" fill="url(#paint0_linear_60_76)"/>
<g clip-path="url(#clip0_60_76)">
<path d="M123.77 69.3628C126.845 71.136 128.714 73.3071 130.087 76.586C130.087 76.8761 130.087 77.1661 130.087 77.4649C130.522 77.3199 130.957 77.1749 131.405 77.0255C132.089 76.9892 132.775 76.9783 133.459 76.9825C133.882 76.984 134.304 76.9854 134.739 76.9868C135.202 76.9905 135.665 76.9942 136.142 76.998C137.154 77.0022 138.167 77.0062 139.179 77.0101C139.718 77.0129 140.256 77.0157 140.811 77.0185C143.671 77.0304 146.53 77.0261 149.39 77.0237C153.025 77.0208 156.66 77.0227 160.295 77.048C163.235 77.0684 166.173 77.0676 169.113 77.055C170.227 77.0536 171.341 77.0592 172.455 77.0721C179.282 77.147 184.319 76.5376 190.273 73.1099C199.534 68.158 210.67 67.9564 220.87 67.9717C222.142 67.9726 223.413 67.9683 224.684 67.9641C227.684 67.9545 230.684 67.9539 233.684 67.9593C236.761 67.9646 239.838 67.9537 242.915 67.9351C245.579 67.9195 248.243 67.9143 250.907 67.9172C252.489 67.9188 254.071 67.9166 255.652 67.9042C257.413 67.891 259.173 67.8994 260.934 67.9095C261.447 67.9028 261.96 67.8961 262.489 67.8892C266.442 67.9393 269.873 69.0047 272.906 71.6384C273.599 72.3667 274.128 73.0979 274.662 73.9494C274.842 74.2224 275.022 74.4955 275.207 74.7768C276.938 77.9165 276.657 81.4595 276.419 84.9353C276.274 85.3704 276.129 85.8054 275.98 86.2536C276.524 86.3896 276.524 86.3896 277.078 86.5283C280.922 88.0383 282.953 90.5132 284.769 94.1635C285.311 95.7914 285.272 97.3029 285.263 98.9973C285.265 99.3156 285.266 99.634 285.268 99.962C285.265 101.367 285.216 102.489 284.769 103.831C285.312 103.967 285.312 103.967 285.867 104.106C289.711 105.616 291.742 108.091 293.557 111.741C294.748 115.315 294.465 119.622 292.871 123.001C291.097 126.076 288.926 127.946 285.647 129.318C285.357 129.318 285.067 129.318 284.769 129.318C284.914 129.753 285.059 130.188 285.208 130.637C285.244 131.321 285.255 132.006 285.251 132.691C285.249 133.113 285.248 133.536 285.247 133.971C285.243 134.434 285.239 134.897 285.235 135.374C285.231 136.386 285.227 137.398 285.223 138.411C285.221 138.949 285.218 139.488 285.215 140.043C285.203 142.902 285.207 145.761 285.21 148.621C285.213 152.256 285.211 155.892 285.185 159.527C285.165 162.466 285.166 165.405 285.178 168.344C285.18 169.458 285.174 170.573 285.161 171.687C285.086 178.514 285.696 183.551 289.124 189.505C294.075 198.765 294.277 209.901 294.262 220.102C294.261 221.373 294.265 222.644 294.269 223.916C294.279 226.915 294.28 229.915 294.274 232.915C294.269 235.992 294.28 239.069 294.298 242.146C294.314 244.81 294.319 247.474 294.316 250.139C294.315 251.72 294.317 253.302 294.329 254.884C294.342 256.645 294.334 258.405 294.324 260.166C294.331 260.679 294.337 261.192 294.344 261.721C294.294 265.673 293.229 269.105 290.595 272.137C289.867 272.83 289.136 273.359 288.284 273.893C288.011 274.073 287.738 274.253 287.457 274.439C284.317 276.17 280.774 275.889 277.298 275.651C276.863 275.506 276.428 275.361 275.98 275.211C275.844 275.755 275.844 275.755 275.705 276.31C274.195 280.154 271.72 282.184 268.07 284C266.442 284.543 264.931 284.503 263.236 284.494C262.918 284.496 262.599 284.498 262.271 284.5C260.866 284.497 259.744 284.447 258.402 284C258.266 284.544 258.266 284.544 258.128 285.099C256.618 288.942 254.143 290.973 250.493 292.789C246.919 293.98 242.612 293.697 239.232 292.102C236.157 290.329 234.288 288.158 232.915 284.879C232.915 284.589 232.915 284.299 232.915 284C232.48 284.145 232.045 284.29 231.597 284.439C230.283 284.472 228.98 284.48 227.667 284.467C226.832 284.463 225.997 284.459 225.163 284.455C224.719 284.452 224.276 284.449 223.819 284.446C221.458 284.435 219.097 284.439 216.737 284.441C213.738 284.444 210.739 284.442 207.74 284.417C205.314 284.397 202.888 284.397 200.462 284.41C199.544 284.411 198.626 284.406 197.708 284.393C191.452 284.309 187.032 285.307 181.56 288.352C178.775 289.783 175.72 290.641 172.712 291.47C172.386 291.563 172.06 291.655 171.724 291.75C166.251 293.23 160.769 293.42 155.135 293.475C154.781 293.482 154.428 293.488 154.064 293.495C153.047 293.511 152.032 293.51 151.015 293.505C150.71 293.51 150.404 293.516 150.09 293.522C148.406 293.49 147.708 293.264 146.384 292.191C145.303 290.823 145.028 290.135 145.028 288.394C145.665 286.483 145.972 285.568 147.664 284.439C148.711 284.321 149.762 284.251 150.814 284.208C151.459 284.177 152.103 284.145 152.748 284.114C153.753 284.07 154.758 284.028 155.764 283.987C161.843 283.73 167.74 283.044 173.536 281.089C173.845 280.987 174.153 280.884 174.471 280.779C176.145 280.196 177.653 279.598 179.125 278.604C185.454 274.461 192.601 275.191 199.851 275.379C201.601 275.42 203.351 275.438 205.102 275.458C208.514 275.5 211.926 275.567 215.338 275.651C215.193 275.361 215.048 275.071 214.898 274.772C214.857 273.418 214.843 272.073 214.848 270.719C214.848 270.299 214.848 269.879 214.848 269.446C214.848 268.052 214.852 266.659 214.855 265.266C214.856 264.301 214.857 263.337 214.857 262.373C214.859 259.831 214.863 257.29 214.868 254.748C214.872 252.156 214.874 249.564 214.877 246.972C214.881 241.884 214.889 236.795 214.898 231.707C214.424 231.712 213.95 231.717 213.462 231.722C208.994 231.766 204.526 231.799 200.058 231.821C197.761 231.832 195.464 231.848 193.167 231.873C190.95 231.897 188.734 231.91 186.517 231.916C185.671 231.92 184.825 231.928 183.98 231.939C182.795 231.955 181.611 231.958 180.426 231.957C180.077 231.964 179.727 231.972 179.367 231.98C177.582 231.964 176.78 231.798 175.375 230.658C174.546 229.606 173.87 228.599 173.234 227.423C169.932 221.808 164.828 217.736 158.585 215.757C152.309 214.209 145.741 214.309 139.315 214.13C139.341 214.58 139.366 215.03 139.392 215.494C139.413 216.092 139.433 216.69 139.452 217.288C139.48 217.732 139.48 217.732 139.508 218.185C139.547 219.76 139.392 220.611 138.48 221.906C136.551 223.339 135.027 223.22 132.682 223.187C132.236 223.19 131.791 223.192 131.332 223.195C129.861 223.201 128.39 223.191 126.918 223.183C125.894 223.185 124.87 223.189 123.846 223.193C121.15 223.203 118.454 223.202 115.757 223.196C111.445 223.188 107.132 223.192 102.819 223.207C101.314 223.21 99.8093 223.204 98.3042 223.198C97.3785 223.199 96.4527 223.201 95.527 223.203C95.1101 223.199 94.6932 223.194 94.2636 223.19C91.8111 223.205 90.0641 223.487 87.9011 224.676C87.1985 226.081 87.2412 227.545 87.4616 229.07C88.4853 230.496 89.2937 230.945 90.9771 231.268C91.6362 231.306 92.2968 231.323 92.957 231.323C93.5401 231.326 93.5401 231.326 94.1349 231.328C94.5514 231.329 94.968 231.329 95.3972 231.329C96.2827 231.337 97.1681 231.346 98.0536 231.355C99.4471 231.368 100.84 231.378 102.234 231.378C103.581 231.379 104.927 231.394 106.273 231.412C106.689 231.409 107.105 231.406 107.533 231.402C109.558 231.44 110.465 231.486 112.112 232.755C113.02 234.001 113.247 234.578 113.224 236.101C113.232 236.645 113.232 236.645 113.241 237.2C112.817 238.797 112.01 239.448 110.752 240.496C109.424 240.768 109.424 240.768 107.929 240.765C107.367 240.769 106.806 240.773 106.227 240.778C105.617 240.772 105.007 240.766 104.397 240.76C103.767 240.763 103.137 240.766 102.507 240.771C100.851 240.781 99.1954 240.779 97.5393 240.774C94.8921 240.765 92.245 240.77 89.5978 240.785C88.6769 240.788 87.7564 240.782 86.8355 240.775C82.7854 240.761 82.7854 240.761 79.1123 242.254C78.4098 243.659 78.4524 245.123 78.6729 246.648C79.6957 248.072 80.5016 248.538 82.1884 248.845C83.1166 248.885 84.046 248.9 84.9751 248.9C85.5397 248.902 86.1044 248.904 86.6861 248.906C86.9867 248.906 87.2872 248.906 87.5969 248.906C88.8652 248.907 90.1334 248.917 91.4016 248.926C93.7607 248.942 96.1198 248.956 98.479 248.955C100.122 248.955 101.765 248.965 103.409 248.982C104.033 248.987 104.658 248.988 105.283 248.984C106.158 248.98 107.033 248.991 107.908 249.002C108.654 249.004 108.654 249.004 109.415 249.007C111.168 249.371 111.832 250.114 112.949 251.482C113.241 252.58 113.241 252.58 113.224 253.679C113.232 254.223 113.232 254.223 113.241 254.777C112.801 256.434 112.108 257.027 110.752 258.073C109.274 258.387 107.826 258.359 106.32 258.338C105.677 258.343 105.677 258.343 105.021 258.348C103.654 258.358 102.287 258.354 100.919 258.348C99.5552 258.346 98.1912 258.348 96.827 258.357C95.9794 258.362 95.1318 258.361 94.2842 258.353C91.8218 258.363 90.0726 258.636 87.9011 259.831C87.1985 261.236 87.2412 262.7 87.4616 264.225C88.4853 265.651 89.2937 266.1 90.9771 266.423C91.6362 266.461 92.2968 266.478 92.957 266.478C93.5401 266.48 93.5401 266.48 94.1349 266.483C94.5514 266.483 94.968 266.484 95.3972 266.484C96.2827 266.492 97.1681 266.501 98.0536 266.51C99.4471 266.523 100.84 266.532 102.234 266.533C103.581 266.534 104.927 266.549 106.273 266.567C106.689 266.564 107.105 266.561 107.533 266.557C109.558 266.595 110.465 266.641 112.112 267.91C113.02 269.156 113.247 269.733 113.224 271.256C113.232 271.8 113.232 271.8 113.241 272.355C112.784 274.075 112.228 274.634 110.752 275.651C108.94 275.952 107.147 275.938 105.314 275.925C100.818 275.863 100.818 275.863 96.6898 277.408C95.9872 278.814 96.0299 280.278 96.2503 281.803C97.2733 283.228 98.0786 283.694 99.7658 284C100.726 284.04 101.687 284.058 102.648 284.062C103.207 284.07 103.767 284.079 104.343 284.088C105.227 284.1 106.111 284.11 106.996 284.11C107.854 284.112 108.711 284.128 109.569 284.144C110.336 284.15 110.336 284.15 111.118 284.157C112.914 284.522 113.566 285.234 114.707 286.637C115.315 288.385 115.187 289.151 114.597 290.921C113.828 292.349 113.828 292.349 112.509 293.228C111.328 293.336 110.193 293.393 109.009 293.407C108.663 293.412 108.316 293.417 107.959 293.422C107.224 293.43 106.489 293.436 105.753 293.439C104.644 293.448 103.537 293.475 102.429 293.503C97.7045 293.565 93.819 293.09 90.1063 289.826C89.4038 289.099 88.8767 288.371 88.3405 287.516C88.1604 287.242 87.9802 286.969 87.7946 286.688C86.0636 283.548 86.3445 280.005 86.5827 276.53C86.7278 276.095 86.8728 275.66 87.0222 275.211C86.4784 275.075 86.4784 275.075 85.9236 274.937C82.0798 273.427 80.0492 270.952 78.2335 267.301C77.6908 265.674 77.73 264.162 77.7391 262.468C77.7374 262.149 77.7357 261.831 77.7339 261.503C77.7365 260.098 77.7861 258.976 78.2335 257.634C77.6897 257.498 77.6897 257.498 77.1349 257.359C73.291 255.849 71.2604 253.374 69.4447 249.724C68.2535 246.15 68.5369 241.843 70.1313 238.463C71.9045 235.388 74.0757 233.519 77.3546 232.147C77.6446 232.147 77.9346 232.147 78.2335 232.147C78.0884 231.711 77.9434 231.276 77.794 230.828C77.7578 230.144 77.7468 229.459 77.7511 228.774C77.7525 228.352 77.7539 227.929 77.7554 227.494C77.7591 227.031 77.7628 226.568 77.7666 226.091C77.7707 225.079 77.7747 224.067 77.7787 223.054C77.7814 222.516 77.7842 221.977 77.7871 221.422C77.7989 218.563 77.7946 215.703 77.7923 212.844C77.7894 209.209 77.7913 205.573 77.8166 201.938C77.8369 198.999 77.8362 196.06 77.8235 193.121C77.8222 192.007 77.8277 190.892 77.8407 189.778C77.9155 182.959 77.3127 177.928 73.8829 171.984C71.5025 167.456 70.3168 162.003 69.4447 157.003C69.3692 156.583 69.2937 156.164 69.2158 155.731C68.8706 153.267 68.9256 150.78 68.9136 148.296C68.9093 147.734 68.905 147.172 68.9005 146.593C68.8868 144.738 68.8778 142.882 68.8697 141.027C68.8682 140.71 68.8668 140.393 68.8653 140.067C68.8518 137.073 68.8401 134.08 68.8326 131.087C68.823 127.273 68.8045 123.46 68.774 119.647C68.7531 116.957 68.7425 114.267 68.7393 111.576C68.7372 109.974 68.7307 108.372 68.7131 106.769C68.6937 104.978 68.6955 103.188 68.699 101.397C68.6902 100.874 68.6814 100.351 68.6724 99.8127C68.7067 95.8246 69.7473 92.3887 72.407 89.3281C73.1353 88.6346 73.8663 88.1055 74.718 87.5719C74.991 87.3918 75.264 87.2117 75.5453 87.0261C78.685 85.2951 82.228 85.576 85.7039 85.8142C86.1389 85.9592 86.574 86.1042 87.0222 86.2536C87.1128 85.8911 87.2035 85.5286 87.2968 85.155C88.8069 81.3112 91.2818 79.2806 94.932 77.4649C96.5599 76.9223 98.0715 76.9615 99.7658 76.9705C100.084 76.9688 100.403 76.9671 100.731 76.9654C102.136 76.968 103.258 77.0175 104.6 77.4649C104.69 77.1024 104.781 76.7398 104.874 76.3663C106.384 72.5225 108.859 70.4919 112.509 68.6762C116.083 67.485 120.39 67.7683 123.77 69.3628ZM210.282 77.4129C209.921 77.4465 209.56 77.4801 209.188 77.5148C202.201 78.25 195.207 80.4959 189.123 84.0407C186.823 85.3204 184.994 85.6311 182.386 85.6146C181.81 85.6215 181.81 85.6215 181.223 85.6285C179.993 85.6412 178.763 85.6421 177.532 85.6425C176.768 85.6487 176.004 85.6556 175.239 85.6633C172.42 85.6864 169.6 85.6945 166.78 85.7043C160.472 85.7406 154.164 85.7768 147.664 85.8142C147.809 100.316 147.954 114.817 148.104 129.758C160.626 129.885 160.626 129.885 173.149 130.007C175.57 130.033 175.57 130.033 176.703 130.046C177.495 130.055 178.287 130.062 179.079 130.069C180.278 130.08 181.477 130.093 182.676 130.107C183.029 130.11 183.382 130.112 183.747 130.115C185.16 130.134 186.303 130.187 187.653 130.637C187.968 131.36 188.257 132.094 188.532 132.834C189.486 134.35 190.547 135.785 191.608 137.228C191.934 137.681 192.261 138.135 192.597 138.601C198.235 144.496 205.684 147.174 213.689 147.37C215.209 147.378 216.729 147.374 218.249 147.363C218.774 147.361 219.299 147.359 219.84 147.357C221.122 147.352 222.405 147.344 223.687 147.335C223.714 146.875 223.74 146.414 223.768 145.94C223.805 145.334 223.842 144.728 223.879 144.122C223.896 143.819 223.914 143.515 223.932 143.203C224.016 141.855 224.137 140.713 224.566 139.425C225.785 139.019 226.515 138.93 227.774 138.925C228.159 138.923 228.545 138.921 228.942 138.918C229.364 138.918 229.786 138.917 230.221 138.917C230.666 138.914 231.111 138.912 231.57 138.91C232.538 138.905 233.506 138.901 234.475 138.898C236.008 138.893 237.541 138.885 239.074 138.875C243.433 138.848 247.792 138.824 252.152 138.81C254.817 138.8 257.483 138.785 260.149 138.765C261.164 138.759 262.179 138.755 263.195 138.754C264.617 138.752 266.039 138.742 267.461 138.73C268.089 138.732 268.088 138.732 268.729 138.734C271.18 138.703 272.945 138.432 275.101 137.228C276.178 135.613 276.342 134.271 275.98 132.394C274.794 130.846 273.922 130.102 272.025 129.758C271.361 129.711 270.696 129.685 270.031 129.675C269.64 129.667 269.248 129.66 268.845 129.652C268.425 129.646 268.006 129.64 267.574 129.634C267.141 129.626 266.707 129.618 266.261 129.61C264.408 129.575 262.555 129.545 260.702 129.515C259.349 129.492 257.996 129.467 256.643 129.442C256.223 129.436 255.802 129.43 255.369 129.424C254.979 129.417 254.589 129.409 254.187 129.402C253.844 129.396 253.501 129.391 253.148 129.385C252.25 129.318 252.25 129.318 250.932 128.879C250.5 127.583 250.434 126.714 250.438 125.363C250.436 124.983 250.435 124.602 250.434 124.21C250.493 123.166 250.493 123.166 250.932 121.848C252.376 121.367 253.452 121.348 254.973 121.339C255.535 121.335 256.097 121.33 256.676 121.326C256.976 121.324 257.276 121.323 257.585 121.321C258.528 121.316 259.47 121.307 260.413 121.298C263.092 121.271 265.771 121.247 268.45 121.232C270.09 121.223 271.73 121.207 273.37 121.188C273.993 121.182 274.616 121.178 275.239 121.176C279.765 121.244 279.765 121.244 283.89 119.651C284.967 118.035 285.131 116.694 284.769 114.817C283.585 113.272 282.713 112.507 280.814 112.18C279.881 112.132 278.947 112.107 278.013 112.097C277.445 112.09 276.878 112.082 276.293 112.075C275.84 112.07 275.84 112.07 275.378 112.066C274.431 112.057 273.483 112.045 272.536 112.032C270.184 112.002 267.831 111.975 265.479 111.949C263.489 111.927 261.5 111.903 259.51 111.876C258.577 111.865 257.643 111.856 256.709 111.846C256.143 111.839 255.577 111.832 254.994 111.824C254.495 111.819 253.996 111.813 253.481 111.808C252.25 111.741 252.25 111.741 250.932 111.302C250.5 110.006 250.434 109.137 250.438 107.786C250.436 107.405 250.435 107.025 250.434 106.632C250.493 105.589 250.493 105.589 250.932 104.271C252.153 103.863 252.904 103.772 254.166 103.762C254.552 103.757 254.938 103.753 255.336 103.748C255.96 103.743 255.96 103.743 256.597 103.738C257.479 103.726 258.362 103.713 259.245 103.701C260.636 103.683 262.026 103.666 263.417 103.655C264.76 103.643 266.102 103.622 267.445 103.601C267.858 103.6 268.27 103.598 268.695 103.597C271.153 103.551 272.939 103.279 275.101 102.073C276.178 100.458 276.342 99.1163 275.98 97.2395C274.794 95.6915 273.922 94.947 272.025 94.6029C271.361 94.5566 270.696 94.5303 270.031 94.5197C269.64 94.5123 269.248 94.505 268.845 94.4974C268.425 94.4914 268.006 94.4855 267.574 94.4793C267.141 94.4712 266.707 94.4631 266.261 94.4548C264.408 94.4203 262.555 94.3905 260.702 94.3602C259.349 94.3375 257.996 94.3124 256.643 94.2871C256.223 94.2811 255.802 94.2751 255.369 94.269C254.979 94.2617 254.589 94.2543 254.187 94.2467C253.844 94.2412 253.501 94.2357 253.148 94.2301C252.25 94.1635 252.25 94.1635 250.932 93.724C250.5 92.4285 250.434 91.5592 250.438 90.2086C250.436 89.8279 250.435 89.4472 250.434 89.055C250.493 88.0114 250.493 88.0114 250.932 86.6931C252.283 86.2428 253.258 86.1861 254.674 86.1609C255.152 86.1485 255.629 86.136 256.121 86.1232C257.122 86.1004 258.124 86.0809 259.125 86.0648C261.827 85.9883 263.953 85.8708 266.312 84.4959C267.389 82.8802 267.553 81.5388 267.191 79.6621C266.006 78.1153 265.133 77.367 263.236 77.0255C262.581 76.986 261.925 76.9681 261.268 76.9667C260.876 76.9648 260.484 76.963 260.08 76.961C259.44 76.9613 259.44 76.9613 258.786 76.9616C258.334 76.9602 257.881 76.9587 257.415 76.9572C255.913 76.953 254.412 76.9521 252.911 76.9517C251.862 76.9502 250.813 76.9488 249.763 76.9472C247.558 76.9446 245.352 76.9438 243.146 76.944C240.344 76.9441 237.542 76.9381 234.74 76.9305C232.568 76.9256 230.396 76.9247 228.224 76.925C227.193 76.9245 226.161 76.9225 225.13 76.9191C220.163 76.9041 215.231 76.9514 210.282 77.4129ZM113.388 79.6621C112.865 81.1665 112.883 82.6378 112.866 84.2205C112.858 84.788 112.851 85.3554 112.843 85.9401C112.839 86.3931 112.839 86.3931 112.835 86.8552C112.825 87.8027 112.813 88.7501 112.801 89.6976C112.77 92.0497 112.744 94.402 112.718 96.7542C112.695 98.744 112.671 100.734 112.645 102.723C112.633 103.657 112.624 104.59 112.615 105.524C112.608 106.09 112.6 106.656 112.593 107.239C112.584 107.988 112.584 107.988 112.576 108.752C112.509 109.983 112.509 109.983 112.07 111.302C110.774 111.733 109.905 111.8 108.555 111.796C107.984 111.798 107.984 111.798 107.401 111.799C106.357 111.741 106.357 111.741 105.039 111.302C104.632 110.08 104.541 109.329 104.53 108.067C104.526 107.681 104.521 107.295 104.517 106.898C104.513 106.482 104.51 106.066 104.507 105.637C104.495 104.754 104.482 103.871 104.469 102.988C104.451 101.598 104.435 100.207 104.423 98.8168C104.411 97.4738 104.391 96.1312 104.37 94.7883C104.368 94.3758 104.367 93.9632 104.365 93.5382C104.32 91.0801 104.047 89.2946 102.842 87.1325C101.226 86.0553 99.8848 85.8914 98.0081 86.2536C96.46 87.4394 95.7155 88.3114 95.3715 90.2086C95.3251 90.8721 95.2989 91.5373 95.2882 92.2024C95.2772 92.7897 95.2772 92.7897 95.266 93.3888C95.26 93.8082 95.254 94.2275 95.2479 94.6596C95.2398 95.0929 95.2317 95.5262 95.2234 95.9726C95.1888 97.8256 95.159 99.6786 95.1288 101.532C95.1061 102.885 95.0809 104.238 95.0556 105.591C95.0497 106.011 95.0437 106.431 95.0376 106.864C95.0265 107.449 95.0265 107.449 95.0153 108.046C95.007 108.561 95.007 108.561 94.9986 109.086C94.932 109.983 94.932 109.983 94.4926 111.302C93.197 111.733 92.3277 111.8 90.9771 111.796C90.4061 111.798 90.4061 111.798 89.8236 111.799C88.7799 111.741 88.7799 111.741 87.4616 111.302C87.0113 109.951 86.9547 108.976 86.9295 107.559C86.917 107.082 86.9046 106.604 86.8917 106.112C86.869 105.111 86.8495 104.11 86.8334 103.108C86.7568 100.407 86.6394 98.2801 85.2644 95.9212C83.6487 94.8441 82.3074 94.6802 80.4306 95.0424C78.8837 96.2272 78.136 97.1002 77.794 98.9973C77.7546 99.6457 77.7367 100.296 77.7353 100.945C77.7334 101.333 77.7315 101.721 77.7296 102.12C77.7298 102.543 77.73 102.965 77.7302 103.4C77.7287 103.848 77.7272 104.295 77.7257 104.756C77.7215 106.241 77.7207 107.726 77.7202 109.211C77.7188 110.249 77.7173 111.287 77.7158 112.326C77.7131 114.509 77.7123 116.692 77.7126 118.876C77.7126 121.647 77.7067 124.418 77.6991 127.19C77.6941 129.34 77.6933 131.489 77.6935 133.639C77.693 134.659 77.6911 135.679 77.6877 136.699C77.6723 141.726 77.7374 146.716 78.1814 151.726C78.2151 152.108 78.2487 152.49 78.2833 152.884C78.9845 159.936 81.2333 166.973 84.8092 173.11C86.0889 175.41 86.3997 177.24 86.3832 179.848C86.3878 180.231 86.3923 180.615 86.397 181.01C86.4097 182.241 86.4107 183.471 86.4111 184.701C86.4172 185.465 86.4242 186.23 86.4319 186.994C86.455 189.814 86.463 192.634 86.4729 195.454C86.5091 201.762 86.5454 208.07 86.5827 214.569C101.084 214.424 115.586 214.279 130.526 214.13C130.654 201.607 130.654 201.607 130.776 189.085C130.802 186.664 130.802 186.664 130.815 185.531C130.823 184.739 130.831 183.947 130.838 183.155C130.848 181.956 130.862 180.757 130.876 179.558C130.878 179.204 130.881 178.851 130.883 178.487C130.902 177.074 130.955 175.93 131.405 174.58C132.129 174.266 132.863 173.976 133.602 173.701C135.119 172.747 136.554 171.686 137.997 170.625C138.45 170.299 138.903 169.973 139.37 169.637C145.435 163.835 147.937 156.307 148.139 148.11C148.147 146.652 148.142 145.195 148.131 143.737C148.128 142.984 148.128 142.984 148.125 142.216C148.12 140.993 148.113 139.77 148.104 138.547C147.643 138.52 147.183 138.493 146.708 138.466C146.102 138.429 145.496 138.392 144.89 138.354C144.587 138.337 144.284 138.32 143.971 138.302C142.623 138.217 141.482 138.097 140.194 137.668C139.788 136.448 139.698 135.718 139.694 134.46C139.691 134.074 139.689 133.689 139.687 133.291C139.686 132.869 139.686 132.448 139.685 132.013C139.683 131.568 139.681 131.122 139.678 130.664C139.674 129.695 139.67 128.727 139.667 127.759C139.662 126.226 139.653 124.693 139.644 123.16C139.617 118.8 139.593 114.441 139.578 110.082C139.569 107.416 139.553 104.751 139.534 102.085C139.528 101.07 139.524 100.054 139.522 99.0386C139.52 97.6164 139.51 96.1945 139.498 94.7724C139.499 94.3541 139.501 93.9358 139.502 93.5048C139.472 91.0532 139.2 89.2883 137.997 87.1325C136.381 86.0553 135.04 85.8914 133.163 86.2536C131.615 87.4394 130.87 88.3114 130.526 90.2086C130.48 90.8721 130.454 91.5373 130.443 92.2024C130.436 92.5939 130.428 92.9855 130.421 93.3888C130.415 93.8082 130.409 94.2275 130.403 94.6596C130.395 95.0929 130.387 95.5262 130.378 95.9726C130.344 97.8256 130.314 99.6786 130.284 101.532C130.261 102.885 130.236 104.238 130.211 105.591C130.205 106.011 130.199 106.431 130.192 106.864C130.185 107.254 130.178 107.644 130.17 108.046C130.162 108.561 130.162 108.561 130.154 109.086C130.087 109.983 130.087 109.983 129.648 111.302C128.352 111.733 127.483 111.8 126.132 111.796C125.561 111.798 125.561 111.798 124.979 111.799C123.935 111.741 123.935 111.741 122.617 111.302C122.135 109.857 122.117 108.781 122.108 107.26C122.103 106.698 122.099 106.137 122.094 105.558C122.093 105.258 122.091 104.957 122.09 104.648C122.084 103.706 122.076 102.763 122.066 101.821C122.039 99.1417 122.015 96.4624 122.001 93.7831C121.991 92.1431 121.976 90.5033 121.956 88.8635C121.95 88.2406 121.946 87.6176 121.945 86.9946C122.012 82.4681 122.012 82.4681 120.419 78.3438C117.627 76.4825 115.327 77.0773 113.388 79.6621ZM156.893 138.547C156.888 139.016 156.884 139.485 156.88 139.968C156.862 141.744 156.833 143.519 156.801 145.295C156.789 146.057 156.78 146.818 156.773 147.58C156.718 153.986 156.157 160.187 153.048 165.929C152.896 166.218 152.744 166.507 152.588 166.805C150.208 171.234 146.745 176.839 141.949 178.917C140.867 179.415 140.14 179.867 139.315 180.732C138.813 182.596 138.906 184.412 138.972 186.33C138.977 186.873 138.982 187.416 138.987 187.976C139.003 189.415 139.035 190.852 139.074 192.291C139.11 193.761 139.125 195.231 139.143 196.701C139.182 199.581 139.241 202.461 139.315 205.341C140.019 205.347 140.019 205.347 140.736 205.353C142.512 205.371 144.288 205.4 146.063 205.432C146.825 205.444 147.587 205.454 148.349 205.46C154.755 205.516 160.954 206.078 166.697 209.186C167.13 209.412 167.13 209.412 167.571 209.642C171.391 211.686 176.906 214.658 178.456 218.948C179.183 220.678 179.875 221.959 181.501 222.918C185.549 223.868 189.906 223.409 194.025 223.248C195.194 223.218 196.364 223.197 197.534 223.176C200.393 223.118 203.251 223.03 206.109 222.918C206.116 222.215 206.116 222.215 206.122 221.497C206.14 219.721 206.169 217.946 206.201 216.17C206.213 215.408 206.222 214.646 206.229 213.885C206.284 207.478 206.846 201.279 209.955 195.536C210.105 195.248 210.255 194.959 210.41 194.662C212.455 190.843 215.427 185.327 219.717 183.777C221.446 183.05 222.728 182.359 223.687 180.732C224.636 176.684 224.178 172.327 224.016 168.209C223.987 167.039 223.966 165.87 223.944 164.7C223.886 161.84 223.798 158.982 223.687 156.124C222.983 156.118 222.983 156.118 222.266 156.112C220.49 156.094 218.714 156.065 216.939 156.033C216.177 156.021 215.415 156.011 214.653 156.005C208.248 155.949 202.046 155.388 196.305 152.279C195.871 152.051 195.871 152.051 195.428 151.819C190.999 149.44 185.395 145.977 183.316 141.18C182.819 140.098 182.367 139.371 181.501 138.547C179.637 138.044 177.821 138.137 175.903 138.203C175.36 138.208 174.817 138.213 174.258 138.218C172.819 138.235 171.381 138.266 169.943 138.305C168.473 138.341 167.003 138.357 165.533 138.375C162.652 138.414 159.772 138.472 156.893 138.547ZM271.487 146.936C271.067 146.94 270.647 146.945 270.214 146.949C268.821 146.963 267.427 146.978 266.034 146.992C265.07 147.002 264.106 147.012 263.141 147.022C260.6 147.048 258.058 147.074 255.517 147.1C252.925 147.126 250.333 147.153 247.741 147.179C242.652 147.231 237.564 147.283 232.476 147.335C232.471 147.811 232.467 148.287 232.462 148.778C232.419 153.259 232.374 157.74 232.326 162.221C232.302 164.525 232.279 166.829 232.257 169.133C232.236 171.355 232.213 173.578 232.189 175.8C232.18 176.649 232.172 177.498 232.164 178.347C232.153 179.534 232.14 180.72 232.126 181.907C232.124 182.26 232.121 182.613 232.119 182.976C232.1 184.39 232.047 185.534 231.597 186.885C230.587 187.334 230.587 187.334 229.4 187.763C223.161 191.338 218.281 196.687 216.088 203.617C214.553 209.962 214.797 216.436 214.898 222.918C215.359 222.945 215.819 222.972 216.294 222.999C216.9 223.036 217.506 223.073 218.112 223.111C218.415 223.128 218.718 223.145 219.031 223.163C220.379 223.248 221.52 223.368 222.808 223.797C223.214 225.016 223.304 225.747 223.308 227.005C223.311 227.391 223.313 227.776 223.315 228.174C223.316 228.595 223.316 229.017 223.317 229.452C223.32 230.12 223.32 230.12 223.324 230.801C223.328 231.77 223.332 232.738 223.335 233.706C223.34 235.239 223.349 236.772 223.358 238.305C223.385 242.664 223.409 247.024 223.424 251.383C223.433 254.049 223.449 256.714 223.468 259.38C223.474 260.395 223.478 261.411 223.48 262.426C223.482 263.848 223.492 265.27 223.504 266.692C223.502 267.32 223.502 267.32 223.5 267.96C223.53 270.412 223.802 272.177 225.005 274.332C226.621 275.41 227.962 275.573 229.839 275.211C231.387 274.026 232.132 273.154 232.476 271.256C232.522 270.593 232.548 269.928 232.559 269.262C232.57 268.675 232.57 268.675 232.581 268.076C232.587 267.657 232.593 267.237 232.599 266.805C232.607 266.372 232.615 265.939 232.624 265.492C232.658 263.639 232.688 261.786 232.718 259.933C232.741 258.58 232.766 257.227 232.791 255.874C232.797 255.454 232.803 255.034 232.81 254.601C232.821 254.016 232.821 254.016 232.832 253.419C232.84 252.904 232.84 252.904 232.848 252.379C232.915 251.482 232.915 251.482 233.354 250.163C234.65 249.732 235.519 249.665 236.87 249.669C237.251 249.668 237.631 249.667 238.024 249.666C239.067 249.724 239.067 249.724 240.385 250.163C240.867 251.608 240.885 252.684 240.894 254.205C240.899 254.766 240.903 255.328 240.908 255.907C240.909 256.207 240.911 256.508 240.912 256.817C240.918 257.759 240.926 258.702 240.936 259.644C240.963 262.323 240.987 265.002 241.001 267.682C241.011 269.322 241.026 270.962 241.046 272.601C241.052 273.224 241.056 273.847 241.057 274.47C240.99 278.997 240.99 278.997 242.583 283.121C244.198 284.198 245.54 284.362 247.416 284C248.962 282.816 249.726 281.944 250.053 280.045C250.101 279.112 250.126 278.178 250.136 277.244C250.144 276.677 250.151 276.109 250.159 275.525C250.163 275.072 250.163 275.072 250.167 274.61C250.177 273.662 250.189 272.715 250.201 271.767C250.232 269.415 250.258 267.063 250.284 264.711C250.307 262.721 250.331 260.731 250.357 258.742C250.369 257.808 250.378 256.874 250.387 255.941C250.394 255.375 250.402 254.809 250.409 254.226C250.418 253.477 250.418 253.477 250.426 252.713C250.493 251.482 250.493 251.482 250.932 250.163C252.228 249.732 253.097 249.665 254.447 249.669C254.828 249.668 255.209 249.667 255.601 249.666C256.645 249.724 256.645 249.724 257.963 250.163C258.37 251.385 258.461 252.136 258.472 253.398C258.476 253.784 258.481 254.17 258.485 254.567C258.489 254.983 258.492 255.399 258.495 255.828C258.507 256.711 258.52 257.594 258.533 258.477C258.551 259.867 258.567 261.258 258.579 262.648C258.591 263.991 258.611 265.334 258.632 266.677C258.634 267.089 258.635 267.502 258.637 267.927C258.682 270.385 258.955 272.17 260.16 274.332C261.776 275.41 263.117 275.573 264.994 275.211C266.542 274.026 267.287 273.154 267.631 271.256C267.677 270.593 267.703 269.928 267.714 269.262C267.721 268.871 267.728 268.479 267.736 268.076C267.742 267.657 267.748 267.237 267.754 266.805C267.762 266.372 267.77 265.939 267.779 265.492C267.813 263.639 267.843 261.786 267.873 259.933C267.896 258.58 267.921 257.227 267.946 255.874C267.952 255.454 267.958 255.034 267.964 254.601C267.972 254.211 267.979 253.821 267.987 253.419C267.995 252.904 267.995 252.904 268.003 252.379C268.07 251.482 268.07 251.482 268.509 250.163C269.805 249.732 270.674 249.665 272.025 249.669C272.406 249.668 272.786 249.667 273.178 249.666C274.222 249.724 274.222 249.724 275.54 250.163C275.991 251.514 276.047 252.489 276.073 253.905C276.085 254.383 276.097 254.861 276.11 255.353C276.133 256.354 276.153 257.355 276.169 258.356C276.245 261.058 276.363 263.185 277.738 265.544C279.353 266.621 280.695 266.785 282.571 266.423C284.118 265.238 284.866 264.365 285.208 262.468C285.247 261.819 285.265 261.169 285.267 260.52C285.269 260.132 285.27 259.744 285.272 259.344C285.272 258.922 285.272 258.5 285.272 258.065C285.273 257.617 285.275 257.17 285.276 256.708C285.28 255.224 285.281 253.739 285.282 252.254C285.283 251.216 285.285 250.177 285.286 249.139C285.289 246.956 285.29 244.773 285.289 242.589C285.289 239.818 285.295 237.047 285.303 234.275C285.308 232.125 285.309 229.975 285.308 227.826C285.309 226.806 285.311 225.786 285.314 224.766C285.33 219.741 285.265 214.751 284.822 209.742C284.789 209.36 284.756 208.979 284.721 208.586C284.075 202.074 282.218 194.64 278.507 189.148C276.12 185.311 276.538 181.035 276.548 176.678C276.542 175.817 276.536 174.957 276.528 174.096C276.51 171.843 276.506 169.591 276.504 167.338C276.5 165.035 276.484 162.731 276.468 160.427C276.44 155.917 276.425 151.406 276.419 146.896C274.775 146.896 273.131 146.919 271.487 146.936Z" fill="white"/>
<path d="M132.724 283.122C134.097 283.945 134.097 283.945 134.921 285.319C135.355 287.527 135.262 289.144 134.097 291.086C132.155 292.252 130.538 292.345 128.329 291.91C126.956 291.086 126.956 291.086 126.132 289.713C125.698 287.504 125.791 285.888 126.956 283.945C128.898 282.78 130.515 282.687 132.724 283.122Z" fill="white"/>
</g>
<defs>
<linearGradient id="paint0_linear_60_76" x1="181.501" y1="0" x2="181.501" y2="261.558" gradientUnits="userSpaceOnUse">
<stop stop-color="#287AB4"/>
<stop offset="1" stop-color="#4AB7D9"/>
</linearGradient>
<clipPath id="clip0_60_76">
<rect width="224.991" height="224.991" fill="white" transform="translate(69.0054 68.2368)"/>
</clipPath>
</defs>
</svg>
