<svg width="17" height="17" viewBox="0 0 17 17" fill="none" xmlns="http://www.w3.org/2000/svg">
<g clip-path="url(#clip0_15_54)">
<path d="M12.7075 12.7075C11.4966 13.6305 10.0223 14.1418 8.49998 14.1667C3.54165 14.1667 0.708313 8.5 0.708313 8.5C1.5894 6.858 2.81145 5.42343 4.29248 4.2925M7.01248 3.00333C7.50005 2.8892 7.99923 2.83215 8.49998 2.83333C13.4583 2.83333 16.2916 8.5 16.2916 8.5C15.8617 9.30438 15.3489 10.0617 14.7616 10.7596M10.0016 10.0017C9.8071 10.2104 9.5725 10.3779 9.31184 10.494C9.05117 10.6102 8.76979 10.6726 8.48446 10.6777C8.19914 10.6827 7.91572 10.6302 7.65112 10.5233C7.38652 10.4165 7.14616 10.2574 6.94437 10.0556C6.74258 9.85382 6.58351 9.61345 6.47663 9.34885C6.36976 9.08425 6.31727 8.80084 6.3223 8.51551C6.32734 8.23019 6.38979 7.9488 6.50593 7.68814C6.62208 7.42747 6.78953 7.19287 6.99831 6.99833M0.708313 0.708328L16.2916 16.2917" stroke="#757575" stroke-width="1.41667" stroke-linecap="round" stroke-linejoin="round"/>
</g>
<defs>
<clipPath id="clip0_15_54">
<rect width="17" height="17" fill="white"/>
</clipPath>
</defs>
</svg>
