<svg width="40" height="40" viewBox="0 0 40 40" fill="none" xmlns="http://www.w3.org/2000/svg">
<rect width="40" height="40" rx="12" fill="white"/>
<path d="M28.83 16.01L22.28 10.77C21 9.75002 19 9.74002 17.73 10.76L11.18 16.01C10.24 16.76 9.67 18.26 9.87 19.44L11.13 26.98C11.42 28.67 12.99 30 14.7 30H25.3C26.99 30 28.59 28.64 28.88 26.97L30.14 19.43C30.32 18.26 29.75 16.76 28.83 16.01ZM20.75 26C20.75 26.41 20.41 26.75 20 26.75C19.59 26.75 19.25 26.41 19.25 26V23C19.25 22.59 19.59 22.25 20 22.25C20.41 22.25 20.75 22.59 20.75 23V26Z" fill="#356CF9"/>
</svg>
