<svg width="362" height="362" viewBox="0 0 362 362" fill="none" xmlns="http://www.w3.org/2000/svg">
<circle cx="181.117" cy="180.732" r="180.732" fill="url(#paint0_linear_60_75)"/>
<g clip-path="url(#clip0_60_75)">
<path d="M112.928 110.179C113.426 110.176 113.426 110.176 113.933 110.173C115.047 110.167 116.162 110.164 117.276 110.161C118.074 110.157 118.871 110.154 119.669 110.15C122.29 110.138 124.912 110.131 127.534 110.125C128.436 110.122 129.338 110.12 130.24 110.117C133.991 110.108 137.742 110.099 141.493 110.094C146.872 110.087 152.251 110.072 157.63 110.046C161.411 110.029 165.191 110.02 168.972 110.017C171.231 110.016 173.49 110.01 175.749 109.996C177.874 109.982 179.998 109.979 182.123 109.984C182.903 109.985 183.683 109.981 184.463 109.973C185.527 109.963 186.591 109.966 187.656 109.974C188.251 109.972 188.847 109.971 189.461 109.969C191.403 110.32 192.014 111.017 193.264 112.507C193.501 112.744 193.738 112.981 193.982 113.225C203.229 122.472 212.476 131.719 221.723 140.966C221.968 141.157 222.213 141.349 222.466 141.546C223.382 142.706 223.252 143.644 223.258 145.108C223.267 145.983 223.267 145.983 223.275 146.876C223.275 147.524 223.274 148.171 223.273 148.819C223.277 149.5 223.282 150.182 223.287 150.863C223.3 152.713 223.304 154.564 223.307 156.415C223.311 158.348 223.323 160.282 223.334 162.215C223.353 165.877 223.366 169.539 223.377 173.201C223.389 177.37 223.409 181.539 223.429 185.707C223.471 194.283 223.504 202.859 223.53 211.436C223.897 211.613 224.265 211.791 224.644 211.974C225.371 212.33 225.371 212.33 226.113 212.694C226.593 212.927 227.072 213.161 227.566 213.401C229.14 214.248 230.448 215.23 231.788 216.403C232.536 216.946 232.536 216.946 233.391 216.747C234.573 216.334 235.381 215.751 236.377 214.993C236.753 214.711 237.128 214.429 237.515 214.139C237.903 213.843 238.291 213.547 238.691 213.243C239.462 212.657 240.234 212.074 241.008 211.492C241.519 211.103 241.519 211.103 242.041 210.705C242.954 210.08 242.954 210.08 244.309 209.629C244.29 209.317 244.271 209.005 244.252 208.684C244.176 207.258 244.13 205.833 244.083 204.406C244.053 203.915 244.023 203.424 243.992 202.919C243.905 199.355 243.905 199.355 244.978 197.848C245.915 197.015 246.883 196.323 247.923 195.625C248.632 195.069 249.338 194.51 250.042 193.949C250.774 193.395 251.508 192.844 252.243 192.294C252.793 191.868 252.793 191.868 253.354 191.434C255.459 189.861 256.993 188.815 259.668 188.849C260.89 190.071 260.692 190.738 260.711 192.445C260.728 193.254 260.728 193.254 260.745 194.079C260.761 195.219 260.775 196.359 260.788 197.499C260.806 198.31 260.806 198.31 260.824 199.137C260.83 199.632 260.836 200.128 260.842 200.639C261.049 202.133 261.29 202.721 262.378 203.756C263.571 204.309 263.571 204.309 264.949 204.676C265.45 204.827 265.952 204.978 266.468 205.133C266.991 205.285 267.514 205.436 268.053 205.591C269.09 205.893 270.126 206.2 271.161 206.511C271.62 206.644 272.08 206.776 272.554 206.913C273.672 207.37 273.672 207.37 274.575 208.725C274.658 209.969 274.658 209.969 274.123 211.436C272.894 212.645 271.505 213.595 270.086 214.569C269.694 214.846 269.302 215.122 268.898 215.407C268.125 215.951 267.35 216.493 266.574 217.031C265.725 217.629 264.905 218.242 264.094 218.889C262.408 220.204 261.497 220.898 259.329 221.007C258.117 220.761 257.194 220.362 256.081 219.803C253.662 218.748 253.662 218.748 251.085 218.663C248.215 220.01 245.818 222.166 243.429 224.216C242.27 225.181 241.068 225.993 239.792 226.794C239.977 227.269 240.162 227.744 240.353 228.233C240.599 228.873 240.845 229.514 241.091 230.154C241.212 230.465 241.334 230.775 241.459 231.096C244.623 239.389 244.361 248.545 240.801 256.663C238.291 262.102 234.491 268.294 228.95 271.064C229.618 275.483 230.603 279.787 231.685 284.121C231.804 284.619 231.924 285.117 232.047 285.63C232.157 286.076 232.268 286.522 232.381 286.981C232.576 288.309 232.501 289.209 232.113 290.488C230.923 291.641 229.704 292.138 228.132 292.606C227.765 292.719 227.399 292.833 227.022 292.95C225.537 293.249 224.137 293.238 222.626 293.199C221.083 289.417 219.592 285.619 218.165 281.793C218.025 281.421 217.885 281.05 217.741 280.668C217.612 280.319 217.483 279.971 217.35 279.611C217.235 279.302 217.12 278.993 217.001 278.674C216.754 277.84 216.754 277.84 216.754 276.485C216.4 276.558 216.046 276.631 215.681 276.707C213.618 276.996 211.606 277.002 209.526 276.993C209.13 276.995 208.734 276.996 208.326 276.998C206.265 276.995 204.326 276.905 202.298 276.485C202.196 277.025 202.095 277.565 201.99 278.122C201.319 281.139 200.197 283.989 199.108 286.874C198.898 287.44 198.688 288.005 198.479 288.57C196.942 292.683 196.942 292.683 196.426 293.199C193.13 293.464 190.354 292.906 187.391 291.392C186.209 289.618 186.574 288.409 186.94 286.423C187.169 285.297 187.415 284.174 187.675 283.054C187.745 282.752 187.814 282.449 187.886 282.138C188.105 281.185 188.327 280.232 188.549 279.28C188.772 278.319 188.995 277.359 189.216 276.398C189.416 275.532 189.617 274.666 189.819 273.801C190.147 272.433 190.147 272.433 190.102 271.064C188.38 269.192 186.997 268.688 184.45 268.553C182.722 268.51 180.996 268.519 179.267 268.534C178.515 268.531 177.764 268.527 177.012 268.523C175.04 268.512 173.068 268.514 171.096 268.52C167.934 268.528 164.771 268.524 161.609 268.508C160.505 268.505 159.402 268.511 158.298 268.518C157.623 268.517 156.948 268.515 156.274 268.513C155.39 268.516 155.39 268.516 154.488 268.518C153.06 268.354 153.06 268.354 152.192 267.752C151.431 266.574 151.531 265.649 151.705 264.288C153.306 263.22 153.97 263.274 155.868 263.282C156.736 263.282 156.736 263.282 157.621 263.282C158.253 263.287 158.885 263.291 159.516 263.296C160.163 263.298 160.809 263.299 161.455 263.3C163.155 263.304 164.855 263.312 166.555 263.322C168.29 263.332 170.025 263.336 171.76 263.34C175.163 263.35 178.567 263.366 181.971 263.385C181.71 262.987 181.449 262.589 181.18 262.179C180.841 261.65 180.502 261.12 180.164 260.589C179.991 260.328 179.819 260.067 179.641 259.798C178.651 258.233 178.054 257.117 178.357 255.253C179.119 254.406 179.119 254.406 180.164 253.898C181.252 253.925 181.252 253.925 182.422 254.35C183.29 255.52 183.29 255.52 184.116 257.032C188.256 264.218 194.572 269.054 202.584 271.263C204.147 271.632 205.665 271.866 207.267 271.967C207.757 272.003 207.757 272.003 208.257 272.04C215.986 272.333 223.418 269.402 229.323 264.509C234.761 259.462 237.922 252.221 238.437 244.864C238.526 239.814 237.553 235.551 235.726 230.86C234.01 230.86 233.61 231.362 232.31 232.441C230.4 234.022 230.4 234.022 229.402 234.022C229.5 234.297 229.598 234.572 229.699 234.855C231.729 241.246 231.179 247.291 228.216 253.249C225.156 258.605 220.605 261.847 214.747 263.506C208.715 264.745 203.1 263.694 197.838 260.561C192.972 257.221 190.094 252.404 188.746 246.671C188.201 240.203 189.13 234.712 193.264 229.505C194.393 228.263 194.393 228.263 195.522 227.246C196.123 226.687 196.123 226.687 196.736 226.117C201.995 221.843 207.9 221.432 214.407 221.967C218.688 222.465 218.688 222.465 220.098 223.611C220.819 224.536 220.819 224.536 220.819 225.439C222.709 225.187 223.993 224.064 225.45 222.926C225.7 222.735 225.95 222.543 226.208 222.345C226.823 221.873 227.435 221.398 228.047 220.922C226.399 219.088 224.783 218.036 222.513 217.054C222.067 216.853 222.067 216.853 221.611 216.649C220.747 216.262 219.88 215.881 219.012 215.501C218.194 215.134 217.375 214.767 216.556 214.4C215.759 214.051 215.759 214.051 214.947 213.694C214.862 212.17 214.862 212.17 214.947 210.532C216.302 209.629 216.302 209.629 218.109 209.629C218.109 188.461 218.109 167.293 218.109 145.483C208.27 145.483 198.432 145.483 188.295 145.483C182.696 137.085 187.391 125.31 187.391 115.217C161.9 115.366 136.409 115.515 110.145 115.669C109.485 116.99 109.634 118.157 109.63 119.632C109.628 119.946 109.627 120.261 109.625 120.585C109.622 121.269 109.619 121.952 109.618 122.636C109.614 123.718 109.607 124.8 109.599 125.883C109.575 128.96 109.554 132.037 109.547 135.114C109.542 136.996 109.529 138.877 109.51 140.759C109.504 141.476 109.502 142.193 109.503 142.91C109.504 143.914 109.494 144.917 109.481 145.92C109.479 146.492 109.476 147.063 109.473 147.651C109.202 149.345 108.807 149.902 107.435 150.904C106.249 150.876 106.249 150.876 105.176 150.452C104.059 148.776 104.156 147.92 104.149 145.917C104.147 145.596 104.144 145.274 104.142 144.942C104.136 143.877 104.136 142.812 104.137 141.747C104.135 141.006 104.133 140.265 104.131 139.524C104.128 137.97 104.128 136.416 104.13 134.862C104.133 132.873 104.125 130.885 104.115 128.897C104.108 127.366 104.108 125.834 104.109 124.303C104.109 123.57 104.107 122.838 104.102 122.105C104.097 121.078 104.1 120.051 104.105 119.024C104.105 118.44 104.104 117.856 104.104 117.255C104.318 115.242 104.935 113.718 106.306 112.216C108.608 110.423 110.048 110.191 112.928 110.179ZM192.36 118.831C192.36 126.136 192.36 133.44 192.36 140.966C199.665 140.966 206.969 140.966 214.495 140.966C212.922 139.13 211.435 137.397 209.743 135.703C209.175 135.134 209.175 135.134 208.597 134.553C208.197 134.154 207.797 133.755 207.386 133.345C206.969 132.928 206.553 132.511 206.124 132.082C205.25 131.207 204.375 130.333 203.499 129.459C202.374 128.337 201.252 127.213 200.13 126.088C199.058 125.015 197.985 123.942 196.911 122.87C196.507 122.465 196.103 122.06 195.686 121.643C195.315 121.273 194.944 120.903 194.562 120.522C194.234 120.195 193.906 119.867 193.568 119.53C192.928 118.78 192.928 118.78 192.36 118.831ZM249.44 200.817C248.56 201.793 248.404 202.542 248.431 203.841C248.562 204.409 248.692 204.978 248.827 205.563C251.309 204.381 253.676 203.028 255.602 201.046C256.016 199.456 255.927 198.129 255.602 196.529C253.78 196.529 250.791 199.61 249.44 200.817ZM255.052 206.922C254.482 207.362 254.482 207.362 253.901 207.812C253.494 208.132 253.086 208.452 252.666 208.782C251.806 209.448 250.946 210.113 250.085 210.777C249.649 211.115 249.213 211.452 248.763 211.8C246.837 213.277 244.884 214.716 242.926 216.151C242.215 216.672 241.504 217.194 240.792 217.716C240.464 217.957 240.135 218.198 239.797 218.446C238.169 219.645 236.555 220.863 234.943 222.083C233.718 223.003 232.475 223.895 231.23 224.786C230.836 225.071 230.442 225.355 230.036 225.648C229.247 226.217 228.455 226.783 227.661 227.344C227.301 227.604 226.942 227.864 226.572 228.132C226.247 228.364 225.922 228.596 225.587 228.835C225.355 229.056 225.123 229.277 224.885 229.505C224.885 229.952 224.885 230.399 224.885 230.86C226.401 230.582 227.325 230.038 228.543 229.104C228.901 228.832 229.259 228.56 229.628 228.28C230.01 227.985 230.392 227.691 230.786 227.387C231.598 226.769 232.41 226.152 233.222 225.535C233.637 225.219 234.051 224.903 234.478 224.578C236.423 223.104 238.389 221.66 240.357 220.216C241.359 219.48 242.36 218.745 243.361 218.007C243.998 217.537 244.638 217.07 245.279 216.604C246.618 215.622 247.847 214.675 249.015 213.488C250.974 211.559 253.28 210.088 255.533 208.523C256.068 208.145 256.068 208.145 256.614 207.76C256.94 207.533 257.266 207.306 257.602 207.072C257.954 206.773 257.954 206.773 258.313 206.467C258.313 206.168 258.313 205.87 258.313 205.563C256.666 205.563 256.327 205.924 255.052 206.922ZM261.927 209.629C261.778 210.076 261.629 210.523 261.475 210.984C260.882 211.303 260.277 211.599 259.668 211.887C258.595 212.615 257.55 213.378 256.506 214.146C256.919 215.235 256.919 215.235 258.482 215.586C260.021 215.764 260.557 215.511 261.884 214.654C263.477 213.347 264.987 211.989 266.444 210.532C264.809 209.938 263.69 209.629 261.927 209.629ZM196.878 232.667C194.182 235.903 193.05 240.063 193.292 244.242C194.015 249.44 196.415 253.206 200.544 256.459C204.427 259.035 208.59 259.249 213.14 258.867C217.786 257.771 221.182 254.959 223.766 251.029C225.451 248.007 225.979 245.126 225.788 241.701C223.85 241.851 221.912 242 219.916 242.153C219.748 242.982 219.58 243.812 219.408 244.666C218.58 247.961 217.349 249.837 214.439 251.583C211.188 252.855 208.17 252.997 204.926 251.625C202.429 250.294 200.878 247.961 200.04 245.315C199.615 242.37 199.889 240.05 201.407 237.481C201.921 236.664 201.921 236.664 202.298 235.377C205.252 233.592 208.378 232.933 211.785 233.119C212.163 232.31 212.539 231.501 212.914 230.691C213.124 230.24 213.333 229.789 213.549 229.325C214.102 228.223 214.102 228.223 214.043 227.246C207.59 225.095 201.242 227.873 196.878 232.667ZM218.109 230.408C217.065 232.793 216.022 235.179 214.947 237.636C216.255 238.29 217.309 238.055 218.758 237.946C219.279 237.911 219.801 237.875 220.338 237.839C221.797 237.726 221.797 237.726 223.078 236.732C222.336 235.677 221.593 234.623 220.848 233.57C220.53 233.118 220.53 233.118 220.206 232.656C219.669 231.899 219.116 231.153 218.561 230.408C218.412 230.408 218.262 230.408 218.109 230.408ZM205.009 239.895C204.286 241.339 204.394 242.84 204.557 244.412C205.19 245.994 205.745 246.556 207.154 247.518C208.956 248.141 209.951 248.074 211.785 247.574C213.379 246.617 213.936 246.032 214.636 244.299C214.739 243.889 214.841 243.479 214.947 243.057C214.481 243.072 214.481 243.072 214.006 243.088C213.396 243.101 213.396 243.101 212.773 243.113C212.369 243.124 211.966 243.134 211.55 243.145C210.429 243.057 210.429 243.057 209.074 242.153C208.935 240.556 209.055 239.167 209.526 237.636C207.227 237.636 206.65 238.362 205.009 239.895ZM194.619 274.226C194.164 276.145 193.713 278.065 193.264 279.986C193.134 280.531 193.005 281.076 192.872 281.637C192.75 282.161 192.627 282.685 192.501 283.225C192.388 283.708 192.274 284.191 192.157 284.688C191.851 286.049 191.851 286.049 191.909 287.778C192.356 287.927 192.803 288.076 193.264 288.23C193.92 286.446 194.571 284.662 195.219 282.875C195.44 282.268 195.662 281.66 195.885 281.053C196.206 280.182 196.522 279.309 196.837 278.436C197.029 277.911 197.22 277.386 197.418 276.845C197.926 275.615 197.926 275.615 197.329 274.678C195.961 274.381 195.961 274.381 194.619 274.226ZM223.53 273.774C222.351 274.178 222.351 274.178 221.271 274.678C222.514 279.138 224.163 283.446 225.788 287.778C226.236 287.778 226.683 287.778 227.143 287.778C226.828 284.798 226.251 281.919 225.591 278.997C225.493 278.544 225.394 278.09 225.293 277.622C225.196 277.191 225.099 276.761 225 276.317C224.869 275.731 224.869 275.731 224.736 275.132C224.522 274.138 224.522 274.138 223.53 273.774Z" fill="white"/>
<path d="M105.176 158.131C106.758 157.99 106.758 157.99 108.339 158.131C109.541 159.334 109.355 160.234 109.37 161.87C109.37 162.272 109.369 162.674 109.368 163.087C109.37 163.513 109.373 163.938 109.376 164.376C109.383 165.809 109.385 167.241 109.386 168.675C109.39 169.698 109.395 170.722 109.4 171.746C109.412 174.533 109.419 177.319 109.425 180.106C109.432 183.016 109.444 185.925 109.456 188.835C109.474 193.721 109.49 198.607 109.503 203.493C109.517 208.526 109.532 213.559 109.55 218.592C109.552 218.902 109.553 219.212 109.554 219.532C109.559 221.087 109.565 222.643 109.571 224.199C109.617 237.11 109.658 250.021 109.694 262.932C110.121 262.936 110.548 262.94 110.988 262.943C115.01 262.978 119.031 263.018 123.052 263.062C125.12 263.085 127.187 263.106 129.255 263.123C131.25 263.14 133.244 263.16 135.239 263.184C136.001 263.193 136.762 263.2 137.524 263.205C138.589 263.212 139.655 263.226 140.72 263.24C141.194 263.241 141.194 263.241 141.678 263.243C143.312 263.271 143.98 263.354 145.38 264.287C145.554 265.648 145.655 266.574 144.893 267.751C143.562 268.675 142.417 268.525 140.812 268.528C140.323 268.532 140.323 268.532 139.825 268.536C138.747 268.542 137.67 268.538 136.593 268.533C135.843 268.534 135.093 268.535 134.343 268.537C132.769 268.539 131.195 268.536 129.622 268.53C127.61 268.522 125.599 268.526 123.587 268.535C122.037 268.539 120.487 268.538 118.937 268.534C118.195 268.533 117.454 268.535 116.713 268.538C115.673 268.541 114.633 268.536 113.593 268.528C113.002 268.527 112.412 268.526 111.803 268.525C109.67 268.304 107.856 267.749 106.196 266.32C104.294 263.801 104.207 261.919 104.213 258.851C104.211 258.217 104.211 258.217 104.21 257.571C104.207 256.148 104.207 254.726 104.207 253.304C104.206 252.287 104.205 251.27 104.203 250.252C104.199 247.485 104.198 244.718 104.197 241.951C104.197 239.644 104.195 237.337 104.194 235.03C104.19 229.9 104.189 224.77 104.189 219.641C104.189 219.333 104.189 219.025 104.189 218.708C104.189 218.399 104.189 218.091 104.189 217.773C104.19 212.775 104.185 207.777 104.179 202.778C104.172 197.648 104.169 192.519 104.17 187.389C104.17 184.508 104.168 181.627 104.164 178.746C104.159 176.038 104.159 173.33 104.163 170.622C104.163 169.626 104.162 168.63 104.159 167.634C104.156 166.278 104.158 164.923 104.161 163.567C104.159 163.17 104.157 162.772 104.154 162.362C104.17 159.641 104.17 159.641 105.176 158.131Z" fill="white"/>
<path d="M208.171 208.725C209.102 209.487 209.102 209.487 209.526 210.531C209.469 211.717 209.469 211.717 209.074 212.79C207.515 213.83 206.426 213.977 204.585 214.286C199.674 215.195 195.465 217.018 191.457 220.018C191.051 220.32 191.051 220.32 190.636 220.628C189.301 221.677 188.555 222.565 187.843 224.083C187.508 224.4 187.172 224.717 186.827 225.043C183.079 228.961 180.717 234.779 180.585 240.221C180.596 240.654 180.607 241.088 180.619 241.535C180.626 242.011 180.634 242.486 180.642 242.977C180.662 243.974 180.685 244.972 180.712 245.969C180.719 246.444 180.725 246.918 180.732 247.407C180.742 247.84 180.752 248.273 180.762 248.719C180.615 249.832 180.615 249.832 180.001 250.647C179.26 251.187 179.26 251.187 178.131 251.413C177.001 251.187 177.001 251.187 176.211 250.227C175.167 247.827 175.142 245.477 175.166 242.887C175.17 242.324 175.174 241.762 175.179 241.182C175.184 240.757 175.189 240.332 175.195 239.894C174.734 239.901 174.273 239.908 173.799 239.915C172.093 239.94 170.388 239.955 168.682 239.968C167.943 239.975 167.205 239.984 166.466 239.996C165.405 240.013 164.345 240.02 163.284 240.026C162.787 240.037 162.787 240.037 162.28 240.047C161.348 240.048 161.348 240.048 159.836 239.894C158.932 238.539 158.932 238.539 159.073 236.901C159.384 235.377 159.384 235.377 159.836 234.925C161.039 234.853 162.232 234.808 163.437 234.782C163.978 234.768 163.978 234.768 164.529 234.753C165.684 234.724 166.84 234.697 167.995 234.671C168.776 234.651 169.558 234.632 170.339 234.612C172.259 234.563 174.178 234.517 176.098 234.473C176.202 234.129 176.306 233.785 176.414 233.43C176.561 232.964 176.708 232.497 176.86 232.017C177.002 231.561 177.143 231.105 177.289 230.635C178.066 228.639 179.087 226.834 180.164 224.987C179.911 224.983 179.658 224.979 179.398 224.976C176.775 224.937 174.151 224.892 171.528 224.843C170.548 224.826 169.569 224.81 168.589 224.796C167.183 224.776 165.777 224.749 164.371 224.722C163.931 224.717 163.491 224.712 163.037 224.706C162.427 224.693 162.427 224.693 161.804 224.679C161.445 224.673 161.086 224.667 160.716 224.661C159.836 224.535 159.836 224.535 158.932 223.632C158.681 221.272 158.681 221.272 159.472 220.166C160.573 219.356 161.271 219.406 162.63 219.421C163.347 219.423 163.347 219.423 164.079 219.425C164.854 219.435 164.854 219.435 165.645 219.446C166.738 219.445 167.83 219.443 168.923 219.441C170.647 219.445 172.371 219.453 174.095 219.471C175.758 219.486 177.42 219.482 179.084 219.474C179.597 219.485 180.11 219.496 180.638 219.507C183.156 219.484 184.709 219.4 186.537 217.567C186.976 217.032 187.412 216.494 187.843 215.952C193.299 211.799 201.117 207.81 208.171 208.725Z" fill="white"/>
<path d="M149.416 177.839C149.876 177.836 150.336 177.832 150.809 177.829C151.313 177.833 151.818 177.836 152.337 177.84C152.868 177.838 153.399 177.836 153.946 177.835C155.403 177.832 156.86 177.835 158.317 177.841C159.841 177.846 161.365 177.844 162.889 177.843C165.449 177.843 168.008 177.848 170.568 177.856C173.528 177.865 176.488 177.867 179.447 177.864C182.294 177.862 185.14 177.864 187.986 177.869C189.198 177.871 190.41 177.872 191.622 177.871C193.313 177.871 195.005 177.876 196.696 177.884C197.201 177.883 197.705 177.881 198.224 177.88C198.914 177.885 198.914 177.885 199.617 177.89C200.218 177.891 200.218 177.891 200.83 177.893C201.846 178.008 201.846 178.008 203.202 178.911C203.496 181.218 203.496 181.218 202.653 182.375C201.588 183.17 200.94 183.147 199.617 183.149C199.158 183.153 198.698 183.157 198.224 183.16C197.72 183.158 197.216 183.155 196.696 183.152C196.165 183.155 195.634 183.157 195.087 183.159C193.63 183.164 192.173 183.163 190.716 183.159C189.192 183.155 187.668 183.159 186.144 183.161C183.585 183.163 181.025 183.16 178.466 183.153C175.506 183.146 172.546 183.148 169.586 183.156C167.046 183.162 164.505 183.163 161.965 183.159C160.447 183.157 158.929 183.157 157.412 183.161C155.72 183.165 154.029 183.16 152.337 183.152C151.581 183.156 151.581 183.156 150.809 183.16C150.35 183.157 149.89 183.153 149.416 183.149C149.016 183.148 148.616 183.148 148.204 183.147C146.972 182.941 146.57 182.614 145.832 181.622C145.662 180.492 145.662 180.492 145.832 179.363C146.887 177.945 147.693 177.838 149.416 177.839Z" fill="white"/>
<path d="M149.436 153.897C149.901 153.894 150.365 153.891 150.843 153.887C151.352 153.891 151.861 153.894 152.386 153.898C152.922 153.896 153.458 153.895 154.011 153.893C155.482 153.89 156.952 153.893 158.423 153.899C159.962 153.904 161.5 153.902 163.038 153.901C165.621 153.901 168.203 153.906 170.786 153.914C173.774 153.924 176.762 153.925 179.75 153.923C182.623 153.92 185.495 153.923 188.367 153.928C189.591 153.93 190.814 153.93 192.038 153.929C193.745 153.929 195.451 153.935 197.158 153.942C197.668 153.941 198.178 153.94 198.703 153.939C199.166 153.942 199.629 153.945 200.106 153.948C200.51 153.949 200.914 153.95 201.33 153.951C202.298 154.066 202.298 154.066 203.202 154.97C203.371 156.297 203.371 156.297 203.202 157.68C201.896 158.95 200.96 159.205 199.166 159.204C198.718 159.207 198.269 159.211 197.807 159.214C197.318 159.21 196.829 159.207 196.325 159.203C195.808 159.205 195.291 159.207 194.758 159.208C193.046 159.212 191.334 159.206 189.622 159.199C188.433 159.199 187.245 159.199 186.057 159.2C183.566 159.2 181.075 159.195 178.584 159.187C175.705 159.177 172.826 159.176 169.947 159.179C167.176 159.181 164.405 159.179 161.634 159.174C160.455 159.172 159.277 159.171 158.098 159.172C156.452 159.172 154.806 159.167 153.16 159.159C152.427 159.161 152.427 159.161 151.678 159.163C151.23 159.159 150.781 159.156 150.319 159.153C149.93 159.152 149.541 159.151 149.14 159.15C147.978 159.023 147.256 158.78 146.284 158.132C145.86 156.805 145.86 156.805 145.832 155.421C146.858 153.977 147.722 153.897 149.436 153.897Z" fill="white"/>
<path d="M150.299 201.831C150.743 201.828 151.187 201.825 151.644 201.822C152.37 201.823 152.37 201.823 153.111 201.825C153.623 201.823 154.136 201.82 154.663 201.818C156.358 201.812 158.054 201.812 159.749 201.813C160.926 201.812 162.103 201.81 163.28 201.807C165.748 201.804 168.216 201.804 170.684 201.807C173.534 201.809 176.385 201.804 179.236 201.794C181.981 201.785 184.726 201.784 187.47 201.785C188.637 201.785 189.804 201.783 190.971 201.778C192.602 201.773 194.232 201.776 195.863 201.781C196.588 201.776 196.588 201.776 197.328 201.771C201.557 201.801 201.557 201.801 203.201 203.304C203.399 204.688 203.399 204.688 203.201 206.015C202.061 207.155 201.684 207.032 200.106 207.036C199.643 207.039 199.18 207.042 198.703 207.046C198.193 207.045 197.683 207.043 197.158 207.042C196.355 207.046 196.355 207.046 195.535 207.049C194.064 207.054 192.593 207.056 191.122 207.054C189.895 207.054 188.668 207.056 187.441 207.058C184.547 207.063 181.653 207.064 178.758 207.061C175.77 207.058 172.783 207.064 169.795 207.073C167.231 207.081 164.668 207.084 162.104 207.082C160.572 207.082 159.041 207.083 157.509 207.089C155.801 207.095 154.093 207.092 152.385 207.086C151.622 207.092 151.622 207.092 150.843 207.097C150.379 207.094 149.914 207.09 149.436 207.087C149.032 207.087 148.628 207.087 148.212 207.087C147.187 206.918 147.187 206.918 146.367 206.316C145.832 205.563 145.832 205.563 145.86 204.18C146.283 202.853 146.283 202.853 147.075 202.325C148.218 201.902 149.081 201.834 150.299 201.831Z" fill="white"/>
<path d="M276.382 154.065C278.742 156.36 280.116 158.511 280.165 161.886C280.1 164.748 279.394 166.695 277.508 168.845C275.313 170.928 272.847 172.065 269.809 172.177C266.377 171.969 264.108 170.859 261.757 168.38C260.465 166.792 260.202 165.575 260.12 163.552C261.137 162.61 261.645 162.197 263.056 162.197C264.54 162.79 265.123 163.587 265.992 164.907C265.992 165.205 265.992 165.503 265.992 165.81C268.127 166.845 270.133 167.105 272.429 166.403C273.543 165.568 274.008 164.827 274.575 163.552C274.816 161.306 274.644 159.911 273.22 158.131C271.637 157.069 270.288 157.16 268.42 157.227C266.85 157.284 266.85 157.284 265.54 157.227C264.637 156.324 264.637 156.324 264.468 154.997C264.637 153.614 264.637 153.614 265.399 152.795C268.883 151.006 273.362 151.607 276.382 154.065Z" fill="white"/>
<path d="M77.5926 218.945C78.976 219.115 78.976 219.115 79.7612 219.828C80.5741 221.388 80.2859 222.426 79.9924 224.14C79.9016 224.7 79.8107 225.261 79.7171 225.838C79.4277 227.246 79.4277 227.246 78.976 228.149C79.4116 228.204 79.8471 228.259 80.2959 228.315C80.8666 228.391 81.4372 228.467 82.0252 228.545C82.8742 228.655 82.8742 228.655 83.7403 228.767C85.0731 229.011 85.9826 229.226 87.1071 229.956C87.5306 230.775 87.5306 230.775 87.5589 231.763C87.1354 233.005 87.1354 233.005 86.2037 234.022C83.4117 234.365 80.7941 233.743 78.0726 233.118C78.0283 233.554 77.984 233.989 77.9384 234.438C77.8709 235.009 77.8033 235.58 77.7338 236.168C77.6709 236.734 77.608 237.3 77.5432 237.883C77.1355 239.583 76.7557 240.221 75.3622 241.249C73.8301 241.177 73.2919 240.986 72.2001 239.894C71.9791 237.242 72.5219 234.796 73.1035 232.215C72.587 232.122 72.0705 232.03 71.5384 231.934C70.8649 231.811 70.1914 231.689 69.5179 231.566C69.177 231.505 68.836 231.444 68.4848 231.381C65.927 230.911 65.927 230.911 65.4241 230.408C65.3394 228.855 65.3394 228.855 65.4241 227.246C66.3276 226.342 66.3276 226.342 67.9369 226.258C69.9742 226.306 71.9873 226.532 74.007 226.794C74.0943 226.315 74.1817 225.837 74.2717 225.344C74.3903 224.717 74.5091 224.09 74.6281 223.463C74.7137 222.989 74.7137 222.989 74.801 222.506C75.4328 219.221 75.4328 219.221 77.5926 218.945Z" fill="white"/>
<path d="M234.089 68.0674C235.726 68.2368 235.726 68.2368 236.489 69.0838C236.834 69.9053 237.166 70.7327 237.466 71.5718C238.576 74.5947 239.467 76.2425 242.465 77.6896C244.415 78.4853 246.289 78.7862 248.375 79.0783C249.278 79.9818 249.278 79.9818 249.419 81.5628C249.373 82.0846 249.326 82.6063 249.278 83.1439C247.994 83.9997 247.211 84.2742 245.749 84.6402C243.201 85.372 241.728 86.4629 239.989 88.4799C239.34 89.0163 239.34 89.0163 238.211 89.1857C237.081 89.0163 237.081 89.0163 236.234 88.5081C235.726 87.6612 235.726 87.6612 235.726 86.4189C236.309 84.5239 237.219 83.3492 238.437 81.7887C237.095 80.7452 235.753 79.7017 234.371 78.6266C234.073 79.2228 233.775 79.8191 233.468 80.4335C232.668 81.5003 232.312 81.7537 230.983 81.9863C229.854 81.7887 229.854 81.7887 229.007 81.0264C228.499 79.9818 228.499 79.9818 228.527 78.8807C228.95 77.7231 228.95 77.7231 229.826 76.6502C231.321 74.7464 231.637 72.679 231.915 70.326C232.162 68.2815 232.162 68.2815 234.089 68.0674Z" fill="white"/>
<path d="M251.196 256.831C252.892 257.06 252.892 257.06 254.065 258.39C254.448 259.013 254.818 259.643 255.179 260.279C255.606 260.984 256.034 261.689 256.462 262.394C256.686 262.773 256.911 263.152 257.143 263.543C258.15 265.221 259.205 266.867 260.26 268.514C261.073 269.782 261.877 271.054 262.682 272.327C263.597 273.768 264.527 275.195 265.491 276.604C265.683 276.889 265.875 277.174 266.073 277.467C266.571 278.201 267.077 278.93 267.584 279.659C268.393 281.288 268.48 282.367 268.251 284.164C266.794 285.135 266.328 285.313 264.637 285.067C263.915 284.381 263.915 284.381 263.254 283.345C262.984 282.932 262.715 282.518 262.438 282.092C262.117 281.578 261.796 281.064 261.475 280.55C261.069 279.913 260.664 279.277 260.257 278.641C259.091 276.809 257.937 274.97 256.784 273.129C256.047 271.956 255.306 270.785 254.563 269.615C254.321 269.233 254.079 268.851 253.829 268.458C253.368 267.731 252.906 267.005 252.444 266.278C251.835 265.317 251.232 264.352 250.633 263.384C250.357 262.941 250.357 262.941 250.075 262.489C249.219 261.071 248.817 260.39 248.911 258.697C249.402 257.111 249.402 257.111 251.196 256.831Z" fill="white"/>
<path d="M130.614 197.77C130.958 197.761 131.301 197.752 131.654 197.742C133.734 197.728 135.134 197.853 136.797 199.239C137.977 200.81 137.836 202.496 137.842 204.405C137.849 204.992 137.857 205.578 137.865 206.182C137.691 207.924 137.439 208.73 136.346 210.08C134.58 211.481 133.176 211.619 130.953 211.605C130.418 211.608 129.883 211.612 129.331 211.615C127.342 211.387 125.741 210.927 124.442 209.33C123.995 207.717 123.982 206.123 123.979 204.462C123.963 203.953 123.963 203.953 123.946 203.434C123.937 201.65 124.021 200.794 125.006 199.251C126.726 197.592 128.338 197.786 130.614 197.77ZM128.666 202.852C128.634 203.463 128.628 204.076 128.638 204.688C128.647 205.275 128.657 205.861 128.666 206.466C130.008 206.466 131.349 206.466 132.732 206.466C132.732 205.125 132.732 203.783 132.732 202.401C130.564 202.162 130.564 202.162 128.666 202.852Z" fill="white"/>
<path d="M130.84 173.773C131.205 173.756 131.57 173.739 131.946 173.722C133.947 173.692 134.732 173.736 136.351 175.026C137.783 176.899 137.798 178.019 137.842 180.379C137.859 180.969 137.876 181.558 137.893 182.165C137.672 184.135 137.144 185.074 135.894 186.591C133.464 187.863 130.363 187.928 127.721 187.252C126.025 186.595 125.022 185.912 124.149 184.332C124.004 183.019 123.939 181.831 123.951 180.52C123.942 180.181 123.933 179.842 123.924 179.493C123.926 177.712 124.025 176.847 125.008 175.31C126.765 173.612 128.512 173.813 130.84 173.773ZM128.666 178.459C128.666 179.801 128.666 181.143 128.666 182.525C130.008 182.525 131.35 182.525 132.732 182.525C132.732 181.183 132.732 179.842 132.732 178.459C131.39 178.459 130.049 178.459 128.666 178.459Z" fill="white"/>
<path d="M138.153 143.224C141.188 143.549 141.188 143.549 141.766 144.128C142.129 146.825 141.006 148.716 139.806 151.039C139.507 151.634 139.507 151.634 139.202 152.24C138.565 153.5 137.921 154.757 137.277 156.014C136.845 156.868 136.414 157.722 135.983 158.577C135.196 160.133 134.408 161.688 133.612 163.24C133.453 163.552 133.293 163.864 133.129 164.185C132.732 164.907 132.732 164.907 132.28 165.359C131.094 165.641 131.094 165.641 129.57 165.359C128.316 164.141 127.379 162.741 126.408 161.293C126.171 160.975 125.934 160.657 125.689 160.33C124.604 158.797 123.969 157.781 124.234 155.873C124.355 155.425 124.476 154.978 124.601 154.517C126.166 154.294 126.166 154.294 127.763 154.066C128.657 155.258 129.552 156.451 130.473 157.679C133.918 151.178 133.918 151.178 137.223 144.604C137.701 143.676 137.701 143.676 138.153 143.224Z" fill="white"/>
<path d="M279.517 240.729C280.863 240.683 282.207 240.65 283.553 240.628C283.922 240.616 284.291 240.604 284.671 240.592C286.183 240.587 286.997 240.591 288.139 241.634C288.705 242.882 288.521 243.574 288.127 244.863C285.461 245.766 282.973 245.955 280.17 246.052C279.486 246.08 279.486 246.08 278.788 246.109C277.337 246.168 275.885 246.221 274.434 246.275C273.464 246.314 272.493 246.353 271.523 246.393C270.585 246.43 269.646 246.467 268.708 246.504C268.277 246.521 267.845 246.538 267.401 246.555C266.579 246.585 265.757 246.612 264.934 246.636C264.112 246.659 263.289 246.69 262.467 246.728C262.065 246.74 261.663 246.752 261.249 246.765C260.711 246.786 260.711 246.786 260.162 246.808C259.216 246.67 259.216 246.67 258.422 246.073C257.561 244.909 257.682 244.005 257.861 242.604C259.582 241.456 261.064 241.497 263.066 241.415C263.642 241.387 263.642 241.387 264.23 241.358C265.476 241.298 266.722 241.245 267.968 241.193C268.389 241.174 268.809 241.155 269.242 241.136C272.667 240.985 276.092 240.86 279.517 240.729Z" fill="white"/>
<path d="M69.9418 97.1476C73.2074 96.7024 75.0929 98.1752 77.7288 99.9656C78.3806 100.397 78.3806 100.397 79.0456 100.837C79.961 101.445 80.874 102.056 81.7848 102.67C83.1814 103.612 84.5847 104.543 85.9896 105.472C86.8785 106.064 87.767 106.657 88.655 107.25C89.0752 107.529 89.4954 107.809 89.9283 108.097C90.316 108.359 90.7036 108.621 91.103 108.891C91.4446 109.121 91.7861 109.351 92.138 109.587C92.98 110.248 92.98 110.248 93.8834 111.603C93.7987 112.986 93.7987 112.986 93.4317 114.313C92.0765 115.217 92.0765 115.217 91.0104 115.142C89.6178 114.702 88.6491 114.083 87.4516 113.246C86.7392 112.756 86.7392 112.756 86.0124 112.256C85.7539 112.078 85.4954 111.9 85.2291 111.716C84.0335 110.904 82.8195 110.121 81.6049 109.338C80.2809 108.483 78.9625 107.62 77.644 106.757C76.9627 106.312 76.2797 105.871 75.5953 105.431C74.5941 104.787 73.5989 104.135 72.6045 103.481C72.2978 103.286 71.991 103.092 71.675 102.892C70.3895 102.035 69.589 101.48 69.043 100.007C69.0376 98.8047 69.3061 98.1572 69.9418 97.1476Z" fill="white"/>
<path d="M110.146 73.2057C111.171 73.9631 111.468 74.4189 111.756 75.6721C111.795 76.113 111.835 76.5539 111.876 77.0082C111.924 77.5088 111.972 78.0093 112.022 78.525C112.067 79.0657 112.112 79.6063 112.159 80.1634C112.209 80.7187 112.26 81.274 112.312 81.8461C112.444 83.3221 112.57 84.7986 112.694 86.2753C112.771 87.1799 112.853 88.0839 112.937 88.9879C113.098 90.7232 113.251 92.459 113.401 94.1953C113.451 94.735 113.501 95.2748 113.552 95.8309C113.593 96.3328 113.634 96.8348 113.676 97.352C113.714 97.7933 113.752 98.2346 113.791 98.6892C113.757 99.9545 113.563 100.622 112.856 101.665C111.783 102.088 111.783 102.088 110.597 102.116C109.647 101.6 109.647 101.6 108.79 100.761C108.475 99.604 108.475 99.604 108.349 98.2114C108.273 97.4377 108.273 97.4377 108.195 96.6484C108.15 96.0957 108.104 95.5429 108.056 94.9734C107.977 94.126 107.977 94.126 107.895 93.2614C107.787 92.1036 107.683 90.9455 107.582 89.7871C107.448 88.2545 107.302 86.7235 107.151 85.1924C107.067 84.3214 106.983 83.4502 106.899 82.5791C106.861 82.185 106.823 81.7909 106.784 81.3848C106.214 75.0954 106.214 75.0954 107.068 73.6574C108.187 73.0399 108.886 73.0168 110.146 73.2057Z" fill="white"/>
<path d="M274.117 258.677C276.502 258.753 278.472 259.924 280.555 260.993C281.207 261.319 281.207 261.319 281.872 261.651C282.787 262.111 283.7 262.573 284.611 263.038C286.009 263.75 287.412 264.452 288.816 265.153C289.705 265.601 290.593 266.049 291.481 266.498C291.902 266.709 292.322 266.919 292.755 267.136C293.142 267.335 293.53 267.533 293.929 267.738C294.271 267.912 294.613 268.085 294.965 268.264C295.806 268.804 295.806 268.804 296.71 270.16C296.823 271.317 296.823 271.317 296.71 272.418C295.806 273.322 295.806 273.322 294.666 273.505C292.441 273.245 290.736 272.314 288.761 271.294C288.349 271.087 287.937 270.88 287.512 270.666C286.199 270.003 284.891 269.333 283.582 268.663C282.699 268.217 281.817 267.772 280.934 267.327C273.096 263.362 273.096 263.362 271.865 262.48C271.667 261.097 271.667 261.097 271.865 259.77C272.768 258.866 272.768 258.866 274.117 258.677Z" fill="white"/>
<path d="M79.4275 68.6885C80.1969 69.3674 80.1969 69.3674 80.8957 70.3472C81.1641 70.719 81.4325 71.0908 81.7091 71.4739C81.9997 71.8963 82.2903 72.3188 82.5896 72.754C82.9128 73.2161 83.236 73.6782 83.569 74.1542C84.4372 75.4132 85.2909 76.679 86.134 77.9547C86.485 78.4831 86.839 79.0095 87.1958 79.534C87.7187 80.3025 88.2324 81.0764 88.7445 81.8522C89.0484 82.3065 89.3524 82.7609 89.6656 83.229C90.269 84.499 90.269 84.499 90.1949 85.7373C89.8173 86.7577 89.8173 86.7577 88.9139 87.6611C87.4087 87.6735 87.4087 87.6735 85.7518 87.2094C84.874 86.2252 84.2862 85.4198 83.6343 84.3014C83.2532 83.6863 82.8714 83.0717 82.4891 82.4574C82.2893 82.1304 82.0895 81.8033 81.8836 81.4664C81.1972 80.3742 80.4754 79.314 79.7399 78.2542C79.4907 77.8931 79.2416 77.5321 78.985 77.1601C78.4968 76.4543 78.0058 75.7506 77.5118 75.049C75.8586 72.621 75.8586 72.621 75.6284 70.9877C75.8137 70.0437 75.8137 70.0437 76.3501 69.2249C77.4604 68.4975 78.1189 68.535 79.4275 68.6885Z" fill="white"/>
<path d="M93.883 89.9202C96.4394 92.0017 98.1498 95.6311 99.9249 98.3902C100.288 98.9512 100.288 98.9512 100.659 99.5236C100.886 99.8833 101.113 100.243 101.347 100.614C101.552 100.935 101.756 101.257 101.967 101.589C102.53 102.695 102.805 103.591 102.918 104.827C102.014 106.183 102.014 106.183 100.546 106.493C98.6815 106.151 98.597 106.083 97.5868 104.64C97.3545 104.312 97.1223 103.985 96.883 103.647C96.6383 103.291 96.3937 102.935 96.1416 102.569C95.7581 102.028 95.7581 102.028 95.3668 101.476C94.5652 100.335 93.7851 99.1809 93.0077 98.0231C92.7361 97.635 92.4645 97.2469 92.1846 96.847C90.0454 93.6395 90.0454 93.6395 90.2674 91.7007C90.947 89.7095 91.9069 89.7127 93.883 89.9202Z" fill="white"/>
<path d="M258.313 251.187C261.038 251.274 263.46 252.64 265.879 253.785C266.312 253.979 266.744 254.174 267.19 254.374C267.603 254.569 268.016 254.763 268.441 254.963C268.817 255.138 269.192 255.313 269.579 255.492C270.757 256.333 271.032 257.035 271.413 258.415C271.187 259.431 271.187 259.431 270.509 260.222C268.421 260.789 267.299 260.648 265.392 259.662C264.957 259.441 264.521 259.219 264.072 258.991C263.625 258.754 263.178 258.518 262.717 258.274C262.263 258.042 261.809 257.811 261.341 257.572C258.014 255.858 258.014 255.858 256.958 254.801C257.163 252.337 257.163 252.337 258.313 251.187Z" fill="white"/>
</g>
<defs>
<linearGradient id="paint0_linear_60_75" x1="181.117" y1="0" x2="181.117" y2="261.558" gradientUnits="userSpaceOnUse">
<stop stop-color="#DB4130"/>
<stop offset="1" stop-color="#DD5A4C"/>
</linearGradient>
<clipPath id="clip0_60_75">
<rect width="231.286" height="224.961" fill="white" transform="translate(65.4238 68.2368)"/>
</clipPath>
</defs>
</svg>
