<svg width="362" height="362" viewBox="0 0 362 362" fill="none" xmlns="http://www.w3.org/2000/svg">
<circle cx="181.268" cy="180.732" r="180.732" fill="url(#paint0_linear_60_77)"/>
<path d="M243.202 65.1904C243.354 65.7596 243.506 66.3288 243.663 66.9152C243.765 67.2995 243.868 67.6838 243.974 68.0797C244.211 68.967 244.448 69.8544 244.686 70.7417C245.379 73.3352 246.072 75.9287 246.765 78.5222C248.192 83.8592 249.619 89.1963 251.045 94.5335C251.867 97.6108 252.689 100.688 253.512 103.765C253.76 104.696 253.76 104.696 254.014 105.645C256.247 114 258.486 122.353 260.729 130.705C261.581 133.874 262.431 137.043 263.281 140.212C264.084 143.205 264.889 146.197 265.695 149.189C266.191 151.034 266.687 152.88 267.181 154.727C267.41 155.579 267.639 156.431 267.87 157.283C268.181 158.437 268.491 159.591 268.799 160.746C268.973 161.391 269.146 162.035 269.324 162.699C269.691 164.26 269.691 164.26 269.691 165.849C259.967 165.913 250.27 165.746 240.553 165.404C239.184 165.358 237.815 165.311 236.446 165.265C233.606 165.169 230.765 165.072 227.925 164.973C224.673 164.859 221.421 164.748 218.168 164.639C214.992 164.532 211.815 164.423 208.639 164.315C207.308 164.269 205.976 164.224 204.645 164.178C197.184 163.924 189.73 163.629 182.277 163.2C179.335 153.372 176.638 143.482 173.988 133.572C173.411 131.414 172.829 129.256 172.247 127.099C171.795 125.421 171.345 123.742 170.896 122.063C170.683 121.266 170.468 120.469 170.253 119.672C169.955 118.57 169.661 117.466 169.367 116.363C169.2 115.737 169.032 115.112 168.86 114.468C168.502 112.871 168.502 112.871 168.502 110.752C169.461 109.931 169.461 109.931 170.814 109.146C171.312 108.851 171.81 108.556 172.322 108.252C172.865 107.94 173.407 107.629 173.966 107.308C175.096 106.64 176.226 105.972 177.355 105.303C177.921 104.97 178.487 104.637 179.071 104.295C181.304 102.969 183.498 101.586 185.687 100.189C186.508 99.6681 187.329 99.1473 188.15 98.6267C188.779 98.2279 188.779 98.2279 189.42 97.8209C196.42 93.3917 203.461 89.0274 210.521 84.693C214.871 82.0219 219.207 79.331 223.518 76.5961C227.624 73.9916 231.749 71.4177 235.875 68.845C236.391 68.5227 236.908 68.2004 237.44 67.8683C237.901 67.5814 238.361 67.2945 238.835 66.9989C241.704 65.1904 241.704 65.1904 243.202 65.1904Z" fill="white"/>
<path d="M203.84 241.43C204.37 241.426 204.9 241.423 205.445 241.419C206.56 241.414 207.675 241.411 208.79 241.412C210.476 241.409 212.161 241.39 213.846 241.37C223.67 241.316 231.404 242.882 238.773 249.815C250.404 262.178 245.85 280.774 245.85 296.176C222.423 296.176 198.997 296.176 174.86 296.176C174.86 257.315 174.86 257.315 182.806 249.025C189.199 243.572 195.534 241.45 203.84 241.43Z" fill="white"/>
<path d="M164.264 113.931C165.926 120.101 167.584 126.272 169.237 132.444C170.005 135.31 170.774 138.176 171.546 141.04C172.291 143.805 173.033 146.57 173.772 149.336C174.055 150.391 174.339 151.446 174.624 152.501C175.023 153.978 175.418 155.456 175.812 156.934C175.93 157.37 176.049 157.807 176.172 158.256C176.713 160.305 177.13 162.12 176.979 164.26C170.104 166.122 163.229 167.978 156.351 169.828C153.157 170.687 149.964 171.548 146.771 172.413C143.688 173.249 140.603 174.08 137.517 174.907C136.343 175.223 135.17 175.54 133.996 175.859C132.347 176.308 130.696 176.75 129.044 177.191C128.565 177.323 128.085 177.455 127.591 177.591C122.568 178.918 117.693 179.924 112.875 177.505C108.242 174.446 107.123 169.502 105.748 164.42C105.586 163.831 105.425 163.242 105.258 162.635C104.919 161.392 104.583 160.15 104.249 158.906C103.74 157.022 103.217 155.141 102.693 153.26C102.364 152.047 102.036 150.833 101.708 149.619C101.553 149.065 101.397 148.511 101.237 147.941C100.048 143.433 99.0975 138.267 100.988 133.831C103.213 130.217 105.674 128.755 109.729 127.521C110.1 127.408 110.47 127.295 110.851 127.179C115.428 125.8 120.046 124.573 124.665 123.345C125.618 123.09 126.571 122.835 127.524 122.58C130.005 121.916 132.487 121.254 134.968 120.593C137.991 119.787 141.012 118.979 144.034 118.172C146.383 117.544 148.731 116.916 151.08 116.29C151.728 116.117 151.728 116.117 152.388 115.941C153.186 115.728 153.984 115.515 154.782 115.303C156.492 114.847 158.179 114.372 159.862 113.826C161.611 113.402 162.564 113.416 164.264 113.931Z" fill="white"/>
<path d="M221.812 188.431C226.968 192.118 230.124 196.589 231.215 202.802C231.994 209.365 230.483 215.003 226.447 220.251C222.906 224.113 218.132 226.635 212.898 226.971C206.334 227.152 201.501 226.214 196.349 221.841C191.749 217.374 189.674 212.605 189.462 206.179C189.633 199.603 191.915 194.774 196.597 190.236C203.679 184.181 213.919 183.591 221.812 188.431Z" fill="white"/>
<path d="M119.762 236.31C121.685 236.31 123.609 236.31 125.59 236.31C125.852 239.195 125.852 239.195 126.12 242.138C126.994 242.356 127.868 242.575 128.769 242.8C130.748 243.329 132.472 243.93 134.265 244.919C135.59 245.622 136.102 245.846 137.642 245.846C139.083 245.206 139.924 244.379 140.954 243.197C142.976 244.021 144.234 245.335 145.722 246.906C145.183 248.108 144.8 248.912 143.768 249.753C142.903 250.618 142.903 250.618 143.211 252.057C143.611 253.832 144.19 255.344 144.927 257.005C145.82 259.021 146.342 260.601 146.781 262.799C149.666 263.061 149.666 263.061 152.609 263.329C152.609 265.252 152.609 267.175 152.609 269.157C151.347 269.288 151.347 269.288 150.059 269.421C148.596 269.674 148.596 269.674 147.311 270.216C146.346 271.906 146.346 271.906 146.065 273.207C145.54 275.115 144.543 276.754 143.596 278.484C143.002 279.923 142.877 280.859 143.073 282.401C144.342 283.892 144.342 283.892 145.722 285.05C144.959 286.83 144.067 288.078 142.543 289.288C140.73 289.233 140.059 288.394 138.834 287.169C137.306 286.481 136.732 286.633 135.132 287.227C134.551 287.514 133.97 287.801 133.371 288.096C132.765 288.39 132.158 288.684 131.533 288.986C130.971 289.261 130.408 289.535 129.828 289.818C128.598 290.365 127.361 290.888 126.12 291.407C125.945 292.981 125.77 294.554 125.59 296.175C123.667 296.175 121.744 296.175 119.762 296.175C119.607 294.986 119.452 293.796 119.297 292.606C118.391 290.778 116.811 290.465 114.994 289.818C114.331 289.539 113.669 289.256 113.01 288.968C112.687 288.829 112.364 288.691 112.032 288.548C110.547 287.912 109.062 287.276 107.577 286.639C106.856 287.311 106.856 287.311 106.12 287.997C104.561 289.278 104.561 289.278 103.306 289.355C101.779 288.468 100.743 287.477 99.6306 286.11C99.5674 284.088 101.058 282.842 102.279 281.342C102.068 280.849 101.857 280.357 101.64 279.849C100.796 277.879 100.796 277.879 99.9513 275.909C99.8091 275.584 99.6668 275.258 99.5203 274.923C99.237 274.249 98.9732 273.566 98.7279 272.878C98.0002 270.846 98.0002 270.846 96.3132 269.622C95.8891 269.567 95.465 269.512 95.0281 269.455C94.2741 269.356 93.5202 269.258 92.7434 269.157C92.7434 267.233 92.7434 265.31 92.7434 263.329C95.1036 263.067 95.1036 263.067 97.5114 262.799C97.7368 262.265 97.9622 261.731 98.1944 261.181C98.7695 259.835 99.3739 258.521 100.007 257.199C100.298 256.578 100.589 255.956 100.889 255.316C101.188 254.692 101.487 254.068 101.795 253.425C102.471 251.692 102.471 251.692 101.638 250.188C100.709 249.008 100.709 249.008 99.6306 247.965C99.6906 246.226 100.31 245.685 101.518 244.389C101.944 243.996 102.37 243.603 102.809 243.197C104.01 243.735 104.806 244.1 105.624 245.151C106.551 246.023 106.551 246.023 108.206 245.813C110.16 245.333 111.631 244.7 113.374 243.735C114.503 243.178 115.565 242.909 116.782 242.601C117.856 242.291 117.856 242.291 118.703 241.608C119.411 239.803 119.559 238.266 119.762 236.31ZM109.063 253.265C105.316 257.13 103.801 261.117 103.571 266.475C103.755 271.9 105.751 276.37 109.489 280.294C114.498 284.436 119.797 285.504 126.12 285.05C131.531 284.013 135.679 280.608 138.801 276.143C141.249 271.753 142.188 266.631 140.954 261.74C138.361 255.156 134.975 251.37 128.524 248.431C121.284 245.924 114.508 248.295 109.063 253.265Z" fill="white"/>
<path d="M157.377 188.63C159.877 197.071 162.286 205.534 164.563 214.038C164.898 215.282 165.236 216.524 165.577 217.765C166.08 219.596 166.572 221.429 167.062 223.262C167.215 223.812 167.369 224.362 167.527 224.928C168.465 228.504 169.156 232.036 167.281 235.449C167.007 235.733 166.732 236.018 166.449 236.31C166.178 236.605 165.906 236.9 165.626 237.204C163.84 238.697 161.817 238.575 159.61 238.543C157.368 238.326 156.206 237.297 154.728 235.685C153.515 233.975 153.051 232.546 152.507 230.524C152.409 230.163 152.31 229.802 152.208 229.43C151.883 228.237 151.567 227.042 151.251 225.847C151.025 225.01 150.799 224.173 150.572 223.336C150.088 221.549 149.609 219.761 149.132 217.972C148.34 215 147.535 212.032 146.729 209.064C146.194 207.087 145.66 205.11 145.126 203.133C144.995 202.651 144.865 202.17 144.731 201.674C144.363 200.31 143.997 198.946 143.632 197.582C143.521 197.173 143.41 196.764 143.296 196.343C142.543 193.52 142.543 193.52 142.543 192.338C144.816 191.718 147.09 191.101 149.364 190.484C150.012 190.307 150.66 190.13 151.328 189.948C151.946 189.781 152.564 189.613 153.201 189.441C153.772 189.286 154.344 189.13 154.933 188.97C156.317 188.63 156.317 188.63 157.377 188.63Z" fill="white"/>
<path d="M129.352 254.252C132.467 256.111 134.229 258.266 135.788 261.54C136.764 265.931 136.651 269.835 134.389 273.788C131.856 277.341 128.81 279.418 124.53 280.281C120.934 280.674 117.363 279.884 114.318 277.91C111.189 275.358 109.056 272.184 108.637 268.097C108.254 264.271 109.328 260.57 111.555 257.437C116.276 252.331 123.128 251.039 129.352 254.252Z" fill="white"/>
<path d="M164.794 172.736C165.371 175.867 165.582 177.912 163.734 180.683C162.342 182.477 160.725 182.807 158.579 183.396C158.225 183.495 157.871 183.593 157.507 183.695C156.372 184.009 155.235 184.316 154.099 184.623C153.361 184.828 152.623 185.032 151.885 185.237C150.033 185.75 148.177 186.247 146.319 186.739C145.175 187.045 144.034 187.363 142.893 187.682C142.15 187.883 141.406 188.084 140.662 188.284C139.676 188.556 139.676 188.556 138.67 188.833C135.649 189.338 133.344 189.176 130.689 187.504C129.039 185.697 128.701 184.631 128.239 182.273C132.04 180.962 135.876 179.852 139.753 178.79C140.387 178.616 141.021 178.441 141.674 178.262C143.006 177.897 144.338 177.532 145.67 177.168C147.033 176.795 148.396 176.421 149.758 176.044C151.731 175.499 153.705 174.959 155.68 174.419C156.593 174.166 156.593 174.166 157.524 173.907C158.092 173.753 158.66 173.599 159.245 173.441C159.742 173.304 160.24 173.168 160.752 173.027C162.142 172.737 163.379 172.682 164.794 172.736Z" fill="white"/>
<path d="M263.863 103.334C265.884 106.205 266.544 109.491 267.439 112.837C267.613 113.456 267.787 114.074 267.967 114.711C268.129 115.31 268.291 115.91 268.457 116.527C268.605 117.071 268.753 117.614 268.906 118.174C269.192 119.952 269.135 121.208 268.631 122.936C265.717 124.526 265.717 124.526 263.863 124.526C263.092 121.85 262.328 119.173 261.571 116.493C261.312 115.582 261.051 114.672 260.789 113.762C260.412 112.453 260.041 111.143 259.672 109.832C259.554 109.426 259.435 109.02 259.313 108.601C258.763 106.624 258.484 105.294 259.095 103.334C260.855 102.747 262.105 102.703 263.863 103.334Z" fill="white"/>
<defs>
<linearGradient id="paint0_linear_60_77" x1="181.268" y1="0" x2="181.268" y2="261.558" gradientUnits="userSpaceOnUse">
<stop stop-color="#A743EB"/>
<stop offset="1" stop-color="#D56CDB"/>
</linearGradient>
</defs>
</svg>
