<svg width="286" height="286" viewBox="0 0 286 286" fill="none" xmlns="http://www.w3.org/2000/svg">
<circle cx="143" cy="143" r="143" fill="#3054DC"/>
<circle cx="143" cy="143" r="131.5" fill="white" stroke="white"/>
<path d="M213.667 222.5V204.833C213.667 195.462 209.944 186.475 203.318 179.849C196.691 173.223 187.704 169.5 178.333 169.5H107.667C98.2957 169.5 89.3085 173.223 82.6822 179.849C76.0559 186.475 72.3333 195.462 72.3333 204.833V222.5M178.333 98.8333C178.333 118.347 162.514 134.167 143 134.167C123.486 134.167 107.667 118.347 107.667 98.8333C107.667 79.3193 123.486 63.5 143 63.5C162.514 63.5 178.333 79.3193 178.333 98.8333Z" stroke="#00176E" stroke-width="17.6667" stroke-linecap="round" stroke-linejoin="round"/>
</svg>
