<svg width="834" height="895" viewBox="0 0 834 895" fill="none" xmlns="http://www.w3.org/2000/svg">
<g clip-path="url(#clip0_114_90)">
<rect width="834" height="895" fill="white"/>
<path d="M694.341 555.407C694.341 716.669 560.022 847.563 394.125 847.563C228.229 847.563 93.9098 716.669 93.9098 555.407C93.9098 394.144 228.229 263.251 394.125 263.251C560.022 263.251 694.341 394.144 694.341 555.407Z" fill="white" stroke="#3054DA" stroke-width="7.21646"/>
<path d="M736.735 454.805C736.735 546.049 660.426 620.205 566.057 620.205C471.689 620.205 395.379 546.049 395.379 454.805C395.379 363.561 471.689 289.405 566.057 289.405C660.426 289.405 736.735 363.561 736.735 454.805Z" fill="white" stroke="#3054DA" stroke-width="7.21646"/>
<g filter="url(#filter0_bdd_114_90)">
<path d="M22 182.938C22 155.085 22 141.159 27.592 130.598C32.1047 122.075 39.0748 115.105 47.5978 110.592C58.1592 105 72.0854 105 99.9378 105H733.062C760.915 105 774.841 105 785.402 110.592C793.925 115.105 800.895 122.075 805.408 130.598C811 141.159 811 155.085 811 182.938V797.658C811 825.511 811 839.437 805.408 849.998C800.895 858.521 793.925 865.491 785.402 870.004C774.841 875.596 760.915 875.596 733.062 875.596H99.9378C72.0854 875.596 58.1592 875.596 47.5978 870.004C39.0748 865.491 32.1047 858.521 27.592 849.998C22 839.437 22 825.511 22 797.658V182.938Z" fill="#3054DC" fill-opacity="0.57" shape-rendering="crispEdges"/>
<path d="M733.062 101.392H99.9378H99.765C85.9849 101.392 75.4153 101.392 66.9803 102.104C58.4658 102.822 51.7983 104.285 45.9094 107.403C36.7471 112.254 29.2543 119.747 24.4032 128.909C21.2852 134.798 19.8221 141.466 19.1035 149.98C18.3917 158.415 18.3918 168.985 18.3918 182.765V182.938V797.658V797.831C18.3918 811.611 18.3917 822.181 19.1035 830.616C19.8221 839.13 21.2852 845.798 24.4032 851.687C29.2543 860.849 36.7471 868.342 45.9094 873.193C51.7983 876.311 58.4658 877.774 66.9803 878.493C75.4153 879.204 85.985 879.204 99.7652 879.204H99.9378H733.062H733.235C747.015 879.204 757.585 879.204 766.02 878.493C774.534 877.774 781.202 876.311 787.091 873.193C796.253 868.342 803.746 860.849 808.597 851.687C811.715 845.798 813.178 839.13 813.896 830.616C814.608 822.181 814.608 811.611 814.608 797.831V797.658V182.938V182.765C814.608 168.985 814.608 158.415 813.896 149.98C813.178 141.466 811.715 134.798 808.597 128.909C803.746 119.747 796.253 112.254 787.091 107.403C781.202 104.285 774.534 102.822 766.02 102.104C757.585 101.392 747.015 101.392 733.235 101.392H733.062Z" stroke="#3054DA" stroke-width="7.21646" shape-rendering="crispEdges"/>
</g>
<ellipse cx="349.146" cy="104.206" rx="259.793" ry="61.3399" fill="url(#paint0_linear_114_90)"/>
<path d="M607.736 104.206C607.736 111.953 601.045 119.715 587.937 127.032C574.93 134.292 556.03 140.87 532.571 146.409C485.672 157.482 420.821 164.343 349.146 164.343C277.471 164.343 212.62 157.482 165.721 146.409C142.262 140.87 123.362 134.292 110.355 127.032C97.2477 119.715 90.5562 111.953 90.5562 104.206C90.5562 96.4581 97.2477 88.6968 110.355 81.3796C123.362 74.119 142.262 67.5412 165.721 62.0023C212.62 50.929 277.471 44.0685 349.146 44.0685C420.821 44.0685 485.672 50.929 532.571 62.0023C556.03 67.5412 574.93 74.119 587.937 81.3796C601.045 88.6968 607.736 96.4581 607.736 104.206Z" stroke="#4B71A5" stroke-opacity="0.2" stroke-width="2.40549"/>
<ellipse cx="495.881" cy="82.5566" rx="149.14" ry="34.8796" fill="url(#paint1_linear_114_90)"/>
<path d="M643.819 82.5566C643.819 84.5929 642.942 86.6736 641.086 88.794C639.224 90.9223 636.423 93.0325 632.719 95.0807C625.311 99.1767 614.513 102.904 601.065 106.049C574.19 112.334 537.001 116.233 495.881 116.233C454.761 116.233 417.572 112.334 390.697 106.049C377.25 102.904 366.451 99.1767 359.043 95.0807C355.339 93.0325 352.538 90.9223 350.676 88.794C348.821 86.6736 347.944 84.5929 347.944 82.5566C347.944 80.5203 348.821 78.4396 350.676 76.3191C352.538 74.1909 355.339 72.0806 359.043 70.0324C366.451 65.9365 377.25 62.2091 390.697 59.0641C417.572 52.7787 454.761 48.8797 495.881 48.8797C537.001 48.8797 574.19 52.7787 601.065 59.0641C614.513 62.2091 625.311 65.9365 632.719 70.0324C636.423 72.0806 639.224 74.1909 641.086 76.3191C642.942 78.4396 643.819 80.5203 643.819 82.5566Z" stroke="#4B71A5" stroke-opacity="0.2" stroke-width="2.40549"/>
<g filter="url(#filter1_bdd_114_90)">
<path d="M22 76.3503C22 54.0683 22 42.9274 26.4736 34.4782C30.0838 27.6598 35.6598 22.0838 42.4782 18.4736C50.9274 14 62.0683 14 84.3503 14H748.65C770.932 14 782.073 14 790.522 18.4736C797.34 22.0838 802.916 27.6598 806.526 34.4782C811 42.9274 811 54.0683 811 76.3503V110.412C811 132.694 811 143.835 806.526 152.284C802.916 159.102 797.34 164.678 790.522 168.289C782.073 172.762 770.932 172.762 748.65 172.762H84.3502C62.0683 172.762 50.9274 172.762 42.4782 168.289C35.6598 164.678 30.0838 159.102 26.4736 152.284C22 143.835 22 132.694 22 110.412V76.3503Z" fill="#3054DC" shape-rendering="crispEdges"/>
<path d="M23.2848 32.7898L26.4736 34.4782L23.2848 32.7898C20.726 37.6226 19.5425 43.0657 18.9637 49.9235C18.3917 56.7019 18.3918 65.1829 18.3918 76.1789V76.3503V110.412V110.583C18.3918 121.579 18.3917 130.06 18.9637 136.839C19.5425 143.696 20.726 149.14 23.2848 153.972C27.2334 161.43 33.3322 167.529 40.7898 171.477C45.6226 174.036 51.0657 175.22 57.9235 175.798C64.702 176.37 73.183 176.37 84.1791 176.37H84.3502H748.65H748.821C759.817 176.37 768.298 176.37 775.076 175.798C781.934 175.22 787.377 174.036 792.21 171.477C799.668 167.529 805.767 161.43 809.715 153.972C812.274 149.14 813.458 143.696 814.036 136.839C814.608 130.06 814.608 121.579 814.608 110.583V110.412V76.3503V76.1791C814.608 65.183 814.608 56.702 814.036 49.9235C813.458 43.0657 812.274 37.6226 809.715 32.7898C805.767 25.3322 799.668 19.2334 792.21 15.2848C787.377 12.726 781.934 11.5425 775.076 10.9637C768.298 10.3917 759.817 10.3918 748.821 10.3918H748.65H84.3503H84.1789C73.1828 10.3918 64.7019 10.3917 57.9235 10.9637C51.0657 11.5425 45.6226 12.726 40.7898 15.2848L42.4782 18.4736L40.7898 15.2848C33.3322 19.2334 27.2334 25.3322 23.2848 32.7898Z" stroke="#4B71A5" stroke-opacity="0.2" stroke-width="7.21646" shape-rendering="crispEdges"/>
</g>
<path d="M252.277 104.346V99.83H276.005V104.346H266.813V129.571H261.469V104.346H252.277ZM285.604 116.501V129.571H280.347V99.83H285.488V111.055H285.75C286.272 109.797 287.081 108.804 288.175 108.078C289.278 107.343 290.682 106.975 292.386 106.975C293.935 106.975 295.286 107.299 296.438 107.948C297.59 108.596 298.48 109.545 299.11 110.794C299.749 112.043 300.068 113.568 300.068 115.368V129.571H294.811V116.181C294.811 114.681 294.424 113.514 293.649 112.682C292.885 111.839 291.81 111.418 290.426 111.418C289.496 111.418 288.664 111.622 287.928 112.028C287.202 112.425 286.631 113.001 286.214 113.756C285.808 114.511 285.604 115.426 285.604 116.501ZM315.301 130.006C313.065 130.006 311.134 129.542 309.507 128.612C307.89 127.673 306.646 126.347 305.775 124.633C304.904 122.91 304.468 120.882 304.468 118.549C304.468 116.254 304.904 114.24 305.775 112.507C306.656 110.765 307.886 109.41 309.464 108.441C311.042 107.464 312.896 106.975 315.025 106.975C316.4 106.975 317.697 107.197 318.917 107.643C320.147 108.078 321.231 108.756 322.17 109.676C323.119 110.595 323.864 111.767 324.407 113.19C324.949 114.603 325.22 116.288 325.22 118.244V119.855H306.937V116.312H320.181C320.171 115.305 319.953 114.41 319.527 113.626C319.101 112.832 318.506 112.207 317.741 111.752C316.986 111.297 316.105 111.07 315.098 111.07C314.023 111.07 313.08 111.331 312.266 111.854C311.453 112.367 310.819 113.045 310.364 113.887C309.919 114.72 309.691 115.635 309.681 116.632V119.725C309.681 121.022 309.919 122.135 310.393 123.065C310.867 123.985 311.531 124.691 312.382 125.185C313.234 125.669 314.232 125.911 315.374 125.911C316.139 125.911 316.831 125.805 317.451 125.592C318.07 125.369 318.607 125.045 319.062 124.619C319.518 124.193 319.861 123.665 320.094 123.036L325.002 123.588C324.692 124.885 324.102 126.018 323.23 126.986C322.369 127.944 321.265 128.69 319.919 129.222C318.574 129.745 317.034 130.006 315.301 130.006ZM365.499 109.865H360.068C359.913 108.974 359.628 108.185 359.212 107.497C358.795 106.8 358.277 106.21 357.658 105.726C357.038 105.242 356.331 104.879 355.538 104.637C354.753 104.385 353.906 104.259 352.996 104.259C351.379 104.259 349.947 104.666 348.698 105.479C347.449 106.282 346.471 107.464 345.764 109.022C345.058 110.571 344.704 112.464 344.704 114.7C344.704 116.975 345.058 118.892 345.764 120.451C346.481 122 347.459 123.171 348.698 123.965C349.947 124.749 351.375 125.141 352.982 125.141C353.872 125.141 354.705 125.025 355.479 124.793C356.264 124.551 356.966 124.198 357.585 123.733C358.214 123.268 358.742 122.697 359.168 122.019C359.604 121.342 359.904 120.567 360.068 119.696L365.499 119.725C365.296 121.138 364.856 122.465 364.178 123.704C363.51 124.943 362.634 126.037 361.55 126.986C360.465 127.925 359.197 128.661 357.745 129.193C356.293 129.716 354.681 129.977 352.909 129.977C350.295 129.977 347.962 129.372 345.91 128.162C343.857 126.952 342.24 125.204 341.059 122.92C339.878 120.635 339.288 117.895 339.288 114.7C339.288 111.496 339.883 108.756 341.074 106.481C342.265 104.196 343.886 102.449 345.939 101.239C347.991 100.028 350.315 99.4234 352.909 99.4234C354.565 99.4234 356.104 99.6557 357.527 100.12C358.95 100.585 360.218 101.268 361.332 102.168C362.445 103.059 363.36 104.153 364.076 105.45C364.802 106.737 365.277 108.209 365.499 109.865ZM379.93 130.006C377.752 130.006 375.864 129.527 374.267 128.569C372.67 127.61 371.43 126.269 370.549 124.546C369.678 122.823 369.242 120.809 369.242 118.505C369.242 116.201 369.678 114.182 370.549 112.449C371.43 110.716 372.67 109.371 374.267 108.412C375.864 107.454 377.752 106.975 379.93 106.975C382.109 106.975 383.997 107.454 385.594 108.412C387.191 109.371 388.426 110.716 389.297 112.449C390.178 114.182 390.619 116.201 390.619 118.505C390.619 120.809 390.178 122.823 389.297 124.546C388.426 126.269 387.191 127.61 385.594 128.569C383.997 129.527 382.109 130.006 379.93 130.006ZM379.96 125.795C381.141 125.795 382.128 125.471 382.922 124.822C383.716 124.164 384.306 123.283 384.694 122.179C385.091 121.075 385.289 119.846 385.289 118.49C385.289 117.125 385.091 115.891 384.694 114.787C384.306 113.674 383.716 112.788 382.922 112.13C382.128 111.472 381.141 111.142 379.96 111.142C378.749 111.142 377.743 111.472 376.939 112.13C376.145 112.788 375.55 113.674 375.153 114.787C374.766 115.891 374.572 117.125 374.572 118.49C374.572 119.846 374.766 121.075 375.153 122.179C375.55 123.283 376.145 124.164 376.939 124.822C377.743 125.471 378.749 125.795 379.96 125.795ZM400.337 116.501V129.571H395.08V107.265H400.105V111.055H400.366C400.879 109.806 401.697 108.814 402.82 108.078C403.953 107.343 405.352 106.975 407.017 106.975C408.557 106.975 409.897 107.304 411.04 107.962C412.192 108.62 413.082 109.574 413.712 110.823C414.351 112.072 414.665 113.587 414.656 115.368V129.571H409.399V116.181C409.399 114.691 409.012 113.524 408.237 112.682C407.472 111.839 406.412 111.418 405.057 111.418C404.137 111.418 403.319 111.622 402.603 112.028C401.896 112.425 401.339 113.001 400.933 113.756C400.536 114.511 400.337 115.426 400.337 116.501ZM437.629 113.161L432.837 113.684C432.701 113.2 432.464 112.745 432.125 112.319C431.796 111.893 431.351 111.549 430.789 111.288C430.228 111.026 429.54 110.896 428.727 110.896C427.633 110.896 426.714 111.133 425.968 111.607C425.232 112.082 424.869 112.696 424.879 113.451C424.869 114.1 425.106 114.628 425.591 115.034C426.084 115.441 426.898 115.775 428.03 116.036L431.835 116.849C433.945 117.305 435.514 118.026 436.54 119.013C437.576 120.001 438.099 121.293 438.108 122.891C438.099 124.294 437.687 125.534 436.874 126.608C436.07 127.673 434.952 128.506 433.519 129.106C432.087 129.706 430.441 130.006 428.582 130.006C425.852 130.006 423.654 129.435 421.989 128.293C420.324 127.141 419.332 125.538 419.012 123.486L424.138 122.992C424.371 123.999 424.864 124.759 425.62 125.272C426.375 125.785 427.357 126.042 428.568 126.042C429.816 126.042 430.818 125.785 431.574 125.272C432.338 124.759 432.721 124.125 432.721 123.37C432.721 122.731 432.474 122.203 431.98 121.787C431.496 121.371 430.741 121.051 429.715 120.828L425.91 120.03C423.77 119.584 422.188 118.834 421.161 117.779C420.135 116.714 419.627 115.368 419.637 113.742C419.627 112.367 420 111.176 420.755 110.169C421.52 109.153 422.58 108.369 423.935 107.817C425.3 107.255 426.873 106.975 428.655 106.975C431.269 106.975 433.326 107.531 434.826 108.645C436.337 109.758 437.271 111.263 437.629 113.161ZM453.581 107.265V111.331H440.759V107.265H453.581ZM443.924 101.921H449.181V122.862C449.181 123.568 449.288 124.11 449.501 124.488C449.723 124.856 450.014 125.108 450.372 125.243C450.73 125.379 451.127 125.446 451.563 125.446C451.892 125.446 452.192 125.422 452.463 125.374C452.744 125.325 452.957 125.282 453.102 125.243L453.988 129.353C453.707 129.45 453.305 129.556 452.783 129.672C452.269 129.788 451.64 129.856 450.895 129.876C449.578 129.914 448.392 129.716 447.337 129.28C446.282 128.835 445.444 128.147 444.825 127.218C444.215 126.289 443.915 125.127 443.924 123.733V101.921ZM457.978 129.571V107.265H463.235V129.571H457.978ZM460.621 104.099C459.788 104.099 459.072 103.823 458.471 103.272C457.871 102.71 457.571 102.037 457.571 101.253C457.571 100.459 457.871 99.7864 458.471 99.2346C459.072 98.6731 459.788 98.3923 460.621 98.3923C461.463 98.3923 462.179 98.6731 462.77 99.2346C463.37 99.7864 463.67 100.459 463.67 101.253C463.67 102.037 463.37 102.71 462.77 103.272C462.179 103.823 461.463 104.099 460.621 104.099ZM479.778 107.265V111.331H466.956V107.265H479.778ZM470.122 101.921H475.378V122.862C475.378 123.568 475.485 124.11 475.698 124.488C475.921 124.856 476.211 125.108 476.569 125.243C476.927 125.379 477.324 125.446 477.76 125.446C478.089 125.446 478.389 125.422 478.66 125.374C478.941 125.325 479.154 125.282 479.299 125.243L480.185 129.353C479.904 129.45 479.503 129.556 478.98 129.672C478.467 129.788 477.837 129.856 477.092 129.876C475.775 129.914 474.589 129.716 473.534 129.28C472.479 128.835 471.641 128.147 471.022 127.218C470.412 126.289 470.112 125.127 470.122 123.733V101.921ZM498.392 120.189V107.265H503.649V129.571H498.552V125.606H498.319C497.816 126.855 496.988 127.876 495.836 128.67C494.694 129.464 493.285 129.861 491.61 129.861C490.148 129.861 488.856 129.537 487.733 128.888C486.619 128.23 485.748 127.276 485.119 126.027C484.49 124.769 484.175 123.249 484.175 121.467V107.265H489.432V120.654C489.432 122.068 489.819 123.191 490.594 124.023C491.368 124.856 492.385 125.272 493.643 125.272C494.418 125.272 495.168 125.083 495.894 124.706C496.62 124.328 497.216 123.767 497.68 123.021C498.155 122.266 498.392 121.322 498.392 120.189ZM520.193 107.265V111.331H507.37V107.265H520.193ZM510.536 101.921H515.792V122.862C515.792 123.568 515.899 124.11 516.112 124.488C516.335 124.856 516.625 125.108 516.983 125.243C517.341 125.379 517.738 125.446 518.174 125.446C518.503 125.446 518.803 125.422 519.074 125.374C519.355 125.325 519.568 125.282 519.713 125.243L520.599 129.353C520.318 129.45 519.917 129.556 519.394 129.672C518.881 129.788 518.252 129.856 517.506 129.876C516.189 129.914 515.003 129.716 513.948 129.28C512.893 128.835 512.056 128.147 511.436 127.218C510.826 126.289 510.526 125.127 510.536 123.733V101.921ZM524.589 129.571V107.265H529.846V129.571H524.589ZM527.232 104.099C526.399 104.099 525.683 103.823 525.083 103.272C524.483 102.71 524.182 102.037 524.182 101.253C524.182 100.459 524.483 99.7864 525.083 99.2346C525.683 98.6731 526.399 98.3923 527.232 98.3923C528.074 98.3923 528.791 98.6731 529.381 99.2346C529.981 99.7864 530.282 100.459 530.282 101.253C530.282 102.037 529.981 102.71 529.381 103.272C528.791 103.823 528.074 104.099 527.232 104.099ZM544.981 130.006C542.803 130.006 540.915 129.527 539.318 128.569C537.72 127.61 536.481 126.269 535.6 124.546C534.729 122.823 534.293 120.809 534.293 118.505C534.293 116.201 534.729 114.182 535.6 112.449C536.481 110.716 537.72 109.371 539.318 108.412C540.915 107.454 542.803 106.975 544.981 106.975C547.16 106.975 549.047 107.454 550.645 108.412C552.242 109.371 553.477 110.716 554.348 112.449C555.229 114.182 555.669 116.201 555.669 118.505C555.669 120.809 555.229 122.823 554.348 124.546C553.477 126.269 552.242 127.61 550.645 128.569C549.047 129.527 547.16 130.006 544.981 130.006ZM545.01 125.795C546.191 125.795 547.179 125.471 547.973 124.822C548.767 124.164 549.357 123.283 549.744 122.179C550.141 121.075 550.34 119.846 550.34 118.49C550.34 117.125 550.141 115.891 549.744 114.787C549.357 113.674 548.767 112.788 547.973 112.13C547.179 111.472 546.191 111.142 545.01 111.142C543.8 111.142 542.793 111.472 541.99 112.13C541.196 112.788 540.601 113.674 540.204 114.787C539.816 115.891 539.623 117.125 539.623 118.49C539.623 119.846 539.816 121.075 540.204 122.179C540.601 123.283 541.196 124.164 541.99 124.822C542.793 125.471 543.8 125.795 545.01 125.795ZM565.388 116.501V129.571H560.131V107.265H565.156V111.055H565.417C565.93 109.806 566.748 108.814 567.871 108.078C569.004 107.343 570.403 106.975 572.068 106.975C573.607 106.975 574.948 107.304 576.091 107.962C577.243 108.62 578.133 109.574 578.763 110.823C579.401 112.072 579.716 113.587 579.706 115.368V129.571H574.45V116.181C574.45 114.691 574.062 113.524 573.288 112.682C572.523 111.839 571.463 111.418 570.108 111.418C569.188 111.418 568.37 111.622 567.653 112.028C566.947 112.425 566.39 113.001 565.983 113.756C565.586 114.511 565.388 115.426 565.388 116.501Z" fill="white"/>
<path d="M339.514 57.8075C339.387 56.6753 338.86 55.7983 337.936 55.1765C337.011 54.5466 335.847 54.2317 334.444 54.2317C333.439 54.2317 332.57 54.3912 331.836 54.7101C331.103 55.021 330.533 55.4515 330.126 56.0017C329.728 56.5438 329.528 57.1617 329.528 57.8553C329.528 58.4373 329.664 58.9396 329.935 59.3622C330.214 59.7847 330.577 60.1395 331.023 60.4265C331.478 60.7056 331.964 60.9408 332.482 61.1321C333 61.3155 333.499 61.467 333.977 61.5866L336.369 62.2084C337.15 62.3998 337.952 62.6589 338.773 62.9858C339.594 63.3127 340.355 63.7432 341.057 64.2774C341.759 64.8115 342.325 65.4733 342.755 66.2626C343.194 67.0519 343.413 67.9966 343.413 69.0969C343.413 70.4841 343.054 71.7159 342.337 72.7922C341.627 73.8686 340.594 74.7176 339.239 75.3395C337.892 75.9614 336.261 76.2723 334.348 76.2723C332.514 76.2723 330.928 75.9813 329.588 75.3993C328.249 74.8173 327.2 73.9921 326.443 72.9238C325.685 71.8475 325.267 70.5718 325.187 69.0969H328.895C328.966 69.9818 329.253 70.7193 329.756 71.3093C330.266 71.8913 330.916 72.3258 331.705 72.6128C332.502 72.8919 333.375 73.0314 334.324 73.0314C335.368 73.0314 336.297 72.868 337.11 72.5411C337.932 72.2062 338.577 71.7438 339.048 71.1538C339.518 70.5559 339.753 69.8583 339.753 69.061C339.753 68.3355 339.546 67.7415 339.131 67.2791C338.725 66.8167 338.171 66.434 337.469 66.131C336.776 65.8281 335.99 65.561 335.113 65.3298L332.219 64.5405C330.258 64.0063 328.703 63.221 327.555 62.1845C326.415 61.1481 325.845 59.7767 325.845 58.0706C325.845 56.6594 326.228 55.4276 326.993 54.3752C327.758 53.3228 328.795 52.5056 330.102 51.9236C331.41 51.3336 332.885 51.0386 334.527 51.0386C336.186 51.0386 337.649 51.3296 338.916 51.9116C340.192 52.4937 341.196 53.2949 341.93 54.3154C342.663 55.328 343.046 56.492 343.078 57.8075H339.514ZM354.909 76.2365C353.131 76.2365 351.6 75.8338 350.317 75.0286C349.041 74.2154 348.06 73.0952 347.375 71.6681C346.689 70.241 346.346 68.6065 346.346 66.7648C346.346 64.8992 346.697 63.2529 347.399 61.8257C348.1 60.3906 349.089 59.2705 350.364 58.4652C351.64 57.66 353.143 57.2574 354.873 57.2574C356.268 57.2574 357.512 57.5165 358.604 58.0347C359.696 58.545 360.577 59.2625 361.247 60.1873C361.925 61.1122 362.327 62.1925 362.455 63.4283H358.975C358.784 62.5672 358.345 61.8257 357.659 61.2039C356.982 60.582 356.073 60.2711 354.933 60.2711C353.936 60.2711 353.063 60.5342 352.314 61.0604C351.572 61.5786 350.994 62.32 350.58 63.2847C350.165 64.2415 349.958 65.3736 349.958 66.6811C349.958 68.0206 350.161 69.1766 350.568 70.1493C350.974 71.1219 351.548 71.8754 352.29 72.4095C353.039 72.9437 353.92 73.2108 354.933 73.2108C355.61 73.2108 356.224 73.0872 356.774 72.8401C357.333 72.5849 357.799 72.2222 358.174 71.7518C358.556 71.2814 358.823 70.7153 358.975 70.0536H362.455C362.327 71.2415 361.941 72.3019 361.295 73.2347C360.649 74.1675 359.784 74.901 358.7 75.4352C357.624 75.9694 356.36 76.2365 354.909 76.2365ZM373.646 76.2365C371.924 76.2365 370.421 75.8418 369.137 75.0525C367.854 74.2632 366.857 73.159 366.148 71.7398C365.438 70.3207 365.083 68.6624 365.083 66.7648C365.083 64.8594 365.438 63.1931 366.148 61.7659C366.857 60.3388 367.854 59.2306 369.137 58.4413C370.421 57.652 371.924 57.2574 373.646 57.2574C375.368 57.2574 376.871 57.652 378.155 58.4413C379.438 59.2306 380.435 60.3388 381.144 61.7659C381.854 63.1931 382.209 64.8594 382.209 66.7648C382.209 68.6624 381.854 70.3207 381.144 71.7398C380.435 73.159 379.438 74.2632 378.155 75.0525C376.871 75.8418 375.368 76.2365 373.646 76.2365ZM373.658 73.2347C374.774 73.2347 375.699 72.9397 376.433 72.3497C377.166 71.7598 377.708 70.9744 378.059 69.9938C378.418 69.0132 378.597 67.9329 378.597 66.7529C378.597 65.5809 378.418 64.5046 378.059 63.5239C377.708 62.5353 377.166 61.742 376.433 61.1441C375.699 60.5461 374.774 60.2471 373.658 60.2471C372.534 60.2471 371.601 60.5461 370.86 61.1441C370.126 61.742 369.58 62.5353 369.221 63.5239C368.87 64.5046 368.695 65.5809 368.695 66.7529C368.695 67.9329 368.87 69.0132 369.221 69.9938C369.58 70.9744 370.126 71.7598 370.86 72.3497C371.601 72.9397 372.534 73.2347 373.658 73.2347ZM385.83 75.8657V57.4965H389.286V60.4146H389.477C389.812 59.4259 390.402 58.6486 391.247 58.0825C392.1 57.5085 393.065 57.2215 394.141 57.2215C394.364 57.2215 394.628 57.2295 394.931 57.2454C395.241 57.2613 395.485 57.2813 395.66 57.3052V60.7255C395.517 60.6856 395.261 60.6418 394.895 60.5939C394.528 60.5381 394.161 60.5102 393.794 60.5102C392.949 60.5102 392.196 60.6896 391.534 61.0484C390.88 61.3992 390.362 61.8895 389.979 62.5194C389.597 63.1412 389.405 63.8508 389.405 64.6481V75.8657H385.83ZM405.643 76.2365C403.833 76.2365 402.275 75.8498 400.967 75.0764C399.668 74.2951 398.663 73.1988 397.953 71.7877C397.252 70.3685 396.901 68.7062 396.901 66.8007C396.901 64.9192 397.252 63.2608 397.953 61.8257C398.663 60.3906 399.652 59.2705 400.919 58.4652C402.195 57.66 403.686 57.2574 405.392 57.2574C406.428 57.2574 407.433 57.4288 408.406 57.7716C409.378 58.1144 410.251 58.6526 411.025 59.3861C411.798 60.1196 412.408 61.0723 412.855 62.2443C413.301 63.4083 413.524 64.8235 413.524 66.4898V67.7575H398.922V65.0786H410.02C410.02 64.1378 409.829 63.3047 409.446 62.5792C409.063 61.8457 408.525 61.2676 407.832 60.8451C407.146 60.4225 406.341 60.2113 405.416 60.2113C404.411 60.2113 403.534 60.4584 402.785 60.9527C402.043 61.4391 401.469 62.0769 401.063 62.8662C400.664 63.6475 400.465 64.4966 400.465 65.4135V67.5063C400.465 68.7341 400.68 69.7785 401.111 70.6396C401.549 71.5007 402.159 72.1584 402.94 72.6128C403.722 73.0593 404.635 73.2826 405.679 73.2826C406.357 73.2826 406.975 73.1869 407.533 72.9955C408.091 72.7962 408.573 72.5012 408.98 72.1106C409.386 71.7199 409.697 71.2376 409.913 70.6635L413.297 71.2734C413.026 72.27 412.54 73.143 411.838 73.8925C411.144 74.6339 410.271 75.212 409.219 75.6265C408.175 76.0332 406.983 76.2365 405.643 76.2365ZM417.408 75.8657V51.3735H420.984V60.4744H421.199C421.407 60.0917 421.706 59.6492 422.096 59.1469C422.487 58.6446 423.029 58.2061 423.723 57.8314C424.416 57.4487 425.333 57.2574 426.473 57.2574C427.956 57.2574 429.28 57.6321 430.444 58.3815C431.608 59.131 432.521 60.2113 433.182 61.6224C433.852 63.0336 434.187 64.7318 434.187 66.717C434.187 68.7022 433.856 70.4044 433.194 71.8235C432.533 73.2347 431.624 74.323 430.468 75.0884C429.312 75.8458 427.992 76.2245 426.509 76.2245C425.393 76.2245 424.48 76.0371 423.77 75.6624C423.069 75.2877 422.519 74.8492 422.12 74.3469C421.722 73.8446 421.415 73.3982 421.199 73.0075H420.9V75.8657H417.408ZM420.912 66.6811C420.912 67.9727 421.1 69.1048 421.474 70.0775C421.849 71.0502 422.391 71.8116 423.101 72.3617C423.81 72.9039 424.679 73.1749 425.708 73.1749C426.776 73.1749 427.669 72.8919 428.387 72.3258C429.104 71.7518 429.646 70.9744 430.013 69.9938C430.388 69.0132 430.575 67.9089 430.575 66.6811C430.575 65.4693 430.392 64.381 430.025 63.4163C429.666 62.4516 429.124 61.6902 428.399 61.1321C427.681 60.574 426.784 60.295 425.708 60.295C424.671 60.295 423.794 60.5621 423.077 61.0962C422.367 61.6304 421.829 62.3759 421.462 63.3326C421.096 64.2893 420.912 65.4055 420.912 66.6811ZM445.569 76.2365C443.847 76.2365 442.344 75.8418 441.061 75.0525C439.777 74.2632 438.78 73.159 438.071 71.7398C437.361 70.3207 437.007 68.6624 437.007 66.7648C437.007 64.8594 437.361 63.1931 438.071 61.7659C438.78 60.3388 439.777 59.2306 441.061 58.4413C442.344 57.652 443.847 57.2574 445.569 57.2574C447.291 57.2574 448.794 57.652 450.078 58.4413C451.361 59.2306 452.358 60.3388 453.068 61.7659C453.777 63.1931 454.132 64.8594 454.132 66.7648C454.132 68.6624 453.777 70.3207 453.068 71.7398C452.358 73.159 451.361 74.2632 450.078 75.0525C448.794 75.8418 447.291 76.2365 445.569 76.2365ZM445.581 73.2347C446.697 73.2347 447.622 72.9397 448.356 72.3497C449.089 71.7598 449.631 70.9744 449.982 69.9938C450.341 69.0132 450.52 67.9329 450.52 66.7529C450.52 65.5809 450.341 64.5046 449.982 63.5239C449.631 62.5353 449.089 61.742 448.356 61.1441C447.622 60.5461 446.697 60.2471 445.581 60.2471C444.457 60.2471 443.524 60.5461 442.783 61.1441C442.049 61.742 441.503 62.5353 441.144 63.5239C440.794 64.5046 440.618 65.5809 440.618 66.7529C440.618 67.9329 440.794 69.0132 441.144 69.9938C441.503 70.9744 442.049 71.7598 442.783 72.3497C443.524 72.9397 444.457 73.2347 445.581 73.2347ZM463.099 76.2723C461.935 76.2723 460.882 76.0571 459.941 75.6265C459.001 75.188 458.255 74.5542 457.705 73.725C457.163 72.8959 456.892 71.8794 456.892 70.6755C456.892 69.639 457.091 68.7859 457.49 68.1162C457.888 67.4465 458.427 66.9163 459.104 66.5257C459.782 66.135 460.539 65.84 461.376 65.6407C462.214 65.4414 463.067 65.2899 463.936 65.1862C465.036 65.0587 465.929 64.955 466.615 64.8753C467.3 64.7876 467.799 64.6481 468.109 64.4567C468.42 64.2654 468.576 63.9545 468.576 63.5239V63.4402C468.576 62.3958 468.281 61.5866 467.691 61.0125C467.109 60.4385 466.24 60.1515 465.084 60.1515C463.88 60.1515 462.931 60.4185 462.238 60.9527C461.552 61.4789 461.077 62.0649 460.814 62.7107L457.454 61.9453C457.853 60.8291 458.435 59.9282 459.2 59.2426C459.973 58.5489 460.862 58.0467 461.867 57.7357C462.871 57.4168 463.928 57.2574 465.036 57.2574C465.769 57.2574 466.547 57.3451 467.368 57.5205C468.197 57.6879 468.97 57.9988 469.688 58.4533C470.414 58.9077 471.008 59.5575 471.47 60.4026C471.932 61.2397 472.164 62.328 472.164 63.6674V75.8657H468.672V73.3543H468.528C468.297 73.8167 467.95 74.2712 467.488 74.7176C467.025 75.1641 466.431 75.5349 465.706 75.8298C464.98 76.1248 464.111 76.2723 463.099 76.2723ZM463.876 73.4021C464.865 73.4021 465.71 73.2068 466.411 72.8162C467.121 72.4255 467.659 71.9152 468.026 71.2854C468.4 70.6476 468.588 69.9659 468.588 69.2404V66.8725C468.46 67 468.213 67.1196 467.846 67.2313C467.488 67.3349 467.077 67.4266 466.615 67.5063C466.152 67.5781 465.702 67.6458 465.263 67.7096C464.825 67.7654 464.458 67.8133 464.163 67.8531C463.469 67.9408 462.835 68.0883 462.261 68.2956C461.695 68.5029 461.241 68.8019 460.898 69.1925C460.563 69.5752 460.396 70.0855 460.396 70.7233C460.396 71.6083 460.723 72.278 461.376 72.7324C462.03 73.1789 462.863 73.4021 463.876 73.4021ZM476.556 75.8657V57.4965H480.012V60.4146H480.203C480.538 59.4259 481.128 58.6486 481.973 58.0825C482.826 57.5085 483.791 57.2215 484.867 57.2215C485.091 57.2215 485.354 57.2295 485.657 57.2454C485.968 57.2613 486.211 57.2813 486.386 57.3052V60.7255C486.243 60.6856 485.988 60.6418 485.621 60.5939C485.254 60.5381 484.887 60.5102 484.521 60.5102C483.675 60.5102 482.922 60.6896 482.26 61.0484C481.607 61.3992 481.088 61.8895 480.706 62.5194C480.323 63.1412 480.132 63.8508 480.132 64.6481V75.8657H476.556ZM495.329 76.2245C493.846 76.2245 492.523 75.8458 491.359 75.0884C490.202 74.323 489.294 73.2347 488.632 71.8235C487.978 70.4044 487.651 68.7022 487.651 66.717C487.651 64.7318 487.982 63.0336 488.644 61.6224C489.313 60.2113 490.23 59.131 491.394 58.3815C492.558 57.6321 493.878 57.2574 495.353 57.2574C496.493 57.2574 497.41 57.4487 498.103 57.8314C498.805 58.2061 499.347 58.6446 499.73 59.1469C500.121 59.6492 500.424 60.0917 500.639 60.4744H500.854V51.3735H504.43V75.8657H500.938V73.0075H500.639C500.424 73.3982 500.113 73.8446 499.706 74.3469C499.307 74.8492 498.757 75.2877 498.056 75.6624C497.354 76.0371 496.445 76.2245 495.329 76.2245ZM496.118 73.1749C497.147 73.1749 498.016 72.9039 498.725 72.3617C499.443 71.8116 499.985 71.0502 500.352 70.0775C500.726 69.1048 500.914 67.9727 500.914 66.6811C500.914 65.4055 500.73 64.2893 500.364 63.3326C499.997 62.3759 499.459 61.6304 498.749 61.0962C498.04 60.5621 497.163 60.295 496.118 60.295C495.042 60.295 494.145 60.574 493.427 61.1321C492.71 61.6902 492.168 62.4516 491.801 63.4163C491.442 64.381 491.263 65.4693 491.263 66.6811C491.263 67.9089 491.446 69.0132 491.813 69.9938C492.18 70.9744 492.722 71.7518 493.439 72.3258C494.165 72.8919 495.058 73.1749 496.118 73.1749Z" fill="white" fill-opacity="0.7"/>
<path d="M77.8371 240.508H83.2666L90.5377 258.255H90.8247L98.0958 240.508H103.525V265H99.2678V248.173H99.0406L92.2718 264.928H89.0906L82.3218 248.137H82.0946V265H77.8371V240.508ZM116.298 265.359C114.456 265.359 112.865 264.976 111.526 264.21C110.194 263.437 109.17 262.345 108.452 260.934C107.735 259.515 107.376 257.844 107.376 255.923C107.376 254.033 107.735 252.375 108.452 250.948C109.178 249.513 110.19 248.397 111.49 247.599C112.79 246.794 114.316 246.391 116.07 246.391C117.203 246.391 118.271 246.575 119.275 246.942C120.288 247.3 121.181 247.858 121.954 248.616C122.736 249.373 123.349 250.338 123.796 251.51C124.242 252.674 124.466 254.061 124.466 255.672V256.999H109.409V254.081H120.316C120.308 253.252 120.128 252.514 119.778 251.869C119.427 251.215 118.937 250.701 118.307 250.326C117.685 249.951 116.959 249.764 116.13 249.764C115.245 249.764 114.468 249.979 113.798 250.41C113.128 250.832 112.606 251.39 112.232 252.084C111.865 252.77 111.677 253.523 111.669 254.344V256.891C111.669 257.96 111.865 258.877 112.255 259.642C112.646 260.399 113.192 260.981 113.894 261.388C114.595 261.787 115.417 261.986 116.357 261.986C116.987 261.986 117.557 261.898 118.068 261.723C118.578 261.54 119.02 261.273 119.395 260.922C119.77 260.571 120.053 260.136 120.244 259.618L124.286 260.073C124.031 261.141 123.545 262.074 122.827 262.871C122.118 263.66 121.209 264.274 120.101 264.713C118.992 265.143 117.725 265.359 116.298 265.359ZM128.128 265V246.631H132.266V249.752H132.481C132.864 248.699 133.498 247.878 134.383 247.288C135.268 246.69 136.324 246.391 137.552 246.391C138.796 246.391 139.844 246.694 140.697 247.3C141.558 247.898 142.164 248.715 142.515 249.752H142.706C143.113 248.731 143.799 247.918 144.763 247.312C145.736 246.698 146.888 246.391 148.219 246.391C149.91 246.391 151.289 246.926 152.357 247.994C153.426 249.062 153.96 250.621 153.96 252.67V265H149.619V253.34C149.619 252.2 149.316 251.366 148.71 250.84C148.104 250.306 147.362 250.039 146.485 250.039C145.441 250.039 144.624 250.366 144.034 251.02C143.452 251.665 143.161 252.506 143.161 253.543V265H138.915V253.16C138.915 252.211 138.628 251.454 138.054 250.888C137.488 250.322 136.747 250.039 135.83 250.039C135.208 250.039 134.642 250.198 134.132 250.517C133.621 250.828 133.215 251.271 132.912 251.845C132.609 252.411 132.457 253.073 132.457 253.83V265H128.128ZM166.364 265.359C164.571 265.359 163.016 264.964 161.7 264.175C160.385 263.385 159.364 262.281 158.639 260.862C157.921 259.443 157.562 257.784 157.562 255.887C157.562 253.989 157.921 252.327 158.639 250.9C159.364 249.473 160.385 248.365 161.7 247.575C163.016 246.786 164.571 246.391 166.364 246.391C168.158 246.391 169.713 246.786 171.028 247.575C172.344 248.365 173.36 249.473 174.078 250.9C174.804 252.327 175.166 253.989 175.166 255.887C175.166 257.784 174.804 259.443 174.078 260.862C173.36 262.281 172.344 263.385 171.028 264.175C169.713 264.964 168.158 265.359 166.364 265.359ZM166.388 261.89C167.361 261.89 168.174 261.623 168.828 261.089C169.482 260.547 169.968 259.821 170.287 258.913C170.614 258.004 170.777 256.991 170.777 255.875C170.777 254.751 170.614 253.734 170.287 252.825C169.968 251.909 169.482 251.179 168.828 250.637C168.174 250.095 167.361 249.824 166.388 249.824C165.392 249.824 164.563 250.095 163.901 250.637C163.247 251.179 162.757 251.909 162.43 252.825C162.111 253.734 161.951 254.751 161.951 255.875C161.951 256.991 162.111 258.004 162.43 258.913C162.757 259.821 163.247 260.547 163.901 261.089C164.563 261.623 165.392 261.89 166.388 261.89ZM178.841 265V246.631H183.038V249.692H183.23C183.565 248.632 184.139 247.815 184.952 247.24C185.773 246.658 186.71 246.367 187.762 246.367C188.001 246.367 188.268 246.379 188.563 246.403C188.866 246.419 189.118 246.447 189.317 246.487V250.469C189.134 250.406 188.843 250.35 188.444 250.302C188.053 250.246 187.675 250.218 187.308 250.218C186.518 250.218 185.809 250.39 185.179 250.733C184.557 251.067 184.067 251.534 183.708 252.132C183.349 252.73 183.17 253.419 183.17 254.201V265H178.841ZM195.443 271.888C194.853 271.888 194.307 271.84 193.805 271.745C193.31 271.657 192.916 271.553 192.621 271.434L193.625 268.061C194.255 268.245 194.817 268.332 195.311 268.324C195.806 268.316 196.24 268.161 196.615 267.858C196.998 267.563 197.321 267.069 197.584 266.375L197.954 265.382L191.293 246.631H195.885L200.119 260.503H200.31L204.556 246.631H209.16L201.805 267.224C201.462 268.197 201.008 269.03 200.442 269.724C199.876 270.425 199.182 270.959 198.361 271.326C197.548 271.701 196.575 271.888 195.443 271.888ZM214.823 265.263C214.097 265.263 213.475 265.008 212.957 264.497C212.439 263.987 212.184 263.365 212.192 262.632C212.184 261.914 212.439 261.3 212.957 260.79C213.475 260.28 214.097 260.025 214.823 260.025C215.524 260.025 216.134 260.28 216.652 260.79C217.179 261.3 217.446 261.914 217.454 262.632C217.446 263.118 217.318 263.561 217.071 263.959C216.832 264.358 216.513 264.677 216.114 264.916C215.724 265.147 215.293 265.263 214.823 265.263ZM214.823 252.156C214.097 252.156 213.475 251.901 212.957 251.39C212.439 250.872 212.184 250.25 212.192 249.525C212.184 248.807 212.439 248.193 212.957 247.683C213.475 247.165 214.097 246.906 214.823 246.906C215.524 246.906 216.134 247.165 216.652 247.683C217.179 248.193 217.446 248.807 217.454 249.525C217.446 250.003 217.318 250.442 217.071 250.84C216.832 251.239 216.513 251.558 216.114 251.797C215.724 252.036 215.293 252.156 214.823 252.156Z" fill="white" fill-opacity="0.7"/>
<path d="M231.126 265L241.542 244.382V244.215H229.452V240.508H246.135V244.299L235.73 265H231.126ZM258.18 265.335C256.586 265.335 255.159 265.036 253.899 264.438C252.639 263.832 251.639 263.003 250.897 261.95C250.164 260.898 249.773 259.694 249.725 258.339H254.031C254.11 259.343 254.545 260.164 255.334 260.802C256.123 261.432 257.072 261.747 258.18 261.747C259.049 261.747 259.823 261.548 260.5 261.149C261.178 260.75 261.712 260.196 262.103 259.487C262.494 258.777 262.685 257.968 262.677 257.059C262.685 256.134 262.49 255.313 262.091 254.595C261.692 253.878 261.146 253.316 260.453 252.909C259.759 252.495 258.962 252.287 258.061 252.287C257.327 252.279 256.606 252.415 255.896 252.694C255.187 252.973 254.625 253.34 254.21 253.794L250.204 253.136L251.483 240.508H265.691V244.215H255.155L254.449 250.709H254.593C255.047 250.174 255.689 249.732 256.518 249.381C257.347 249.022 258.256 248.843 259.245 248.843C260.728 248.843 262.051 249.194 263.215 249.895C264.379 250.589 265.296 251.546 265.966 252.766C266.635 253.985 266.97 255.381 266.97 256.951C266.97 258.57 266.596 260.013 265.846 261.28C265.105 262.54 264.072 263.533 262.749 264.258C261.433 264.976 259.91 265.335 258.18 265.335ZM284.072 260.407V259.116C284.072 258.167 284.271 257.294 284.67 256.497C285.076 255.7 285.666 255.058 286.44 254.571C287.213 254.085 288.15 253.842 289.25 253.842C290.382 253.842 291.331 254.085 292.096 254.571C292.862 255.05 293.44 255.688 293.83 256.485C294.229 257.282 294.428 258.159 294.428 259.116V260.407C294.428 261.356 294.229 262.229 293.83 263.027C293.432 263.824 292.846 264.466 292.072 264.952C291.307 265.438 290.366 265.681 289.25 265.681C288.134 265.681 287.189 265.438 286.416 264.952C285.642 264.466 285.056 263.824 284.658 263.027C284.267 262.229 284.072 261.356 284.072 260.407ZM287.193 259.116V260.407C287.193 261.037 287.345 261.615 287.648 262.142C287.951 262.668 288.485 262.931 289.25 262.931C290.023 262.931 290.554 262.672 290.841 262.153C291.136 261.627 291.283 261.045 291.283 260.407V259.116C291.283 258.478 291.144 257.896 290.865 257.37C290.586 256.836 290.047 256.569 289.25 256.569C288.501 256.569 287.971 256.836 287.66 257.37C287.349 257.896 287.193 258.478 287.193 259.116ZM271.622 246.391V245.1C271.622 244.143 271.826 243.266 272.232 242.469C272.639 241.672 273.229 241.034 274.002 240.555C274.776 240.069 275.712 239.826 276.813 239.826C277.937 239.826 278.882 240.069 279.647 240.555C280.42 241.034 281.002 241.672 281.393 242.469C281.784 243.266 281.979 244.143 281.979 245.1V246.391C281.979 247.348 281.78 248.225 281.381 249.022C280.99 249.812 280.408 250.446 279.635 250.924C278.862 251.402 277.921 251.641 276.813 251.641C275.689 251.641 274.74 251.402 273.966 250.924C273.201 250.446 272.619 249.808 272.22 249.01C271.822 248.213 271.622 247.34 271.622 246.391ZM274.768 245.1V246.391C274.768 247.029 274.915 247.611 275.21 248.137C275.513 248.656 276.047 248.915 276.813 248.915C277.578 248.915 278.104 248.656 278.391 248.137C278.686 247.611 278.834 247.029 278.834 246.391V245.1C278.834 244.462 278.694 243.88 278.415 243.354C278.136 242.82 277.602 242.553 276.813 242.553C276.055 242.553 275.525 242.82 275.222 243.354C274.919 243.888 274.768 244.47 274.768 245.1ZM272.986 265L289.824 240.508H292.814L275.976 265H272.986Z" fill="white"/>
<g filter="url(#filter2_b_114_90)">
<path d="M69.0011 339.247C69.0011 314.005 89.4636 293.543 114.705 293.543H718.483C743.725 293.543 764.187 314.005 764.187 339.247C764.187 364.489 743.725 384.952 718.483 384.952H114.705C89.4637 384.952 69.0011 364.489 69.0011 339.247Z" fill="white" fill-opacity="0.15"/>
</g>
<path d="M78.2976 338.887C78.2976 319.005 94.4153 302.887 114.298 302.887H547.298C567.18 302.887 583.298 319.005 583.298 338.887C583.298 358.77 567.18 374.887 547.298 374.887H114.298C94.4153 374.887 78.2976 358.77 78.2976 338.887Z" fill="url(#paint2_linear_114_90)"/>
<path d="M99.5977 441.213H95.125C94.9974 440.48 94.7622 439.83 94.4194 439.264C94.0766 438.69 93.65 438.204 93.1398 437.805C92.6295 437.406 92.0475 437.107 91.3937 436.908C90.7479 436.701 90.0503 436.597 89.3009 436.597C87.9694 436.597 86.7895 436.932 85.761 437.602C84.7325 438.263 83.9273 439.236 83.3453 440.52C82.7633 441.795 82.4722 443.354 82.4722 445.196C82.4722 447.069 82.7633 448.648 83.3453 449.932C83.9352 451.207 84.7405 452.172 85.761 452.826C86.7895 453.471 87.9655 453.794 89.2889 453.794C90.0224 453.794 90.7081 453.699 91.3459 453.507C91.9917 453.308 92.5697 453.017 93.08 452.634C93.5982 452.252 94.0327 451.781 94.3835 451.223C94.7423 450.665 94.9894 450.027 95.125 449.31L99.5977 449.334C99.4303 450.498 99.0675 451.59 98.5094 452.61C97.9593 453.631 97.2378 454.532 96.3448 455.313C95.4519 456.087 94.4074 456.692 93.2115 457.131C92.0156 457.561 90.6881 457.777 89.2291 457.777C87.0765 457.777 85.1551 457.278 83.4649 456.282C81.7746 455.285 80.4432 453.846 79.4705 451.965C78.4978 450.083 78.0115 447.827 78.0115 445.196C78.0115 442.557 78.5018 440.301 79.4825 438.427C80.4631 436.545 81.7986 435.106 83.4888 434.11C85.179 433.113 87.0924 432.615 89.2291 432.615C90.5925 432.615 91.8601 432.806 93.0321 433.189C94.2041 433.572 95.2486 434.134 96.1654 434.875C97.0823 435.609 97.8357 436.509 98.4257 437.578C99.0236 438.638 99.4143 439.85 99.5977 441.213ZM111.482 457.801C109.688 457.801 108.133 457.406 106.818 456.617C105.502 455.827 104.482 454.723 103.756 453.304C103.039 451.885 102.68 450.227 102.68 448.329C102.68 446.432 103.039 444.769 103.756 443.342C104.482 441.915 105.502 440.807 106.818 440.017C108.133 439.228 109.688 438.834 111.482 438.834C113.276 438.834 114.831 439.228 116.146 440.017C117.462 440.807 118.478 441.915 119.196 443.342C119.921 444.769 120.284 446.432 120.284 448.329C120.284 450.227 119.921 451.885 119.196 453.304C118.478 454.723 117.462 455.827 116.146 456.617C114.831 457.406 113.276 457.801 111.482 457.801ZM111.506 454.333C112.479 454.333 113.292 454.065 113.946 453.531C114.599 452.989 115.086 452.264 115.405 451.355C115.732 450.446 115.895 449.433 115.895 448.317C115.895 447.193 115.732 446.176 115.405 445.268C115.086 444.351 114.599 443.621 113.946 443.079C113.292 442.537 112.479 442.266 111.506 442.266C110.509 442.266 109.68 442.537 109.018 443.079C108.365 443.621 107.874 444.351 107.547 445.268C107.229 446.176 107.069 447.193 107.069 448.317C107.069 449.433 107.229 450.446 107.547 451.355C107.874 452.264 108.365 452.989 109.018 453.531C109.68 454.065 110.509 454.333 111.506 454.333ZM123.958 457.442V439.073H128.156V442.134H128.347C128.682 441.074 129.256 440.257 130.069 439.683C130.891 439.101 131.827 438.81 132.88 438.81C133.119 438.81 133.386 438.822 133.681 438.845C133.984 438.861 134.235 438.889 134.435 438.929V442.912C134.251 442.848 133.96 442.792 133.562 442.744C133.171 442.688 132.792 442.66 132.425 442.66C131.636 442.66 130.927 442.832 130.297 443.175C129.675 443.51 129.184 443.976 128.826 444.574C128.467 445.172 128.288 445.861 128.288 446.643V457.442H123.958ZM137.311 457.442V439.073H141.508V442.134H141.7C142.035 441.074 142.609 440.257 143.422 439.683C144.243 439.101 145.18 438.81 146.232 438.81C146.471 438.81 146.738 438.822 147.033 438.845C147.336 438.861 147.588 438.889 147.787 438.929V442.912C147.604 442.848 147.313 442.792 146.914 442.744C146.523 442.688 146.144 442.66 145.778 442.66C144.988 442.66 144.279 442.832 143.649 443.175C143.027 443.51 142.537 443.976 142.178 444.574C141.819 445.172 141.64 445.861 141.64 446.643V457.442H137.311ZM158.039 457.801C156.197 457.801 154.607 457.418 153.267 456.653C151.936 455.879 150.911 454.787 150.194 453.376C149.476 451.957 149.117 450.286 149.117 448.365C149.117 446.475 149.476 444.817 150.194 443.39C150.919 441.955 151.932 440.839 153.231 440.041C154.531 439.236 156.058 438.834 157.812 438.834C158.944 438.834 160.012 439.017 161.017 439.384C162.029 439.742 162.922 440.301 163.695 441.058C164.477 441.815 165.091 442.78 165.537 443.952C165.984 445.116 166.207 446.503 166.207 448.114V449.441H151.15V446.523H162.057C162.049 445.694 161.87 444.957 161.519 444.311C161.168 443.657 160.678 443.143 160.048 442.768C159.426 442.393 158.701 442.206 157.871 442.206C156.986 442.206 156.209 442.421 155.539 442.852C154.87 443.274 154.347 443.832 153.973 444.526C153.606 445.212 153.419 445.965 153.411 446.786V449.334C153.411 450.402 153.606 451.319 153.997 452.084C154.387 452.842 154.933 453.424 155.635 453.83C156.337 454.229 157.158 454.428 158.099 454.428C158.728 454.428 159.299 454.341 159.809 454.165C160.319 453.982 160.762 453.715 161.136 453.364C161.511 453.013 161.794 452.579 161.985 452.06L166.027 452.515C165.772 453.583 165.286 454.516 164.568 455.313C163.859 456.102 162.95 456.716 161.842 457.155C160.734 457.585 159.466 457.801 158.039 457.801ZM177.882 457.801C176.048 457.801 174.474 457.398 173.158 456.593C171.851 455.788 170.842 454.675 170.132 453.256C169.431 451.829 169.08 450.187 169.08 448.329C169.08 446.463 169.439 444.817 170.156 443.39C170.874 441.955 171.886 440.839 173.194 440.041C174.509 439.236 176.064 438.834 177.858 438.834C179.349 438.834 180.668 439.109 181.817 439.659C182.973 440.201 183.893 440.97 184.579 441.967C185.265 442.955 185.655 444.111 185.751 445.435H181.613C181.446 444.55 181.047 443.813 180.417 443.223C179.795 442.625 178.962 442.326 177.918 442.326C177.033 442.326 176.256 442.565 175.586 443.043C174.916 443.514 174.394 444.191 174.019 445.076C173.652 445.961 173.469 447.022 173.469 448.257C173.469 449.509 173.652 450.585 174.019 451.486C174.386 452.379 174.9 453.069 175.562 453.555C176.232 454.034 177.017 454.273 177.918 454.273C178.556 454.273 179.126 454.153 179.628 453.914C180.138 453.667 180.565 453.312 180.908 452.85C181.25 452.387 181.486 451.825 181.613 451.163H185.751C185.647 452.463 185.265 453.615 184.603 454.62C183.941 455.616 183.04 456.397 181.9 456.964C180.76 457.522 179.421 457.801 177.882 457.801ZM198.479 439.073V442.421H187.919V439.073H198.479ZM190.526 434.672H194.855V451.917C194.855 452.499 194.943 452.945 195.118 453.256C195.301 453.559 195.541 453.766 195.836 453.878C196.131 453.99 196.457 454.046 196.816 454.046C197.087 454.046 197.334 454.026 197.558 453.986C197.789 453.946 197.964 453.91 198.084 453.878L198.813 457.263C198.582 457.342 198.251 457.43 197.821 457.526C197.398 457.621 196.88 457.677 196.266 457.693C195.182 457.725 194.205 457.561 193.336 457.203C192.467 456.836 191.777 456.27 191.267 455.505C190.765 454.739 190.518 453.782 190.526 452.634V434.672ZM204.766 457.705C204.041 457.705 203.419 457.45 202.9 456.94C202.382 456.429 202.127 455.807 202.135 455.074C202.127 454.356 202.382 453.743 202.9 453.232C203.419 452.722 204.041 452.467 204.766 452.467C205.468 452.467 206.078 452.722 206.596 453.232C207.122 453.743 207.389 454.356 207.397 455.074C207.389 455.56 207.261 456.003 207.014 456.401C206.775 456.8 206.456 457.119 206.058 457.358C205.667 457.589 205.236 457.705 204.766 457.705ZM204.766 444.598C204.041 444.598 203.419 444.343 202.9 443.832C202.382 443.314 202.127 442.692 202.135 441.967C202.127 441.249 202.382 440.635 202.9 440.125C203.419 439.607 204.041 439.348 204.766 439.348C205.468 439.348 206.078 439.607 206.596 440.125C207.122 440.635 207.389 441.249 207.397 441.967C207.389 442.445 207.261 442.884 207.014 443.282C206.775 443.681 206.456 444 206.058 444.239C205.667 444.478 205.236 444.598 204.766 444.598Z" fill="white" fill-opacity="0.7"/>
<path d="M221.069 457.442L231.486 436.824V436.657H219.395V432.95H236.078V436.741L225.674 457.442H221.069Z" fill="white"/>
<path d="M249.983 431.802L242.09 461.125H238.299L246.192 431.802H249.983ZM262.66 432.95V457.442H258.223V437.267H258.08L252.351 440.926V436.86L258.438 432.95H262.66ZM277.932 457.908C275.963 457.908 274.272 457.41 272.861 456.413C271.458 455.409 270.378 453.962 269.62 452.072C268.871 450.175 268.496 447.891 268.496 445.22C268.504 442.549 268.883 440.277 269.632 438.403C270.39 436.521 271.47 435.086 272.873 434.098C274.284 433.109 275.971 432.615 277.932 432.615C279.893 432.615 281.579 433.109 282.991 434.098C284.402 435.086 285.482 436.521 286.231 438.403C286.989 440.285 287.368 442.557 287.368 445.22C287.368 447.899 286.989 450.187 286.231 452.084C285.482 453.974 284.402 455.417 282.991 456.413C281.587 457.41 279.901 457.908 277.932 457.908ZM277.932 454.165C279.463 454.165 280.67 453.412 281.555 451.905C282.448 450.39 282.895 448.162 282.895 445.22C282.895 443.274 282.692 441.64 282.285 440.316C281.878 438.993 281.304 437.996 280.563 437.327C279.821 436.649 278.944 436.31 277.932 436.31C276.409 436.31 275.205 437.068 274.32 438.582C273.435 440.089 272.989 442.302 272.981 445.22C272.973 447.173 273.168 448.815 273.567 450.147C273.973 451.478 274.547 452.483 275.289 453.161C276.03 453.83 276.911 454.165 277.932 454.165ZM316.341 440.771C316.142 440.125 315.867 439.547 315.516 439.037C315.173 438.519 314.759 438.076 314.273 437.709C313.794 437.343 313.244 437.068 312.622 436.884C312 436.693 311.323 436.597 310.589 436.597C309.274 436.597 308.102 436.928 307.073 437.59C306.045 438.252 305.235 439.224 304.645 440.508C304.063 441.783 303.772 443.338 303.772 445.172C303.772 447.022 304.063 448.588 304.645 449.872C305.227 451.155 306.037 452.132 307.073 452.802C308.11 453.463 309.313 453.794 310.685 453.794C311.929 453.794 313.005 453.555 313.914 453.077C314.831 452.598 315.536 451.921 316.031 451.044C316.525 450.159 316.772 449.122 316.772 447.934L317.777 448.09H311.127V444.622H321.065V447.564C321.065 449.661 320.619 451.474 319.726 453.005C318.833 454.536 317.605 455.716 316.042 456.545C314.48 457.366 312.686 457.777 310.661 457.777C308.405 457.777 306.423 457.27 304.717 456.258C303.019 455.237 301.692 453.79 300.735 451.917C299.786 450.035 299.312 447.803 299.312 445.22C299.312 443.242 299.591 441.476 300.149 439.922C300.715 438.367 301.504 437.048 302.517 435.963C303.529 434.871 304.717 434.042 306.081 433.476C307.444 432.902 308.927 432.615 310.529 432.615C311.885 432.615 313.148 432.814 314.32 433.213C315.492 433.603 316.533 434.162 317.442 434.887C318.359 435.613 319.112 436.474 319.702 437.47C320.292 438.467 320.679 439.567 320.862 440.771H316.341ZM333.177 457.801C331.383 457.801 329.828 457.406 328.513 456.617C327.197 455.827 326.177 454.723 325.451 453.304C324.734 451.885 324.375 450.227 324.375 448.329C324.375 446.432 324.734 444.769 325.451 443.342C326.177 441.915 327.197 440.807 328.513 440.017C329.828 439.228 331.383 438.834 333.177 438.834C334.971 438.834 336.525 439.228 337.841 440.017C339.156 440.807 340.173 441.915 340.89 443.342C341.616 444.769 341.979 446.432 341.979 448.329C341.979 450.227 341.616 451.885 340.89 453.304C340.173 454.723 339.156 455.827 337.841 456.617C336.525 457.406 334.971 457.801 333.177 457.801ZM333.201 454.333C334.173 454.333 334.987 454.065 335.64 453.531C336.294 452.989 336.781 452.264 337.099 451.355C337.426 450.446 337.59 449.433 337.59 448.317C337.59 447.193 337.426 446.176 337.099 445.268C336.781 444.351 336.294 443.621 335.64 443.079C334.987 442.537 334.173 442.266 333.201 442.266C332.204 442.266 331.375 442.537 330.713 443.079C330.06 443.621 329.569 444.351 329.242 445.268C328.923 446.176 328.764 447.193 328.764 448.317C328.764 449.433 328.923 450.446 329.242 451.355C329.569 452.264 330.06 452.989 330.713 453.531C331.375 454.065 332.204 454.333 333.201 454.333ZM354.826 439.073V442.421H344.266V439.073H354.826ZM346.873 434.672H351.202V451.917C351.202 452.499 351.29 452.945 351.465 453.256C351.649 453.559 351.888 453.766 352.183 453.878C352.478 453.99 352.805 454.046 353.164 454.046C353.435 454.046 353.682 454.026 353.905 453.986C354.136 453.946 354.312 453.91 354.431 453.878L355.161 457.263C354.929 457.342 354.599 457.43 354.168 457.526C353.746 457.621 353.227 457.677 352.613 457.693C351.529 457.725 350.552 457.561 349.683 457.203C348.814 456.836 348.125 456.27 347.615 455.505C347.112 454.739 346.865 453.782 346.873 452.634V434.672ZM366.991 457.442V432.95H376.176C378.057 432.95 379.636 433.277 380.912 433.93C382.195 434.584 383.164 435.501 383.818 436.681C384.479 437.853 384.81 439.22 384.81 440.783C384.81 442.353 384.475 443.717 383.806 444.873C383.144 446.021 382.167 446.91 380.876 447.54C379.584 448.162 377.998 448.473 376.116 448.473H369.574V444.789H375.518C376.618 444.789 377.519 444.638 378.221 444.335C378.922 444.024 379.441 443.573 379.776 442.983C380.118 442.385 380.29 441.652 380.29 440.783C380.29 439.914 380.118 439.172 379.776 438.558C379.433 437.937 378.91 437.466 378.209 437.147C377.507 436.82 376.602 436.657 375.494 436.657H371.428V457.442H366.991ZM379.644 446.344L385.707 457.442H380.756L374.801 446.344H379.644ZM388.703 457.442V439.073H393.032V457.442H388.703ZM390.88 436.466C390.194 436.466 389.604 436.238 389.11 435.784C388.615 435.322 388.368 434.767 388.368 434.122C388.368 433.468 388.615 432.914 389.11 432.459C389.604 431.997 390.194 431.766 390.88 431.766C391.573 431.766 392.163 431.997 392.649 432.459C393.144 432.914 393.391 433.468 393.391 434.122C393.391 434.767 393.144 435.322 392.649 435.784C392.163 436.238 391.573 436.466 390.88 436.466ZM405.473 464.713C403.918 464.713 402.583 464.502 401.466 464.079C400.35 463.665 399.453 463.107 398.776 462.405C398.098 461.703 397.627 460.926 397.364 460.073L401.263 459.128C401.438 459.487 401.694 459.842 402.028 460.192C402.363 460.551 402.814 460.846 403.38 461.077C403.954 461.317 404.675 461.436 405.544 461.436C406.772 461.436 407.789 461.137 408.594 460.539C409.399 459.949 409.802 458.977 409.802 457.621V454.141H409.587C409.363 454.588 409.036 455.046 408.606 455.516C408.183 455.987 407.621 456.382 406.92 456.7C406.226 457.019 405.353 457.179 404.301 457.179C402.889 457.179 401.61 456.848 400.462 456.186C399.322 455.516 398.413 454.52 397.735 453.196C397.065 451.865 396.731 450.199 396.731 448.198C396.731 446.18 397.065 444.478 397.735 443.091C398.413 441.696 399.326 440.639 400.474 439.922C401.622 439.196 402.901 438.834 404.313 438.834C405.389 438.834 406.274 439.017 406.968 439.384C407.669 439.742 408.227 440.177 408.642 440.687C409.056 441.189 409.371 441.664 409.587 442.11H409.826V439.073H414.095V457.741C414.095 459.312 413.72 460.611 412.971 461.64C412.222 462.668 411.197 463.437 409.898 463.948C408.598 464.458 407.123 464.713 405.473 464.713ZM405.509 453.782C406.425 453.782 407.207 453.559 407.853 453.113C408.498 452.666 408.989 452.024 409.323 451.187C409.658 450.35 409.826 449.346 409.826 448.174C409.826 447.018 409.658 446.005 409.323 445.136C408.997 444.267 408.51 443.593 407.864 443.115C407.227 442.629 406.441 442.385 405.509 442.385C404.544 442.385 403.739 442.637 403.093 443.139C402.447 443.641 401.961 444.331 401.634 445.208C401.307 446.077 401.143 447.065 401.143 448.174C401.143 449.298 401.307 450.282 401.634 451.127C401.969 451.965 402.459 452.618 403.105 453.089C403.759 453.551 404.56 453.782 405.509 453.782ZM422.861 446.679V457.442H418.532V432.95H422.765V442.194H422.981C423.411 441.158 424.077 440.34 424.978 439.742C425.887 439.136 427.043 438.834 428.446 438.834C429.722 438.834 430.834 439.101 431.783 439.635C432.731 440.169 433.465 440.95 433.983 441.979C434.509 443.007 434.772 444.263 434.772 445.746V457.442H430.443V446.416C430.443 445.18 430.124 444.219 429.487 443.533C428.857 442.84 427.972 442.493 426.832 442.493C426.066 442.493 425.381 442.66 424.775 442.995C424.177 443.322 423.706 443.797 423.363 444.418C423.029 445.04 422.861 445.794 422.861 446.679ZM448.358 439.073V442.421H437.798V439.073H448.358ZM440.405 434.672H444.734V451.917C444.734 452.499 444.822 452.945 444.997 453.256C445.181 453.559 445.42 453.766 445.715 453.878C446.01 453.99 446.337 454.046 446.696 454.046C446.967 454.046 447.214 454.026 447.437 453.986C447.668 453.946 447.844 453.91 447.963 453.878L448.693 457.263C448.462 457.342 448.131 457.43 447.7 457.526C447.278 457.621 446.759 457.677 446.146 457.693C445.061 457.725 444.085 457.561 443.216 457.203C442.347 456.836 441.657 456.27 441.147 455.505C440.644 454.739 440.397 453.782 440.405 452.634V434.672Z" fill="white" fill-opacity="0.6"/>
<g filter="url(#filter3_b_114_90)">
<path d="M69.0012 531.689C69.0012 506.447 89.4637 485.984 114.705 485.984H718.483C743.725 485.984 764.187 506.447 764.187 531.689C764.187 556.93 743.725 577.393 718.483 577.393H114.705C89.4637 577.393 69.0012 556.93 69.0012 531.689Z" fill="white" fill-opacity="0.15"/>
</g>
<path d="M78.6233 531.689C78.6233 511.762 94.7779 495.607 114.706 495.607H718.483C738.411 495.607 754.565 511.762 754.565 531.689C754.565 551.617 738.411 567.772 718.483 567.772H114.706C94.7779 567.772 78.6233 551.617 78.6233 531.689Z" fill="url(#paint3_linear_114_90)"/>
<path d="M77.8361 647.484V622.991H82.2729V643.764H93.06V647.484H77.8361ZM104.852 647.842C103.01 647.842 101.419 647.46 100.08 646.694C98.7486 645.921 97.7241 644.829 97.0065 643.418C96.289 641.998 95.9302 640.328 95.9302 638.407C95.9302 636.517 96.289 634.859 97.0065 633.432C97.732 631.997 98.7446 630.88 100.044 630.083C101.344 629.278 102.87 628.875 104.624 628.875C105.757 628.875 106.825 629.059 107.83 629.425C108.842 629.784 109.735 630.342 110.508 631.1C111.29 631.857 111.904 632.822 112.35 633.994C112.797 635.158 113.02 636.545 113.02 638.156V639.483H97.9632V636.565H108.87C108.862 635.736 108.683 634.998 108.332 634.353C107.981 633.699 107.491 633.185 106.861 632.81C106.239 632.435 105.513 632.248 104.684 632.248C103.799 632.248 103.022 632.463 102.352 632.894C101.683 633.316 101.16 633.874 100.786 634.568C100.419 635.253 100.231 636.007 100.224 636.828V639.375C100.224 640.444 100.419 641.361 100.81 642.126C101.2 642.883 101.746 643.465 102.448 643.872C103.15 644.271 103.971 644.47 104.911 644.47C105.541 644.47 106.111 644.382 106.622 644.207C107.132 644.023 107.574 643.756 107.949 643.406C108.324 643.055 108.607 642.62 108.798 642.102L112.84 642.556C112.585 643.625 112.099 644.558 111.381 645.355C110.672 646.144 109.763 646.758 108.655 647.197C107.546 647.627 106.279 647.842 104.852 647.842ZM132.564 629.114L126.022 647.484H121.239L114.697 629.114H119.313L123.535 642.76H123.726L127.96 629.114H132.564ZM143.067 647.842C141.225 647.842 139.635 647.46 138.295 646.694C136.964 645.921 135.939 644.829 135.222 643.418C134.504 641.998 134.146 640.328 134.146 638.407C134.146 636.517 134.504 634.859 135.222 633.432C135.947 631.997 136.96 630.88 138.259 630.083C139.559 629.278 141.086 628.875 142.84 628.875C143.972 628.875 145.04 629.059 146.045 629.425C147.057 629.784 147.95 630.342 148.724 631.1C149.505 631.857 150.119 632.822 150.565 633.994C151.012 635.158 151.235 636.545 151.235 638.156V639.483H136.179V636.565H147.085C147.077 635.736 146.898 634.998 146.547 634.353C146.196 633.699 145.706 633.185 145.076 632.81C144.454 632.435 143.729 632.248 142.9 632.248C142.015 632.248 141.237 632.463 140.568 632.894C139.898 633.316 139.376 633.874 139.001 634.568C138.634 635.253 138.447 636.007 138.439 636.828V639.375C138.439 640.444 138.634 641.361 139.025 642.126C139.415 642.883 139.962 643.465 140.663 643.872C141.365 644.271 142.186 644.47 143.127 644.47C143.757 644.47 144.327 644.382 144.837 644.207C145.347 644.023 145.79 643.756 146.164 643.406C146.539 643.055 146.822 642.62 147.013 642.102L151.056 642.556C150.801 643.625 150.314 644.558 149.597 645.355C148.887 646.144 147.978 646.758 146.87 647.197C145.762 647.627 144.494 647.842 143.067 647.842ZM159.227 622.991V647.484H154.898V622.991H159.227ZM166.345 647.747C165.62 647.747 164.998 647.492 164.48 646.981C163.962 646.471 163.706 645.849 163.714 645.116C163.706 644.398 163.962 643.784 164.48 643.274C164.998 642.764 165.62 642.509 166.345 642.509C167.047 642.509 167.657 642.764 168.175 643.274C168.701 643.784 168.968 644.398 168.976 645.116C168.968 645.602 168.841 646.045 168.594 646.443C168.355 646.842 168.036 647.161 167.637 647.4C167.246 647.631 166.816 647.747 166.345 647.747ZM166.345 634.64C165.62 634.64 164.998 634.384 164.48 633.874C163.962 633.356 163.706 632.734 163.714 632.009C163.706 631.291 163.962 630.677 164.48 630.167C164.998 629.649 165.62 629.39 166.345 629.39C167.047 629.39 167.657 629.649 168.175 630.167C168.701 630.677 168.968 631.291 168.976 632.009C168.968 632.487 168.841 632.925 168.594 633.324C168.355 633.723 168.036 634.042 167.637 634.281C167.246 634.52 166.816 634.64 166.345 634.64ZM181.309 642.939V639.411L191.702 622.991H194.644V628.014H192.85L185.854 639.1V639.292H200.36V642.939H181.309ZM192.993 647.484V641.863L193.041 640.284V622.991H197.227V647.484H192.993Z" fill="#FEFEFE" fill-opacity="0.7"/>
<g filter="url(#filter4_b_114_90)">
<path d="M69 721.73C69 696.489 89.4625 676.026 114.704 676.026H718.482C743.723 676.026 764.186 696.489 764.186 721.73C764.186 746.972 743.724 767.435 718.482 767.435H114.704C89.4625 767.435 69 746.972 69 721.73Z" fill="white" fill-opacity="0.15"/>
</g>
<path d="M78.2976 721.887C78.2976 702.005 94.4153 685.887 114.298 685.887H628.298C648.18 685.887 664.298 702.005 664.298 721.887C664.298 741.77 648.18 757.887 628.298 757.887H114.298C94.4153 757.887 78.2976 741.77 78.2976 721.887Z" fill="url(#paint4_linear_114_90)"/>
<circle cx="114.706" cy="721.725" r="40.8074" fill="#1A0F24" stroke="#3B4043" stroke-width="9.79377"/>
<g opacity="0.5">
<circle cx="718.483" cy="721.725" r="40.8074" fill="#1A0F24" stroke="#515151" stroke-width="9.79377"/>
</g>
<path d="M106.696 736.476V732.584L117.021 722.462C118.009 721.465 118.832 720.579 119.49 719.805C120.148 719.03 120.642 718.28 120.971 717.554C121.3 716.828 121.465 716.053 121.465 715.23C121.465 714.291 121.252 713.488 120.826 712.82C120.4 712.142 119.814 711.619 119.069 711.251C118.323 710.883 117.476 710.699 116.527 710.699C115.55 710.699 114.693 710.903 113.957 711.309C113.221 711.706 112.65 712.273 112.243 713.008C111.847 713.744 111.648 714.62 111.648 715.637H106.522C106.522 713.749 106.953 712.108 107.814 710.714C108.676 709.32 109.862 708.24 111.372 707.476C112.892 706.711 114.635 706.328 116.6 706.328C118.594 706.328 120.347 706.701 121.857 707.447C123.367 708.192 124.539 709.213 125.371 710.511C126.213 711.808 126.635 713.289 126.635 714.954C126.635 716.068 126.422 717.162 125.996 718.236C125.57 719.311 124.819 720.502 123.745 721.809C122.68 723.116 121.184 724.698 119.258 726.557L114.131 731.771V731.974H127.085V736.476H106.696Z" fill="url(#paint5_linear_114_90)"/>
<path opacity="0.5" d="M718.741 736.882C716.65 736.882 714.791 736.524 713.165 735.808C711.548 735.091 710.27 734.094 709.331 732.816C708.392 731.538 707.894 730.062 707.835 728.387H713.296C713.344 729.19 713.61 729.892 714.094 730.493C714.578 731.083 715.222 731.543 716.026 731.872C716.829 732.201 717.73 732.366 718.727 732.366C719.792 732.366 720.736 732.182 721.559 731.814C722.381 731.437 723.025 730.914 723.49 730.246C723.955 729.578 724.182 728.808 724.172 727.937C724.182 727.036 723.95 726.243 723.475 725.555C723.001 724.868 722.314 724.331 721.413 723.943C720.523 723.556 719.448 723.362 718.189 723.362H715.561V719.209H718.189C719.225 719.209 720.131 719.03 720.905 718.672C721.689 718.314 722.304 717.81 722.749 717.162C723.195 716.503 723.412 715.743 723.403 714.882C723.412 714.039 723.224 713.309 722.836 712.689C722.459 712.06 721.922 711.571 721.225 711.222C720.537 710.874 719.729 710.699 718.799 710.699C717.889 710.699 717.047 710.864 716.273 711.193C715.498 711.522 714.874 711.992 714.399 712.602C713.925 713.202 713.673 713.918 713.644 714.751H708.46C708.499 713.086 708.978 711.624 709.898 710.365C710.827 709.097 712.066 708.11 713.615 707.403C715.164 706.687 716.902 706.328 718.828 706.328C720.813 706.328 722.536 706.701 723.998 707.447C725.47 708.182 726.607 709.175 727.411 710.424C728.214 711.672 728.616 713.052 728.616 714.562C728.626 716.237 728.132 717.641 727.135 718.774C726.147 719.906 724.85 720.647 723.243 720.995V721.228C725.334 721.518 726.936 722.293 728.05 723.551C729.173 724.8 729.729 726.354 729.72 728.213C729.72 729.878 729.245 731.369 728.297 732.685C727.358 733.992 726.06 735.019 724.405 735.764C722.759 736.509 720.871 736.882 718.741 736.882Z" fill="url(#paint6_linear_114_90)"/>
<path d="M85.4311 811.146V797.287H88.1886V811.146H85.4311ZM79.8855 805.59V802.843H93.7444V805.59H79.8855ZM97.5987 814.672V812.376L104.702 805.016C105.461 804.217 106.086 803.516 106.578 802.915C107.077 802.307 107.45 801.729 107.696 801.182C107.942 800.636 108.065 800.055 108.065 799.44C108.065 798.743 107.901 798.141 107.573 797.636C107.245 797.123 106.797 796.73 106.23 796.457C105.663 796.177 105.024 796.037 104.313 796.037C103.561 796.037 102.905 796.19 102.345 796.498C101.784 796.805 101.354 797.239 101.053 797.8C100.752 798.36 100.602 799.016 100.602 799.768H97.5782C97.5782 798.49 97.872 797.373 98.4597 796.416C99.0474 795.459 99.8538 794.718 100.879 794.192C101.904 793.659 103.069 793.392 104.374 793.392C105.693 793.392 106.855 793.655 107.86 794.181C108.871 794.701 109.66 795.411 110.227 796.313C110.795 797.209 111.078 798.22 111.078 799.348C111.078 800.127 110.931 800.889 110.638 801.634C110.35 802.378 109.848 803.209 109.131 804.124C108.413 805.033 107.415 806.137 106.137 807.435L101.965 811.802V811.956H111.417V814.672H97.5987ZM122.61 815.021C120.991 815.014 119.607 814.587 118.459 813.74C117.311 812.892 116.433 811.659 115.824 810.039C115.216 808.419 114.912 806.468 114.912 804.186C114.912 801.91 115.216 799.966 115.824 798.353C116.439 796.741 117.321 795.51 118.469 794.663C119.624 793.816 121.004 793.392 122.61 793.392C124.216 793.392 125.593 793.819 126.741 794.673C127.889 795.521 128.768 796.751 129.376 798.364C129.991 799.969 130.298 801.91 130.298 804.186C130.298 806.475 129.994 808.43 129.386 810.049C128.778 811.662 127.9 812.896 126.752 813.75C125.603 814.597 124.223 815.021 122.61 815.021ZM122.61 812.284C124.032 812.284 125.142 811.59 125.942 810.203C126.748 808.816 127.151 806.81 127.151 804.186C127.151 802.443 126.967 800.971 126.598 799.768C126.236 798.558 125.713 797.643 125.029 797.021C124.353 796.392 123.547 796.078 122.61 796.078C121.196 796.078 120.085 796.775 119.279 798.169C118.472 799.563 118.066 801.569 118.059 804.186C118.059 805.935 118.24 807.415 118.602 808.624C118.971 809.827 119.494 810.74 120.171 811.361C120.847 811.976 121.66 812.284 122.61 812.284ZM141.243 815.021C139.624 815.014 138.24 814.587 137.092 813.74C135.944 812.892 135.066 811.659 134.457 810.039C133.849 808.419 133.545 806.468 133.545 804.186C133.545 801.91 133.849 799.966 134.457 798.353C135.073 796.741 135.954 795.51 137.102 794.663C138.257 793.816 139.637 793.392 141.243 793.392C142.849 793.392 144.226 793.819 145.374 794.673C146.523 795.521 147.401 796.751 148.009 798.364C148.624 799.969 148.931 801.91 148.931 804.186C148.931 806.475 148.627 808.43 148.019 810.049C147.411 811.662 146.533 812.896 145.385 813.75C144.237 814.597 142.856 815.021 141.243 815.021ZM141.243 812.284C142.665 812.284 143.775 811.59 144.575 810.203C145.381 808.816 145.784 806.81 145.784 804.186C145.784 802.443 145.6 800.971 145.231 799.768C144.869 798.558 144.346 797.643 143.663 797.021C142.986 796.392 142.18 796.078 141.243 796.078C139.829 796.078 138.718 796.775 137.912 798.169C137.106 799.563 136.699 801.569 136.692 804.186C136.692 805.935 136.873 807.415 137.235 808.624C137.604 809.827 138.127 810.74 138.804 811.361C139.48 811.976 140.294 812.284 141.243 812.284ZM160.494 814.672V793.679H167.977C169.61 793.679 170.963 793.976 172.036 794.571C173.109 795.165 173.912 795.979 174.445 797.01C174.978 798.036 175.245 799.19 175.245 800.475C175.245 801.767 174.975 802.929 174.435 803.96C173.902 804.985 173.096 805.799 172.016 806.4C170.943 806.995 169.593 807.292 167.967 807.292H162.821V804.606H167.68C168.712 804.606 169.549 804.429 170.191 804.073C170.834 803.711 171.305 803.219 171.606 802.597C171.907 801.975 172.057 801.268 172.057 800.475C172.057 799.682 171.907 798.979 171.606 798.364C171.305 797.749 170.83 797.267 170.181 796.918C169.539 796.57 168.691 796.395 167.639 796.395H163.662V814.672H160.494ZM185.147 814.99C183.671 814.99 182.383 814.652 181.282 813.975C180.182 813.299 179.328 812.352 178.72 811.136C178.112 809.919 177.808 808.498 177.808 806.872C177.808 805.238 178.112 803.81 178.72 802.587C179.328 801.364 180.182 800.414 181.282 799.737C182.383 799.061 183.671 798.722 185.147 798.722C186.623 798.722 187.911 799.061 189.011 799.737C190.112 800.414 190.966 801.364 191.574 802.587C192.182 803.81 192.486 805.238 192.486 806.872C192.486 808.498 192.182 809.919 191.574 811.136C190.966 812.352 190.112 813.299 189.011 813.975C187.911 814.652 186.623 814.99 185.147 814.99ZM185.157 812.417C186.114 812.417 186.907 812.164 187.535 811.659C188.164 811.153 188.629 810.48 188.929 809.639C189.237 808.799 189.391 807.873 189.391 806.861C189.391 805.857 189.237 804.934 188.929 804.094C188.629 803.246 188.164 802.566 187.535 802.054C186.907 801.541 186.114 801.285 185.157 801.285C184.194 801.285 183.394 801.541 182.759 802.054C182.13 802.566 181.662 803.246 181.354 804.094C181.054 804.934 180.903 805.857 180.903 806.861C180.903 807.873 181.054 808.799 181.354 809.639C181.662 810.48 182.13 811.153 182.759 811.659C183.394 812.164 184.194 812.417 185.157 812.417ZM195.908 814.672V798.927H198.973V814.672H195.908ZM197.455 796.498C196.922 796.498 196.465 796.32 196.082 795.965C195.706 795.603 195.518 795.172 195.518 794.673C195.518 794.168 195.706 793.737 196.082 793.382C196.465 793.02 196.922 792.838 197.455 792.838C197.989 792.838 198.443 793.02 198.819 793.382C199.202 793.737 199.393 794.168 199.393 794.673C199.393 795.172 199.202 795.603 198.819 795.965C198.443 796.32 197.989 796.498 197.455 796.498ZM206.161 805.324V814.672H203.096V798.927H206.038V801.49H206.233C206.595 800.656 207.162 799.987 207.934 799.481C208.713 798.975 209.694 798.722 210.876 798.722C211.949 798.722 212.889 798.948 213.695 799.399C214.501 799.843 215.127 800.506 215.571 801.388C216.015 802.269 216.237 803.359 216.237 804.657V814.672H213.172V805.026C213.172 803.885 212.875 802.993 212.28 802.351C211.686 801.702 210.869 801.377 209.831 801.377C209.12 801.377 208.488 801.531 207.934 801.839C207.388 802.146 206.954 802.597 206.632 803.192C206.318 803.779 206.161 804.49 206.161 805.324ZM227.697 798.927V801.388H219.097V798.927H227.697ZM221.404 795.155H224.469V810.049C224.469 810.644 224.557 811.091 224.735 811.392C224.913 811.686 225.142 811.888 225.422 811.997C225.709 812.099 226.02 812.151 226.355 812.151C226.601 812.151 226.816 812.134 227 812.099C227.185 812.065 227.328 812.038 227.431 812.017L227.985 814.549C227.807 814.618 227.554 814.686 227.226 814.754C226.898 814.83 226.488 814.871 225.996 814.877C225.189 814.891 224.438 814.748 223.741 814.447C223.044 814.146 222.48 813.681 222.049 813.053C221.619 812.424 221.404 811.635 221.404 810.685V795.155ZM242.633 802.771L239.855 803.263C239.739 802.908 239.554 802.57 239.301 802.249C239.055 801.927 238.72 801.664 238.297 801.459C237.873 801.254 237.343 801.152 236.708 801.152C235.84 801.152 235.116 801.347 234.535 801.736C233.954 802.119 233.663 802.614 233.663 803.222C233.663 803.749 233.858 804.172 234.248 804.493C234.637 804.815 235.266 805.078 236.134 805.283L238.635 805.857C240.084 806.192 241.163 806.708 241.874 807.405C242.585 808.102 242.94 809.007 242.94 810.121C242.94 811.064 242.667 811.905 242.12 812.643C241.58 813.374 240.825 813.948 239.855 814.365C238.891 814.782 237.774 814.99 236.503 814.99C234.74 814.99 233.301 814.614 232.187 813.863C231.073 813.104 230.39 812.028 230.137 810.634L233.1 810.183C233.284 810.955 233.663 811.539 234.237 811.935C234.811 812.325 235.56 812.52 236.482 812.52C237.487 812.52 238.29 812.311 238.891 811.894C239.493 811.471 239.793 810.955 239.793 810.347C239.793 809.855 239.609 809.441 239.24 809.106C238.878 808.771 238.321 808.519 237.569 808.348L234.904 807.763C233.434 807.429 232.348 806.896 231.644 806.164C230.947 805.433 230.598 804.507 230.598 803.386C230.598 802.457 230.858 801.644 231.377 800.947C231.897 800.25 232.614 799.706 233.53 799.317C234.446 798.921 235.495 798.722 236.677 798.722C238.379 798.722 239.718 799.091 240.695 799.829C241.673 800.561 242.318 801.541 242.633 802.771ZM261.299 798.927V801.388H252.699V798.927H261.299ZM255.005 795.155H258.07V810.049C258.07 810.644 258.159 811.091 258.337 811.392C258.514 811.686 258.743 811.888 259.023 811.997C259.311 812.099 259.621 812.151 259.956 812.151C260.202 812.151 260.418 812.134 260.602 812.099C260.787 812.065 260.93 812.038 261.033 812.017L261.586 814.549C261.408 814.618 261.156 814.686 260.828 814.754C260.5 814.83 260.09 814.871 259.598 814.877C258.791 814.891 258.039 814.748 257.342 814.447C256.645 814.146 256.082 813.681 255.651 813.053C255.221 812.424 255.005 811.635 255.005 810.685V795.155ZM271.153 814.99C269.677 814.99 268.388 814.652 267.288 813.975C266.188 813.299 265.334 812.352 264.725 811.136C264.117 809.919 263.813 808.498 263.813 806.872C263.813 805.238 264.117 803.81 264.725 802.587C265.334 801.364 266.188 800.414 267.288 799.737C268.388 799.061 269.677 798.722 271.153 798.722C272.629 798.722 273.917 799.061 275.017 799.737C276.117 800.414 276.972 801.364 277.58 802.587C278.188 803.81 278.492 805.238 278.492 806.872C278.492 808.498 278.188 809.919 277.58 811.136C276.972 812.352 276.117 813.299 275.017 813.975C273.917 814.652 272.629 814.99 271.153 814.99ZM271.163 812.417C272.12 812.417 272.912 812.164 273.541 811.659C274.17 811.153 274.634 810.48 274.935 809.639C275.243 808.799 275.396 807.873 275.396 806.861C275.396 805.857 275.243 804.934 274.935 804.094C274.634 803.246 274.17 802.566 273.541 802.054C272.912 801.541 272.12 801.285 271.163 801.285C270.199 801.285 269.4 801.541 268.764 802.054C268.135 802.566 267.667 803.246 267.36 804.094C267.059 804.934 266.909 805.857 266.909 806.861C266.909 807.873 267.059 808.799 267.36 809.639C267.667 810.48 268.135 811.153 268.764 811.659C269.4 812.164 270.199 812.417 271.163 812.417ZM292.617 805.324V814.672H289.553V798.927H292.494V801.49H292.689C293.051 800.656 293.619 799.987 294.391 799.481C295.17 798.975 296.151 798.722 297.333 798.722C298.406 798.722 299.345 798.948 300.152 799.399C300.958 799.843 301.583 800.506 302.028 801.388C302.472 802.269 302.694 803.359 302.694 804.657V814.672H299.629V805.026C299.629 803.885 299.332 802.993 298.737 802.351C298.143 801.702 297.326 801.377 296.287 801.377C295.576 801.377 294.944 801.531 294.391 801.839C293.844 802.146 293.41 802.597 293.089 803.192C292.775 803.779 292.617 804.49 292.617 805.324ZM313.59 814.99C312.039 814.99 310.703 814.659 309.582 813.996C308.468 813.326 307.607 812.386 306.999 811.177C306.398 809.96 306.097 808.536 306.097 806.902C306.097 805.29 306.398 803.868 306.999 802.638C307.607 801.408 308.455 800.448 309.541 799.758C310.635 799.067 311.913 798.722 313.375 798.722C314.263 798.722 315.125 798.869 315.958 799.163C316.792 799.457 317.54 799.918 318.203 800.547C318.866 801.176 319.389 801.992 319.771 802.997C320.154 803.995 320.346 805.208 320.346 806.636V807.722H307.829V805.426H317.342C317.342 804.62 317.178 803.906 316.85 803.284C316.522 802.655 316.061 802.16 315.466 801.798C314.878 801.435 314.188 801.254 313.396 801.254C312.535 801.254 311.783 801.466 311.14 801.89C310.505 802.307 310.013 802.853 309.664 803.53C309.323 804.2 309.152 804.927 309.152 805.713V807.507C309.152 808.56 309.336 809.455 309.705 810.193C310.081 810.931 310.604 811.495 311.274 811.884C311.943 812.267 312.726 812.458 313.621 812.458C314.202 812.458 314.732 812.376 315.21 812.212C315.688 812.041 316.102 811.789 316.45 811.454C316.799 811.119 317.065 810.705 317.25 810.213L320.151 810.736C319.918 811.59 319.502 812.339 318.9 812.981C318.306 813.617 317.557 814.112 316.655 814.467C315.76 814.816 314.738 814.99 313.59 814.99ZM325.799 798.927L329.274 805.057L332.78 798.927H336.132L331.221 806.8L336.173 814.672H332.821L329.274 808.788L325.737 814.672H322.375L327.275 806.8L322.437 798.927H325.799ZM346.628 798.927V801.388H338.028V798.927H346.628ZM340.334 795.155H343.399V810.049C343.399 810.644 343.488 811.091 343.666 811.392C343.843 811.686 344.072 811.888 344.353 811.997C344.64 812.099 344.951 812.151 345.285 812.151C345.531 812.151 345.747 812.134 345.931 812.099C346.116 812.065 346.259 812.038 346.362 812.017L346.915 814.549C346.738 814.618 346.485 814.686 346.157 814.754C345.829 814.83 345.419 814.871 344.927 814.877C344.12 814.891 343.369 814.748 342.671 814.447C341.974 814.146 341.411 813.681 340.98 813.053C340.55 812.424 340.334 811.635 340.334 810.685V795.155ZM360.723 793.679V814.672H357.658V793.679H360.723ZM371.632 814.99C370.081 814.99 368.745 814.659 367.624 813.996C366.51 813.326 365.649 812.386 365.041 811.177C364.44 809.96 364.139 808.536 364.139 806.902C364.139 805.29 364.44 803.868 365.041 802.638C365.649 801.408 366.497 800.448 367.583 799.758C368.677 799.067 369.954 798.722 371.417 798.722C372.305 798.722 373.166 798.869 374 799.163C374.834 799.457 375.582 799.918 376.245 800.547C376.908 801.176 377.431 801.992 377.813 802.997C378.196 803.995 378.387 805.208 378.387 806.636V807.722H365.871V805.426H375.384C375.384 804.62 375.22 803.906 374.892 803.284C374.564 802.655 374.103 802.16 373.508 801.798C372.92 801.435 372.23 801.254 371.437 801.254C370.576 801.254 369.825 801.466 369.182 801.89C368.547 802.307 368.055 802.853 367.706 803.53C367.364 804.2 367.194 804.927 367.194 805.713V807.507C367.194 808.56 367.378 809.455 367.747 810.193C368.123 810.931 368.646 811.495 369.315 811.884C369.985 812.267 370.768 812.458 371.663 812.458C372.244 812.458 372.773 812.376 373.252 812.212C373.73 812.041 374.144 811.789 374.492 811.454C374.841 811.119 375.107 810.705 375.292 810.213L378.193 810.736C377.96 811.59 377.543 812.339 376.942 812.981C376.347 813.617 375.599 814.112 374.697 814.467C373.802 814.816 372.78 814.99 371.632 814.99ZM394.806 798.927L389.097 814.672H385.816L380.097 798.927H383.387L387.375 811.044H387.539L391.516 798.927H394.806ZM403.937 814.99C402.386 814.99 401.05 814.659 399.929 813.996C398.815 813.326 397.954 812.386 397.346 811.177C396.745 809.96 396.444 808.536 396.444 806.902C396.444 805.29 396.745 803.868 397.346 802.638C397.954 801.408 398.801 800.448 399.888 799.758C400.981 799.067 402.259 798.722 403.722 798.722C404.61 798.722 405.471 798.869 406.305 799.163C407.139 799.457 407.887 799.918 408.55 800.547C409.213 801.176 409.736 801.992 410.118 802.997C410.501 803.995 410.692 805.208 410.692 806.636V807.722H398.176V805.426H407.689C407.689 804.62 407.525 803.906 407.197 803.284C406.869 802.655 406.407 802.16 405.813 801.798C405.225 801.435 404.535 801.254 403.742 801.254C402.881 801.254 402.13 801.466 401.487 801.89C400.852 802.307 400.36 802.853 400.011 803.53C399.669 804.2 399.499 804.927 399.499 805.713V807.507C399.499 808.56 399.683 809.455 400.052 810.193C400.428 810.931 400.951 811.495 401.62 811.884C402.29 812.267 403.073 812.458 403.968 812.458C404.549 812.458 405.078 812.376 405.557 812.212C406.035 812.041 406.448 811.789 406.797 811.454C407.146 811.119 407.412 810.705 407.597 810.213L410.497 810.736C410.265 811.59 409.848 812.339 409.247 812.981C408.652 813.617 407.904 814.112 407.002 814.467C406.107 814.816 405.085 814.99 403.937 814.99ZM417.158 793.679V814.672H414.093V793.679H417.158Z" fill="#FEFEFE" fill-opacity="0.3"/>
<g opacity="0.8">
<path d="M346.703 734.407C345.108 734.407 343.681 734.108 342.421 733.51C341.162 732.904 340.161 732.075 339.42 731.023C338.686 729.97 338.295 728.766 338.248 727.411H342.553C342.633 728.416 343.067 729.237 343.856 729.875C344.646 730.504 345.594 730.819 346.703 730.819C347.572 730.819 348.345 730.62 349.023 730.221C349.7 729.823 350.235 729.269 350.625 728.559C351.016 727.85 351.207 727.04 351.199 726.131C351.207 725.207 351.012 724.385 350.613 723.668C350.215 722.95 349.668 722.388 348.975 721.982C348.281 721.567 347.484 721.36 346.583 721.36C345.85 721.352 345.128 721.487 344.418 721.766C343.709 722.045 343.147 722.412 342.732 722.867L338.726 722.209L340.006 709.58H354.213V713.287H343.677L342.971 719.781H343.115C343.569 719.247 344.211 718.804 345.04 718.454C345.869 718.095 346.778 717.916 347.767 717.916C349.25 717.916 350.573 718.266 351.737 718.968C352.901 719.662 353.818 720.618 354.488 721.838C355.158 723.058 355.493 724.453 355.493 726.024C355.493 727.642 355.118 729.085 354.368 730.353C353.627 731.613 352.594 732.605 351.271 733.331C349.955 734.048 348.433 734.407 346.703 734.407ZM368.205 734.407C366.427 734.407 364.849 734.108 363.469 733.51C362.098 732.912 361.022 732.095 360.24 731.059C359.467 730.014 359.084 728.83 359.092 727.507C359.084 726.478 359.307 725.533 359.762 724.672C360.216 723.811 360.83 723.094 361.604 722.52C362.385 721.938 363.254 721.567 364.211 721.408V721.24C362.951 720.961 361.931 720.319 361.149 719.315C360.376 718.302 359.993 717.134 360.001 715.811C359.993 714.551 360.344 713.427 361.054 712.438C361.763 711.45 362.736 710.672 363.972 710.106C365.207 709.532 366.618 709.245 368.205 709.245C369.776 709.245 371.175 709.532 372.403 710.106C373.638 710.672 374.611 711.45 375.321 712.438C376.038 713.427 376.397 714.551 376.397 715.811C376.397 717.134 376.002 718.302 375.213 719.315C374.432 720.319 373.423 720.961 372.187 721.24V721.408C373.144 721.567 374.005 721.938 374.771 722.52C375.544 723.094 376.158 723.811 376.612 724.672C377.075 725.533 377.306 726.478 377.306 727.507C377.306 728.83 376.915 730.014 376.134 731.059C375.353 732.095 374.276 732.912 372.905 733.51C371.542 734.108 369.975 734.407 368.205 734.407ZM368.205 730.987C369.122 730.987 369.919 730.831 370.597 730.52C371.275 730.202 371.801 729.755 372.175 729.181C372.55 728.607 372.742 727.945 372.75 727.196C372.742 726.414 372.538 725.725 372.14 725.127C371.749 724.521 371.211 724.047 370.525 723.704C369.847 723.361 369.074 723.189 368.205 723.189C367.328 723.189 366.547 723.361 365.861 723.704C365.175 724.047 364.633 724.521 364.235 725.127C363.844 725.725 363.653 726.414 363.661 727.196C363.653 727.945 363.836 728.607 364.211 729.181C364.585 729.747 365.112 730.19 365.789 730.508C366.475 730.827 367.28 730.987 368.205 730.987ZM368.205 719.829C368.955 719.829 369.616 719.677 370.19 719.375C370.772 719.072 371.231 718.649 371.566 718.107C371.9 717.565 372.072 716.939 372.08 716.229C372.072 715.528 371.904 714.914 371.578 714.388C371.251 713.853 370.796 713.443 370.214 713.156C369.632 712.861 368.962 712.713 368.205 712.713C367.432 712.713 366.75 712.861 366.16 713.156C365.578 713.443 365.124 713.853 364.797 714.388C364.478 714.914 364.322 715.528 364.33 716.229C364.322 716.939 364.482 717.565 364.809 718.107C365.144 718.641 365.602 719.064 366.184 719.375C366.774 719.677 367.448 719.829 368.205 719.829ZM390.291 734.539C388.321 734.539 386.631 734.04 385.22 733.044C383.817 732.039 382.736 730.592 381.979 728.703C381.23 726.805 380.855 724.521 380.855 721.85C380.863 719.179 381.241 716.907 381.991 715.033C382.748 713.152 383.829 711.717 385.232 710.728C386.643 709.739 388.329 709.245 390.291 709.245C392.252 709.245 393.938 709.739 395.349 710.728C396.76 711.717 397.841 713.152 398.59 715.033C399.348 716.915 399.726 719.187 399.726 721.85C399.726 724.529 399.348 726.817 398.59 728.715C397.841 730.604 396.76 732.047 395.349 733.044C393.946 734.04 392.26 734.539 390.291 734.539ZM390.291 730.795C391.821 730.795 393.029 730.042 393.914 728.535C394.807 727.02 395.254 724.792 395.254 721.85C395.254 719.905 395.05 718.27 394.644 716.947C394.237 715.623 393.663 714.627 392.922 713.957C392.18 713.279 391.303 712.941 390.291 712.941C388.768 712.941 387.564 713.698 386.679 715.213C385.794 716.72 385.347 718.932 385.339 721.85C385.331 723.803 385.527 725.446 385.925 726.777C386.332 728.109 386.906 729.113 387.648 729.791C388.389 730.461 389.27 730.795 390.291 730.795ZM412.753 734.539C410.783 734.539 409.093 734.04 407.682 733.044C406.279 732.039 405.199 730.592 404.441 728.703C403.692 726.805 403.317 724.521 403.317 721.85C403.325 719.179 403.704 716.907 404.453 715.033C405.211 713.152 406.291 711.717 407.694 710.728C409.105 709.739 410.791 709.245 412.753 709.245C414.714 709.245 416.4 709.739 417.811 710.728C419.223 711.717 420.303 713.152 421.052 715.033C421.81 716.915 422.188 719.187 422.188 721.85C422.188 724.529 421.81 726.817 421.052 728.715C420.303 730.604 419.223 732.047 417.811 733.044C416.408 734.04 414.722 734.539 412.753 734.539ZM412.753 730.795C414.283 730.795 415.491 730.042 416.376 728.535C417.269 727.02 417.716 724.792 417.716 721.85C417.716 719.905 417.512 718.27 417.106 716.947C416.699 715.623 416.125 714.627 415.384 713.957C414.642 713.279 413.765 712.941 412.753 712.941C411.23 712.941 410.026 713.698 409.141 715.213C408.256 716.72 407.81 718.932 407.802 721.85C407.794 723.803 407.989 725.446 408.388 726.777C408.794 728.109 409.368 729.113 410.11 729.791C410.851 730.461 411.732 730.795 412.753 730.795Z" fill="#685613"/>
<path d="M436.208 708.432L428.315 737.756H424.523L432.416 708.432H436.208ZM447.892 734.407C446.72 734.399 445.575 734.196 444.459 733.797C443.343 733.391 442.339 732.733 441.446 731.824C440.553 730.907 439.843 729.691 439.317 728.176C438.791 726.654 438.532 724.768 438.54 722.52C438.54 720.423 438.763 718.553 439.209 716.911C439.656 715.269 440.298 713.881 441.135 712.749C441.972 711.609 442.98 710.74 444.16 710.142C445.348 709.544 446.676 709.245 448.143 709.245C449.681 709.245 451.045 709.548 452.233 710.154C453.429 710.76 454.393 711.589 455.127 712.642C455.86 713.686 456.315 714.866 456.49 716.181H452.125C451.902 715.241 451.443 714.491 450.75 713.933C450.064 713.367 449.195 713.084 448.143 713.084C446.445 713.084 445.137 713.822 444.22 715.296C443.311 716.771 442.853 718.797 442.845 721.372H443.012C443.403 720.67 443.909 720.068 444.531 719.566C445.153 719.064 445.855 718.677 446.636 718.406C447.425 718.127 448.258 717.987 449.135 717.987C450.57 717.987 451.858 718.33 452.998 719.016C454.146 719.701 455.055 720.646 455.725 721.85C456.394 723.046 456.725 724.417 456.717 725.964C456.725 727.574 456.359 729.022 455.617 730.305C454.876 731.581 453.843 732.585 452.52 733.319C451.196 734.052 449.654 734.415 447.892 734.407ZM447.868 730.819C448.737 730.819 449.514 730.608 450.2 730.186C450.885 729.763 451.427 729.193 451.826 728.475C452.225 727.758 452.42 726.953 452.412 726.06C452.42 725.183 452.229 724.389 451.838 723.68C451.455 722.97 450.925 722.408 450.248 721.994C449.57 721.579 448.796 721.372 447.927 721.372C447.282 721.372 446.68 721.495 446.122 721.742C445.564 721.99 445.077 722.332 444.663 722.771C444.248 723.201 443.921 723.704 443.682 724.278C443.451 724.844 443.331 725.45 443.323 726.096C443.331 726.949 443.53 727.734 443.921 728.451C444.312 729.169 444.85 729.743 445.536 730.174C446.221 730.604 446.999 730.819 447.868 730.819ZM469.813 734.539C467.843 734.539 466.153 734.04 464.742 733.044C463.339 732.039 462.258 730.592 461.501 728.703C460.752 726.805 460.377 724.521 460.377 721.85C460.385 719.179 460.764 716.907 461.513 715.033C462.27 713.152 463.351 711.717 464.754 710.728C466.165 709.739 467.851 709.245 469.813 709.245C471.774 709.245 473.46 709.739 474.871 710.728C476.282 711.717 477.363 713.152 478.112 715.033C478.87 716.915 479.248 719.187 479.248 721.85C479.248 724.529 478.87 726.817 478.112 728.715C477.363 730.604 476.282 732.047 474.871 733.044C473.468 734.04 471.782 734.539 469.813 734.539ZM469.813 730.795C471.343 730.795 472.551 730.042 473.436 728.535C474.329 727.02 474.776 724.792 474.776 721.85C474.776 719.905 474.572 718.27 474.166 716.947C473.759 715.623 473.185 714.627 472.444 713.957C471.702 713.279 470.825 712.941 469.813 712.941C468.29 712.941 467.086 713.698 466.201 715.213C465.316 716.72 464.869 718.932 464.862 721.85C464.854 723.803 465.049 725.446 465.448 726.777C465.854 728.109 466.428 729.113 467.17 729.791C467.911 730.461 468.792 730.795 469.813 730.795ZM492.275 734.539C490.306 734.539 488.615 734.04 487.204 733.044C485.801 732.039 484.721 730.592 483.963 728.703C483.214 726.805 482.839 724.521 482.839 721.85C482.847 719.179 483.226 716.907 483.975 715.033C484.733 713.152 485.813 711.717 487.216 710.728C488.627 709.739 490.313 709.245 492.275 709.245C494.236 709.245 495.922 709.739 497.333 710.728C498.745 711.717 499.825 713.152 500.574 715.033C501.332 716.915 501.711 719.187 501.711 721.85C501.711 724.529 501.332 726.817 500.574 728.715C499.825 730.604 498.745 732.047 497.333 733.044C495.93 734.04 494.244 734.539 492.275 734.539ZM492.275 730.795C493.806 730.795 495.013 730.042 495.898 728.535C496.791 727.02 497.238 724.792 497.238 721.85C497.238 719.905 497.035 718.27 496.628 716.947C496.221 715.623 495.647 714.627 494.906 713.957C494.164 713.279 493.287 712.941 492.275 712.941C490.752 712.941 489.548 713.698 488.663 715.213C487.778 716.72 487.332 718.932 487.324 721.85C487.316 723.803 487.511 725.446 487.91 726.777C488.316 728.109 488.89 729.113 489.632 729.791C490.373 730.461 491.254 730.795 492.275 730.795ZM514.737 734.539C512.768 734.539 511.077 734.04 509.666 733.044C508.263 732.039 507.183 730.592 506.425 728.703C505.676 726.805 505.301 724.521 505.301 721.85C505.309 719.179 505.688 716.907 506.437 715.033C507.195 713.152 508.275 711.717 509.678 710.728C511.089 709.739 512.776 709.245 514.737 709.245C516.698 709.245 518.384 709.739 519.796 710.728C521.207 711.717 522.287 713.152 523.037 715.033C523.794 716.915 524.173 719.187 524.173 721.85C524.173 724.529 523.794 726.817 523.037 728.715C522.287 730.604 521.207 732.047 519.796 733.044C518.392 734.04 516.706 734.539 514.737 734.539ZM514.737 730.795C516.268 730.795 517.476 730.042 518.361 728.535C519.254 727.02 519.7 724.792 519.7 721.85C519.7 719.905 519.497 718.27 519.09 716.947C518.683 715.623 518.109 714.627 517.368 713.957C516.626 713.279 515.749 712.941 514.737 712.941C513.214 712.941 512.01 713.698 511.125 715.213C510.24 716.72 509.794 718.932 509.786 721.85C509.778 723.803 509.973 725.446 510.372 726.777C510.778 728.109 511.353 729.113 512.094 729.791C512.835 730.461 513.716 730.795 514.737 730.795Z" fill="#8D751C" fill-opacity="0.5"/>
</g>
</g>
<defs>
<filter id="filter0_bdd_114_90" x="-193.133" y="-110.133" width="1219.27" height="1200.86" filterUnits="userSpaceOnUse" color-interpolation-filters="sRGB">
<feFlood flood-opacity="0" result="BackgroundImageFix"/>
<feGaussianBlur in="BackgroundImageFix" stdDeviation="70.9619"/>
<feComposite in2="SourceAlpha" operator="in" result="effect1_backgroundBlur_114_90"/>
<feColorMatrix in="SourceAlpha" type="matrix" values="0 0 0 0 0 0 0 0 0 0 0 0 0 0 0 0 0 0 127 0" result="hardAlpha"/>
<feOffset dx="3" dy="17"/>
<feGaussianBlur stdDeviation="46.6479"/>
<feComposite in2="hardAlpha" operator="out"/>
<feColorMatrix type="matrix" values="0 0 0 0 0 0 0 0 0 0 0 0 0 0 0 0 0 0 0.25 0"/>
<feBlend mode="normal" in2="effect1_backgroundBlur_114_90" result="effect2_dropShadow_114_90"/>
<feColorMatrix in="SourceAlpha" type="matrix" values="0 0 0 0 0 0 0 0 0 0 0 0 0 0 0 0 0 0 127 0" result="hardAlpha"/>
<feOffset/>
<feGaussianBlur stdDeviation="103.958"/>
<feColorMatrix type="matrix" values="0 0 0 0 0 0 0 0 0 0 0 0 0 0 0 0 0 0 0.5 0"/>
<feBlend mode="normal" in2="effect2_dropShadow_114_90" result="effect3_dropShadow_114_90"/>
<feBlend mode="normal" in="SourceGraphic" in2="effect3_dropShadow_114_90" result="shape"/>
</filter>
<filter id="filter1_bdd_114_90" x="-127.14" y="-135.14" width="1087.28" height="457.043" filterUnits="userSpaceOnUse" color-interpolation-filters="sRGB">
<feFlood flood-opacity="0" result="BackgroundImageFix"/>
<feGaussianBlur in="BackgroundImageFix" stdDeviation="70.9619"/>
<feComposite in2="SourceAlpha" operator="in" result="effect1_backgroundBlur_114_90"/>
<feColorMatrix in="SourceAlpha" type="matrix" values="0 0 0 0 0 0 0 0 0 0 0 0 0 0 0 0 0 0 127 0" result="hardAlpha"/>
<feOffset dx="12.0274" dy="12.0274"/>
<feGaussianBlur stdDeviation="46.6479"/>
<feComposite in2="hardAlpha" operator="out"/>
<feColorMatrix type="matrix" values="0 0 0 0 0 0 0 0 0 0 0 0 0 0 0 0 0 0 0.5 0"/>
<feBlend mode="normal" in2="effect1_backgroundBlur_114_90" result="effect2_dropShadow_114_90"/>
<feColorMatrix in="SourceAlpha" type="matrix" values="0 0 0 0 0 0 0 0 0 0 0 0 0 0 0 0 0 0 127 0" result="hardAlpha"/>
<feOffset dx="24.0549" dy="24.0549"/>
<feGaussianBlur stdDeviation="12.0274"/>
<feColorMatrix type="matrix" values="0 0 0 0 0 0 0 0 0 0 0 0 0 0 0 0 0 0 0.1 0"/>
<feBlend mode="normal" in2="effect2_dropShadow_114_90" result="effect3_dropShadow_114_90"/>
<feBlend mode="normal" in="SourceGraphic" in2="effect3_dropShadow_114_90" result="shape"/>
</filter>
<filter id="filter2_b_114_90" x="-652.645" y="-428.103" width="2138.48" height="1534.7" filterUnits="userSpaceOnUse" color-interpolation-filters="sRGB">
<feFlood flood-opacity="0" result="BackgroundImageFix"/>
<feGaussianBlur in="BackgroundImageFix" stdDeviation="360.823"/>
<feComposite in2="SourceAlpha" operator="in" result="effect1_backgroundBlur_114_90"/>
<feBlend mode="normal" in="SourceGraphic" in2="effect1_backgroundBlur_114_90" result="shape"/>
</filter>
<filter id="filter3_b_114_90" x="-652.645" y="-235.662" width="2138.48" height="1534.7" filterUnits="userSpaceOnUse" color-interpolation-filters="sRGB">
<feFlood flood-opacity="0" result="BackgroundImageFix"/>
<feGaussianBlur in="BackgroundImageFix" stdDeviation="360.823"/>
<feComposite in2="SourceAlpha" operator="in" result="effect1_backgroundBlur_114_90"/>
<feBlend mode="normal" in="SourceGraphic" in2="effect1_backgroundBlur_114_90" result="shape"/>
</filter>
<filter id="filter4_b_114_90" x="-652.646" y="-45.6203" width="2138.48" height="1534.7" filterUnits="userSpaceOnUse" color-interpolation-filters="sRGB">
<feFlood flood-opacity="0" result="BackgroundImageFix"/>
<feGaussianBlur in="BackgroundImageFix" stdDeviation="360.823"/>
<feComposite in2="SourceAlpha" operator="in" result="effect1_backgroundBlur_114_90"/>
<feBlend mode="normal" in="SourceGraphic" in2="effect1_backgroundBlur_114_90" result="shape"/>
</filter>
<linearGradient id="paint0_linear_114_90" x1="170.483" y1="161.667" x2="253.891" y2="-79.7813" gradientUnits="userSpaceOnUse">
<stop stop-color="#FF00FF"/>
<stop offset="0.46" stop-color="#9116F9"/>
<stop offset="1" stop-color="#3199FF"/>
</linearGradient>
<linearGradient id="paint1_linear_114_90" x1="393.315" y1="115.231" x2="440.388" y2="-22.3405" gradientUnits="userSpaceOnUse">
<stop stop-color="#FF00FF"/>
<stop offset="0.46" stop-color="#9116F9"/>
<stop offset="1" stop-color="#3199FF"/>
</linearGradient>
<linearGradient id="paint2_linear_114_90" x1="505.023" y1="341.887" x2="151.523" y2="341.887" gradientUnits="userSpaceOnUse">
<stop stop-color="#52D060"/>
<stop offset="0.395833" stop-color="#EDB13E"/>
<stop offset="1" stop-color="#FF7501"/>
</linearGradient>
<linearGradient id="paint3_linear_114_90" x1="416.594" y1="495.607" x2="416.594" y2="567.772" gradientUnits="userSpaceOnUse">
<stop stop-color="#967CFD"/>
<stop offset="1" stop-color="#3177FF"/>
</linearGradient>
<linearGradient id="paint4_linear_114_90" x1="455.614" y1="757.887" x2="452.479" y2="685.932" gradientUnits="userSpaceOnUse">
<stop stop-color="#F3B14E"/>
<stop offset="1" stop-color="#FFCE51"/>
</linearGradient>
<linearGradient id="paint5_linear_114_90" x1="117.053" y1="695.476" x2="117.053" y2="748.476" gradientUnits="userSpaceOnUse">
<stop offset="0.125" stop-color="#FDFDFD" stop-opacity="0.97"/>
<stop offset="1" stop-color="#FFDD64"/>
</linearGradient>
<linearGradient id="paint6_linear_114_90" x1="718.925" y1="695.476" x2="718.925" y2="748.476" gradientUnits="userSpaceOnUse">
<stop offset="0.125" stop-color="#FDFDFD" stop-opacity="0.97"/>
<stop offset="1" stop-color="#FFDD64"/>
</linearGradient>
<clipPath id="clip0_114_90">
<rect width="834" height="895" fill="white"/>
</clipPath>
</defs>
</svg>
