<svg width="1220" height="1233" viewBox="0 0 1220 1233" fill="none" xmlns="http://www.w3.org/2000/svg">
<path d="M820.341 630.407C820.341 791.669 686.022 922.563 520.125 922.563C354.229 922.563 219.91 791.669 219.91 630.407C219.91 469.144 354.229 338.251 520.125 338.251C686.022 338.251 820.341 469.144 820.341 630.407Z" fill="white" stroke="#3054DA" stroke-width="7.21646"/>
<path d="M862.735 529.805C862.735 621.049 786.426 695.205 692.057 695.205C597.689 695.205 521.379 621.049 521.379 529.805C521.379 438.561 597.689 364.405 692.057 364.405C786.426 364.405 862.735 438.561 862.735 529.805Z" fill="white" stroke="#3054DA" stroke-width="7.21646"/>
<g filter="url(#filter0_bdd_114_27)">
<path d="M148 257.938C148 230.085 148 216.159 153.592 205.598C158.105 197.075 165.075 190.105 173.598 185.592C184.159 180 198.085 180 225.938 180H859.062C886.915 180 900.841 180 911.402 185.592C919.925 190.105 926.895 197.075 931.408 205.598C937 216.159 937 230.085 937 257.938V872.658C937 900.511 937 914.437 931.408 924.998C926.895 933.521 919.925 940.491 911.402 945.004C900.841 950.596 886.915 950.596 859.062 950.596H225.938C198.085 950.596 184.159 950.596 173.598 945.004C165.075 940.491 158.105 933.521 153.592 924.998C148 914.437 148 900.511 148 872.658V257.938Z" fill="#3054DC" fill-opacity="0.57" shape-rendering="crispEdges"/>
<path d="M859.062 176.392H225.938H225.765C211.985 176.392 201.415 176.392 192.98 177.104C184.466 177.822 177.798 179.285 171.909 182.403C162.747 187.254 155.254 194.747 150.403 203.909C147.285 209.798 145.822 216.466 145.104 224.98C144.392 233.415 144.392 243.985 144.392 257.765V257.938V872.658V872.831C144.392 886.611 144.392 897.181 145.104 905.616C145.822 914.13 147.285 920.798 150.403 926.687C155.254 935.849 162.747 943.342 171.909 948.193C177.798 951.311 184.466 952.774 192.98 953.493C201.415 954.204 211.985 954.204 225.765 954.204H225.938H859.062H859.235C873.015 954.204 883.585 954.204 892.02 953.493C900.534 952.774 907.202 951.311 913.091 948.193C922.253 943.342 929.746 935.849 934.597 926.687C937.715 920.798 939.178 914.13 939.896 905.616C940.608 897.181 940.608 886.611 940.608 872.831V872.658V257.938V257.765C940.608 243.985 940.608 233.415 939.896 224.98C939.178 216.466 937.715 209.798 934.597 203.909C929.746 194.747 922.253 187.254 913.091 182.403C907.202 179.285 900.534 177.822 892.02 177.104C883.585 176.392 873.015 176.392 859.235 176.392H859.062Z" stroke="#3054DA" stroke-width="7.21646" shape-rendering="crispEdges"/>
</g>
<ellipse cx="475.146" cy="179.206" rx="259.793" ry="61.3399" fill="url(#paint0_linear_114_27)"/>
<path d="M733.736 179.206C733.736 186.953 727.045 194.715 713.937 202.032C700.93 209.292 682.03 215.87 658.571 221.409C611.672 232.482 546.821 239.343 475.146 239.343C403.471 239.343 338.62 232.482 291.721 221.409C268.262 215.87 249.362 209.292 236.355 202.032C223.248 194.715 216.556 186.953 216.556 179.206C216.556 171.458 223.248 163.697 236.355 156.38C249.362 149.119 268.262 142.541 291.721 137.002C338.62 125.929 403.471 119.068 475.146 119.068C546.821 119.068 611.672 125.929 658.571 137.002C682.03 142.541 700.93 149.119 713.937 156.38C727.045 163.697 733.736 171.458 733.736 179.206Z" stroke="#4B71A5" stroke-opacity="0.2" stroke-width="2.40549"/>
<ellipse cx="621.881" cy="157.557" rx="149.14" ry="34.8796" fill="url(#paint1_linear_114_27)"/>
<path d="M769.819 157.557C769.819 159.593 768.942 161.674 767.086 163.794C765.224 165.922 762.423 168.033 758.719 170.081C751.311 174.177 740.513 177.904 727.065 181.049C700.19 187.334 663.001 191.233 621.881 191.233C580.761 191.233 543.572 187.334 516.697 181.049C503.25 177.904 492.451 174.177 485.043 170.081C481.339 168.033 478.538 165.922 476.676 163.794C474.821 161.674 473.944 159.593 473.944 157.557C473.944 155.52 474.821 153.44 476.676 151.319C478.538 149.191 481.339 147.081 485.043 145.032C492.451 140.936 503.25 137.209 516.697 134.064C543.572 127.779 580.761 123.88 621.881 123.88C663.001 123.88 700.19 127.779 727.065 134.064C740.513 137.209 751.311 140.936 758.719 145.032C762.423 147.081 765.224 149.191 767.086 151.319C768.942 153.44 769.819 155.52 769.819 157.557Z" stroke="#4B71A5" stroke-opacity="0.2" stroke-width="2.40549"/>
<g filter="url(#filter1_bdd_114_27)">
<path d="M148 151.35C148 129.068 148 117.927 152.474 109.478C156.084 102.66 161.66 97.0838 168.478 93.4736C176.927 89 188.068 89 210.35 89H874.65C896.932 89 908.073 89 916.522 93.4736C923.34 97.0838 928.916 102.66 932.526 109.478C937 117.927 937 129.068 937 151.35V185.412C937 207.694 937 218.835 932.526 227.284C928.916 234.102 923.34 239.678 916.522 243.289C908.073 247.762 896.932 247.762 874.65 247.762H210.35C188.068 247.762 176.927 247.762 168.478 243.289C161.66 239.678 156.084 234.102 152.474 227.284C148 218.835 148 207.694 148 185.412V151.35Z" fill="#3054DC" shape-rendering="crispEdges"/>
<path d="M874.65 85.3918H210.35H210.179C199.183 85.3918 190.702 85.3917 183.924 85.9637C177.066 86.5425 171.623 87.726 166.79 90.2848C159.332 94.2334 153.233 100.332 149.285 107.79C146.726 112.623 145.542 118.066 144.964 124.924C144.392 131.702 144.392 140.183 144.392 151.179V151.35V185.412V185.583C144.392 196.579 144.392 205.06 144.964 211.839C145.542 218.696 146.726 224.14 149.285 228.972C153.233 236.43 159.332 242.529 166.79 246.477C171.623 249.036 177.066 250.22 183.924 250.798C190.702 251.37 199.183 251.37 210.179 251.37H210.35H874.65H874.821C885.817 251.37 894.298 251.37 901.076 250.798C907.934 250.22 913.377 249.036 918.21 246.477C925.668 242.529 931.767 236.43 935.715 228.972C938.274 224.14 939.458 218.696 940.036 211.839C940.608 205.06 940.608 196.579 940.608 185.583V185.412V151.35V151.179C940.608 140.183 940.608 131.702 940.036 124.924C939.458 118.066 938.274 112.623 935.715 107.79C931.767 100.332 925.668 94.2334 918.21 90.2848C913.377 87.726 907.934 86.5425 901.076 85.9637C894.298 85.3917 885.817 85.3918 874.821 85.3918H874.65Z" stroke="#4B71A5" stroke-opacity="0.2" stroke-width="7.21646" shape-rendering="crispEdges"/>
</g>
<path d="M378.277 179.346V174.83H402.005V179.346H392.813V204.571H387.469V179.346H378.277ZM411.604 191.501V204.571H406.347V174.83H411.488V186.055H411.75C412.272 184.797 413.081 183.804 414.175 183.078C415.278 182.343 416.682 181.975 418.386 181.975C419.935 181.975 421.286 182.299 422.438 182.948C423.59 183.596 424.48 184.545 425.11 185.794C425.749 187.043 426.068 188.568 426.068 190.368V204.571H420.811V191.181C420.811 189.681 420.424 188.514 419.649 187.682C418.885 186.839 417.81 186.418 416.426 186.418C415.496 186.418 414.664 186.622 413.928 187.028C413.202 187.425 412.631 188.001 412.214 188.756C411.808 189.511 411.604 190.426 411.604 191.501ZM441.301 205.006C439.065 205.006 437.134 204.542 435.507 203.612C433.89 202.673 432.646 201.347 431.775 199.633C430.904 197.91 430.468 195.882 430.468 193.549C430.468 191.254 430.904 189.24 431.775 187.507C432.656 185.765 433.886 184.41 435.464 183.441C437.042 182.464 438.896 181.975 441.025 181.975C442.4 181.975 443.697 182.197 444.917 182.643C446.147 183.078 447.231 183.756 448.17 184.676C449.119 185.595 449.864 186.767 450.407 188.19C450.949 189.603 451.22 191.288 451.22 193.244V194.855H432.937V191.312H446.181C446.171 190.305 445.953 189.41 445.527 188.626C445.101 187.832 444.506 187.207 443.741 186.752C442.986 186.297 442.105 186.07 441.098 186.07C440.023 186.07 439.08 186.331 438.266 186.854C437.453 187.367 436.819 188.045 436.364 188.887C435.919 189.72 435.691 190.635 435.681 191.632V194.725C435.681 196.022 435.919 197.135 436.393 198.065C436.867 198.985 437.531 199.691 438.382 200.185C439.234 200.669 440.232 200.911 441.374 200.911C442.139 200.911 442.831 200.805 443.451 200.592C444.07 200.369 444.607 200.045 445.062 199.619C445.518 199.193 445.861 198.665 446.094 198.036L451.002 198.588C450.692 199.885 450.102 201.018 449.23 201.986C448.369 202.944 447.265 203.69 445.919 204.222C444.574 204.745 443.034 205.006 441.301 205.006ZM491.499 184.865H486.068C485.913 183.974 485.628 183.185 485.212 182.497C484.795 181.8 484.277 181.21 483.658 180.726C483.038 180.242 482.331 179.879 481.538 179.637C480.753 179.385 479.906 179.259 478.996 179.259C477.379 179.259 475.947 179.666 474.698 180.479C473.449 181.282 472.471 182.464 471.764 184.022C471.058 185.571 470.704 187.464 470.704 189.7C470.704 191.975 471.058 193.892 471.764 195.451C472.481 197 473.459 198.171 474.698 198.965C475.947 199.749 477.375 200.141 478.982 200.141C479.872 200.141 480.705 200.025 481.479 199.793C482.264 199.551 482.966 199.198 483.585 198.733C484.214 198.268 484.742 197.697 485.168 197.019C485.604 196.342 485.904 195.567 486.068 194.696L491.499 194.725C491.296 196.138 490.856 197.465 490.178 198.704C489.51 199.943 488.634 201.037 487.55 201.986C486.465 202.925 485.197 203.661 483.745 204.193C482.293 204.716 480.681 204.977 478.909 204.977C476.295 204.977 473.962 204.372 471.91 203.162C469.857 201.952 468.24 200.204 467.059 197.92C465.878 195.635 465.288 192.895 465.288 189.7C465.288 186.496 465.883 183.756 467.074 181.481C468.265 179.196 469.886 177.449 471.939 176.239C473.991 175.028 476.315 174.423 478.909 174.423C480.565 174.423 482.104 174.656 483.527 175.12C484.95 175.585 486.218 176.268 487.332 177.168C488.445 178.059 489.36 179.153 490.076 180.45C490.802 181.737 491.277 183.209 491.499 184.865ZM505.93 205.006C503.752 205.006 501.864 204.527 500.267 203.569C498.67 202.61 497.43 201.269 496.549 199.546C495.678 197.823 495.242 195.809 495.242 193.505C495.242 191.201 495.678 189.182 496.549 187.449C497.43 185.716 498.67 184.371 500.267 183.412C501.864 182.454 503.752 181.975 505.93 181.975C508.109 181.975 509.997 182.454 511.594 183.412C513.191 184.371 514.426 185.716 515.297 187.449C516.178 189.182 516.619 191.201 516.619 193.505C516.619 195.809 516.178 197.823 515.297 199.546C514.426 201.269 513.191 202.61 511.594 203.569C509.997 204.527 508.109 205.006 505.93 205.006ZM505.96 200.795C507.141 200.795 508.128 200.471 508.922 199.822C509.716 199.164 510.306 198.283 510.694 197.179C511.091 196.075 511.289 194.846 511.289 193.49C511.289 192.125 511.091 190.891 510.694 189.787C510.306 188.674 509.716 187.788 508.922 187.13C508.128 186.472 507.141 186.142 505.96 186.142C504.749 186.142 503.743 186.472 502.939 187.13C502.145 187.788 501.55 188.674 501.153 189.787C500.766 190.891 500.572 192.125 500.572 193.49C500.572 194.846 500.766 196.075 501.153 197.179C501.55 198.283 502.145 199.164 502.939 199.822C503.743 200.471 504.749 200.795 505.96 200.795ZM526.337 191.501V204.571H521.08V182.265H526.105V186.055H526.366C526.879 184.806 527.697 183.814 528.82 183.078C529.953 182.343 531.352 181.975 533.017 181.975C534.557 181.975 535.897 182.304 537.04 182.962C538.192 183.62 539.082 184.574 539.712 185.823C540.351 187.072 540.665 188.587 540.656 190.368V204.571H535.399V191.181C535.399 189.691 535.012 188.524 534.237 187.682C533.472 186.839 532.412 186.418 531.057 186.418C530.137 186.418 529.319 186.622 528.603 187.028C527.896 187.425 527.339 188.001 526.933 188.756C526.536 189.511 526.337 190.426 526.337 191.501ZM563.629 188.161L558.837 188.684C558.701 188.2 558.464 187.745 558.125 187.319C557.796 186.893 557.351 186.549 556.789 186.288C556.228 186.026 555.54 185.896 554.727 185.896C553.633 185.896 552.714 186.133 551.968 186.607C551.232 187.082 550.869 187.696 550.879 188.451C550.869 189.1 551.106 189.628 551.591 190.034C552.084 190.441 552.898 190.775 554.03 191.036L557.835 191.849C559.945 192.305 561.514 193.026 562.54 194.013C563.576 195.001 564.099 196.293 564.108 197.891C564.099 199.294 563.687 200.534 562.874 201.608C562.07 202.673 560.952 203.506 559.519 204.106C558.087 204.706 556.441 205.006 554.582 205.006C551.852 205.006 549.654 204.435 547.989 203.293C546.324 202.141 545.332 200.538 545.012 198.486L550.138 197.992C550.371 198.999 550.864 199.759 551.62 200.272C552.375 200.785 553.357 201.042 554.568 201.042C555.816 201.042 556.818 200.785 557.574 200.272C558.338 199.759 558.721 199.125 558.721 198.37C558.721 197.731 558.474 197.203 557.98 196.787C557.496 196.371 556.741 196.051 555.715 195.828L551.91 195.03C549.77 194.584 548.188 193.834 547.161 192.779C546.135 191.714 545.627 190.368 545.637 188.742C545.627 187.367 546 186.176 546.755 185.169C547.52 184.153 548.58 183.369 549.935 182.817C551.3 182.255 552.873 181.975 554.655 181.975C557.269 181.975 559.326 182.531 560.826 183.645C562.337 184.758 563.271 186.263 563.629 188.161ZM579.581 182.265V186.331H566.759V182.265H579.581ZM569.924 176.921H575.181V197.862C575.181 198.568 575.288 199.11 575.501 199.488C575.723 199.856 576.014 200.108 576.372 200.243C576.73 200.379 577.127 200.446 577.563 200.446C577.892 200.446 578.192 200.422 578.463 200.374C578.744 200.325 578.957 200.282 579.102 200.243L579.988 204.353C579.707 204.45 579.305 204.556 578.783 204.672C578.269 204.788 577.64 204.856 576.895 204.876C575.578 204.914 574.392 204.716 573.337 204.28C572.282 203.835 571.444 203.147 570.825 202.218C570.215 201.289 569.915 200.127 569.924 198.733V176.921ZM583.978 204.571V182.265H589.235V204.571H583.978ZM586.621 179.099C585.788 179.099 585.072 178.823 584.471 178.272C583.871 177.71 583.571 177.037 583.571 176.253C583.571 175.459 583.871 174.786 584.471 174.235C585.072 173.673 585.788 173.392 586.621 173.392C587.463 173.392 588.179 173.673 588.77 174.235C589.37 174.786 589.67 175.459 589.67 176.253C589.67 177.037 589.37 177.71 588.77 178.272C588.179 178.823 587.463 179.099 586.621 179.099ZM605.778 182.265V186.331H592.956V182.265H605.778ZM596.122 176.921H601.378V197.862C601.378 198.568 601.485 199.11 601.698 199.488C601.921 199.856 602.211 200.108 602.569 200.243C602.927 200.379 603.324 200.446 603.76 200.446C604.089 200.446 604.389 200.422 604.66 200.374C604.941 200.325 605.154 200.282 605.299 200.243L606.185 204.353C605.904 204.45 605.503 204.556 604.98 204.672C604.467 204.788 603.837 204.856 603.092 204.876C601.775 204.914 600.589 204.716 599.534 204.28C598.479 203.835 597.641 203.147 597.022 202.218C596.412 201.289 596.112 200.127 596.122 198.733V176.921ZM624.392 195.189V182.265H629.649V204.571H624.552V200.606H624.319C623.816 201.855 622.988 202.876 621.836 203.67C620.694 204.464 619.285 204.861 617.61 204.861C616.148 204.861 614.856 204.537 613.733 203.888C612.619 203.23 611.748 202.276 611.119 201.027C610.49 199.769 610.175 198.249 610.175 196.467V182.265H615.432V195.654C615.432 197.068 615.819 198.191 616.594 199.023C617.368 199.856 618.385 200.272 619.643 200.272C620.418 200.272 621.168 200.083 621.894 199.706C622.62 199.328 623.216 198.767 623.68 198.021C624.155 197.266 624.392 196.322 624.392 195.189ZM646.193 182.265V186.331H633.37V182.265H646.193ZM636.536 176.921H641.792V197.862C641.792 198.568 641.899 199.11 642.112 199.488C642.335 199.856 642.625 200.108 642.983 200.243C643.341 200.379 643.738 200.446 644.174 200.446C644.503 200.446 644.803 200.422 645.074 200.374C645.355 200.325 645.568 200.282 645.713 200.243L646.599 204.353C646.318 204.45 645.917 204.556 645.394 204.672C644.881 204.788 644.252 204.856 643.506 204.876C642.189 204.914 641.003 204.716 639.948 204.28C638.893 203.835 638.056 203.147 637.436 202.218C636.826 201.289 636.526 200.127 636.536 198.733V176.921ZM650.589 204.571V182.265H655.846V204.571H650.589ZM653.232 179.099C652.399 179.099 651.683 178.823 651.083 178.272C650.483 177.71 650.182 177.037 650.182 176.253C650.182 175.459 650.483 174.786 651.083 174.235C651.683 173.673 652.399 173.392 653.232 173.392C654.074 173.392 654.791 173.673 655.381 174.235C655.981 174.786 656.282 175.459 656.282 176.253C656.282 177.037 655.981 177.71 655.381 178.272C654.791 178.823 654.074 179.099 653.232 179.099ZM670.981 205.006C668.803 205.006 666.915 204.527 665.318 203.569C663.72 202.61 662.481 201.269 661.6 199.546C660.729 197.823 660.293 195.809 660.293 193.505C660.293 191.201 660.729 189.182 661.6 187.449C662.481 185.716 663.72 184.371 665.318 183.412C666.915 182.454 668.803 181.975 670.981 181.975C673.16 181.975 675.047 182.454 676.645 183.412C678.242 184.371 679.477 185.716 680.348 187.449C681.229 189.182 681.669 191.201 681.669 193.505C681.669 195.809 681.229 197.823 680.348 199.546C679.477 201.269 678.242 202.61 676.645 203.569C675.047 204.527 673.16 205.006 670.981 205.006ZM671.01 200.795C672.191 200.795 673.179 200.471 673.973 199.822C674.767 199.164 675.357 198.283 675.744 197.179C676.141 196.075 676.34 194.846 676.34 193.49C676.34 192.125 676.141 190.891 675.744 189.787C675.357 188.674 674.767 187.788 673.973 187.13C673.179 186.472 672.191 186.142 671.01 186.142C669.8 186.142 668.793 186.472 667.99 187.13C667.196 187.788 666.601 188.674 666.204 189.787C665.816 190.891 665.623 192.125 665.623 193.49C665.623 194.846 665.816 196.075 666.204 197.179C666.601 198.283 667.196 199.164 667.99 199.822C668.793 200.471 669.8 200.795 671.01 200.795ZM691.388 191.501V204.571H686.131V182.265H691.156V186.055H691.417C691.93 184.806 692.748 183.814 693.871 183.078C695.004 182.343 696.403 181.975 698.068 181.975C699.607 181.975 700.948 182.304 702.091 182.962C703.243 183.62 704.133 184.574 704.763 185.823C705.401 187.072 705.716 188.587 705.706 190.368V204.571H700.45V191.181C700.45 189.691 700.062 188.524 699.288 187.682C698.523 186.839 697.463 186.418 696.108 186.418C695.188 186.418 694.37 186.622 693.653 187.028C692.947 187.425 692.39 188.001 691.983 188.756C691.586 189.511 691.388 190.426 691.388 191.501Z" fill="white"/>
<path d="M465.514 132.807C465.387 131.675 464.86 130.798 463.936 130.176C463.011 129.547 461.847 129.232 460.444 129.232C459.439 129.232 458.57 129.391 457.836 129.71C457.103 130.021 456.533 130.452 456.126 131.002C455.728 131.544 455.528 132.162 455.528 132.855C455.528 133.437 455.664 133.94 455.935 134.362C456.214 134.785 456.577 135.14 457.023 135.427C457.478 135.706 457.964 135.941 458.482 136.132C459 136.315 459.499 136.467 459.977 136.587L462.369 137.208C463.15 137.4 463.952 137.659 464.773 137.986C465.594 138.313 466.355 138.743 467.057 139.277C467.759 139.812 468.325 140.473 468.755 141.263C469.194 142.052 469.413 142.997 469.413 144.097C469.413 145.484 469.054 146.716 468.337 147.792C467.627 148.869 466.594 149.718 465.239 150.34C463.892 150.961 462.261 151.272 460.348 151.272C458.514 151.272 456.928 150.981 455.588 150.399C454.249 149.817 453.2 148.992 452.443 147.924C451.685 146.847 451.267 145.572 451.187 144.097H454.895C454.966 144.982 455.253 145.719 455.756 146.309C456.266 146.891 456.916 147.326 457.705 147.613C458.502 147.892 459.375 148.031 460.324 148.031C461.368 148.031 462.297 147.868 463.11 147.541C463.932 147.206 464.577 146.744 465.048 146.154C465.518 145.556 465.753 144.858 465.753 144.061C465.753 143.335 465.546 142.742 465.131 142.279C464.725 141.817 464.171 141.434 463.469 141.131C462.776 140.828 461.99 140.561 461.113 140.33L458.219 139.54C456.258 139.006 454.703 138.221 453.555 137.185C452.415 136.148 451.845 134.777 451.845 133.071C451.845 131.659 452.228 130.428 452.993 129.375C453.758 128.323 454.795 127.506 456.102 126.924C457.41 126.334 458.885 126.039 460.527 126.039C462.186 126.039 463.649 126.33 464.916 126.912C466.192 127.494 467.196 128.295 467.93 129.315C468.663 130.328 469.046 131.492 469.078 132.807H465.514ZM480.909 151.236C479.131 151.236 477.6 150.834 476.317 150.029C475.041 149.215 474.06 148.095 473.375 146.668C472.689 145.241 472.346 143.607 472.346 141.765C472.346 139.899 472.697 138.253 473.399 136.826C474.1 135.391 475.089 134.27 476.364 133.465C477.64 132.66 479.143 132.257 480.873 132.257C482.268 132.257 483.512 132.516 484.604 133.035C485.696 133.545 486.577 134.263 487.247 135.187C487.925 136.112 488.327 137.192 488.455 138.428H484.975C484.784 137.567 484.345 136.826 483.659 136.204C482.982 135.582 482.073 135.271 480.933 135.271C479.936 135.271 479.063 135.534 478.314 136.06C477.572 136.579 476.994 137.32 476.58 138.285C476.165 139.241 475.958 140.374 475.958 141.681C475.958 143.021 476.161 144.177 476.568 145.149C476.974 146.122 477.548 146.875 478.29 147.41C479.039 147.944 479.92 148.211 480.933 148.211C481.61 148.211 482.224 148.087 482.774 147.84C483.333 147.585 483.799 147.222 484.174 146.752C484.556 146.281 484.823 145.715 484.975 145.054H488.455C488.327 146.242 487.941 147.302 487.295 148.235C486.649 149.168 485.784 149.901 484.7 150.435C483.624 150.969 482.36 151.236 480.909 151.236ZM499.646 151.236C497.924 151.236 496.421 150.842 495.137 150.053C493.854 149.263 492.857 148.159 492.148 146.74C491.438 145.321 491.083 143.662 491.083 141.765C491.083 139.859 491.438 138.193 492.148 136.766C492.857 135.339 493.854 134.231 495.137 133.441C496.421 132.652 497.924 132.257 499.646 132.257C501.368 132.257 502.871 132.652 504.155 133.441C505.438 134.231 506.435 135.339 507.144 136.766C507.854 138.193 508.209 139.859 508.209 141.765C508.209 143.662 507.854 145.321 507.144 146.74C506.435 148.159 505.438 149.263 504.155 150.053C502.871 150.842 501.368 151.236 499.646 151.236ZM499.658 148.235C500.774 148.235 501.699 147.94 502.433 147.35C503.166 146.76 503.708 145.974 504.059 144.994C504.418 144.013 504.597 142.933 504.597 141.753C504.597 140.581 504.418 139.505 504.059 138.524C503.708 137.535 503.166 136.742 502.433 136.144C501.699 135.546 500.774 135.247 499.658 135.247C498.534 135.247 497.601 135.546 496.86 136.144C496.126 136.742 495.58 137.535 495.221 138.524C494.87 139.505 494.695 140.581 494.695 141.753C494.695 142.933 494.87 144.013 495.221 144.994C495.58 145.974 496.126 146.76 496.86 147.35C497.601 147.94 498.534 148.235 499.658 148.235ZM511.83 150.866V132.497H515.286V135.415H515.477C515.812 134.426 516.402 133.649 517.247 133.083C518.1 132.509 519.065 132.221 520.141 132.221C520.364 132.221 520.628 132.229 520.931 132.245C521.241 132.261 521.485 132.281 521.66 132.305V135.725C521.517 135.686 521.261 135.642 520.895 135.594C520.528 135.538 520.161 135.51 519.794 135.51C518.949 135.51 518.196 135.69 517.534 136.048C516.88 136.399 516.362 136.89 515.979 137.519C515.597 138.141 515.405 138.851 515.405 139.648V150.866H511.83ZM531.643 151.236C529.833 151.236 528.275 150.85 526.967 150.076C525.668 149.295 524.663 148.199 523.953 146.788C523.252 145.369 522.901 143.706 522.901 141.801C522.901 139.919 523.252 138.261 523.953 136.826C524.663 135.391 525.652 134.27 526.919 133.465C528.195 132.66 529.686 132.257 531.392 132.257C532.428 132.257 533.433 132.429 534.406 132.772C535.378 133.114 536.251 133.653 537.025 134.386C537.798 135.12 538.408 136.072 538.855 137.244C539.301 138.408 539.524 139.823 539.524 141.49V142.757H524.922V140.079H536.02C536.02 139.138 535.829 138.305 535.446 137.579C535.063 136.846 534.525 136.268 533.832 135.845C533.146 135.423 532.341 135.211 531.416 135.211C530.411 135.211 529.534 135.458 528.785 135.953C528.043 136.439 527.469 137.077 527.063 137.866C526.664 138.648 526.465 139.497 526.465 140.413V142.506C526.465 143.734 526.68 144.779 527.111 145.64C527.549 146.501 528.159 147.158 528.94 147.613C529.722 148.059 530.635 148.283 531.679 148.283C532.357 148.283 532.975 148.187 533.533 147.996C534.091 147.796 534.573 147.501 534.98 147.111C535.386 146.72 535.697 146.238 535.913 145.664L539.297 146.273C539.026 147.27 538.54 148.143 537.838 148.892C537.144 149.634 536.271 150.212 535.219 150.627C534.175 151.033 532.983 151.236 531.643 151.236ZM543.408 150.866V126.373H546.984V135.474H547.199C547.407 135.092 547.706 134.649 548.096 134.147C548.487 133.645 549.029 133.206 549.723 132.831C550.416 132.449 551.333 132.257 552.473 132.257C553.956 132.257 555.28 132.632 556.444 133.382C557.608 134.131 558.521 135.211 559.182 136.622C559.852 138.034 560.187 139.732 560.187 141.717C560.187 143.702 559.856 145.404 559.194 146.824C558.533 148.235 557.624 149.323 556.468 150.088C555.312 150.846 553.992 151.224 552.509 151.224C551.393 151.224 550.48 151.037 549.77 150.662C549.069 150.288 548.519 149.849 548.12 149.347C547.722 148.845 547.415 148.398 547.199 148.007H546.9V150.866H543.408ZM546.912 141.681C546.912 142.973 547.1 144.105 547.474 145.078C547.849 146.05 548.391 146.812 549.101 147.362C549.81 147.904 550.679 148.175 551.708 148.175C552.776 148.175 553.669 147.892 554.387 147.326C555.104 146.752 555.646 145.974 556.013 144.994C556.388 144.013 556.575 142.909 556.575 141.681C556.575 140.469 556.392 139.381 556.025 138.416C555.666 137.452 555.124 136.69 554.399 136.132C553.681 135.574 552.784 135.295 551.708 135.295C550.671 135.295 549.794 135.562 549.077 136.096C548.367 136.63 547.829 137.376 547.462 138.333C547.096 139.289 546.912 140.405 546.912 141.681ZM571.569 151.236C569.847 151.236 568.344 150.842 567.061 150.053C565.777 149.263 564.78 148.159 564.071 146.74C563.361 145.321 563.007 143.662 563.007 141.765C563.007 139.859 563.361 138.193 564.071 136.766C564.78 135.339 565.777 134.231 567.061 133.441C568.344 132.652 569.847 132.257 571.569 132.257C573.291 132.257 574.794 132.652 576.078 133.441C577.361 134.231 578.358 135.339 579.068 136.766C579.777 138.193 580.132 139.859 580.132 141.765C580.132 143.662 579.777 145.321 579.068 146.74C578.358 148.159 577.361 149.263 576.078 150.053C574.794 150.842 573.291 151.236 571.569 151.236ZM571.581 148.235C572.697 148.235 573.622 147.94 574.356 147.35C575.089 146.76 575.631 145.974 575.982 144.994C576.341 144.013 576.52 142.933 576.52 141.753C576.52 140.581 576.341 139.505 575.982 138.524C575.631 137.535 575.089 136.742 574.356 136.144C573.622 135.546 572.697 135.247 571.581 135.247C570.457 135.247 569.524 135.546 568.783 136.144C568.049 136.742 567.503 137.535 567.144 138.524C566.794 139.505 566.618 140.581 566.618 141.753C566.618 142.933 566.794 144.013 567.144 144.994C567.503 145.974 568.049 146.76 568.783 147.35C569.524 147.94 570.457 148.235 571.581 148.235ZM589.099 151.272C587.935 151.272 586.882 151.057 585.941 150.627C585.001 150.188 584.255 149.554 583.705 148.725C583.163 147.896 582.892 146.879 582.892 145.675C582.892 144.639 583.091 143.786 583.49 143.116C583.888 142.447 584.427 141.916 585.104 141.526C585.782 141.135 586.539 140.84 587.376 140.641C588.214 140.441 589.067 140.29 589.936 140.186C591.036 140.059 591.929 139.955 592.615 139.875C593.3 139.788 593.799 139.648 594.109 139.457C594.42 139.265 594.576 138.954 594.576 138.524V138.44C594.576 137.396 594.281 136.587 593.691 136.013C593.109 135.438 592.24 135.151 591.084 135.151C589.88 135.151 588.931 135.419 588.238 135.953C587.552 136.479 587.077 137.065 586.814 137.711L583.454 136.945C583.853 135.829 584.435 134.928 585.2 134.243C585.973 133.549 586.862 133.047 587.867 132.736C588.871 132.417 589.928 132.257 591.036 132.257C591.769 132.257 592.547 132.345 593.368 132.52C594.197 132.688 594.97 132.999 595.688 133.453C596.414 133.908 597.008 134.557 597.47 135.403C597.932 136.24 598.164 137.328 598.164 138.667V150.866H594.672V148.354H594.528C594.297 148.817 593.95 149.271 593.488 149.718C593.025 150.164 592.431 150.535 591.706 150.83C590.98 151.125 590.111 151.272 589.099 151.272ZM589.876 148.402C590.865 148.402 591.71 148.207 592.411 147.816C593.121 147.425 593.659 146.915 594.026 146.285C594.4 145.648 594.588 144.966 594.588 144.24V141.872C594.46 142 594.213 142.12 593.846 142.231C593.488 142.335 593.077 142.427 592.615 142.506C592.152 142.578 591.702 142.646 591.263 142.71C590.825 142.765 590.458 142.813 590.163 142.853C589.469 142.941 588.835 143.088 588.261 143.296C587.695 143.503 587.241 143.802 586.898 144.193C586.563 144.575 586.396 145.085 586.396 145.723C586.396 146.608 586.723 147.278 587.376 147.732C588.03 148.179 588.863 148.402 589.876 148.402ZM602.556 150.866V132.497H606.012V135.415H606.203C606.538 134.426 607.128 133.649 607.973 133.083C608.826 132.509 609.791 132.221 610.867 132.221C611.091 132.221 611.354 132.229 611.657 132.245C611.968 132.261 612.211 132.281 612.386 132.305V135.725C612.243 135.686 611.988 135.642 611.621 135.594C611.254 135.538 610.887 135.51 610.521 135.51C609.675 135.51 608.922 135.69 608.26 136.048C607.607 136.399 607.088 136.89 606.706 137.519C606.323 138.141 606.132 138.851 606.132 139.648V150.866H602.556ZM621.329 151.224C619.846 151.224 618.523 150.846 617.359 150.088C616.202 149.323 615.294 148.235 614.632 146.824C613.978 145.404 613.651 143.702 613.651 141.717C613.651 139.732 613.982 138.034 614.644 136.622C615.313 135.211 616.23 134.131 617.394 133.382C618.558 132.632 619.878 132.257 621.353 132.257C622.493 132.257 623.41 132.449 624.103 132.831C624.805 133.206 625.347 133.645 625.73 134.147C626.121 134.649 626.424 135.092 626.639 135.474H626.854V126.373H630.43V150.866H626.938V148.007H626.639C626.424 148.398 626.113 148.845 625.706 149.347C625.307 149.849 624.757 150.288 624.056 150.662C623.354 151.037 622.445 151.224 621.329 151.224ZM622.118 148.175C623.147 148.175 624.016 147.904 624.725 147.362C625.443 146.812 625.985 146.05 626.352 145.078C626.726 144.105 626.914 142.973 626.914 141.681C626.914 140.405 626.73 139.289 626.364 138.333C625.997 137.376 625.459 136.63 624.749 136.096C624.04 135.562 623.163 135.295 622.118 135.295C621.042 135.295 620.145 135.574 619.427 136.132C618.71 136.69 618.168 137.452 617.801 138.416C617.442 139.381 617.263 140.469 617.263 141.681C617.263 142.909 617.446 144.013 617.813 144.994C618.18 145.974 618.722 146.752 619.439 147.326C620.165 147.892 621.058 148.175 622.118 148.175Z" fill="white" fill-opacity="0.7"/>
<path d="M203.837 315.508H209.267L216.538 333.255H216.825L224.096 315.508H229.525V340H225.268V323.173H225.041L218.272 339.928H215.091L208.322 323.137H208.095V340H203.837V315.508ZM242.298 340.359C240.456 340.359 238.865 339.976 237.526 339.21C236.194 338.437 235.17 337.345 234.452 335.934C233.735 334.515 233.376 332.844 233.376 330.923C233.376 329.033 233.735 327.375 234.452 325.948C235.178 324.513 236.19 323.397 237.49 322.599C238.79 321.794 240.316 321.391 242.07 321.391C243.203 321.391 244.271 321.575 245.275 321.942C246.288 322.3 247.181 322.858 247.954 323.616C248.736 324.373 249.349 325.338 249.796 326.51C250.242 327.674 250.466 329.061 250.466 330.672V331.999H235.409V329.081H246.316C246.308 328.252 246.128 327.514 245.778 326.869C245.427 326.215 244.937 325.701 244.307 325.326C243.685 324.951 242.959 324.764 242.13 324.764C241.245 324.764 240.468 324.979 239.798 325.41C239.128 325.832 238.606 326.39 238.232 327.084C237.865 327.77 237.677 328.523 237.669 329.344V331.891C237.669 332.96 237.865 333.877 238.255 334.642C238.646 335.399 239.192 335.981 239.894 336.388C240.595 336.787 241.417 336.986 242.357 336.986C242.987 336.986 243.557 336.898 244.068 336.723C244.578 336.54 245.02 336.273 245.395 335.922C245.77 335.571 246.053 335.136 246.244 334.618L250.286 335.073C250.031 336.141 249.545 337.074 248.827 337.871C248.118 338.66 247.209 339.274 246.101 339.713C244.992 340.143 243.725 340.359 242.298 340.359ZM254.128 340V321.631H258.266V324.752H258.481C258.864 323.699 259.498 322.878 260.383 322.288C261.268 321.69 262.324 321.391 263.552 321.391C264.796 321.391 265.844 321.694 266.697 322.3C267.558 322.898 268.164 323.715 268.515 324.752H268.706C269.113 323.731 269.799 322.918 270.763 322.312C271.736 321.698 272.888 321.391 274.219 321.391C275.91 321.391 277.289 321.926 278.357 322.994C279.426 324.062 279.96 325.621 279.96 327.67V340H275.619V328.34C275.619 327.2 275.316 326.366 274.71 325.84C274.104 325.306 273.362 325.039 272.485 325.039C271.441 325.039 270.624 325.366 270.034 326.02C269.452 326.665 269.161 327.506 269.161 328.543V340H264.915V328.16C264.915 327.211 264.628 326.454 264.054 325.888C263.488 325.322 262.747 325.039 261.83 325.039C261.208 325.039 260.642 325.198 260.132 325.517C259.621 325.828 259.215 326.271 258.912 326.845C258.609 327.411 258.457 328.073 258.457 328.83V340H254.128ZM292.364 340.359C290.571 340.359 289.016 339.964 287.7 339.175C286.385 338.385 285.364 337.281 284.639 335.862C283.921 334.443 283.562 332.784 283.562 330.887C283.562 328.989 283.921 327.327 284.639 325.9C285.364 324.473 286.385 323.365 287.7 322.575C289.016 321.786 290.571 321.391 292.364 321.391C294.158 321.391 295.713 321.786 297.028 322.575C298.344 323.365 299.36 324.473 300.078 325.9C300.804 327.327 301.166 328.989 301.166 330.887C301.166 332.784 300.804 334.443 300.078 335.862C299.36 337.281 298.344 338.385 297.028 339.175C295.713 339.964 294.158 340.359 292.364 340.359ZM292.388 336.89C293.361 336.89 294.174 336.623 294.828 336.089C295.482 335.547 295.968 334.821 296.287 333.913C296.614 333.004 296.777 331.991 296.777 330.875C296.777 329.751 296.614 328.734 296.287 327.825C295.968 326.909 295.482 326.179 294.828 325.637C294.174 325.095 293.361 324.824 292.388 324.824C291.392 324.824 290.563 325.095 289.901 325.637C289.247 326.179 288.757 326.909 288.43 327.825C288.111 328.734 287.951 329.751 287.951 330.875C287.951 331.991 288.111 333.004 288.43 333.913C288.757 334.821 289.247 335.547 289.901 336.089C290.563 336.623 291.392 336.89 292.388 336.89ZM304.841 340V321.631H309.038V324.692H309.23C309.565 323.632 310.139 322.815 310.952 322.24C311.773 321.658 312.71 321.367 313.762 321.367C314.001 321.367 314.268 321.379 314.563 321.403C314.866 321.419 315.118 321.447 315.317 321.487V325.469C315.134 325.406 314.843 325.35 314.444 325.302C314.053 325.246 313.675 325.218 313.308 325.218C312.518 325.218 311.809 325.39 311.179 325.733C310.557 326.067 310.067 326.534 309.708 327.132C309.349 327.73 309.17 328.419 309.17 329.201V340H304.841ZM321.443 346.888C320.853 346.888 320.307 346.84 319.805 346.745C319.31 346.657 318.916 346.553 318.621 346.434L319.625 343.061C320.255 343.245 320.817 343.332 321.311 343.324C321.806 343.316 322.24 343.161 322.615 342.858C322.998 342.563 323.321 342.069 323.584 341.375L323.954 340.382L317.293 321.631H321.885L326.119 335.503H326.31L330.556 321.631H335.16L327.805 342.224C327.462 343.197 327.008 344.03 326.442 344.724C325.876 345.425 325.182 345.959 324.361 346.326C323.548 346.701 322.575 346.888 321.443 346.888ZM340.823 340.263C340.097 340.263 339.475 340.008 338.957 339.497C338.439 338.987 338.184 338.365 338.192 337.632C338.184 336.914 338.439 336.3 338.957 335.79C339.475 335.28 340.097 335.025 340.823 335.025C341.524 335.025 342.134 335.28 342.652 335.79C343.179 336.3 343.446 336.914 343.454 337.632C343.446 338.118 343.318 338.561 343.071 338.959C342.832 339.358 342.513 339.677 342.114 339.916C341.724 340.147 341.293 340.263 340.823 340.263ZM340.823 327.156C340.097 327.156 339.475 326.901 338.957 326.39C338.439 325.872 338.184 325.25 338.192 324.525C338.184 323.807 338.439 323.193 338.957 322.683C339.475 322.165 340.097 321.906 340.823 321.906C341.524 321.906 342.134 322.165 342.652 322.683C343.179 323.193 343.446 323.807 343.454 324.525C343.446 325.003 343.318 325.442 343.071 325.84C342.832 326.239 342.513 326.558 342.114 326.797C341.724 327.036 341.293 327.156 340.823 327.156Z" fill="white" fill-opacity="0.7"/>
<path d="M357.126 340L367.542 319.382V319.215H355.452V315.508H372.135V319.299L361.73 340H357.126ZM384.18 340.335C382.586 340.335 381.159 340.036 379.899 339.438C378.639 338.832 377.639 338.003 376.897 336.95C376.164 335.898 375.773 334.694 375.725 333.339H380.031C380.11 334.343 380.545 335.164 381.334 335.802C382.123 336.432 383.072 336.747 384.18 336.747C385.049 336.747 385.823 336.548 386.5 336.149C387.178 335.75 387.712 335.196 388.103 334.487C388.494 333.777 388.685 332.968 388.677 332.059C388.685 331.134 388.49 330.313 388.091 329.595C387.692 328.878 387.146 328.316 386.453 327.909C385.759 327.495 384.962 327.287 384.061 327.287C383.327 327.279 382.606 327.415 381.896 327.694C381.187 327.973 380.625 328.34 380.21 328.794L376.204 328.136L377.483 315.508H391.691V319.215H381.155L380.449 325.709H380.593C381.047 325.174 381.689 324.732 382.518 324.381C383.347 324.022 384.256 323.843 385.245 323.843C386.728 323.843 388.051 324.194 389.215 324.895C390.379 325.589 391.296 326.546 391.966 327.766C392.635 328.985 392.97 330.381 392.97 331.951C392.97 333.57 392.596 335.013 391.846 336.28C391.105 337.54 390.072 338.533 388.749 339.258C387.433 339.976 385.91 340.335 384.18 340.335ZM410.072 335.407V334.116C410.072 333.167 410.271 332.294 410.67 331.497C411.076 330.7 411.666 330.058 412.44 329.571C413.213 329.085 414.15 328.842 415.25 328.842C416.382 328.842 417.331 329.085 418.096 329.571C418.862 330.05 419.44 330.688 419.83 331.485C420.229 332.282 420.428 333.159 420.428 334.116V335.407C420.428 336.356 420.229 337.229 419.83 338.027C419.432 338.824 418.846 339.466 418.072 339.952C417.307 340.438 416.366 340.681 415.25 340.681C414.134 340.681 413.189 340.438 412.416 339.952C411.642 339.466 411.056 338.824 410.658 338.027C410.267 337.229 410.072 336.356 410.072 335.407ZM413.193 334.116V335.407C413.193 336.037 413.345 336.615 413.648 337.142C413.951 337.668 414.485 337.931 415.25 337.931C416.023 337.931 416.554 337.672 416.841 337.153C417.136 336.627 417.283 336.045 417.283 335.407V334.116C417.283 333.478 417.144 332.896 416.865 332.37C416.586 331.836 416.047 331.569 415.25 331.569C414.501 331.569 413.971 331.836 413.66 332.37C413.349 332.896 413.193 333.478 413.193 334.116ZM397.622 321.391V320.1C397.622 319.143 397.826 318.266 398.232 317.469C398.639 316.672 399.229 316.034 400.002 315.555C400.776 315.069 401.712 314.826 402.813 314.826C403.937 314.826 404.882 315.069 405.647 315.555C406.42 316.034 407.002 316.672 407.393 317.469C407.784 318.266 407.979 319.143 407.979 320.1V321.391C407.979 322.348 407.78 323.225 407.381 324.022C406.99 324.812 406.408 325.446 405.635 325.924C404.862 326.402 403.921 326.641 402.813 326.641C401.689 326.641 400.74 326.402 399.966 325.924C399.201 325.446 398.619 324.808 398.22 324.01C397.822 323.213 397.622 322.34 397.622 321.391ZM400.768 320.1V321.391C400.768 322.029 400.915 322.611 401.21 323.137C401.513 323.656 402.047 323.915 402.813 323.915C403.578 323.915 404.104 323.656 404.391 323.137C404.686 322.611 404.834 322.029 404.834 321.391V320.1C404.834 319.462 404.694 318.88 404.415 318.354C404.136 317.82 403.602 317.553 402.813 317.553C402.055 317.553 401.525 317.82 401.222 318.354C400.919 318.888 400.768 319.47 400.768 320.1ZM398.986 340L415.824 315.508H418.814L401.976 340H398.986Z" fill="white"/>
<g filter="url(#filter2_b_114_27)">
<path d="M195.001 414.247C195.001 389.005 215.464 368.543 240.705 368.543H844.483C869.725 368.543 890.187 389.005 890.187 414.247V414.247C890.187 439.489 869.725 459.952 844.483 459.952H240.705C215.464 459.952 195.001 439.489 195.001 414.247V414.247Z" fill="white" fill-opacity="0.15"/>
</g>
<path d="M204.298 413.887C204.298 394.005 220.415 377.887 240.298 377.887H673.298C693.18 377.887 709.298 394.005 709.298 413.887V413.887C709.298 433.77 693.18 449.887 673.298 449.887H240.298C220.415 449.887 204.298 433.77 204.298 413.887V413.887Z" fill="url(#paint2_linear_114_27)"/>
<path d="M225.598 516.213H221.125C220.997 515.48 220.762 514.83 220.419 514.264C220.077 513.69 219.65 513.204 219.14 512.805C218.63 512.406 218.048 512.107 217.394 511.908C216.748 511.701 216.05 511.597 215.301 511.597C213.969 511.597 212.789 511.932 211.761 512.602C210.733 513.263 209.927 514.236 209.345 515.52C208.763 516.795 208.472 518.354 208.472 520.196C208.472 522.069 208.763 523.648 209.345 524.932C209.935 526.207 210.74 527.172 211.761 527.826C212.789 528.471 213.965 528.794 215.289 528.794C216.022 528.794 216.708 528.699 217.346 528.507C217.992 528.308 218.57 528.017 219.08 527.634C219.598 527.252 220.033 526.781 220.384 526.223C220.742 525.665 220.989 525.027 221.125 524.31L225.598 524.334C225.43 525.498 225.067 526.59 224.509 527.61C223.959 528.631 223.238 529.532 222.345 530.313C221.452 531.087 220.407 531.692 219.212 532.131C218.016 532.561 216.688 532.777 215.229 532.777C213.077 532.777 211.155 532.278 209.465 531.282C207.775 530.285 206.443 528.846 205.471 526.965C204.498 525.083 204.012 522.827 204.012 520.196C204.012 517.557 204.502 515.301 205.482 513.427C206.463 511.545 207.799 510.106 209.489 509.11C211.179 508.113 213.092 507.615 215.229 507.615C216.592 507.615 217.86 507.806 219.032 508.189C220.204 508.572 221.249 509.134 222.165 509.875C223.082 510.609 223.836 511.509 224.426 512.578C225.024 513.638 225.414 514.85 225.598 516.213ZM237.482 532.801C235.688 532.801 234.133 532.406 232.818 531.617C231.502 530.827 230.482 529.723 229.756 528.304C229.039 526.885 228.68 525.227 228.68 523.329C228.68 521.432 229.039 519.769 229.756 518.342C230.482 516.915 231.502 515.807 232.818 515.017C234.133 514.228 235.688 513.834 237.482 513.834C239.276 513.834 240.831 514.228 242.146 515.017C243.462 515.807 244.478 516.915 245.196 518.342C245.921 519.769 246.284 521.432 246.284 523.329C246.284 525.227 245.921 526.885 245.196 528.304C244.478 529.723 243.462 530.827 242.146 531.617C240.831 532.406 239.276 532.801 237.482 532.801ZM237.506 529.333C238.479 529.333 239.292 529.065 239.946 528.531C240.599 527.989 241.086 527.264 241.405 526.355C241.732 525.446 241.895 524.433 241.895 523.317C241.895 522.193 241.732 521.176 241.405 520.268C241.086 519.351 240.599 518.621 239.946 518.079C239.292 517.537 238.479 517.266 237.506 517.266C236.509 517.266 235.68 517.537 235.018 518.079C234.365 518.621 233.874 519.351 233.547 520.268C233.229 521.176 233.069 522.193 233.069 523.317C233.069 524.433 233.229 525.446 233.547 526.355C233.874 527.264 234.365 527.989 235.018 528.531C235.68 529.065 236.509 529.333 237.506 529.333ZM249.958 532.442V514.073H254.156V517.134H254.347C254.682 516.074 255.256 515.257 256.069 514.683C256.891 514.101 257.827 513.81 258.88 513.81C259.119 513.81 259.386 513.822 259.681 513.845C259.984 513.861 260.235 513.889 260.435 513.929V517.912C260.251 517.848 259.96 517.792 259.562 517.744C259.171 517.688 258.792 517.66 258.425 517.66C257.636 517.66 256.927 517.832 256.297 518.175C255.675 518.51 255.184 518.976 254.826 519.574C254.467 520.172 254.288 520.861 254.288 521.643V532.442H249.958ZM263.311 532.442V514.073H267.508V517.134H267.7C268.035 516.074 268.609 515.257 269.422 514.683C270.243 514.101 271.18 513.81 272.232 513.81C272.471 513.81 272.738 513.822 273.033 513.845C273.336 513.861 273.588 513.889 273.787 513.929V517.912C273.604 517.848 273.313 517.792 272.914 517.744C272.523 517.688 272.144 517.66 271.778 517.66C270.988 517.66 270.279 517.832 269.649 518.175C269.027 518.51 268.537 518.976 268.178 519.574C267.819 520.172 267.64 520.861 267.64 521.643V532.442H263.311ZM284.039 532.801C282.197 532.801 280.607 532.418 279.267 531.653C277.936 530.879 276.911 529.787 276.194 528.376C275.476 526.957 275.117 525.286 275.117 523.365C275.117 521.475 275.476 519.817 276.194 518.39C276.919 516.955 277.932 515.839 279.231 515.041C280.531 514.236 282.058 513.834 283.812 513.834C284.944 513.834 286.012 514.017 287.017 514.384C288.029 514.742 288.922 515.301 289.695 516.058C290.477 516.815 291.091 517.78 291.537 518.952C291.984 520.116 292.207 521.503 292.207 523.114V524.441H277.15V521.523H288.057C288.049 520.694 287.87 519.957 287.519 519.311C287.168 518.657 286.678 518.143 286.048 517.768C285.426 517.393 284.701 517.206 283.871 517.206C282.986 517.206 282.209 517.421 281.539 517.852C280.87 518.274 280.347 518.832 279.973 519.526C279.606 520.212 279.419 520.965 279.411 521.786V524.334C279.411 525.402 279.606 526.319 279.997 527.084C280.387 527.842 280.933 528.424 281.635 528.83C282.337 529.229 283.158 529.428 284.099 529.428C284.728 529.428 285.299 529.341 285.809 529.165C286.319 528.982 286.762 528.715 287.136 528.364C287.511 528.013 287.794 527.579 287.985 527.06L292.027 527.515C291.772 528.583 291.286 529.516 290.568 530.313C289.859 531.102 288.95 531.716 287.842 532.155C286.734 532.585 285.466 532.801 284.039 532.801ZM303.882 532.801C302.048 532.801 300.474 532.398 299.158 531.593C297.851 530.788 296.842 529.675 296.132 528.256C295.431 526.829 295.08 525.187 295.08 523.329C295.08 521.463 295.439 519.817 296.156 518.39C296.874 516.955 297.886 515.839 299.194 515.041C300.509 514.236 302.064 513.834 303.858 513.834C305.349 513.834 306.668 514.109 307.817 514.659C308.973 515.201 309.893 515.97 310.579 516.967C311.265 517.955 311.655 519.111 311.751 520.435H307.613C307.446 519.55 307.047 518.813 306.417 518.223C305.795 517.625 304.962 517.326 303.918 517.326C303.033 517.326 302.256 517.565 301.586 518.043C300.916 518.514 300.394 519.191 300.019 520.076C299.652 520.961 299.469 522.022 299.469 523.257C299.469 524.509 299.652 525.585 300.019 526.486C300.386 527.379 300.9 528.069 301.562 528.555C302.232 529.034 303.017 529.273 303.918 529.273C304.556 529.273 305.126 529.153 305.628 528.914C306.138 528.667 306.565 528.312 306.908 527.85C307.25 527.387 307.486 526.825 307.613 526.163H311.751C311.647 527.463 311.265 528.615 310.603 529.62C309.941 530.616 309.04 531.397 307.9 531.964C306.76 532.522 305.421 532.801 303.882 532.801ZM324.479 514.073V517.421H313.919V514.073H324.479ZM316.526 509.672H320.855V526.917C320.855 527.499 320.943 527.945 321.118 528.256C321.301 528.559 321.541 528.766 321.836 528.878C322.131 528.99 322.457 529.046 322.816 529.046C323.087 529.046 323.334 529.026 323.558 528.986C323.789 528.946 323.964 528.91 324.084 528.878L324.813 532.263C324.582 532.342 324.251 532.43 323.821 532.526C323.398 532.621 322.88 532.677 322.266 532.693C321.182 532.725 320.205 532.561 319.336 532.203C318.467 531.836 317.777 531.27 317.267 530.505C316.765 529.739 316.518 528.782 316.526 527.634V509.672ZM330.766 532.705C330.041 532.705 329.419 532.45 328.9 531.94C328.382 531.429 328.127 530.807 328.135 530.074C328.127 529.356 328.382 528.743 328.9 528.232C329.419 527.722 330.041 527.467 330.766 527.467C331.468 527.467 332.078 527.722 332.596 528.232C333.122 528.743 333.389 529.356 333.397 530.074C333.389 530.56 333.261 531.003 333.014 531.401C332.775 531.8 332.456 532.119 332.058 532.358C331.667 532.589 331.236 532.705 330.766 532.705ZM330.766 519.598C330.041 519.598 329.419 519.343 328.9 518.832C328.382 518.314 328.127 517.692 328.135 516.967C328.127 516.249 328.382 515.635 328.9 515.125C329.419 514.607 330.041 514.348 330.766 514.348C331.468 514.348 332.078 514.607 332.596 515.125C333.122 515.635 333.389 516.249 333.397 516.967C333.389 517.445 333.261 517.884 333.014 518.282C332.775 518.681 332.456 519 332.058 519.239C331.667 519.478 331.236 519.598 330.766 519.598Z" fill="white" fill-opacity="0.7"/>
<path d="M347.069 532.442L357.486 511.824V511.657H345.395V507.95H362.078V511.741L351.674 532.442H347.069Z" fill="white"/>
<path d="M375.983 506.802L368.09 536.125H364.299L372.192 506.802H375.983ZM388.66 507.95V532.442H384.223V512.267H384.08L378.351 515.926V511.86L384.438 507.95H388.66ZM403.932 532.908C401.963 532.908 400.272 532.41 398.861 531.413C397.458 530.409 396.378 528.962 395.62 527.072C394.871 525.175 394.496 522.891 394.496 520.22C394.504 517.549 394.883 515.277 395.632 513.403C396.39 511.521 397.47 510.086 398.873 509.098C400.284 508.109 401.971 507.615 403.932 507.615C405.893 507.615 407.579 508.109 408.991 509.098C410.402 510.086 411.482 511.521 412.231 513.403C412.989 515.285 413.368 517.557 413.368 520.22C413.368 522.899 412.989 525.187 412.231 527.084C411.482 528.974 410.402 530.417 408.991 531.413C407.587 532.41 405.901 532.908 403.932 532.908ZM403.932 529.165C405.463 529.165 406.67 528.412 407.555 526.905C408.448 525.39 408.895 523.162 408.895 520.22C408.895 518.274 408.692 516.64 408.285 515.316C407.878 513.993 407.304 512.996 406.563 512.327C405.821 511.649 404.944 511.31 403.932 511.31C402.409 511.31 401.205 512.068 400.32 513.582C399.435 515.089 398.989 517.302 398.981 520.22C398.973 522.173 399.168 523.815 399.567 525.147C399.973 526.478 400.547 527.483 401.289 528.161C402.03 528.83 402.911 529.165 403.932 529.165ZM442.341 515.771C442.142 515.125 441.867 514.547 441.516 514.037C441.173 513.519 440.759 513.076 440.273 512.709C439.794 512.343 439.244 512.068 438.622 511.884C438 511.693 437.323 511.597 436.589 511.597C435.274 511.597 434.102 511.928 433.073 512.59C432.045 513.252 431.235 514.224 430.645 515.508C430.063 516.783 429.772 518.338 429.772 520.172C429.772 522.022 430.063 523.588 430.645 524.872C431.227 526.155 432.037 527.132 433.073 527.802C434.11 528.463 435.313 528.794 436.685 528.794C437.929 528.794 439.005 528.555 439.914 528.077C440.831 527.598 441.536 526.921 442.031 526.044C442.525 525.159 442.772 524.122 442.772 522.934L443.777 523.09H437.127V519.622H447.065V522.564C447.065 524.661 446.619 526.474 445.726 528.005C444.833 529.536 443.605 530.716 442.042 531.545C440.48 532.366 438.686 532.777 436.661 532.777C434.405 532.777 432.423 532.27 430.717 531.258C429.019 530.237 427.692 528.79 426.735 526.917C425.786 525.035 425.312 522.803 425.312 520.22C425.312 518.242 425.591 516.476 426.149 514.922C426.715 513.367 427.504 512.048 428.517 510.963C429.529 509.871 430.717 509.042 432.081 508.476C433.444 507.902 434.927 507.615 436.529 507.615C437.885 507.615 439.148 507.814 440.32 508.213C441.492 508.603 442.533 509.162 443.442 509.887C444.359 510.613 445.112 511.474 445.702 512.47C446.292 513.467 446.679 514.567 446.862 515.771H442.341ZM459.177 532.801C457.383 532.801 455.828 532.406 454.513 531.617C453.197 530.827 452.177 529.723 451.451 528.304C450.734 526.885 450.375 525.227 450.375 523.329C450.375 521.432 450.734 519.769 451.451 518.342C452.177 516.915 453.197 515.807 454.513 515.017C455.828 514.228 457.383 513.834 459.177 513.834C460.971 513.834 462.525 514.228 463.841 515.017C465.156 515.807 466.173 516.915 466.89 518.342C467.616 519.769 467.979 521.432 467.979 523.329C467.979 525.227 467.616 526.885 466.89 528.304C466.173 529.723 465.156 530.827 463.841 531.617C462.525 532.406 460.971 532.801 459.177 532.801ZM459.201 529.333C460.173 529.333 460.987 529.065 461.64 528.531C462.294 527.989 462.781 527.264 463.099 526.355C463.426 525.446 463.59 524.433 463.59 523.317C463.59 522.193 463.426 521.176 463.099 520.268C462.781 519.351 462.294 518.621 461.64 518.079C460.987 517.537 460.173 517.266 459.201 517.266C458.204 517.266 457.375 517.537 456.713 518.079C456.06 518.621 455.569 519.351 455.242 520.268C454.923 521.176 454.764 522.193 454.764 523.317C454.764 524.433 454.923 525.446 455.242 526.355C455.569 527.264 456.06 527.989 456.713 528.531C457.375 529.065 458.204 529.333 459.201 529.333ZM480.826 514.073V517.421H470.266V514.073H480.826ZM472.873 509.672H477.202V526.917C477.202 527.499 477.29 527.945 477.465 528.256C477.649 528.559 477.888 528.766 478.183 528.878C478.478 528.99 478.805 529.046 479.164 529.046C479.435 529.046 479.682 529.026 479.905 528.986C480.136 528.946 480.312 528.91 480.431 528.878L481.161 532.263C480.929 532.342 480.599 532.43 480.168 532.526C479.746 532.621 479.227 532.677 478.613 532.693C477.529 532.725 476.552 532.561 475.683 532.203C474.814 531.836 474.125 531.27 473.615 530.505C473.112 529.739 472.865 528.782 472.873 527.634V509.672ZM492.991 532.442V507.95H502.176C504.057 507.95 505.636 508.277 506.912 508.93C508.195 509.584 509.164 510.501 509.818 511.681C510.479 512.853 510.81 514.22 510.81 515.783C510.81 517.353 510.475 518.717 509.806 519.873C509.144 521.021 508.167 521.91 506.876 522.54C505.584 523.162 503.998 523.473 502.116 523.473H495.574V519.789H501.518C502.618 519.789 503.519 519.638 504.221 519.335C504.922 519.024 505.441 518.573 505.776 517.983C506.118 517.385 506.29 516.652 506.29 515.783C506.29 514.914 506.118 514.172 505.776 513.558C505.433 512.937 504.91 512.466 504.209 512.147C503.507 511.82 502.602 511.657 501.494 511.657H497.428V532.442H492.991ZM505.644 521.344L511.707 532.442H506.756L500.801 521.344H505.644ZM514.703 532.442V514.073H519.032V532.442H514.703ZM516.88 511.466C516.194 511.466 515.604 511.238 515.11 510.784C514.615 510.322 514.368 509.767 514.368 509.122C514.368 508.468 514.615 507.914 515.11 507.459C515.604 506.997 516.194 506.766 516.88 506.766C517.573 506.766 518.163 506.997 518.649 507.459C519.144 507.914 519.391 508.468 519.391 509.122C519.391 509.767 519.144 510.322 518.649 510.784C518.163 511.238 517.573 511.466 516.88 511.466ZM531.473 539.713C529.918 539.713 528.583 539.502 527.466 539.079C526.35 538.665 525.453 538.107 524.776 537.405C524.098 536.703 523.627 535.926 523.364 535.073L527.263 534.128C527.438 534.487 527.694 534.842 528.028 535.192C528.363 535.551 528.814 535.846 529.38 536.077C529.954 536.317 530.675 536.436 531.544 536.436C532.772 536.436 533.789 536.137 534.594 535.539C535.399 534.949 535.802 533.977 535.802 532.621V529.141H535.587C535.363 529.588 535.036 530.046 534.606 530.516C534.183 530.987 533.621 531.382 532.92 531.7C532.226 532.019 531.353 532.179 530.301 532.179C528.889 532.179 527.61 531.848 526.462 531.186C525.322 530.516 524.413 529.52 523.735 528.196C523.065 526.865 522.731 525.199 522.731 523.198C522.731 521.18 523.065 519.478 523.735 518.091C524.413 516.696 525.326 515.639 526.474 514.922C527.622 514.196 528.901 513.834 530.313 513.834C531.389 513.834 532.274 514.017 532.968 514.384C533.669 514.742 534.227 515.177 534.642 515.687C535.056 516.189 535.371 516.664 535.587 517.11H535.826V514.073H540.095V532.741C540.095 534.312 539.72 535.611 538.971 536.64C538.222 537.668 537.197 538.437 535.898 538.948C534.598 539.458 533.123 539.713 531.473 539.713ZM531.509 528.782C532.425 528.782 533.207 528.559 533.853 528.113C534.498 527.666 534.989 527.024 535.323 526.187C535.658 525.35 535.826 524.346 535.826 523.174C535.826 522.018 535.658 521.005 535.323 520.136C534.997 519.267 534.51 518.593 533.864 518.115C533.227 517.629 532.441 517.385 531.509 517.385C530.544 517.385 529.739 517.637 529.093 518.139C528.447 518.641 527.961 519.331 527.634 520.208C527.307 521.077 527.143 522.065 527.143 523.174C527.143 524.298 527.307 525.282 527.634 526.127C527.969 526.965 528.459 527.618 529.105 528.089C529.759 528.551 530.56 528.782 531.509 528.782ZM548.861 521.679V532.442H544.532V507.95H548.765V517.194H548.981C549.411 516.158 550.077 515.34 550.978 514.742C551.887 514.136 553.043 513.834 554.446 513.834C555.722 513.834 556.834 514.101 557.783 514.635C558.731 515.169 559.465 515.95 559.983 516.979C560.509 518.007 560.772 519.263 560.772 520.746V532.442H556.443V521.416C556.443 520.18 556.124 519.219 555.487 518.533C554.857 517.84 553.972 517.493 552.832 517.493C552.066 517.493 551.381 517.66 550.775 517.995C550.177 518.322 549.706 518.797 549.363 519.418C549.029 520.04 548.861 520.794 548.861 521.679ZM574.358 514.073V517.421H563.798V514.073H574.358ZM566.405 509.672H570.734V526.917C570.734 527.499 570.822 527.945 570.997 528.256C571.181 528.559 571.42 528.766 571.715 528.878C572.01 528.99 572.337 529.046 572.696 529.046C572.967 529.046 573.214 529.026 573.437 528.986C573.668 528.946 573.844 528.91 573.963 528.878L574.693 532.263C574.462 532.342 574.131 532.43 573.7 532.526C573.278 532.621 572.759 532.677 572.146 532.693C571.061 532.725 570.085 532.561 569.216 532.203C568.347 531.836 567.657 531.27 567.147 530.505C566.644 529.739 566.397 528.782 566.405 527.634V509.672Z" fill="white" fill-opacity="0.6"/>
<g filter="url(#filter3_b_114_27)">
<path d="M195.001 606.689C195.001 581.447 215.464 560.984 240.705 560.984H844.483C869.725 560.984 890.187 581.447 890.187 606.689V606.689C890.187 631.93 869.725 652.393 844.483 652.393H240.705C215.464 652.393 195.001 631.93 195.001 606.689V606.689Z" fill="white" fill-opacity="0.15"/>
</g>
<path d="M204.623 606.689C204.623 586.762 220.778 570.607 240.706 570.607H844.483C864.411 570.607 880.565 586.762 880.565 606.689V606.689C880.565 626.617 864.411 642.772 844.483 642.772H240.706C220.778 642.772 204.623 626.617 204.623 606.689V606.689Z" fill="url(#paint3_linear_114_27)"/>
<path d="M203.836 722.484V697.991H208.273V718.764H219.06V722.484H203.836ZM230.852 722.842C229.01 722.842 227.419 722.46 226.08 721.694C224.749 720.921 223.724 719.829 223.007 718.418C222.289 716.998 221.93 715.328 221.93 713.407C221.93 711.517 222.289 709.859 223.007 708.432C223.732 706.997 224.745 705.88 226.044 705.083C227.344 704.278 228.87 703.875 230.624 703.875C231.757 703.875 232.825 704.059 233.83 704.425C234.842 704.784 235.735 705.342 236.508 706.1C237.29 706.857 237.904 707.822 238.35 708.994C238.797 710.158 239.02 711.545 239.02 713.156V714.483H223.963V711.565H234.87C234.862 710.736 234.683 709.998 234.332 709.353C233.981 708.699 233.491 708.185 232.861 707.81C232.239 707.435 231.513 707.248 230.684 707.248C229.799 707.248 229.022 707.463 228.352 707.894C227.683 708.316 227.16 708.874 226.786 709.568C226.419 710.253 226.231 711.007 226.224 711.828V714.375C226.224 715.444 226.419 716.361 226.81 717.126C227.2 717.883 227.746 718.465 228.448 718.872C229.15 719.271 229.971 719.47 230.911 719.47C231.541 719.47 232.111 719.382 232.622 719.207C233.132 719.023 233.574 718.756 233.949 718.406C234.324 718.055 234.607 717.62 234.798 717.102L238.84 717.556C238.585 718.625 238.099 719.558 237.381 720.355C236.672 721.144 235.763 721.758 234.655 722.197C233.546 722.627 232.279 722.842 230.852 722.842ZM258.564 704.114L252.022 722.484H247.239L240.697 704.114H245.313L249.535 717.76H249.726L253.96 704.114H258.564ZM269.067 722.842C267.225 722.842 265.635 722.46 264.295 721.694C262.964 720.921 261.939 719.829 261.222 718.418C260.504 716.998 260.146 715.328 260.146 713.407C260.146 711.517 260.504 709.859 261.222 708.432C261.947 706.997 262.96 705.88 264.259 705.083C265.559 704.278 267.086 703.875 268.84 703.875C269.972 703.875 271.04 704.059 272.045 704.425C273.057 704.784 273.95 705.342 274.724 706.1C275.505 706.857 276.119 707.822 276.565 708.994C277.012 710.158 277.235 711.545 277.235 713.156V714.483H262.179V711.565H273.085C273.077 710.736 272.898 709.998 272.547 709.353C272.196 708.699 271.706 708.185 271.076 707.81C270.454 707.435 269.729 707.248 268.9 707.248C268.015 707.248 267.237 707.463 266.568 707.894C265.898 708.316 265.376 708.874 265.001 709.568C264.634 710.253 264.447 711.007 264.439 711.828V714.375C264.439 715.444 264.634 716.361 265.025 717.126C265.415 717.883 265.962 718.465 266.663 718.872C267.365 719.271 268.186 719.47 269.127 719.47C269.757 719.47 270.327 719.382 270.837 719.207C271.347 719.023 271.79 718.756 272.164 718.406C272.539 718.055 272.822 717.62 273.013 717.102L277.056 717.556C276.801 718.625 276.314 719.558 275.597 720.355C274.887 721.144 273.978 721.758 272.87 722.197C271.762 722.627 270.494 722.842 269.067 722.842ZM285.227 697.991V722.484H280.898V697.991H285.227ZM292.345 722.747C291.62 722.747 290.998 722.492 290.48 721.981C289.962 721.471 289.706 720.849 289.714 720.116C289.706 719.398 289.962 718.784 290.48 718.274C290.998 717.764 291.62 717.509 292.345 717.509C293.047 717.509 293.657 717.764 294.175 718.274C294.701 718.784 294.968 719.398 294.976 720.116C294.968 720.602 294.841 721.045 294.594 721.443C294.355 721.842 294.036 722.161 293.637 722.4C293.246 722.631 292.816 722.747 292.345 722.747ZM292.345 709.64C291.62 709.64 290.998 709.384 290.48 708.874C289.962 708.356 289.706 707.734 289.714 707.009C289.706 706.291 289.962 705.677 290.48 705.167C290.998 704.649 291.62 704.39 292.345 704.39C293.047 704.39 293.657 704.649 294.175 705.167C294.701 705.677 294.968 706.291 294.976 707.009C294.968 707.487 294.841 707.925 294.594 708.324C294.355 708.723 294.036 709.042 293.637 709.281C293.246 709.52 292.816 709.64 292.345 709.64ZM307.309 717.939V714.411L317.702 697.991H320.644V703.014H318.85L311.854 714.1V714.292H326.36V717.939H307.309ZM318.993 722.484V716.863L319.041 715.284V697.991H323.227V722.484H318.993Z" fill="#FEFEFE" fill-opacity="0.7"/>
<g filter="url(#filter4_b_114_27)">
<path d="M195 796.73C195 771.489 215.462 751.026 240.704 751.026H844.482C869.723 751.026 890.186 771.489 890.186 796.73V796.73C890.186 821.972 869.724 842.435 844.482 842.435H240.704C215.463 842.435 195 821.972 195 796.73V796.73Z" fill="white" fill-opacity="0.15"/>
</g>
<path d="M204.298 796.887C204.298 777.005 220.415 760.887 240.298 760.887H754.298C774.18 760.887 790.298 777.005 790.298 796.887V796.887C790.298 816.77 774.18 832.887 754.298 832.887H240.298C220.415 832.887 204.298 816.77 204.298 796.887V796.887Z" fill="url(#paint4_linear_114_27)"/>
<circle cx="240.706" cy="796.725" r="40.8074" fill="#1A0F24" stroke="#3B4043" stroke-width="9.79377"/>
<g opacity="0.5">
<circle cx="844.483" cy="796.725" r="40.8074" fill="#1A0F24" stroke="#515151" stroke-width="9.79377"/>
</g>
<path d="M232.696 811.476V807.584L243.021 797.462C244.009 796.465 244.832 795.579 245.49 794.805C246.148 794.03 246.642 793.28 246.971 792.554C247.3 791.828 247.465 791.053 247.465 790.23C247.465 789.291 247.252 788.488 246.826 787.82C246.4 787.142 245.814 786.619 245.069 786.251C244.323 785.883 243.476 785.699 242.527 785.699C241.55 785.699 240.693 785.903 239.957 786.309C239.221 786.706 238.65 787.273 238.243 788.008C237.847 788.744 237.648 789.62 237.648 790.637H232.522C232.522 788.749 232.953 787.108 233.814 785.714C234.676 784.32 235.862 783.24 237.372 782.476C238.892 781.711 240.635 781.328 242.6 781.328C244.594 781.328 246.347 781.701 247.857 782.447C249.367 783.192 250.539 784.213 251.371 785.511C252.213 786.808 252.635 788.289 252.635 789.954C252.635 791.068 252.422 792.162 251.996 793.236C251.57 794.311 250.819 795.502 249.745 796.809C248.68 798.116 247.184 799.698 245.258 801.557L240.131 806.771V806.974H253.085V811.476H232.696Z" fill="url(#paint5_linear_114_27)"/>
<path opacity="0.5" d="M844.741 811.882C842.65 811.882 840.791 811.524 839.165 810.808C837.548 810.091 836.27 809.094 835.331 807.816C834.392 806.538 833.894 805.062 833.835 803.387H839.296C839.344 804.19 839.61 804.892 840.094 805.493C840.578 806.083 841.222 806.543 842.026 806.872C842.829 807.201 843.73 807.366 844.727 807.366C845.792 807.366 846.736 807.182 847.559 806.814C848.381 806.437 849.025 805.914 849.49 805.246C849.955 804.578 850.182 803.808 850.172 802.937C850.182 802.036 849.95 801.243 849.475 800.555C849.001 799.868 848.314 799.331 847.413 798.943C846.523 798.556 845.448 798.362 844.189 798.362H841.561V794.209H844.189C845.225 794.209 846.131 794.03 846.905 793.672C847.689 793.314 848.304 792.81 848.749 792.162C849.195 791.503 849.412 790.743 849.403 789.882C849.412 789.039 849.224 788.309 848.836 787.689C848.459 787.06 847.922 786.571 847.225 786.222C846.537 785.874 845.729 785.699 844.799 785.699C843.889 785.699 843.047 785.864 842.273 786.193C841.498 786.522 840.874 786.992 840.399 787.602C839.925 788.202 839.673 788.918 839.644 789.751H834.46C834.499 788.086 834.978 786.624 835.898 785.365C836.827 784.097 838.066 783.11 839.615 782.403C841.164 781.687 842.902 781.328 844.828 781.328C846.813 781.328 848.536 781.701 849.998 782.447C851.47 783.182 852.607 784.175 853.411 785.424C854.214 786.672 854.616 788.052 854.616 789.562C854.626 791.237 854.132 792.641 853.135 793.774C852.147 794.906 850.85 795.647 849.243 795.995V796.228C851.334 796.518 852.936 797.293 854.05 798.551C855.173 799.8 855.729 801.354 855.72 803.213C855.72 804.878 855.245 806.369 854.297 807.685C853.358 808.992 852.06 810.019 850.405 810.764C848.759 811.509 846.871 811.882 844.741 811.882Z" fill="url(#paint6_linear_114_27)"/>
<path d="M211.431 886.146V872.287H214.189V886.146H211.431ZM205.886 880.59V877.843H219.744V880.59H205.886ZM223.599 889.672V887.376L230.702 880.016C231.461 879.217 232.086 878.516 232.578 877.915C233.077 877.307 233.45 876.729 233.696 876.182C233.942 875.636 234.065 875.055 234.065 874.44C234.065 873.743 233.901 873.141 233.573 872.636C233.245 872.123 232.797 871.73 232.23 871.457C231.663 871.177 231.024 871.037 230.313 871.037C229.561 871.037 228.905 871.19 228.345 871.498C227.784 871.805 227.354 872.239 227.053 872.8C226.752 873.36 226.602 874.016 226.602 874.768H223.578C223.578 873.49 223.872 872.373 224.46 871.416C225.047 870.459 225.854 869.718 226.879 869.192C227.904 868.659 229.069 868.392 230.374 868.392C231.693 868.392 232.855 868.655 233.86 869.181C234.871 869.701 235.66 870.411 236.227 871.313C236.795 872.209 237.078 873.22 237.078 874.348C237.078 875.127 236.931 875.889 236.638 876.634C236.35 877.378 235.848 878.209 235.131 879.124C234.413 880.033 233.415 881.137 232.137 882.435L227.965 886.802V886.956H237.417V889.672H223.599ZM248.61 890.021C246.991 890.014 245.607 889.587 244.459 888.74C243.311 887.892 242.433 886.659 241.824 885.039C241.216 883.419 240.912 881.468 240.912 879.186C240.912 876.91 241.216 874.966 241.824 873.353C242.439 871.741 243.321 870.51 244.469 869.663C245.624 868.816 247.004 868.392 248.61 868.392C250.216 868.392 251.593 868.819 252.741 869.673C253.889 870.521 254.768 871.751 255.376 873.364C255.991 874.969 256.298 876.91 256.298 879.186C256.298 881.475 255.994 883.43 255.386 885.049C254.778 886.662 253.9 887.896 252.752 888.75C251.603 889.597 250.223 890.021 248.61 890.021ZM248.61 887.284C250.032 887.284 251.142 886.59 251.942 885.203C252.748 883.816 253.151 881.81 253.151 879.186C253.151 877.443 252.967 875.971 252.598 874.768C252.236 873.558 251.713 872.643 251.029 872.021C250.353 871.392 249.547 871.078 248.61 871.078C247.196 871.078 246.085 871.775 245.279 873.169C244.472 874.563 244.066 876.569 244.059 879.186C244.059 880.935 244.24 882.415 244.602 883.624C244.971 884.827 245.494 885.74 246.171 886.361C246.847 886.976 247.66 887.284 248.61 887.284ZM267.243 890.021C265.624 890.014 264.24 889.587 263.092 888.74C261.944 887.892 261.066 886.659 260.457 885.039C259.849 883.419 259.545 881.468 259.545 879.186C259.545 876.91 259.849 874.966 260.457 873.353C261.073 871.741 261.954 870.51 263.102 869.663C264.257 868.816 265.637 868.392 267.243 868.392C268.849 868.392 270.226 868.819 271.374 869.673C272.523 870.521 273.401 871.751 274.009 873.364C274.624 874.969 274.931 876.91 274.931 879.186C274.931 881.475 274.627 883.43 274.019 885.049C273.411 886.662 272.533 887.896 271.385 888.75C270.237 889.597 268.856 890.021 267.243 890.021ZM267.243 887.284C268.665 887.284 269.775 886.59 270.575 885.203C271.381 883.816 271.784 881.81 271.784 879.186C271.784 877.443 271.6 875.971 271.231 874.768C270.869 873.558 270.346 872.643 269.663 872.021C268.986 871.392 268.18 871.078 267.243 871.078C265.829 871.078 264.718 871.775 263.912 873.169C263.106 874.563 262.699 876.569 262.692 879.186C262.692 880.935 262.873 882.415 263.235 883.624C263.604 884.827 264.127 885.74 264.804 886.361C265.48 886.976 266.294 887.284 267.243 887.284ZM286.494 889.672V868.679H293.977C295.61 868.679 296.963 868.976 298.036 869.571C299.109 870.165 299.912 870.979 300.445 872.01C300.978 873.036 301.245 874.19 301.245 875.475C301.245 876.767 300.975 877.929 300.435 878.96C299.902 879.985 299.096 880.799 298.016 881.4C296.943 881.995 295.593 882.292 293.967 882.292H288.821V879.606H293.68C294.712 879.606 295.549 879.429 296.191 879.073C296.834 878.711 297.305 878.219 297.606 877.597C297.907 876.975 298.057 876.268 298.057 875.475C298.057 874.682 297.907 873.979 297.606 873.364C297.305 872.749 296.83 872.267 296.181 871.918C295.539 871.57 294.691 871.395 293.639 871.395H289.662V889.672H286.494ZM311.147 889.99C309.671 889.99 308.383 889.652 307.282 888.975C306.182 888.299 305.328 887.352 304.72 886.136C304.112 884.919 303.808 883.498 303.808 881.872C303.808 880.238 304.112 878.81 304.72 877.587C305.328 876.364 306.182 875.414 307.282 874.737C308.383 874.061 309.671 873.722 311.147 873.722C312.623 873.722 313.911 874.061 315.011 874.737C316.112 875.414 316.966 876.364 317.574 877.587C318.182 878.81 318.486 880.238 318.486 881.872C318.486 883.498 318.182 884.919 317.574 886.136C316.966 887.352 316.112 888.299 315.011 888.975C313.911 889.652 312.623 889.99 311.147 889.99ZM311.157 887.417C312.114 887.417 312.907 887.164 313.535 886.659C314.164 886.153 314.629 885.48 314.929 884.639C315.237 883.799 315.391 882.873 315.391 881.861C315.391 880.857 315.237 879.934 314.929 879.094C314.629 878.246 314.164 877.566 313.535 877.054C312.907 876.541 312.114 876.285 311.157 876.285C310.194 876.285 309.394 876.541 308.759 877.054C308.13 877.566 307.662 878.246 307.354 879.094C307.054 879.934 306.903 880.857 306.903 881.861C306.903 882.873 307.054 883.799 307.354 884.639C307.662 885.48 308.13 886.153 308.759 886.659C309.394 887.164 310.194 887.417 311.157 887.417ZM321.908 889.672V873.927H324.973V889.672H321.908ZM323.455 871.498C322.922 871.498 322.465 871.32 322.082 870.965C321.706 870.603 321.518 870.172 321.518 869.673C321.518 869.168 321.706 868.737 322.082 868.382C322.465 868.02 322.922 867.838 323.455 867.838C323.989 867.838 324.443 868.02 324.819 868.382C325.202 868.737 325.393 869.168 325.393 869.673C325.393 870.172 325.202 870.603 324.819 870.965C324.443 871.32 323.989 871.498 323.455 871.498ZM332.161 880.324V889.672H329.096V873.927H332.038V876.49H332.233C332.595 875.656 333.162 874.987 333.934 874.481C334.713 873.975 335.694 873.722 336.876 873.722C337.949 873.722 338.889 873.948 339.695 874.399C340.501 874.843 341.127 875.506 341.571 876.388C342.015 877.269 342.237 878.359 342.237 879.657V889.672H339.172V880.026C339.172 878.885 338.875 877.993 338.28 877.351C337.686 876.702 336.869 876.377 335.831 876.377C335.12 876.377 334.488 876.531 333.934 876.839C333.388 877.146 332.954 877.597 332.632 878.192C332.318 878.779 332.161 879.49 332.161 880.324ZM353.697 873.927V876.388H345.097V873.927H353.697ZM347.404 870.155H350.469V885.049C350.469 885.644 350.557 886.091 350.735 886.392C350.913 886.686 351.142 886.888 351.422 886.997C351.709 887.099 352.02 887.151 352.355 887.151C352.601 887.151 352.816 887.134 353 887.099C353.185 887.065 353.328 887.038 353.431 887.017L353.985 889.549C353.807 889.618 353.554 889.686 353.226 889.754C352.898 889.83 352.488 889.871 351.996 889.877C351.189 889.891 350.438 889.748 349.741 889.447C349.044 889.146 348.48 888.681 348.049 888.053C347.619 887.424 347.404 886.635 347.404 885.685V870.155ZM368.633 877.771L365.855 878.263C365.739 877.908 365.554 877.57 365.301 877.249C365.055 876.927 364.72 876.664 364.297 876.459C363.873 876.254 363.343 876.152 362.708 876.152C361.84 876.152 361.116 876.347 360.535 876.736C359.954 877.119 359.663 877.614 359.663 878.222C359.663 878.749 359.858 879.172 360.248 879.493C360.637 879.815 361.266 880.078 362.134 880.283L364.635 880.857C366.084 881.192 367.163 881.708 367.874 882.405C368.585 883.102 368.94 884.007 368.94 885.121C368.94 886.064 368.667 886.905 368.12 887.643C367.58 888.374 366.825 888.948 365.855 889.365C364.891 889.782 363.774 889.99 362.503 889.99C360.74 889.99 359.301 889.614 358.187 888.863C357.073 888.104 356.39 887.028 356.137 885.634L359.1 885.183C359.284 885.955 359.663 886.539 360.237 886.935C360.811 887.325 361.56 887.52 362.482 887.52C363.487 887.52 364.29 887.311 364.891 886.894C365.493 886.471 365.793 885.955 365.793 885.347C365.793 884.855 365.609 884.441 365.24 884.106C364.878 883.771 364.321 883.519 363.569 883.348L360.904 882.763C359.434 882.429 358.348 881.896 357.644 881.164C356.947 880.433 356.598 879.507 356.598 878.386C356.598 877.457 356.858 876.644 357.377 875.947C357.897 875.25 358.614 874.706 359.53 874.317C360.446 873.921 361.495 873.722 362.677 873.722C364.379 873.722 365.718 874.091 366.695 874.829C367.673 875.561 368.318 876.541 368.633 877.771ZM387.299 873.927V876.388H378.699V873.927H387.299ZM381.005 870.155H384.07V885.049C384.07 885.644 384.159 886.091 384.337 886.392C384.514 886.686 384.743 886.888 385.023 886.997C385.311 887.099 385.621 887.151 385.956 887.151C386.202 887.151 386.418 887.134 386.602 887.099C386.787 887.065 386.93 887.038 387.033 887.017L387.586 889.549C387.408 889.618 387.156 889.686 386.828 889.754C386.5 889.83 386.09 889.871 385.598 889.877C384.791 889.891 384.039 889.748 383.342 889.447C382.645 889.146 382.082 888.681 381.651 888.053C381.221 887.424 381.005 886.635 381.005 885.685V870.155ZM397.153 889.99C395.677 889.99 394.388 889.652 393.288 888.975C392.188 888.299 391.334 887.352 390.725 886.136C390.117 884.919 389.813 883.498 389.813 881.872C389.813 880.238 390.117 878.81 390.725 877.587C391.334 876.364 392.188 875.414 393.288 874.737C394.388 874.061 395.677 873.722 397.153 873.722C398.629 873.722 399.917 874.061 401.017 874.737C402.117 875.414 402.972 876.364 403.58 877.587C404.188 878.81 404.492 880.238 404.492 881.872C404.492 883.498 404.188 884.919 403.58 886.136C402.972 887.352 402.117 888.299 401.017 888.975C399.917 889.652 398.629 889.99 397.153 889.99ZM397.163 887.417C398.12 887.417 398.912 887.164 399.541 886.659C400.17 886.153 400.634 885.48 400.935 884.639C401.243 883.799 401.396 882.873 401.396 881.861C401.396 880.857 401.243 879.934 400.935 879.094C400.634 878.246 400.17 877.566 399.541 877.054C398.912 876.541 398.12 876.285 397.163 876.285C396.199 876.285 395.4 876.541 394.764 877.054C394.135 877.566 393.667 878.246 393.36 879.094C393.059 879.934 392.909 880.857 392.909 881.861C392.909 882.873 393.059 883.799 393.36 884.639C393.667 885.48 394.135 886.153 394.764 886.659C395.4 887.164 396.199 887.417 397.163 887.417ZM418.617 880.324V889.672H415.553V873.927H418.494V876.49H418.689C419.051 875.656 419.619 874.987 420.391 874.481C421.17 873.975 422.151 873.722 423.333 873.722C424.406 873.722 425.345 873.948 426.152 874.399C426.958 874.843 427.583 875.506 428.028 876.388C428.472 877.269 428.694 878.359 428.694 879.657V889.672H425.629V880.026C425.629 878.885 425.332 877.993 424.737 877.351C424.143 876.702 423.326 876.377 422.287 876.377C421.576 876.377 420.944 876.531 420.391 876.839C419.844 877.146 419.41 877.597 419.089 878.192C418.775 878.779 418.617 879.49 418.617 880.324ZM439.59 889.99C438.039 889.99 436.703 889.659 435.582 888.996C434.468 888.326 433.607 887.386 432.999 886.177C432.398 884.96 432.097 883.536 432.097 881.902C432.097 880.29 432.398 878.868 432.999 877.638C433.607 876.408 434.455 875.448 435.541 874.758C436.635 874.067 437.913 873.722 439.375 873.722C440.263 873.722 441.125 873.869 441.958 874.163C442.792 874.457 443.54 874.918 444.203 875.547C444.866 876.176 445.389 876.992 445.771 877.997C446.154 878.995 446.346 880.208 446.346 881.636V882.722H433.829V880.426H443.342C443.342 879.62 443.178 878.906 442.85 878.284C442.522 877.655 442.061 877.16 441.466 876.798C440.878 876.435 440.188 876.254 439.396 876.254C438.535 876.254 437.783 876.466 437.14 876.89C436.505 877.307 436.013 877.853 435.664 878.53C435.323 879.2 435.152 879.927 435.152 880.713V882.507C435.152 883.56 435.336 884.455 435.705 885.193C436.081 885.931 436.604 886.495 437.274 886.884C437.943 887.267 438.726 887.458 439.621 887.458C440.202 887.458 440.732 887.376 441.21 887.212C441.688 887.041 442.102 886.789 442.45 886.454C442.799 886.119 443.065 885.705 443.25 885.213L446.151 885.736C445.918 886.59 445.502 887.339 444.9 887.981C444.306 888.617 443.557 889.112 442.655 889.467C441.76 889.816 440.738 889.99 439.59 889.99ZM451.799 873.927L455.274 880.057L458.78 873.927H462.132L457.221 881.8L462.173 889.672H458.821L455.274 883.788L451.737 889.672H448.375L453.275 881.8L448.437 873.927H451.799ZM472.628 873.927V876.388H464.028V873.927H472.628ZM466.334 870.155H469.399V885.049C469.399 885.644 469.488 886.091 469.666 886.392C469.843 886.686 470.072 886.888 470.353 886.997C470.64 887.099 470.951 887.151 471.285 887.151C471.531 887.151 471.747 887.134 471.931 887.099C472.116 887.065 472.259 887.038 472.362 887.017L472.915 889.549C472.738 889.618 472.485 889.686 472.157 889.754C471.829 889.83 471.419 889.871 470.927 889.877C470.12 889.891 469.369 889.748 468.671 889.447C467.974 889.146 467.411 888.681 466.98 888.053C466.55 887.424 466.334 886.635 466.334 885.685V870.155ZM486.723 868.679V889.672H483.658V868.679H486.723ZM497.632 889.99C496.081 889.99 494.745 889.659 493.624 888.996C492.51 888.326 491.649 887.386 491.041 886.177C490.44 884.96 490.139 883.536 490.139 881.902C490.139 880.29 490.44 878.868 491.041 877.638C491.649 876.408 492.497 875.448 493.583 874.758C494.677 874.067 495.954 873.722 497.417 873.722C498.305 873.722 499.166 873.869 500 874.163C500.834 874.457 501.582 874.918 502.245 875.547C502.908 876.176 503.431 876.992 503.813 877.997C504.196 878.995 504.387 880.208 504.387 881.636V882.722H491.871V880.426H501.384C501.384 879.62 501.22 878.906 500.892 878.284C500.564 877.655 500.103 877.16 499.508 876.798C498.92 876.435 498.23 876.254 497.437 876.254C496.576 876.254 495.825 876.466 495.182 876.89C494.547 877.307 494.055 877.853 493.706 878.53C493.364 879.2 493.194 879.927 493.194 880.713V882.507C493.194 883.56 493.378 884.455 493.747 885.193C494.123 885.931 494.646 886.495 495.315 886.884C495.985 887.267 496.768 887.458 497.663 887.458C498.244 887.458 498.773 887.376 499.252 887.212C499.73 887.041 500.144 886.789 500.492 886.454C500.841 886.119 501.107 885.705 501.292 885.213L504.193 885.736C503.96 886.59 503.543 887.339 502.942 887.981C502.347 888.617 501.599 889.112 500.697 889.467C499.802 889.816 498.78 889.99 497.632 889.99ZM520.806 873.927L515.097 889.672H511.816L506.097 873.927H509.387L513.375 886.044H513.539L517.516 873.927H520.806ZM529.937 889.99C528.386 889.99 527.05 889.659 525.929 888.996C524.815 888.326 523.954 887.386 523.346 886.177C522.745 884.96 522.444 883.536 522.444 881.902C522.444 880.29 522.745 878.868 523.346 877.638C523.954 876.408 524.801 875.448 525.888 874.758C526.981 874.067 528.259 873.722 529.722 873.722C530.61 873.722 531.471 873.869 532.305 874.163C533.139 874.457 533.887 874.918 534.55 875.547C535.213 876.176 535.736 876.992 536.118 877.997C536.501 878.995 536.692 880.208 536.692 881.636V882.722H524.176V880.426H533.689C533.689 879.62 533.525 878.906 533.197 878.284C532.869 877.655 532.407 877.16 531.813 876.798C531.225 876.435 530.535 876.254 529.742 876.254C528.881 876.254 528.13 876.466 527.487 876.89C526.852 877.307 526.36 877.853 526.011 878.53C525.669 879.2 525.499 879.927 525.499 880.713V882.507C525.499 883.56 525.683 884.455 526.052 885.193C526.428 885.931 526.951 886.495 527.62 886.884C528.29 887.267 529.073 887.458 529.968 887.458C530.549 887.458 531.078 887.376 531.557 887.212C532.035 887.041 532.448 886.789 532.797 886.454C533.146 886.119 533.412 885.705 533.597 885.213L536.497 885.736C536.265 886.59 535.848 887.339 535.247 887.981C534.652 888.617 533.904 889.112 533.002 889.467C532.107 889.816 531.085 889.99 529.937 889.99ZM543.158 868.679V889.672H540.093V868.679H543.158Z" fill="#FEFEFE" fill-opacity="0.3"/>
<g opacity="0.8">
<path d="M472.703 809.407C471.108 809.407 469.681 809.108 468.421 808.51C467.162 807.904 466.161 807.075 465.42 806.023C464.686 804.97 464.295 803.766 464.248 802.411H468.553C468.633 803.416 469.067 804.237 469.856 804.875C470.646 805.504 471.594 805.819 472.703 805.819C473.572 805.819 474.345 805.62 475.023 805.221C475.7 804.823 476.235 804.269 476.625 803.559C477.016 802.85 477.207 802.04 477.199 801.131C477.207 800.207 477.012 799.385 476.613 798.668C476.215 797.95 475.668 797.388 474.975 796.982C474.281 796.567 473.484 796.36 472.583 796.36C471.85 796.352 471.128 796.487 470.418 796.766C469.709 797.045 469.147 797.412 468.732 797.867L464.726 797.209L466.006 784.58H480.213V788.287H469.677L468.971 794.781H469.115C469.569 794.247 470.211 793.804 471.04 793.454C471.869 793.095 472.778 792.916 473.767 792.916C475.25 792.916 476.573 793.266 477.737 793.968C478.901 794.662 479.818 795.618 480.488 796.838C481.158 798.058 481.493 799.453 481.493 801.024C481.493 802.642 481.118 804.085 480.368 805.353C479.627 806.613 478.594 807.605 477.271 808.331C475.955 809.048 474.433 809.407 472.703 809.407ZM494.205 809.407C492.427 809.407 490.849 809.108 489.469 808.51C488.098 807.912 487.022 807.095 486.24 806.059C485.467 805.014 485.084 803.83 485.092 802.507C485.084 801.478 485.307 800.533 485.762 799.672C486.216 798.811 486.83 798.094 487.604 797.52C488.385 796.938 489.254 796.567 490.211 796.408V796.24C488.951 795.961 487.931 795.319 487.149 794.315C486.376 793.302 485.993 792.134 486.001 790.811C485.993 789.551 486.344 788.427 487.054 787.438C487.763 786.45 488.736 785.672 489.972 785.106C491.207 784.532 492.618 784.245 494.205 784.245C495.776 784.245 497.175 784.532 498.403 785.106C499.638 785.672 500.611 786.45 501.321 787.438C502.038 788.427 502.397 789.551 502.397 790.811C502.397 792.134 502.002 793.302 501.213 794.315C500.432 795.319 499.423 795.961 498.187 796.24V796.408C499.144 796.567 500.005 796.938 500.771 797.52C501.544 798.094 502.158 798.811 502.612 799.672C503.075 800.533 503.306 801.478 503.306 802.507C503.306 803.83 502.915 805.014 502.134 806.059C501.353 807.095 500.276 807.912 498.905 808.51C497.542 809.108 495.975 809.407 494.205 809.407ZM494.205 805.987C495.122 805.987 495.919 805.831 496.597 805.52C497.275 805.202 497.801 804.755 498.175 804.181C498.55 803.607 498.742 802.945 498.75 802.196C498.742 801.414 498.538 800.725 498.14 800.127C497.749 799.521 497.211 799.047 496.525 798.704C495.847 798.361 495.074 798.189 494.205 798.189C493.328 798.189 492.547 798.361 491.861 798.704C491.175 799.047 490.633 799.521 490.235 800.127C489.844 800.725 489.653 801.414 489.661 802.196C489.653 802.945 489.836 803.607 490.211 804.181C490.585 804.747 491.112 805.19 491.789 805.508C492.475 805.827 493.28 805.987 494.205 805.987ZM494.205 794.829C494.955 794.829 495.616 794.677 496.19 794.375C496.772 794.072 497.231 793.649 497.566 793.107C497.9 792.565 498.072 791.939 498.08 791.229C498.072 790.528 497.904 789.914 497.578 789.388C497.251 788.853 496.796 788.443 496.214 788.156C495.632 787.861 494.962 787.713 494.205 787.713C493.432 787.713 492.75 787.861 492.16 788.156C491.578 788.443 491.124 788.853 490.797 789.388C490.478 789.914 490.322 790.528 490.33 791.229C490.322 791.939 490.482 792.565 490.809 793.107C491.144 793.641 491.602 794.064 492.184 794.375C492.774 794.677 493.448 794.829 494.205 794.829ZM516.291 809.539C514.321 809.539 512.631 809.04 511.22 808.044C509.817 807.039 508.736 805.592 507.979 803.703C507.23 801.805 506.855 799.521 506.855 796.85C506.863 794.179 507.241 791.907 507.991 790.033C508.748 788.152 509.829 786.717 511.232 785.728C512.643 784.739 514.329 784.245 516.291 784.245C518.252 784.245 519.938 784.739 521.349 785.728C522.76 786.717 523.841 788.152 524.59 790.033C525.348 791.915 525.726 794.187 525.726 796.85C525.726 799.529 525.348 801.817 524.59 803.715C523.841 805.604 522.76 807.047 521.349 808.044C519.946 809.04 518.26 809.539 516.291 809.539ZM516.291 805.795C517.821 805.795 519.029 805.042 519.914 803.535C520.807 802.02 521.254 799.792 521.254 796.85C521.254 794.905 521.05 793.27 520.644 791.947C520.237 790.623 519.663 789.627 518.922 788.957C518.18 788.279 517.303 787.941 516.291 787.941C514.768 787.941 513.564 788.698 512.679 790.213C511.794 791.72 511.347 793.932 511.339 796.85C511.331 798.803 511.527 800.446 511.925 801.777C512.332 803.109 512.906 804.113 513.648 804.791C514.389 805.461 515.27 805.795 516.291 805.795ZM538.753 809.539C536.783 809.539 535.093 809.04 533.682 808.044C532.279 807.039 531.199 805.592 530.441 803.703C529.692 801.805 529.317 799.521 529.317 796.85C529.325 794.179 529.704 791.907 530.453 790.033C531.211 788.152 532.291 786.717 533.694 785.728C535.105 784.739 536.791 784.245 538.753 784.245C540.714 784.245 542.4 784.739 543.811 785.728C545.223 786.717 546.303 788.152 547.052 790.033C547.81 791.915 548.188 794.187 548.188 796.85C548.188 799.529 547.81 801.817 547.052 803.715C546.303 805.604 545.223 807.047 543.811 808.044C542.408 809.04 540.722 809.539 538.753 809.539ZM538.753 805.795C540.283 805.795 541.491 805.042 542.376 803.535C543.269 802.02 543.716 799.792 543.716 796.85C543.716 794.905 543.512 793.27 543.106 791.947C542.699 790.623 542.125 789.627 541.384 788.957C540.642 788.279 539.765 787.941 538.753 787.941C537.23 787.941 536.026 788.698 535.141 790.213C534.256 791.72 533.81 793.932 533.802 796.85C533.794 798.803 533.989 800.446 534.388 801.777C534.794 803.109 535.368 804.113 536.11 804.791C536.851 805.461 537.732 805.795 538.753 805.795Z" fill="#685613"/>
<path d="M562.208 783.432L554.315 812.756H550.523L558.416 783.432H562.208ZM573.892 809.407C572.72 809.399 571.575 809.196 570.459 808.797C569.343 808.391 568.339 807.733 567.446 806.824C566.553 805.907 565.843 804.691 565.317 803.176C564.791 801.654 564.532 799.768 564.54 797.52C564.54 795.423 564.763 793.553 565.209 791.911C565.656 790.269 566.298 788.881 567.135 787.749C567.972 786.609 568.98 785.74 570.16 785.142C571.348 784.544 572.676 784.245 574.143 784.245C575.681 784.245 577.045 784.548 578.233 785.154C579.429 785.76 580.393 786.589 581.127 787.642C581.86 788.686 582.315 789.866 582.49 791.181H578.125C577.902 790.241 577.443 789.491 576.75 788.933C576.064 788.367 575.195 788.084 574.143 788.084C572.445 788.084 571.137 788.822 570.22 790.296C569.311 791.771 568.853 793.797 568.845 796.372H569.012C569.403 795.67 569.909 795.068 570.531 794.566C571.153 794.064 571.855 793.677 572.636 793.406C573.425 793.127 574.258 792.987 575.135 792.987C576.57 792.987 577.858 793.33 578.998 794.016C580.146 794.701 581.055 795.646 581.725 796.85C582.394 798.046 582.725 799.417 582.717 800.964C582.725 802.574 582.359 804.022 581.617 805.305C580.876 806.581 579.843 807.585 578.52 808.319C577.196 809.052 575.654 809.415 573.892 809.407ZM573.868 805.819C574.737 805.819 575.514 805.608 576.2 805.186C576.885 804.763 577.427 804.193 577.826 803.475C578.225 802.758 578.42 801.953 578.412 801.06C578.42 800.183 578.229 799.389 577.838 798.68C577.455 797.97 576.925 797.408 576.248 796.994C575.57 796.579 574.796 796.372 573.927 796.372C573.282 796.372 572.68 796.495 572.122 796.742C571.564 796.99 571.077 797.332 570.663 797.771C570.248 798.201 569.921 798.704 569.682 799.278C569.451 799.844 569.331 800.45 569.323 801.096C569.331 801.949 569.53 802.734 569.921 803.451C570.312 804.169 570.85 804.743 571.536 805.174C572.221 805.604 572.999 805.819 573.868 805.819ZM595.813 809.539C593.843 809.539 592.153 809.04 590.742 808.044C589.339 807.039 588.258 805.592 587.501 803.703C586.752 801.805 586.377 799.521 586.377 796.85C586.385 794.179 586.764 791.907 587.513 790.033C588.27 788.152 589.351 786.717 590.754 785.728C592.165 784.739 593.851 784.245 595.813 784.245C597.774 784.245 599.46 784.739 600.871 785.728C602.282 786.717 603.363 788.152 604.112 790.033C604.87 791.915 605.248 794.187 605.248 796.85C605.248 799.529 604.87 801.817 604.112 803.715C603.363 805.604 602.282 807.047 600.871 808.044C599.468 809.04 597.782 809.539 595.813 809.539ZM595.813 805.795C597.343 805.795 598.551 805.042 599.436 803.535C600.329 802.02 600.776 799.792 600.776 796.85C600.776 794.905 600.572 793.27 600.166 791.947C599.759 790.623 599.185 789.627 598.444 788.957C597.702 788.279 596.825 787.941 595.813 787.941C594.29 787.941 593.086 788.698 592.201 790.213C591.316 791.72 590.869 793.932 590.862 796.85C590.854 798.803 591.049 800.446 591.448 801.777C591.854 803.109 592.428 804.113 593.17 804.791C593.911 805.461 594.792 805.795 595.813 805.795ZM618.275 809.539C616.306 809.539 614.615 809.04 613.204 808.044C611.801 807.039 610.721 805.592 609.963 803.703C609.214 801.805 608.839 799.521 608.839 796.85C608.847 794.179 609.226 791.907 609.975 790.033C610.733 788.152 611.813 786.717 613.216 785.728C614.627 784.739 616.313 784.245 618.275 784.245C620.236 784.245 621.922 784.739 623.333 785.728C624.745 786.717 625.825 788.152 626.574 790.033C627.332 791.915 627.711 794.187 627.711 796.85C627.711 799.529 627.332 801.817 626.574 803.715C625.825 805.604 624.745 807.047 623.333 808.044C621.93 809.04 620.244 809.539 618.275 809.539ZM618.275 805.795C619.806 805.795 621.013 805.042 621.898 803.535C622.791 802.02 623.238 799.792 623.238 796.85C623.238 794.905 623.035 793.27 622.628 791.947C622.221 790.623 621.647 789.627 620.906 788.957C620.164 788.279 619.287 787.941 618.275 787.941C616.752 787.941 615.548 788.698 614.663 790.213C613.778 791.72 613.332 793.932 613.324 796.85C613.316 798.803 613.511 800.446 613.91 801.777C614.316 803.109 614.89 804.113 615.632 804.791C616.373 805.461 617.254 805.795 618.275 805.795ZM640.737 809.539C638.768 809.539 637.077 809.04 635.666 808.044C634.263 807.039 633.183 805.592 632.425 803.703C631.676 801.805 631.301 799.521 631.301 796.85C631.309 794.179 631.688 791.907 632.437 790.033C633.195 788.152 634.275 786.717 635.678 785.728C637.089 784.739 638.776 784.245 640.737 784.245C642.698 784.245 644.384 784.739 645.796 785.728C647.207 786.717 648.287 788.152 649.037 790.033C649.794 791.915 650.173 794.187 650.173 796.85C650.173 799.529 649.794 801.817 649.037 803.715C648.287 805.604 647.207 807.047 645.796 808.044C644.392 809.04 642.706 809.539 640.737 809.539ZM640.737 805.795C642.268 805.795 643.476 805.042 644.361 803.535C645.254 802.02 645.7 799.792 645.7 796.85C645.7 794.905 645.497 793.27 645.09 791.947C644.683 790.623 644.109 789.627 643.368 788.957C642.626 788.279 641.749 787.941 640.737 787.941C639.214 787.941 638.01 788.698 637.125 790.213C636.24 791.72 635.794 793.932 635.786 796.85C635.778 798.803 635.973 800.446 636.372 801.777C636.778 803.109 637.353 804.113 638.094 804.791C638.835 805.461 639.716 805.795 640.737 805.795Z" fill="#8D751C" fill-opacity="0.5"/>
</g>
<defs>
<filter id="filter0_bdd_114_27" x="-1.14026" y="30.8596" width="1220.45" height="1202.04" filterUnits="userSpaceOnUse" color-interpolation-filters="sRGB">
<feFlood flood-opacity="0" result="BackgroundImageFix"/>
<feGaussianBlur in="BackgroundImageFix" stdDeviation="70.9619"/>
<feComposite in2="SourceAlpha" operator="in" result="effect1_backgroundBlur_114_27"/>
<feColorMatrix in="SourceAlpha" type="matrix" values="0 0 0 0 0 0 0 0 0 0 0 0 0 0 0 0 0 0 127 0" result="hardAlpha"/>
<feOffset dx="22.391" dy="22.391"/>
<feGaussianBlur stdDeviation="46.6479"/>
<feComposite in2="hardAlpha" operator="out"/>
<feColorMatrix type="matrix" values="0 0 0 0 0 0 0 0 0 0 0 0 0 0 0 0 0 0 1 0"/>
<feBlend mode="normal" in2="effect1_backgroundBlur_114_27" result="effect2_dropShadow_114_27"/>
<feColorMatrix in="SourceAlpha" type="matrix" values="0 0 0 0 0 0 0 0 0 0 0 0 0 0 0 0 0 0 127 0" result="hardAlpha"/>
<feOffset dx="67.1729" dy="67.1729"/>
<feGaussianBlur stdDeviation="103.958"/>
<feColorMatrix type="matrix" values="0 0 0 0 0 0 0 0 0 0 0 0 0 0 0 0 0 0 0.5 0"/>
<feBlend mode="normal" in2="effect2_dropShadow_114_27" result="effect3_dropShadow_114_27"/>
<feBlend mode="normal" in="SourceGraphic" in2="effect3_dropShadow_114_27" result="shape"/>
</filter>
<filter id="filter1_bdd_114_27" x="-1.14026" y="-60.1404" width="1087.28" height="457.043" filterUnits="userSpaceOnUse" color-interpolation-filters="sRGB">
<feFlood flood-opacity="0" result="BackgroundImageFix"/>
<feGaussianBlur in="BackgroundImageFix" stdDeviation="70.9619"/>
<feComposite in2="SourceAlpha" operator="in" result="effect1_backgroundBlur_114_27"/>
<feColorMatrix in="SourceAlpha" type="matrix" values="0 0 0 0 0 0 0 0 0 0 0 0 0 0 0 0 0 0 127 0" result="hardAlpha"/>
<feOffset dx="12.0274" dy="12.0274"/>
<feGaussianBlur stdDeviation="46.6479"/>
<feComposite in2="hardAlpha" operator="out"/>
<feColorMatrix type="matrix" values="0 0 0 0 0 0 0 0 0 0 0 0 0 0 0 0 0 0 0.5 0"/>
<feBlend mode="normal" in2="effect1_backgroundBlur_114_27" result="effect2_dropShadow_114_27"/>
<feColorMatrix in="SourceAlpha" type="matrix" values="0 0 0 0 0 0 0 0 0 0 0 0 0 0 0 0 0 0 127 0" result="hardAlpha"/>
<feOffset dx="24.0549" dy="24.0549"/>
<feGaussianBlur stdDeviation="12.0274"/>
<feColorMatrix type="matrix" values="0 0 0 0 0 0 0 0 0 0 0 0 0 0 0 0 0 0 0.1 0"/>
<feBlend mode="normal" in2="effect2_dropShadow_114_27" result="effect3_dropShadow_114_27"/>
<feBlend mode="normal" in="SourceGraphic" in2="effect3_dropShadow_114_27" result="shape"/>
</filter>
<filter id="filter2_b_114_27" x="-526.645" y="-353.103" width="2138.48" height="1534.7" filterUnits="userSpaceOnUse" color-interpolation-filters="sRGB">
<feFlood flood-opacity="0" result="BackgroundImageFix"/>
<feGaussianBlur in="BackgroundImageFix" stdDeviation="360.823"/>
<feComposite in2="SourceAlpha" operator="in" result="effect1_backgroundBlur_114_27"/>
<feBlend mode="normal" in="SourceGraphic" in2="effect1_backgroundBlur_114_27" result="shape"/>
</filter>
<filter id="filter3_b_114_27" x="-526.645" y="-160.662" width="2138.48" height="1534.7" filterUnits="userSpaceOnUse" color-interpolation-filters="sRGB">
<feFlood flood-opacity="0" result="BackgroundImageFix"/>
<feGaussianBlur in="BackgroundImageFix" stdDeviation="360.823"/>
<feComposite in2="SourceAlpha" operator="in" result="effect1_backgroundBlur_114_27"/>
<feBlend mode="normal" in="SourceGraphic" in2="effect1_backgroundBlur_114_27" result="shape"/>
</filter>
<filter id="filter4_b_114_27" x="-526.646" y="29.3797" width="2138.48" height="1534.7" filterUnits="userSpaceOnUse" color-interpolation-filters="sRGB">
<feFlood flood-opacity="0" result="BackgroundImageFix"/>
<feGaussianBlur in="BackgroundImageFix" stdDeviation="360.823"/>
<feComposite in2="SourceAlpha" operator="in" result="effect1_backgroundBlur_114_27"/>
<feBlend mode="normal" in="SourceGraphic" in2="effect1_backgroundBlur_114_27" result="shape"/>
</filter>
<linearGradient id="paint0_linear_114_27" x1="296.483" y1="236.667" x2="379.891" y2="-4.78133" gradientUnits="userSpaceOnUse">
<stop stop-color="#FF00FF"/>
<stop offset="0.46" stop-color="#9116F9"/>
<stop offset="1" stop-color="#3199FF"/>
</linearGradient>
<linearGradient id="paint1_linear_114_27" x1="519.315" y1="190.231" x2="566.388" y2="52.6595" gradientUnits="userSpaceOnUse">
<stop stop-color="#FF00FF"/>
<stop offset="0.46" stop-color="#9116F9"/>
<stop offset="1" stop-color="#3199FF"/>
</linearGradient>
<linearGradient id="paint2_linear_114_27" x1="631.023" y1="416.887" x2="277.523" y2="416.887" gradientUnits="userSpaceOnUse">
<stop stop-color="#52D060"/>
<stop offset="0.395833" stop-color="#EDB13E"/>
<stop offset="1" stop-color="#FF7501"/>
</linearGradient>
<linearGradient id="paint3_linear_114_27" x1="542.594" y1="570.607" x2="542.594" y2="642.772" gradientUnits="userSpaceOnUse">
<stop stop-color="#967CFD"/>
<stop offset="1" stop-color="#3177FF"/>
</linearGradient>
<linearGradient id="paint4_linear_114_27" x1="581.614" y1="832.887" x2="578.479" y2="760.932" gradientUnits="userSpaceOnUse">
<stop stop-color="#F3B14E"/>
<stop offset="1" stop-color="#FFCE51"/>
</linearGradient>
<linearGradient id="paint5_linear_114_27" x1="243.053" y1="770.476" x2="243.053" y2="823.476" gradientUnits="userSpaceOnUse">
<stop offset="0.125" stop-color="#FDFDFD" stop-opacity="0.97"/>
<stop offset="1" stop-color="#FFDD64"/>
</linearGradient>
<linearGradient id="paint6_linear_114_27" x1="844.925" y1="770.476" x2="844.925" y2="823.476" gradientUnits="userSpaceOnUse">
<stop offset="0.125" stop-color="#FDFDFD" stop-opacity="0.97"/>
<stop offset="1" stop-color="#FFDD64"/>
</linearGradient>
</defs>
</svg>
