<svg width="403" height="432" viewBox="0 0 403 432" fill="none" xmlns="http://www.w3.org/2000/svg">
<rect x="0.333374" width="402.667" height="432" rx="24" fill="white"/>
<path d="M30.6374 42.112C29.5814 42.112 28.6107 41.8667 27.7254 41.376C26.8507 40.8853 26.152 40.2027 25.6294 39.328C25.1174 38.4427 24.8614 37.4507 24.8614 36.352C24.8614 35.2533 25.1174 34.2667 25.6294 33.392C26.152 32.5173 26.8507 31.8347 27.7254 31.344C28.6107 30.8533 29.5814 30.608 30.6374 30.608C31.6934 30.608 32.6587 30.8533 33.5334 31.344C34.4187 31.8347 35.112 32.5173 35.6134 33.392C36.1254 34.2667 36.3814 35.2533 36.3814 36.352C36.3814 37.4507 36.1254 38.4427 35.6134 39.328C35.1014 40.2027 34.408 40.8853 33.5334 41.376C32.6587 41.8667 31.6934 42.112 30.6374 42.112ZM30.6374 39.616C31.5334 39.616 32.248 39.3173 32.7814 38.72C33.3254 38.1227 33.5974 37.3333 33.5974 36.352C33.5974 35.36 33.3254 34.5707 32.7814 33.984C32.248 33.3867 31.5334 33.088 30.6374 33.088C29.7307 33.088 29.0054 33.3813 28.4614 33.968C27.928 34.5547 27.6614 35.3493 27.6614 36.352C27.6614 37.344 27.928 38.1387 28.4614 38.736C29.0054 39.3227 29.7307 39.616 30.6374 39.616ZM41.9195 39.44L43.8555 33.072H46.7675L43.5995 42H40.2235L37.0555 33.072H39.9835L41.9195 39.44ZM56.3351 37.392C56.3351 37.648 56.3191 37.9147 56.2871 38.192H50.0951C50.1378 38.7467 50.3138 39.1733 50.6231 39.472C50.9431 39.76 51.3325 39.904 51.7911 39.904C52.4738 39.904 52.9485 39.616 53.2151 39.04H56.1271C55.9778 39.6267 55.7058 40.1547 55.3111 40.624C54.9271 41.0933 54.4418 41.4613 53.8551 41.728C53.2685 41.9947 52.6125 42.128 51.8871 42.128C51.0125 42.128 50.2338 41.9413 49.5511 41.568C48.8685 41.1947 48.3351 40.6613 47.9511 39.968C47.5671 39.2747 47.3751 38.464 47.3751 37.536C47.3751 36.608 47.5618 35.7973 47.9351 35.104C48.3191 34.4107 48.8525 33.8773 49.5351 33.504C50.2178 33.1307 51.0018 32.944 51.8871 32.944C52.7511 32.944 53.5191 33.1253 54.1911 33.488C54.8631 33.8507 55.3858 34.368 55.7591 35.04C56.1431 35.712 56.3351 36.496 56.3351 37.392ZM53.5351 36.672C53.5351 36.2027 53.3751 35.8293 53.0551 35.552C52.7351 35.2747 52.3351 35.136 51.8551 35.136C51.3965 35.136 51.0071 35.2693 50.6871 35.536C50.3778 35.8027 50.1858 36.1813 50.1111 36.672H53.5351ZM60.5145 34.56C60.8345 34.0693 61.2345 33.6853 61.7145 33.408C62.1945 33.12 62.7278 32.976 63.3145 32.976V35.872H62.5625C61.8798 35.872 61.3678 36.0213 61.0265 36.32C60.6852 36.608 60.5145 37.12 60.5145 37.856V42H57.7785V33.072H60.5145V34.56ZM64.0782 37.52C64.0782 36.6027 64.2489 35.7973 64.5902 35.104C64.9422 34.4107 65.4169 33.8773 66.0142 33.504C66.6116 33.1307 67.2782 32.944 68.0142 32.944C68.6009 32.944 69.1342 33.0667 69.6142 33.312C70.1049 33.5573 70.4889 33.888 70.7662 34.304V30.16H73.5022V42H70.7662V40.72C70.5102 41.1467 70.1422 41.488 69.6622 41.744C69.1929 42 68.6436 42.128 68.0142 42.128C67.2782 42.128 66.6116 41.9413 66.0142 41.568C65.4169 41.184 64.9422 40.6453 64.5902 39.952C64.2489 39.248 64.0782 38.4373 64.0782 37.52ZM70.7662 37.536C70.7662 36.8533 70.5742 36.3147 70.1902 35.92C69.8169 35.5253 69.3582 35.328 68.8142 35.328C68.2702 35.328 67.8062 35.5253 67.4222 35.92C67.0489 36.304 66.8622 36.8373 66.8622 37.52C66.8622 38.2027 67.0489 38.7467 67.4222 39.152C67.8062 39.5467 68.2702 39.744 68.8142 39.744C69.3582 39.744 69.8169 39.5467 70.1902 39.152C70.5742 38.7573 70.7662 38.2187 70.7662 37.536ZM84.2976 33.072V42H81.5616V40.784C81.2843 41.1787 80.9056 41.4987 80.4256 41.744C79.9563 41.9787 79.4336 42.096 78.8576 42.096C78.175 42.096 77.5723 41.9467 77.0496 41.648C76.527 41.3387 76.1216 40.896 75.8336 40.32C75.5456 39.744 75.4016 39.0667 75.4016 38.288V33.072H78.1216V37.92C78.1216 38.5173 78.2763 38.9813 78.5856 39.312C78.895 39.6427 79.311 39.808 79.8336 39.808C80.367 39.808 80.7883 39.6427 81.0976 39.312C81.407 38.9813 81.5616 38.5173 81.5616 37.92V33.072H84.2976ZM94.6789 37.392C94.6789 37.648 94.6629 37.9147 94.6309 38.192H88.4389C88.4815 38.7467 88.6575 39.1733 88.9669 39.472C89.2869 39.76 89.6762 39.904 90.1349 39.904C90.8175 39.904 91.2922 39.616 91.5589 39.04H94.4709C94.3215 39.6267 94.0495 40.1547 93.6549 40.624C93.2709 41.0933 92.7855 41.4613 92.1989 41.728C91.6122 41.9947 90.9562 42.128 90.2309 42.128C89.3562 42.128 88.5775 41.9413 87.8949 41.568C87.2122 41.1947 86.6789 40.6613 86.2949 39.968C85.9109 39.2747 85.7189 38.464 85.7189 37.536C85.7189 36.608 85.9055 35.7973 86.2789 35.104C86.6629 34.4107 87.1962 33.8773 87.8789 33.504C88.5615 33.1307 89.3455 32.944 90.2309 32.944C91.0949 32.944 91.8629 33.1253 92.5349 33.488C93.2069 33.8507 93.7295 34.368 94.1029 35.04C94.4869 35.712 94.6789 36.496 94.6789 37.392ZM91.8789 36.672C91.8789 36.2027 91.7189 35.8293 91.3989 35.552C91.0789 35.2747 90.6789 35.136 90.1989 35.136C89.7402 35.136 89.3509 35.2693 89.0309 35.536C88.7215 35.8027 88.5295 36.1813 88.4549 36.672H91.8789ZM112.329 33.072L109.913 42H106.889L105.481 36.208L104.025 42H101.017L98.5849 33.072H101.321L102.585 39.456L104.089 33.072H106.985L108.505 39.424L109.753 33.072H112.329ZM117.436 42.128C116.562 42.128 115.772 41.9413 115.068 41.568C114.375 41.1947 113.826 40.6613 113.42 39.968C113.026 39.2747 112.828 38.464 112.828 37.536C112.828 36.6187 113.031 35.8133 113.436 35.12C113.842 34.416 114.396 33.8773 115.1 33.504C115.804 33.1307 116.594 32.944 117.468 32.944C118.343 32.944 119.132 33.1307 119.836 33.504C120.54 33.8773 121.095 34.416 121.5 35.12C121.906 35.8133 122.108 36.6187 122.108 37.536C122.108 38.4533 121.9 39.264 121.484 39.968C121.079 40.6613 120.519 41.1947 119.804 41.568C119.1 41.9413 118.311 42.128 117.436 42.128ZM117.436 39.76C117.959 39.76 118.402 39.568 118.764 39.184C119.138 38.8 119.324 38.2507 119.324 37.536C119.324 36.8213 119.143 36.272 118.78 35.888C118.428 35.504 117.991 35.312 117.468 35.312C116.935 35.312 116.492 35.504 116.14 35.888C115.788 36.2613 115.612 36.8107 115.612 37.536C115.612 38.2507 115.783 38.8 116.124 39.184C116.476 39.568 116.914 39.76 117.436 39.76ZM126.296 34.56C126.616 34.0693 127.016 33.6853 127.496 33.408C127.976 33.12 128.509 32.976 129.096 32.976V35.872H128.344C127.661 35.872 127.149 36.0213 126.808 36.32C126.466 36.608 126.296 37.12 126.296 37.856V42H123.56V33.072H126.296V34.56ZM135.859 42L133.139 38.256V42H130.403V30.16H133.139V36.704L135.843 33.072H139.219L135.507 37.552L139.251 42H135.859Z" fill="#212633"/>
<circle cx="61.3334" cy="136" r="32.8099" stroke="#F3F6FF" stroke-width="8"/>
<mask id="path-4-inside-1_101_181" fill="white">
<path d="M79.4214 163.483C80.6083 165.286 83.0485 165.801 84.716 164.43C89.7371 160.3 93.5941 154.898 95.8631 148.756C98.5854 141.387 98.8789 133.341 96.7007 125.793C94.5225 118.246 89.9869 111.593 83.757 106.808C78.5645 102.819 72.422 100.303 65.9728 99.4835C63.8309 99.2115 62.0404 100.947 61.9969 103.106C61.9534 105.265 63.6765 107.023 65.8096 107.356C70.5881 108.103 75.1259 110.037 78.9943 113.008C83.9009 116.777 87.4732 122.017 89.1887 127.961C90.9043 133.906 90.6731 140.243 88.529 146.047C86.8386 150.622 84.0292 154.677 80.3833 157.855C78.7557 159.273 78.2344 161.679 79.4214 163.483Z"/>
</mask>
<path d="M79.4214 163.483C80.6083 165.286 83.0485 165.801 84.716 164.43C89.7371 160.3 93.5941 154.898 95.8631 148.756C98.5854 141.387 98.8789 133.341 96.7007 125.793C94.5225 118.246 89.9869 111.593 83.757 106.808C78.5645 102.819 72.422 100.303 65.9728 99.4835C63.8309 99.2115 62.0404 100.947 61.9969 103.106C61.9534 105.265 63.6765 107.023 65.8096 107.356C70.5881 108.103 75.1259 110.037 78.9943 113.008C83.9009 116.777 87.4732 122.017 89.1887 127.961C90.9043 133.906 90.6731 140.243 88.529 146.047C86.8386 150.622 84.0292 154.677 80.3833 157.855C78.7557 159.273 78.2344 161.679 79.4214 163.483Z" stroke="#F93535" stroke-width="28" mask="url(#path-4-inside-1_101_181)"/>
<path d="M44.4912 133.616C44.5338 132.475 44.9072 131.595 45.6112 130.976C46.3152 130.357 47.2698 130.048 48.4752 130.048C49.2752 130.048 49.9578 130.187 50.5232 130.464C51.0992 130.741 51.5312 131.12 51.8192 131.6C52.1178 132.08 52.2672 132.619 52.2672 133.216C52.2672 133.92 52.0912 134.496 51.7392 134.944C51.3872 135.381 50.9765 135.68 50.5072 135.84V135.904C51.1152 136.107 51.5952 136.443 51.9472 136.912C52.2992 137.381 52.4752 137.984 52.4752 138.72C52.4752 139.381 52.3205 139.968 52.0112 140.48C51.7125 140.981 51.2698 141.376 50.6832 141.664C50.1072 141.952 49.4192 142.096 48.6192 142.096C47.3392 142.096 46.3152 141.781 45.5472 141.152C44.7898 140.523 44.3898 139.573 44.3472 138.304H47.0032C47.0138 138.773 47.1472 139.147 47.4032 139.424C47.6592 139.691 48.0325 139.824 48.5232 139.824C48.9392 139.824 49.2592 139.707 49.4832 139.472C49.7178 139.227 49.8352 138.907 49.8352 138.512C49.8352 138 49.6698 137.632 49.3392 137.408C49.0192 137.173 48.5018 137.056 47.7872 137.056H47.2752V134.832H47.7872C48.3312 134.832 48.7685 134.741 49.0992 134.56C49.4405 134.368 49.6112 134.032 49.6112 133.552C49.6112 133.168 49.5045 132.869 49.2912 132.656C49.0778 132.443 48.7845 132.336 48.4112 132.336C48.0058 132.336 47.7018 132.459 47.4992 132.704C47.3072 132.949 47.1952 133.253 47.1632 133.616H44.4912ZM56.0027 135.728C55 135.195 54.4987 134.357 54.4987 133.216C54.4987 132.64 54.648 132.117 54.9467 131.648C55.2453 131.168 55.6987 130.789 56.3067 130.512C56.9147 130.224 57.6613 130.08 58.5467 130.08C59.432 130.08 60.1733 130.224 60.7707 130.512C61.3787 130.789 61.832 131.168 62.1307 131.648C62.4293 132.117 62.5787 132.64 62.5787 133.216C62.5787 133.792 62.44 134.293 62.1627 134.72C61.896 135.147 61.5333 135.483 61.0747 135.728C61.6507 136.005 62.0933 136.389 62.4027 136.88C62.712 137.36 62.8667 137.925 62.8667 138.576C62.8667 139.333 62.6747 139.989 62.2907 140.544C61.9067 141.088 61.384 141.504 60.7227 141.792C60.072 142.08 59.3467 142.224 58.5467 142.224C57.7467 142.224 57.016 142.08 56.3547 141.792C55.704 141.504 55.1867 141.088 54.8027 140.544C54.4187 139.989 54.2267 139.333 54.2267 138.576C54.2267 137.915 54.3813 137.344 54.6907 136.864C55 136.373 55.4373 135.995 56.0027 135.728ZM59.9227 133.632C59.9227 133.195 59.7947 132.859 59.5387 132.624C59.2933 132.379 58.9627 132.256 58.5467 132.256C58.1307 132.256 57.7947 132.379 57.5387 132.624C57.2933 132.869 57.1707 133.211 57.1707 133.648C57.1707 134.064 57.2987 134.395 57.5547 134.64C57.8107 134.875 58.1413 134.992 58.5467 134.992C58.952 134.992 59.2827 134.869 59.5387 134.624C59.7947 134.379 59.9227 134.048 59.9227 133.632ZM58.5467 136.912C58.0453 136.912 57.64 137.051 57.3307 137.328C57.0213 137.595 56.8667 137.968 56.8667 138.448C56.8667 138.896 57.016 139.264 57.3147 139.552C57.624 139.84 58.0347 139.984 58.5467 139.984C59.0587 139.984 59.4587 139.84 59.7467 139.552C60.0453 139.264 60.1947 138.896 60.1947 138.448C60.1947 137.979 60.04 137.605 59.7307 137.328C59.432 137.051 59.0373 136.912 58.5467 136.912ZM64.2337 133.264C64.2337 132.4 64.479 131.733 64.9697 131.264C65.471 130.795 66.1163 130.56 66.9057 130.56C67.695 130.56 68.335 130.795 68.8257 131.264C69.3163 131.733 69.5617 132.4 69.5617 133.264C69.5617 134.128 69.3163 134.795 68.8257 135.264C68.335 135.733 67.695 135.968 66.9057 135.968C66.1163 135.968 65.471 135.733 64.9697 135.264C64.479 134.795 64.2337 134.128 64.2337 133.264ZM75.0977 130.736L68.9377 142H66.2977L72.4577 130.736H75.0977ZM66.8897 132.16C66.3777 132.16 66.1217 132.528 66.1217 133.264C66.1217 133.989 66.3777 134.352 66.8897 134.352C67.135 134.352 67.327 134.261 67.4657 134.08C67.6043 133.899 67.6737 133.627 67.6737 133.264C67.6737 132.528 67.4123 132.16 66.8897 132.16ZM71.8497 139.472C71.8497 138.608 72.095 137.941 72.5857 137.472C73.0763 137.003 73.7163 136.768 74.5057 136.768C75.295 136.768 75.935 137.003 76.4257 137.472C76.9163 137.941 77.1617 138.608 77.1617 139.472C77.1617 140.336 76.9163 141.003 76.4257 141.472C75.935 141.941 75.295 142.176 74.5057 142.176C73.7163 142.176 73.0763 141.941 72.5857 141.472C72.095 141.003 71.8497 140.336 71.8497 139.472ZM74.4897 138.368C74.2443 138.368 74.0523 138.459 73.9137 138.64C73.7857 138.821 73.7217 139.099 73.7217 139.472C73.7217 140.197 73.9777 140.56 74.4897 140.56C74.735 140.56 74.927 140.469 75.0657 140.288C75.2043 140.107 75.2737 139.835 75.2737 139.472C75.2737 139.109 75.2043 138.837 75.0657 138.656C74.927 138.464 74.735 138.368 74.4897 138.368Z" fill="#212633"/>
<path d="M125.805 103.336C125.805 96.9147 126.851 91.912 128.941 88.328C131.032 84.7067 134.691 82.896 139.917 82.896C145.107 82.896 148.747 84.7067 150.837 88.328C152.928 91.912 153.973 96.9147 153.973 103.336C153.973 109.869 152.928 114.947 150.837 118.568C148.747 122.189 145.107 124 139.917 124C134.691 124 131.032 122.189 128.941 118.568C126.851 114.947 125.805 109.869 125.805 103.336ZM148.933 103.336C148.933 100.088 148.709 97.344 148.261 95.104C147.851 92.8267 146.973 90.9973 145.629 89.616C144.323 88.2347 142.419 87.544 139.917 87.544C137.379 87.544 135.437 88.2347 134.093 89.616C132.787 90.9973 131.909 92.8267 131.461 95.104C131.051 97.344 130.845 100.088 130.845 103.336C130.845 106.696 131.051 109.515 131.461 111.792C131.909 114.069 132.787 115.899 134.093 117.28C135.437 118.661 137.379 119.352 139.917 119.352C142.419 119.352 144.323 118.661 145.629 117.28C146.973 115.899 147.851 114.069 148.261 111.792C148.709 109.515 148.933 106.696 148.933 103.336ZM148.373 157.144C147.552 153 144.995 150.928 140.701 150.928C137.379 150.928 134.896 152.216 133.253 154.792C131.611 157.331 130.808 161.531 130.845 167.392C131.704 165.451 133.123 163.939 135.101 162.856C137.117 161.736 139.357 161.176 141.821 161.176C145.667 161.176 148.728 162.371 151.005 164.76C153.32 167.149 154.477 170.453 154.477 174.672C154.477 177.211 153.973 179.488 152.965 181.504C151.995 183.52 150.501 185.125 148.485 186.32C146.507 187.515 144.099 188.112 141.261 188.112C137.416 188.112 134.411 187.253 132.245 185.536C130.08 183.819 128.568 181.448 127.709 178.424C126.851 175.4 126.421 171.667 126.421 167.224C126.421 153.523 131.2 146.672 140.757 146.672C144.416 146.672 147.291 147.661 149.381 149.64C151.472 151.619 152.704 154.12 153.077 157.144H148.373ZM140.757 165.488C139.152 165.488 137.64 165.824 136.221 166.496C134.803 167.131 133.645 168.12 132.749 169.464C131.891 170.771 131.461 172.376 131.461 174.28C131.461 177.117 132.283 179.432 133.925 181.224C135.568 182.979 137.92 183.856 140.981 183.856C143.595 183.856 145.667 183.053 147.197 181.448C148.765 179.805 149.549 177.603 149.549 174.84C149.549 171.928 148.803 169.651 147.309 168.008C145.816 166.328 143.632 165.488 140.757 165.488Z" fill="#F93535"/>
<path d="M207.935 108.098C207.935 108.91 207.655 109.587 207.095 110.128C206.545 110.66 205.7 110.926 204.561 110.926H202.685V115H201.411V105.242H204.561C205.663 105.242 206.498 105.508 207.067 106.04C207.646 106.572 207.935 107.258 207.935 108.098ZM204.561 109.876C205.271 109.876 205.793 109.722 206.129 109.414C206.465 109.106 206.633 108.667 206.633 108.098C206.633 106.894 205.943 106.292 204.561 106.292H202.685V109.876H204.561ZM216.519 110.87C216.519 111.113 216.505 111.369 216.477 111.64H210.345C210.391 112.396 210.648 112.989 211.115 113.418C211.591 113.838 212.165 114.048 212.837 114.048C213.387 114.048 213.845 113.922 214.209 113.67C214.582 113.409 214.843 113.063 214.993 112.634H216.365C216.159 113.371 215.749 113.973 215.133 114.44C214.517 114.897 213.751 115.126 212.837 115.126C212.109 115.126 211.455 114.963 210.877 114.636C210.307 114.309 209.859 113.847 209.533 113.25C209.206 112.643 209.043 111.943 209.043 111.15C209.043 110.357 209.201 109.661 209.519 109.064C209.836 108.467 210.279 108.009 210.849 107.692C211.427 107.365 212.09 107.202 212.837 107.202C213.565 107.202 214.209 107.361 214.769 107.678C215.329 107.995 215.758 108.434 216.057 108.994C216.365 109.545 216.519 110.17 216.519 110.87ZM215.203 110.604C215.203 110.119 215.095 109.703 214.881 109.358C214.666 109.003 214.372 108.737 213.999 108.56C213.635 108.373 213.229 108.28 212.781 108.28C212.137 108.28 211.586 108.485 211.129 108.896C210.681 109.307 210.424 109.876 210.359 110.604H215.203ZM221.938 107.188C222.872 107.188 223.628 107.473 224.206 108.042C224.785 108.602 225.074 109.414 225.074 110.478V115H223.814V110.66C223.814 109.895 223.623 109.311 223.24 108.91C222.858 108.499 222.335 108.294 221.672 108.294C221 108.294 220.464 108.504 220.062 108.924C219.67 109.344 219.474 109.955 219.474 110.758V115H218.2V107.328H219.474V108.42C219.726 108.028 220.067 107.725 220.496 107.51C220.935 107.295 221.416 107.188 221.938 107.188ZM226.68 111.136C226.68 110.352 226.838 109.666 227.156 109.078C227.473 108.481 227.907 108.019 228.458 107.692C229.018 107.365 229.643 107.202 230.334 107.202C230.931 107.202 231.486 107.342 232 107.622C232.513 107.893 232.905 108.252 233.176 108.7V104.64H234.464V115H233.176V113.558C232.924 114.015 232.55 114.393 232.056 114.692C231.561 114.981 230.982 115.126 230.32 115.126C229.638 115.126 229.018 114.958 228.458 114.622C227.907 114.286 227.473 113.815 227.156 113.208C226.838 112.601 226.68 111.911 226.68 111.136ZM233.176 111.15C233.176 110.571 233.059 110.067 232.826 109.638C232.592 109.209 232.275 108.882 231.874 108.658C231.482 108.425 231.048 108.308 230.572 108.308C230.096 108.308 229.662 108.42 229.27 108.644C228.878 108.868 228.565 109.195 228.332 109.624C228.098 110.053 227.982 110.557 227.982 111.136C227.982 111.724 228.098 112.237 228.332 112.676C228.565 113.105 228.878 113.437 229.27 113.67C229.662 113.894 230.096 114.006 230.572 114.006C231.048 114.006 231.482 113.894 231.874 113.67C232.275 113.437 232.592 113.105 232.826 112.676C233.059 112.237 233.176 111.729 233.176 111.15ZM237.274 106.082C237.032 106.082 236.826 105.998 236.658 105.83C236.49 105.662 236.406 105.457 236.406 105.214C236.406 104.971 236.49 104.766 236.658 104.598C236.826 104.43 237.032 104.346 237.274 104.346C237.508 104.346 237.704 104.43 237.862 104.598C238.03 104.766 238.114 104.971 238.114 105.214C238.114 105.457 238.03 105.662 237.862 105.83C237.704 105.998 237.508 106.082 237.274 106.082ZM237.89 107.328V115H236.616V107.328H237.89ZM243.8 107.188C244.733 107.188 245.489 107.473 246.068 108.042C246.646 108.602 246.936 109.414 246.936 110.478V115H245.676V110.66C245.676 109.895 245.484 109.311 245.102 108.91C244.719 108.499 244.196 108.294 243.534 108.294C242.862 108.294 242.325 108.504 241.924 108.924C241.532 109.344 241.336 109.955 241.336 110.758V115H240.062V107.328H241.336V108.42C241.588 108.028 241.928 107.725 242.358 107.51C242.796 107.295 243.277 107.188 243.8 107.188ZM252.181 107.202C252.844 107.202 253.422 107.347 253.917 107.636C254.421 107.925 254.794 108.289 255.037 108.728V107.328H256.325V115.168C256.325 115.868 256.176 116.489 255.877 117.03C255.578 117.581 255.149 118.01 254.589 118.318C254.038 118.626 253.394 118.78 252.657 118.78C251.649 118.78 250.809 118.542 250.137 118.066C249.465 117.59 249.068 116.941 248.947 116.12H250.207C250.347 116.587 250.636 116.96 251.075 117.24C251.514 117.529 252.041 117.674 252.657 117.674C253.357 117.674 253.926 117.455 254.365 117.016C254.813 116.577 255.037 115.961 255.037 115.168V113.558C254.785 114.006 254.412 114.379 253.917 114.678C253.422 114.977 252.844 115.126 252.181 115.126C251.5 115.126 250.879 114.958 250.319 114.622C249.768 114.286 249.334 113.815 249.017 113.208C248.7 112.601 248.541 111.911 248.541 111.136C248.541 110.352 248.7 109.666 249.017 109.078C249.334 108.481 249.768 108.019 250.319 107.692C250.879 107.365 251.5 107.202 252.181 107.202ZM255.037 111.15C255.037 110.571 254.92 110.067 254.687 109.638C254.454 109.209 254.136 108.882 253.735 108.658C253.343 108.425 252.909 108.308 252.433 108.308C251.957 108.308 251.523 108.42 251.131 108.644C250.739 108.868 250.426 109.195 250.193 109.624C249.96 110.053 249.843 110.557 249.843 111.136C249.843 111.724 249.96 112.237 250.193 112.676C250.426 113.105 250.739 113.437 251.131 113.67C251.523 113.894 251.957 114.006 252.433 114.006C252.909 114.006 253.343 113.894 253.735 113.67C254.136 113.437 254.454 113.105 254.687 112.676C254.92 112.237 255.037 111.729 255.037 111.15ZM270.036 116.848L268.09 114.902C267.614 115.033 267.129 115.098 266.634 115.098C265.729 115.098 264.903 114.888 264.156 114.468C263.41 114.039 262.817 113.446 262.378 112.69C261.949 111.925 261.734 111.066 261.734 110.114C261.734 109.162 261.949 108.308 262.378 107.552C262.817 106.787 263.41 106.194 264.156 105.774C264.903 105.345 265.729 105.13 266.634 105.13C267.549 105.13 268.38 105.345 269.126 105.774C269.873 106.194 270.461 106.782 270.89 107.538C271.32 108.294 271.534 109.153 271.534 110.114C271.534 111.047 271.329 111.887 270.918 112.634C270.508 113.381 269.943 113.969 269.224 114.398L271.688 116.848H270.036ZM263.036 110.114C263.036 110.889 263.19 111.57 263.498 112.158C263.816 112.746 264.245 113.199 264.786 113.516C265.337 113.833 265.953 113.992 266.634 113.992C267.316 113.992 267.927 113.833 268.468 113.516C269.019 113.199 269.448 112.746 269.756 112.158C270.074 111.57 270.232 110.889 270.232 110.114C270.232 109.33 270.074 108.649 269.756 108.07C269.448 107.482 269.024 107.029 268.482 106.712C267.941 106.395 267.325 106.236 266.634 106.236C265.944 106.236 265.328 106.395 264.786 106.712C264.245 107.029 263.816 107.482 263.498 108.07C263.19 108.649 263.036 109.33 263.036 110.114ZM280.047 107.328V115H278.773V113.866C278.531 114.258 278.19 114.566 277.751 114.79C277.322 115.005 276.846 115.112 276.323 115.112C275.726 115.112 275.189 114.991 274.713 114.748C274.237 114.496 273.859 114.123 273.579 113.628C273.309 113.133 273.173 112.531 273.173 111.822V107.328H274.433V111.654C274.433 112.41 274.625 112.993 275.007 113.404C275.39 113.805 275.913 114.006 276.575 114.006C277.257 114.006 277.793 113.796 278.185 113.376C278.577 112.956 278.773 112.345 278.773 111.542V107.328H280.047ZM282.856 106.082C282.614 106.082 282.408 105.998 282.24 105.83C282.072 105.662 281.988 105.457 281.988 105.214C281.988 104.971 282.072 104.766 282.24 104.598C282.408 104.43 282.614 104.346 282.856 104.346C283.09 104.346 283.286 104.43 283.444 104.598C283.612 104.766 283.696 104.971 283.696 105.214C283.696 105.457 283.612 105.662 283.444 105.83C283.286 105.998 283.09 106.082 282.856 106.082ZM283.472 107.328V115H282.198V107.328H283.472ZM286.596 113.95H290.362V115H285.14V113.95L288.864 108.364H285.168V107.328H290.334V108.364L286.596 113.95ZM299.015 110.87C299.015 111.113 299.001 111.369 298.973 111.64H292.841C292.888 112.396 293.144 112.989 293.611 113.418C294.087 113.838 294.661 114.048 295.333 114.048C295.884 114.048 296.341 113.922 296.705 113.67C297.078 113.409 297.34 113.063 297.489 112.634H298.861C298.656 113.371 298.245 113.973 297.629 114.44C297.013 114.897 296.248 115.126 295.333 115.126C294.605 115.126 293.952 114.963 293.373 114.636C292.804 114.309 292.356 113.847 292.029 113.25C291.702 112.643 291.539 111.943 291.539 111.15C291.539 110.357 291.698 109.661 292.015 109.064C292.332 108.467 292.776 108.009 293.345 107.692C293.924 107.365 294.586 107.202 295.333 107.202C296.061 107.202 296.705 107.361 297.265 107.678C297.825 107.995 298.254 108.434 298.553 108.994C298.861 109.545 299.015 110.17 299.015 110.87ZM297.699 110.604C297.699 110.119 297.592 109.703 297.377 109.358C297.162 109.003 296.868 108.737 296.495 108.56C296.131 108.373 295.725 108.28 295.277 108.28C294.633 108.28 294.082 108.485 293.625 108.896C293.177 109.307 292.92 109.876 292.855 110.604H297.699ZM303.413 115.126C302.825 115.126 302.297 115.028 301.831 114.832C301.364 114.627 300.995 114.347 300.725 113.992C300.454 113.628 300.305 113.213 300.277 112.746H301.593C301.63 113.129 301.807 113.441 302.125 113.684C302.451 113.927 302.876 114.048 303.399 114.048C303.884 114.048 304.267 113.941 304.547 113.726C304.827 113.511 304.967 113.241 304.967 112.914C304.967 112.578 304.817 112.331 304.519 112.172C304.22 112.004 303.758 111.841 303.133 111.682C302.563 111.533 302.097 111.383 301.733 111.234C301.378 111.075 301.07 110.847 300.809 110.548C300.557 110.24 300.431 109.839 300.431 109.344C300.431 108.952 300.547 108.593 300.781 108.266C301.014 107.939 301.345 107.683 301.775 107.496C302.204 107.3 302.694 107.202 303.245 107.202C304.094 107.202 304.78 107.417 305.303 107.846C305.825 108.275 306.105 108.863 306.143 109.61H304.869C304.841 109.209 304.677 108.887 304.379 108.644C304.089 108.401 303.697 108.28 303.203 108.28C302.745 108.28 302.381 108.378 302.111 108.574C301.84 108.77 301.705 109.027 301.705 109.344C301.705 109.596 301.784 109.806 301.943 109.974C302.111 110.133 302.316 110.263 302.559 110.366C302.811 110.459 303.156 110.567 303.595 110.688C304.145 110.837 304.593 110.987 304.939 111.136C305.284 111.276 305.578 111.491 305.821 111.78C306.073 112.069 306.203 112.447 306.213 112.914C306.213 113.334 306.096 113.712 305.863 114.048C305.629 114.384 305.298 114.65 304.869 114.846C304.449 115.033 303.963 115.126 303.413 115.126Z" fill="#434A5E"/>
<path d="M202.685 143.964H206.101V145H201.411V135.242H202.685V143.964ZM214.454 140.87C214.454 141.113 214.44 141.369 214.412 141.64H208.28C208.327 142.396 208.584 142.989 209.05 143.418C209.526 143.838 210.1 144.048 210.772 144.048C211.323 144.048 211.78 143.922 212.144 143.67C212.518 143.409 212.779 143.063 212.928 142.634H214.3C214.095 143.371 213.684 143.973 213.068 144.44C212.452 144.897 211.687 145.126 210.772 145.126C210.044 145.126 209.391 144.963 208.812 144.636C208.243 144.309 207.795 143.847 207.468 143.25C207.142 142.643 206.978 141.943 206.978 141.15C206.978 140.357 207.137 139.661 207.454 139.064C207.772 138.467 208.215 138.009 208.784 137.692C209.363 137.365 210.026 137.202 210.772 137.202C211.5 137.202 212.144 137.361 212.704 137.678C213.264 137.995 213.694 138.434 213.992 138.994C214.3 139.545 214.454 140.17 214.454 140.87ZM213.138 140.604C213.138 140.119 213.031 139.703 212.816 139.358C212.602 139.003 212.308 138.737 211.934 138.56C211.57 138.373 211.164 138.28 210.716 138.28C210.072 138.28 209.522 138.485 209.064 138.896C208.616 139.307 208.36 139.876 208.294 140.604H213.138ZM218.992 143.824L221.372 137.328H222.73L219.72 145H218.236L215.226 137.328H216.598L218.992 143.824ZM230.984 140.87C230.984 141.113 230.97 141.369 230.942 141.64H224.81C224.856 142.396 225.113 142.989 225.58 143.418C226.056 143.838 226.63 144.048 227.302 144.048C227.852 144.048 228.31 143.922 228.674 143.67C229.047 143.409 229.308 143.063 229.458 142.634H230.83C230.624 143.371 230.214 143.973 229.598 144.44C228.982 144.897 228.216 145.126 227.302 145.126C226.574 145.126 225.92 144.963 225.342 144.636C224.772 144.309 224.324 143.847 223.998 143.25C223.671 142.643 223.508 141.943 223.508 141.15C223.508 140.357 223.666 139.661 223.984 139.064C224.301 138.467 224.744 138.009 225.314 137.692C225.892 137.365 226.555 137.202 227.302 137.202C228.03 137.202 228.674 137.361 229.234 137.678C229.794 137.995 230.223 138.434 230.522 138.994C230.83 139.545 230.984 140.17 230.984 140.87ZM229.668 140.604C229.668 140.119 229.56 139.703 229.346 139.358C229.131 139.003 228.837 138.737 228.464 138.56C228.1 138.373 227.694 138.28 227.246 138.28C226.602 138.28 226.051 138.485 225.594 138.896C225.146 139.307 224.889 139.876 224.824 140.604H229.668ZM233.939 134.64V145H232.665V134.64H233.939ZM244.981 145L242.657 141.01H241.117V145H239.843V135.242H242.993C243.73 135.242 244.351 135.368 244.855 135.62C245.368 135.872 245.751 136.213 246.003 136.642C246.255 137.071 246.381 137.561 246.381 138.112C246.381 138.784 246.185 139.377 245.793 139.89C245.41 140.403 244.832 140.744 244.057 140.912L246.507 145H244.981ZM241.117 139.988H242.993C243.684 139.988 244.202 139.82 244.547 139.484C244.892 139.139 245.065 138.681 245.065 138.112C245.065 137.533 244.892 137.085 244.547 136.768C244.211 136.451 243.693 136.292 242.993 136.292H241.117V139.988ZM255.361 140.87C255.361 141.113 255.347 141.369 255.319 141.64H249.187C249.233 142.396 249.49 142.989 249.957 143.418C250.433 143.838 251.007 144.048 251.679 144.048C252.229 144.048 252.687 143.922 253.051 143.67C253.424 143.409 253.685 143.063 253.835 142.634H255.207C255.001 143.371 254.591 143.973 253.975 144.44C253.359 144.897 252.593 145.126 251.679 145.126C250.951 145.126 250.297 144.963 249.719 144.636C249.149 144.309 248.701 143.847 248.375 143.25C248.048 142.643 247.885 141.943 247.885 141.15C247.885 140.357 248.043 139.661 248.361 139.064C248.678 138.467 249.121 138.009 249.691 137.692C250.269 137.365 250.932 137.202 251.679 137.202C252.407 137.202 253.051 137.361 253.611 137.678C254.171 137.995 254.6 138.434 254.899 138.994C255.207 139.545 255.361 140.17 255.361 140.87ZM254.045 140.604C254.045 140.119 253.937 139.703 253.723 139.358C253.508 139.003 253.214 138.737 252.841 138.56C252.477 138.373 252.071 138.28 251.623 138.28C250.979 138.28 250.428 138.485 249.971 138.896C249.523 139.307 249.266 139.876 249.201 140.604H254.045ZM266.268 137.188C266.866 137.188 267.398 137.314 267.864 137.566C268.331 137.809 268.7 138.177 268.97 138.672C269.241 139.167 269.376 139.769 269.376 140.478V145H268.116V140.66C268.116 139.895 267.925 139.311 267.542 138.91C267.169 138.499 266.66 138.294 266.016 138.294C265.354 138.294 264.826 138.509 264.434 138.938C264.042 139.358 263.846 139.969 263.846 140.772V145H262.586V140.66C262.586 139.895 262.395 139.311 262.012 138.91C261.639 138.499 261.13 138.294 260.486 138.294C259.824 138.294 259.296 138.509 258.904 138.938C258.512 139.358 258.316 139.969 258.316 140.772V145H257.042V137.328H258.316V138.434C258.568 138.033 258.904 137.725 259.324 137.51C259.754 137.295 260.225 137.188 260.738 137.188C261.382 137.188 261.952 137.333 262.446 137.622C262.941 137.911 263.31 138.336 263.552 138.896C263.767 138.355 264.122 137.935 264.616 137.636C265.111 137.337 265.662 137.188 266.268 137.188ZM270.99 141.136C270.99 140.352 271.149 139.666 271.466 139.078C271.783 138.481 272.217 138.019 272.768 137.692C273.328 137.365 273.949 137.202 274.63 137.202C275.302 137.202 275.885 137.347 276.38 137.636C276.875 137.925 277.243 138.289 277.486 138.728V137.328H278.774V145H277.486V143.572C277.234 144.02 276.856 144.393 276.352 144.692C275.857 144.981 275.279 145.126 274.616 145.126C273.935 145.126 273.319 144.958 272.768 144.622C272.217 144.286 271.783 143.815 271.466 143.208C271.149 142.601 270.99 141.911 270.99 141.136ZM277.486 141.15C277.486 140.571 277.369 140.067 277.136 139.638C276.903 139.209 276.585 138.882 276.184 138.658C275.792 138.425 275.358 138.308 274.882 138.308C274.406 138.308 273.972 138.42 273.58 138.644C273.188 138.868 272.875 139.195 272.642 139.624C272.409 140.053 272.292 140.557 272.292 141.136C272.292 141.724 272.409 142.237 272.642 142.676C272.875 143.105 273.188 143.437 273.58 143.67C273.972 143.894 274.406 144.006 274.882 144.006C275.358 144.006 275.792 143.894 276.184 143.67C276.585 143.437 276.903 143.105 277.136 142.676C277.369 142.237 277.486 141.729 277.486 141.15ZM281.585 136.082C281.342 136.082 281.137 135.998 280.969 135.83C280.801 135.662 280.717 135.457 280.717 135.214C280.717 134.971 280.801 134.766 280.969 134.598C281.137 134.43 281.342 134.346 281.585 134.346C281.818 134.346 282.014 134.43 282.173 134.598C282.341 134.766 282.425 134.971 282.425 135.214C282.425 135.457 282.341 135.662 282.173 135.83C282.014 135.998 281.818 136.082 281.585 136.082ZM282.201 137.328V145H280.927V137.328H282.201ZM288.11 137.188C289.044 137.188 289.8 137.473 290.378 138.042C290.957 138.602 291.246 139.414 291.246 140.478V145H289.986V140.66C289.986 139.895 289.795 139.311 289.412 138.91C289.03 138.499 288.507 138.294 287.844 138.294C287.172 138.294 286.636 138.504 286.234 138.924C285.842 139.344 285.646 139.955 285.646 140.758V145H284.372V137.328H285.646V138.42C285.898 138.028 286.239 137.725 286.668 137.51C287.107 137.295 287.588 137.188 288.11 137.188ZM293.985 136.082C293.743 136.082 293.537 135.998 293.369 135.83C293.201 135.662 293.117 135.457 293.117 135.214C293.117 134.971 293.201 134.766 293.369 134.598C293.537 134.43 293.743 134.346 293.985 134.346C294.219 134.346 294.415 134.43 294.573 134.598C294.741 134.766 294.825 134.971 294.825 135.214C294.825 135.457 294.741 135.662 294.573 135.83C294.415 135.998 294.219 136.082 293.985 136.082ZM294.601 137.328V145H293.327V137.328H294.601ZM300.511 137.188C301.444 137.188 302.2 137.473 302.779 138.042C303.357 138.602 303.647 139.414 303.647 140.478V145H302.387V140.66C302.387 139.895 302.195 139.311 301.813 138.91C301.43 138.499 300.907 138.294 300.245 138.294C299.573 138.294 299.036 138.504 298.635 138.924C298.243 139.344 298.047 139.955 298.047 140.758V145H296.773V137.328H298.047V138.42C298.299 138.028 298.639 137.725 299.069 137.51C299.507 137.295 299.988 137.188 300.511 137.188ZM308.892 137.202C309.554 137.202 310.133 137.347 310.628 137.636C311.132 137.925 311.505 138.289 311.748 138.728V137.328H313.036V145.168C313.036 145.868 312.886 146.489 312.588 147.03C312.289 147.581 311.86 148.01 311.3 148.318C310.749 148.626 310.105 148.78 309.368 148.78C308.36 148.78 307.52 148.542 306.848 148.066C306.176 147.59 305.779 146.941 305.658 146.12H306.918C307.058 146.587 307.347 146.96 307.786 147.24C308.224 147.529 308.752 147.674 309.368 147.674C310.068 147.674 310.637 147.455 311.076 147.016C311.524 146.577 311.748 145.961 311.748 145.168V143.558C311.496 144.006 311.122 144.379 310.628 144.678C310.133 144.977 309.554 145.126 308.892 145.126C308.21 145.126 307.59 144.958 307.03 144.622C306.479 144.286 306.045 143.815 305.728 143.208C305.41 142.601 305.252 141.911 305.252 141.136C305.252 140.352 305.41 139.666 305.728 139.078C306.045 138.481 306.479 138.019 307.03 137.692C307.59 137.365 308.21 137.202 308.892 137.202ZM311.748 141.15C311.748 140.571 311.631 140.067 311.398 139.638C311.164 139.209 310.847 138.882 310.446 138.658C310.054 138.425 309.62 138.308 309.144 138.308C308.668 138.308 308.234 138.42 307.842 138.644C307.45 138.868 307.137 139.195 306.904 139.624C306.67 140.053 306.554 140.557 306.554 141.136C306.554 141.724 306.67 142.237 306.904 142.676C307.137 143.105 307.45 143.437 307.842 143.67C308.234 143.894 308.668 144.006 309.144 144.006C309.62 144.006 310.054 143.894 310.446 143.67C310.847 143.437 311.164 143.105 311.398 142.676C311.631 142.237 311.748 141.729 311.748 141.15ZM324.927 135.242V136.278H322.267V145H320.993V136.278H318.319V135.242H324.927ZM329.841 145.126C329.123 145.126 328.469 144.963 327.881 144.636C327.303 144.309 326.845 143.847 326.509 143.25C326.183 142.643 326.019 141.943 326.019 141.15C326.019 140.366 326.187 139.675 326.523 139.078C326.869 138.471 327.335 138.009 327.923 137.692C328.511 137.365 329.169 137.202 329.897 137.202C330.625 137.202 331.283 137.365 331.871 137.692C332.459 138.009 332.921 138.467 333.257 139.064C333.603 139.661 333.775 140.357 333.775 141.15C333.775 141.943 333.598 142.643 333.243 143.25C332.898 143.847 332.427 144.309 331.829 144.636C331.232 144.963 330.569 145.126 329.841 145.126ZM329.841 144.006C330.299 144.006 330.728 143.899 331.129 143.684C331.531 143.469 331.853 143.147 332.095 142.718C332.347 142.289 332.473 141.766 332.473 141.15C332.473 140.534 332.352 140.011 332.109 139.582C331.867 139.153 331.549 138.835 331.157 138.63C330.765 138.415 330.341 138.308 329.883 138.308C329.417 138.308 328.987 138.415 328.595 138.63C328.213 138.835 327.905 139.153 327.671 139.582C327.438 140.011 327.321 140.534 327.321 141.15C327.321 141.775 327.433 142.303 327.657 142.732C327.891 143.161 328.199 143.483 328.581 143.698C328.964 143.903 329.384 144.006 329.841 144.006ZM346.183 140.87C346.183 141.113 346.169 141.369 346.141 141.64H340.009C340.056 142.396 340.312 142.989 340.779 143.418C341.255 143.838 341.829 144.048 342.501 144.048C343.052 144.048 343.509 143.922 343.873 143.67C344.246 143.409 344.508 143.063 344.657 142.634H346.029C345.824 143.371 345.413 143.973 344.797 144.44C344.181 144.897 343.416 145.126 342.501 145.126C341.773 145.126 341.12 144.963 340.541 144.636C339.972 144.309 339.524 143.847 339.197 143.25C338.87 142.643 338.707 141.943 338.707 141.15C338.707 140.357 338.866 139.661 339.183 139.064C339.5 138.467 339.944 138.009 340.513 137.692C341.092 137.365 341.754 137.202 342.501 137.202C343.229 137.202 343.873 137.361 344.433 137.678C344.993 137.995 345.422 138.434 345.721 138.994C346.029 139.545 346.183 140.17 346.183 140.87ZM344.867 140.604C344.867 140.119 344.76 139.703 344.545 139.358C344.33 139.003 344.036 138.737 343.663 138.56C343.299 138.373 342.893 138.28 342.445 138.28C341.801 138.28 341.25 138.485 340.793 138.896C340.345 139.307 340.088 139.876 340.023 140.604H344.867ZM347.388 141.136C347.388 140.352 347.547 139.666 347.864 139.078C348.182 138.481 348.616 138.019 349.166 137.692C349.726 137.365 350.347 137.202 351.028 137.202C351.7 137.202 352.284 137.347 352.778 137.636C353.273 137.925 353.642 138.289 353.884 138.728V137.328H355.172V145H353.884V143.572C353.632 144.02 353.254 144.393 352.75 144.692C352.256 144.981 351.677 145.126 351.014 145.126C350.333 145.126 349.717 144.958 349.166 144.622C348.616 144.286 348.182 143.815 347.864 143.208C347.547 142.601 347.388 141.911 347.388 141.136ZM353.884 141.15C353.884 140.571 353.768 140.067 353.534 139.638C353.301 139.209 352.984 138.882 352.582 138.658C352.19 138.425 351.756 138.308 351.28 138.308C350.804 138.308 350.37 138.42 349.978 138.644C349.586 138.868 349.274 139.195 349.04 139.624C348.807 140.053 348.69 140.557 348.69 141.136C348.69 141.724 348.807 142.237 349.04 142.676C349.274 143.105 349.586 143.437 349.978 143.67C350.37 143.894 350.804 144.006 351.28 144.006C351.756 144.006 352.19 143.894 352.582 143.67C352.984 143.437 353.301 143.105 353.534 142.676C353.768 142.237 353.884 141.729 353.884 141.15ZM358.599 138.574C358.823 138.135 359.141 137.795 359.551 137.552C359.971 137.309 360.48 137.188 361.077 137.188V138.504H360.741C359.313 138.504 358.599 139.279 358.599 140.828V145H357.325V137.328H358.599V138.574ZM366.286 137.188C367.219 137.188 367.975 137.473 368.554 138.042C369.133 138.602 369.422 139.414 369.422 140.478V145H368.162V140.66C368.162 139.895 367.971 139.311 367.588 138.91C367.205 138.499 366.683 138.294 366.02 138.294C365.348 138.294 364.811 138.504 364.41 138.924C364.018 139.344 363.822 139.955 363.822 140.758V145H362.548V137.328H363.822V138.42C364.074 138.028 364.415 137.725 364.844 137.51C365.283 137.295 365.763 137.188 366.286 137.188ZM206.297 161.974C206.652 162.03 206.974 162.175 207.263 162.408C207.562 162.641 207.795 162.931 207.963 163.276C208.141 163.621 208.229 163.99 208.229 164.382C208.229 164.877 208.103 165.325 207.851 165.726C207.599 166.118 207.231 166.431 206.745 166.664C206.269 166.888 205.705 167 205.051 167H201.411V157.242H204.911C205.574 157.242 206.139 157.354 206.605 157.578C207.072 157.793 207.422 158.087 207.655 158.46C207.889 158.833 208.005 159.253 208.005 159.72C208.005 160.299 207.847 160.779 207.529 161.162C207.221 161.535 206.811 161.806 206.297 161.974ZM202.685 161.456H204.827C205.425 161.456 205.887 161.316 206.213 161.036C206.54 160.756 206.703 160.369 206.703 159.874C206.703 159.379 206.54 158.992 206.213 158.712C205.887 158.432 205.415 158.292 204.799 158.292H202.685V161.456ZM204.939 165.95C205.574 165.95 206.069 165.801 206.423 165.502C206.778 165.203 206.955 164.788 206.955 164.256C206.955 163.715 206.769 163.29 206.395 162.982C206.022 162.665 205.523 162.506 204.897 162.506H202.685V165.95H204.939ZM209.521 163.136C209.521 162.352 209.68 161.666 209.997 161.078C210.315 160.481 210.749 160.019 211.299 159.692C211.859 159.365 212.48 159.202 213.161 159.202C213.833 159.202 214.417 159.347 214.911 159.636C215.406 159.925 215.775 160.289 216.017 160.728V159.328H217.305V167H216.017V165.572C215.765 166.02 215.387 166.393 214.883 166.692C214.389 166.981 213.81 167.126 213.147 167.126C212.466 167.126 211.85 166.958 211.299 166.622C210.749 166.286 210.315 165.815 209.997 165.208C209.68 164.601 209.521 163.911 209.521 163.136ZM216.017 163.15C216.017 162.571 215.901 162.067 215.667 161.638C215.434 161.209 215.117 160.882 214.715 160.658C214.323 160.425 213.889 160.308 213.413 160.308C212.937 160.308 212.503 160.42 212.111 160.644C211.719 160.868 211.407 161.195 211.173 161.624C210.94 162.053 210.823 162.557 210.823 163.136C210.823 163.724 210.94 164.237 211.173 164.676C211.407 165.105 211.719 165.437 212.111 165.67C212.503 165.894 212.937 166.006 213.413 166.006C213.889 166.006 214.323 165.894 214.715 165.67C215.117 165.437 215.434 165.105 215.667 164.676C215.901 164.237 216.017 163.729 216.017 163.15ZM218.982 163.136C218.982 162.352 219.141 161.666 219.458 161.078C219.776 160.481 220.21 160.019 220.76 159.692C221.32 159.365 221.946 159.202 222.636 159.202C223.234 159.202 223.789 159.342 224.302 159.622C224.816 159.893 225.208 160.252 225.478 160.7V156.64H226.766V167H225.478V165.558C225.226 166.015 224.853 166.393 224.358 166.692C223.864 166.981 223.285 167.126 222.622 167.126C221.941 167.126 221.32 166.958 220.76 166.622C220.21 166.286 219.776 165.815 219.458 165.208C219.141 164.601 218.982 163.911 218.982 163.136ZM225.478 163.15C225.478 162.571 225.362 162.067 225.128 161.638C224.895 161.209 224.578 160.882 224.176 160.658C223.784 160.425 223.35 160.308 222.874 160.308C222.398 160.308 221.964 160.42 221.572 160.644C221.18 160.868 220.868 161.195 220.634 161.624C220.401 162.053 220.284 162.557 220.284 163.136C220.284 163.724 220.401 164.237 220.634 164.676C220.868 165.105 221.18 165.437 221.572 165.67C221.964 165.894 222.398 166.006 222.874 166.006C223.35 166.006 223.784 165.894 224.176 165.67C224.578 165.437 224.895 165.105 225.128 164.676C225.362 164.237 225.478 163.729 225.478 163.15ZM232.083 159.202C232.746 159.202 233.325 159.347 233.819 159.636C234.323 159.925 234.697 160.289 234.939 160.728V159.328H236.227V167.168C236.227 167.868 236.078 168.489 235.779 169.03C235.481 169.581 235.051 170.01 234.491 170.318C233.941 170.626 233.297 170.78 232.559 170.78C231.551 170.78 230.711 170.542 230.039 170.066C229.367 169.59 228.971 168.941 228.849 168.12H230.109C230.249 168.587 230.539 168.96 230.977 169.24C231.416 169.529 231.943 169.674 232.559 169.674C233.259 169.674 233.829 169.455 234.267 169.016C234.715 168.577 234.939 167.961 234.939 167.168V165.558C234.687 166.006 234.314 166.379 233.819 166.678C233.325 166.977 232.746 167.126 232.083 167.126C231.402 167.126 230.781 166.958 230.221 166.622C229.671 166.286 229.237 165.815 228.919 165.208C228.602 164.601 228.443 163.911 228.443 163.136C228.443 162.352 228.602 161.666 228.919 161.078C229.237 160.481 229.671 160.019 230.221 159.692C230.781 159.365 231.402 159.202 232.083 159.202ZM234.939 163.15C234.939 162.571 234.823 162.067 234.589 161.638C234.356 161.209 234.039 160.882 233.637 160.658C233.245 160.425 232.811 160.308 232.335 160.308C231.859 160.308 231.425 160.42 231.033 160.644C230.641 160.868 230.329 161.195 230.095 161.624C229.862 162.053 229.745 162.557 229.745 163.136C229.745 163.724 229.862 164.237 230.095 164.676C230.329 165.105 230.641 165.437 231.033 165.67C231.425 165.894 231.859 166.006 232.335 166.006C232.811 166.006 233.245 165.894 233.637 165.67C234.039 165.437 234.356 165.105 234.589 164.676C234.823 164.237 234.939 163.729 234.939 163.15ZM245.38 162.87C245.38 163.113 245.366 163.369 245.338 163.64H239.206C239.253 164.396 239.509 164.989 239.976 165.418C240.452 165.838 241.026 166.048 241.698 166.048C242.249 166.048 242.706 165.922 243.07 165.67C243.443 165.409 243.705 165.063 243.854 164.634H245.226C245.021 165.371 244.61 165.973 243.994 166.44C243.378 166.897 242.613 167.126 241.698 167.126C240.97 167.126 240.317 166.963 239.738 166.636C239.169 166.309 238.721 165.847 238.394 165.25C238.067 164.643 237.904 163.943 237.904 163.15C237.904 162.357 238.063 161.661 238.38 161.064C238.697 160.467 239.141 160.009 239.71 159.692C240.289 159.365 240.951 159.202 241.698 159.202C242.426 159.202 243.07 159.361 243.63 159.678C244.19 159.995 244.619 160.434 244.918 160.994C245.226 161.545 245.38 162.17 245.38 162.87ZM244.064 162.604C244.064 162.119 243.957 161.703 243.742 161.358C243.527 161.003 243.233 160.737 242.86 160.56C242.496 160.373 242.09 160.28 241.642 160.28C240.998 160.28 240.447 160.485 239.99 160.896C239.542 161.307 239.285 161.876 239.22 162.604H244.064Z" fill="#434A5E"/>
<circle cx="61.3334" cy="277" r="32.8099" stroke="#F3F6FF" stroke-width="8"/>
<mask id="path-10-inside-2_101_181" fill="white">
<path d="M39.8798 301.944C38.4719 303.581 38.6473 306.069 40.4243 307.295C44.1922 309.896 48.422 311.777 52.9007 312.831C58.6513 314.184 64.6432 314.134 70.3701 312.683C76.0969 311.233 81.3906 308.425 85.8038 304.498C90.217 300.571 93.6201 295.639 95.7256 290.119C97.8311 284.599 98.5771 278.654 97.9006 272.785C97.2241 266.916 95.145 261.296 91.8389 256.4C88.5328 251.504 84.0969 247.476 78.9058 244.656C74.863 242.459 70.4546 241.046 65.912 240.476C63.7698 240.207 61.9821 241.946 61.9422 244.105C61.9022 246.264 63.628 248.019 65.7617 248.349C69.0487 248.857 72.2337 249.929 75.1733 251.526C79.2617 253.747 82.7554 256.92 85.3593 260.776C87.9632 264.632 89.6007 269.058 90.1335 273.68C90.6663 278.302 90.0787 282.985 88.4205 287.332C86.7622 291.68 84.0819 295.564 80.6061 298.657C77.1303 301.751 72.961 303.962 68.4505 305.104C63.9401 306.246 59.2209 306.286 54.6917 305.22C51.4352 304.454 48.3458 303.132 45.5554 301.322C43.7441 300.147 41.2876 300.307 39.8798 301.944Z"/>
</mask>
<path d="M39.8798 301.944C38.4719 303.581 38.6473 306.069 40.4243 307.295C44.1922 309.896 48.422 311.777 52.9007 312.831C58.6513 314.184 64.6432 314.134 70.3701 312.683C76.0969 311.233 81.3906 308.425 85.8038 304.498C90.217 300.571 93.6201 295.639 95.7256 290.119C97.8311 284.599 98.5771 278.654 97.9006 272.785C97.2241 266.916 95.145 261.296 91.8389 256.4C88.5328 251.504 84.0969 247.476 78.9058 244.656C74.863 242.459 70.4546 241.046 65.912 240.476C63.7698 240.207 61.9821 241.946 61.9422 244.105C61.9022 246.264 63.628 248.019 65.7617 248.349C69.0487 248.857 72.2337 249.929 75.1733 251.526C79.2617 253.747 82.7554 256.92 85.3593 260.776C87.9632 264.632 89.6007 269.058 90.1335 273.68C90.6663 278.302 90.0787 282.985 88.4205 287.332C86.7622 291.68 84.0819 295.564 80.6061 298.657C77.1303 301.751 72.961 303.962 68.4505 305.104C63.9401 306.246 59.2209 306.286 54.6917 305.22C51.4352 304.454 48.3458 303.132 45.5554 301.322C43.7441 300.147 41.2876 300.307 39.8798 301.944Z" stroke="#F9AB35" stroke-width="28" mask="url(#path-10-inside-2_101_181)"/>
<path d="M50.5384 274.472C50.453 274.077 50.3037 273.784 50.0904 273.592C49.877 273.389 49.573 273.288 49.1784 273.288C48.5704 273.288 48.133 273.555 47.8664 274.088C47.5997 274.611 47.461 275.443 47.4504 276.584C47.685 276.211 48.021 275.917 48.4584 275.704C48.9064 275.491 49.397 275.384 49.9304 275.384C50.9757 275.384 51.813 275.715 52.4424 276.376C53.0824 277.037 53.4024 277.96 53.4024 279.144C53.4024 279.923 53.2424 280.605 52.9224 281.192C52.613 281.779 52.1544 282.237 51.5464 282.568C50.949 282.899 50.2397 283.064 49.4184 283.064C47.7757 283.064 46.6344 282.552 45.9944 281.528C45.3544 280.493 45.0344 279.011 45.0344 277.08C45.0344 275.053 45.3704 273.549 46.0424 272.568C46.725 271.576 47.813 271.08 49.3064 271.08C50.1064 271.08 50.7784 271.24 51.3224 271.56C51.877 271.869 52.293 272.28 52.5704 272.792C52.8584 273.304 53.029 273.864 53.0824 274.472H50.5384ZM49.2744 277.544C48.8157 277.544 48.4317 277.683 48.1224 277.96C47.8237 278.227 47.6744 278.611 47.6744 279.112C47.6744 279.624 47.813 280.024 48.0904 280.312C48.3784 280.6 48.7837 280.744 49.3064 280.744C49.7757 280.744 50.1437 280.605 50.4104 280.328C50.6877 280.04 50.8264 279.651 50.8264 279.16C50.8264 278.659 50.693 278.264 50.4264 277.976C50.1597 277.688 49.7757 277.544 49.2744 277.544ZM54.8539 280.808C55.2165 280.52 55.3819 280.387 55.3499 280.408C56.3952 279.544 57.2165 278.835 57.8139 278.28C58.4219 277.725 58.9339 277.144 59.3499 276.536C59.7659 275.928 59.9739 275.336 59.9739 274.76C59.9739 274.323 59.8725 273.981 59.6699 273.736C59.4672 273.491 59.1632 273.368 58.7579 273.368C58.3525 273.368 58.0325 273.523 57.7979 273.832C57.5739 274.131 57.4619 274.557 57.4619 275.112H54.8219C54.8432 274.205 55.0352 273.448 55.3979 272.84C55.7712 272.232 56.2565 271.784 56.8539 271.496C57.4619 271.208 58.1339 271.064 58.8699 271.064C60.1392 271.064 61.0939 271.389 61.7339 272.04C62.3845 272.691 62.7099 273.539 62.7099 274.584C62.7099 275.725 62.3205 276.787 61.5419 277.768C60.7632 278.739 59.7712 279.688 58.5659 280.616H62.8859V282.84H54.8539V280.808ZM63.8665 274.264C63.8665 273.4 64.1118 272.733 64.6025 272.264C65.1038 271.795 65.7492 271.56 66.5385 271.56C67.3278 271.56 67.9678 271.795 68.4585 272.264C68.9492 272.733 69.1945 273.4 69.1945 274.264C69.1945 275.128 68.9492 275.795 68.4585 276.264C67.9678 276.733 67.3278 276.968 66.5385 276.968C65.7492 276.968 65.1038 276.733 64.6025 276.264C64.1118 275.795 63.8665 275.128 63.8665 274.264ZM74.7305 271.736L68.5705 283H65.9305L72.0905 271.736H74.7305ZM66.5225 273.16C66.0105 273.16 65.7545 273.528 65.7545 274.264C65.7545 274.989 66.0105 275.352 66.5225 275.352C66.7678 275.352 66.9598 275.261 67.0985 275.08C67.2372 274.899 67.3065 274.627 67.3065 274.264C67.3065 273.528 67.0452 273.16 66.5225 273.16ZM71.4825 280.472C71.4825 279.608 71.7278 278.941 72.2185 278.472C72.7092 278.003 73.3492 277.768 74.1385 277.768C74.9278 277.768 75.5678 278.003 76.0585 278.472C76.5492 278.941 76.7945 279.608 76.7945 280.472C76.7945 281.336 76.5492 282.003 76.0585 282.472C75.5678 282.941 74.9278 283.176 74.1385 283.176C73.3492 283.176 72.7092 282.941 72.2185 282.472C71.7278 282.003 71.4825 281.336 71.4825 280.472ZM74.1225 279.368C73.8772 279.368 73.6852 279.459 73.5465 279.64C73.4185 279.821 73.3545 280.099 73.3545 280.472C73.3545 281.197 73.6105 281.56 74.1225 281.56C74.3678 281.56 74.5598 281.469 74.6985 281.288C74.8372 281.107 74.9065 280.835 74.9065 280.472C74.9065 280.109 74.8372 279.837 74.6985 279.656C74.5598 279.464 74.3678 279.368 74.1225 279.368Z" fill="#212633"/>
<path d="M124.461 261.16V256.512H134.989V297H129.837V261.16H124.461ZM150.295 286.136C150.668 288.264 151.527 289.907 152.871 291.064C154.252 292.221 156.1 292.8 158.415 292.8C161.514 292.8 163.791 291.587 165.247 289.16C166.74 286.733 167.45 282.645 167.375 276.896C166.591 278.576 165.284 279.901 163.455 280.872C161.626 281.805 159.591 282.272 157.351 282.272C154.85 282.272 152.61 281.768 150.631 280.76C148.69 279.715 147.159 278.203 146.039 276.224C144.919 274.245 144.359 271.856 144.359 269.056C144.359 265.061 145.516 261.851 147.831 259.424C150.146 256.96 153.431 255.728 157.687 255.728C162.914 255.728 166.572 257.427 168.663 260.824C170.791 264.221 171.855 269.28 171.855 276C171.855 280.704 171.426 284.587 170.567 287.648C169.746 290.709 168.327 293.043 166.311 294.648C164.332 296.253 161.607 297.056 158.135 297.056C154.327 297.056 151.359 296.029 149.231 293.976C147.103 291.923 145.89 289.309 145.591 286.136H150.295ZM158.191 277.96C160.692 277.96 162.746 277.195 164.351 275.664C165.956 274.096 166.759 271.987 166.759 269.336C166.759 266.536 165.975 264.277 164.407 262.56C162.839 260.843 160.636 259.984 157.799 259.984C155.186 259.984 153.095 260.805 151.527 262.448C149.996 264.091 149.231 266.256 149.231 268.944C149.231 271.669 149.996 273.853 151.527 275.496C153.058 277.139 155.279 277.96 158.191 277.96Z" fill="#F9AB35"/>
<path d="M202.685 254.964H206.101V256H201.411V246.242H202.685V254.964ZM214.454 251.87C214.454 252.113 214.44 252.369 214.412 252.64H208.28C208.327 253.396 208.584 253.989 209.05 254.418C209.526 254.838 210.1 255.048 210.772 255.048C211.323 255.048 211.78 254.922 212.144 254.67C212.518 254.409 212.779 254.063 212.928 253.634H214.3C214.095 254.371 213.684 254.973 213.068 255.44C212.452 255.897 211.687 256.126 210.772 256.126C210.044 256.126 209.391 255.963 208.812 255.636C208.243 255.309 207.795 254.847 207.468 254.25C207.142 253.643 206.978 252.943 206.978 252.15C206.978 251.357 207.137 250.661 207.454 250.064C207.772 249.467 208.215 249.009 208.784 248.692C209.363 248.365 210.026 248.202 210.772 248.202C211.5 248.202 212.144 248.361 212.704 248.678C213.264 248.995 213.694 249.434 213.992 249.994C214.3 250.545 214.454 251.17 214.454 251.87ZM213.138 251.604C213.138 251.119 213.031 250.703 212.816 250.358C212.602 250.003 212.308 249.737 211.934 249.56C211.57 249.373 211.164 249.28 210.716 249.28C210.072 249.28 209.522 249.485 209.064 249.896C208.616 250.307 208.36 250.876 208.294 251.604H213.138ZM218.992 254.824L221.372 248.328H222.73L219.72 256H218.236L215.226 248.328H216.598L218.992 254.824ZM230.984 251.87C230.984 252.113 230.97 252.369 230.942 252.64H224.81C224.856 253.396 225.113 253.989 225.58 254.418C226.056 254.838 226.63 255.048 227.302 255.048C227.852 255.048 228.31 254.922 228.674 254.67C229.047 254.409 229.308 254.063 229.458 253.634H230.83C230.624 254.371 230.214 254.973 229.598 255.44C228.982 255.897 228.216 256.126 227.302 256.126C226.574 256.126 225.92 255.963 225.342 255.636C224.772 255.309 224.324 254.847 223.998 254.25C223.671 253.643 223.508 252.943 223.508 252.15C223.508 251.357 223.666 250.661 223.984 250.064C224.301 249.467 224.744 249.009 225.314 248.692C225.892 248.365 226.555 248.202 227.302 248.202C228.03 248.202 228.674 248.361 229.234 248.678C229.794 248.995 230.223 249.434 230.522 249.994C230.83 250.545 230.984 251.17 230.984 251.87ZM229.668 251.604C229.668 251.119 229.56 250.703 229.346 250.358C229.131 250.003 228.837 249.737 228.464 249.56C228.1 249.373 227.694 249.28 227.246 249.28C226.602 249.28 226.051 249.485 225.594 249.896C225.146 250.307 224.889 250.876 224.824 251.604H229.668ZM233.939 245.64V256H232.665V245.64H233.939ZM238.827 256.126C238.239 256.126 237.711 256.028 237.245 255.832C236.778 255.627 236.409 255.347 236.139 254.992C235.868 254.628 235.719 254.213 235.691 253.746H237.007C237.044 254.129 237.221 254.441 237.539 254.684C237.865 254.927 238.29 255.048 238.813 255.048C239.298 255.048 239.681 254.941 239.961 254.726C240.241 254.511 240.381 254.241 240.381 253.914C240.381 253.578 240.231 253.331 239.933 253.172C239.634 253.004 239.172 252.841 238.547 252.682C237.977 252.533 237.511 252.383 237.147 252.234C236.792 252.075 236.484 251.847 236.223 251.548C235.971 251.24 235.845 250.839 235.845 250.344C235.845 249.952 235.961 249.593 236.195 249.266C236.428 248.939 236.759 248.683 237.189 248.496C237.618 248.3 238.108 248.202 238.659 248.202C239.508 248.202 240.194 248.417 240.717 248.846C241.239 249.275 241.519 249.863 241.557 250.61H240.283C240.255 250.209 240.091 249.887 239.793 249.644C239.503 249.401 239.111 249.28 238.617 249.28C238.159 249.28 237.795 249.378 237.525 249.574C237.254 249.77 237.119 250.027 237.119 250.344C237.119 250.596 237.198 250.806 237.357 250.974C237.525 251.133 237.73 251.263 237.973 251.366C238.225 251.459 238.57 251.567 239.009 251.688C239.559 251.837 240.007 251.987 240.353 252.136C240.698 252.276 240.992 252.491 241.235 252.78C241.487 253.069 241.617 253.447 241.627 253.914C241.627 254.334 241.51 254.712 241.277 255.048C241.043 255.384 240.712 255.65 240.283 255.846C239.863 256.033 239.377 256.126 238.827 256.126ZM246.681 251.114C246.681 250.162 246.896 249.308 247.325 248.552C247.755 247.787 248.338 247.189 249.075 246.76C249.822 246.331 250.648 246.116 251.553 246.116C252.617 246.116 253.546 246.373 254.339 246.886C255.133 247.399 255.711 248.127 256.075 249.07H254.549C254.279 248.482 253.887 248.029 253.373 247.712C252.869 247.395 252.263 247.236 251.553 247.236C250.872 247.236 250.261 247.395 249.719 247.712C249.178 248.029 248.753 248.482 248.445 249.07C248.137 249.649 247.983 250.33 247.983 251.114C247.983 251.889 248.137 252.57 248.445 253.158C248.753 253.737 249.178 254.185 249.719 254.502C250.261 254.819 250.872 254.978 251.553 254.978C252.263 254.978 252.869 254.824 253.373 254.516C253.887 254.199 254.279 253.746 254.549 253.158H256.075C255.711 254.091 255.133 254.815 254.339 255.328C253.546 255.832 252.617 256.084 251.553 256.084C250.648 256.084 249.822 255.874 249.075 255.454C248.338 255.025 247.755 254.432 247.325 253.676C246.896 252.92 246.681 252.066 246.681 251.114ZM261.318 256.126C260.599 256.126 259.946 255.963 259.358 255.636C258.779 255.309 258.322 254.847 257.986 254.25C257.659 253.643 257.496 252.943 257.496 252.15C257.496 251.366 257.664 250.675 258 250.078C258.345 249.471 258.812 249.009 259.4 248.692C259.988 248.365 260.646 248.202 261.374 248.202C262.102 248.202 262.76 248.365 263.348 248.692C263.936 249.009 264.398 249.467 264.734 250.064C265.079 250.661 265.252 251.357 265.252 252.15C265.252 252.943 265.075 253.643 264.72 254.25C264.375 254.847 263.903 255.309 263.306 255.636C262.709 255.963 262.046 256.126 261.318 256.126ZM261.318 255.006C261.775 255.006 262.205 254.899 262.606 254.684C263.007 254.469 263.329 254.147 263.572 253.718C263.824 253.289 263.95 252.766 263.95 252.15C263.95 251.534 263.829 251.011 263.586 250.582C263.343 250.153 263.026 249.835 262.634 249.63C262.242 249.415 261.817 249.308 261.36 249.308C260.893 249.308 260.464 249.415 260.072 249.63C259.689 249.835 259.381 250.153 259.148 250.582C258.915 251.011 258.798 251.534 258.798 252.15C258.798 252.775 258.91 253.303 259.134 253.732C259.367 254.161 259.675 254.483 260.058 254.698C260.441 254.903 260.861 255.006 261.318 255.006ZM276.153 248.188C276.75 248.188 277.282 248.314 277.749 248.566C278.216 248.809 278.584 249.177 278.855 249.672C279.126 250.167 279.261 250.769 279.261 251.478V256H278.001V251.66C278.001 250.895 277.81 250.311 277.427 249.91C277.054 249.499 276.545 249.294 275.901 249.294C275.238 249.294 274.711 249.509 274.319 249.938C273.927 250.358 273.731 250.969 273.731 251.772V256H272.471V251.66C272.471 250.895 272.28 250.311 271.897 249.91C271.524 249.499 271.015 249.294 270.371 249.294C269.708 249.294 269.181 249.509 268.789 249.938C268.397 250.358 268.201 250.969 268.201 251.772V256H266.927V248.328H268.201V249.434C268.453 249.033 268.789 248.725 269.209 248.51C269.638 248.295 270.11 248.188 270.623 248.188C271.267 248.188 271.836 248.333 272.331 248.622C272.826 248.911 273.194 249.336 273.437 249.896C273.652 249.355 274.006 248.935 274.501 248.636C274.996 248.337 275.546 248.188 276.153 248.188ZM282.625 249.742C282.877 249.303 283.25 248.939 283.745 248.65C284.249 248.351 284.832 248.202 285.495 248.202C286.176 248.202 286.792 248.365 287.343 248.692C287.903 249.019 288.341 249.481 288.659 250.078C288.976 250.666 289.135 251.352 289.135 252.136C289.135 252.911 288.976 253.601 288.659 254.208C288.341 254.815 287.903 255.286 287.343 255.622C286.792 255.958 286.176 256.126 285.495 256.126C284.841 256.126 284.263 255.981 283.759 255.692C283.264 255.393 282.886 255.025 282.625 254.586V259.64H281.351V248.328H282.625V249.742ZM287.833 252.136C287.833 251.557 287.716 251.053 287.483 250.624C287.249 250.195 286.932 249.868 286.531 249.644C286.139 249.42 285.705 249.308 285.229 249.308C284.762 249.308 284.328 249.425 283.927 249.658C283.535 249.882 283.217 250.213 282.975 250.652C282.741 251.081 282.625 251.581 282.625 252.15C282.625 252.729 282.741 253.237 282.975 253.676C283.217 254.105 283.535 254.437 283.927 254.67C284.328 254.894 284.762 255.006 285.229 255.006C285.705 255.006 286.139 254.894 286.531 254.67C286.932 254.437 287.249 254.105 287.483 253.676C287.716 253.237 287.833 252.724 287.833 252.136ZM292.086 245.64V256H290.812V245.64H292.086ZM301.257 251.87C301.257 252.113 301.243 252.369 301.215 252.64H295.083C295.13 253.396 295.386 253.989 295.853 254.418C296.329 254.838 296.903 255.048 297.575 255.048C298.126 255.048 298.583 254.922 298.947 254.67C299.32 254.409 299.582 254.063 299.731 253.634H301.103C300.898 254.371 300.487 254.973 299.871 255.44C299.255 255.897 298.49 256.126 297.575 256.126C296.847 256.126 296.194 255.963 295.615 255.636C295.046 255.309 294.598 254.847 294.271 254.25C293.944 253.643 293.781 252.943 293.781 252.15C293.781 251.357 293.94 250.661 294.257 250.064C294.574 249.467 295.018 249.009 295.587 248.692C296.166 248.365 296.828 248.202 297.575 248.202C298.303 248.202 298.947 248.361 299.507 248.678C300.067 248.995 300.496 249.434 300.795 249.994C301.103 250.545 301.257 251.17 301.257 251.87ZM299.941 251.604C299.941 251.119 299.834 250.703 299.619 250.358C299.404 250.003 299.11 249.737 298.737 249.56C298.373 249.373 297.967 249.28 297.519 249.28C296.875 249.28 296.324 249.485 295.867 249.896C295.419 250.307 295.162 250.876 295.097 251.604H299.941ZM304.493 249.378V253.9C304.493 254.273 304.572 254.539 304.731 254.698C304.889 254.847 305.165 254.922 305.557 254.922H306.495V256H305.347C304.637 256 304.105 255.837 303.751 255.51C303.396 255.183 303.219 254.647 303.219 253.9V249.378H302.225V248.328H303.219V246.396H304.493V248.328H306.495V249.378H304.493ZM315.038 251.87C315.038 252.113 315.024 252.369 314.996 252.64H308.864C308.911 253.396 309.168 253.989 309.634 254.418C310.11 254.838 310.684 255.048 311.356 255.048C311.907 255.048 312.364 254.922 312.728 254.67C313.102 254.409 313.363 254.063 313.512 253.634H314.884C314.679 254.371 314.268 254.973 313.652 255.44C313.036 255.897 312.271 256.126 311.356 256.126C310.628 256.126 309.975 255.963 309.396 255.636C308.827 255.309 308.379 254.847 308.052 254.25C307.726 253.643 307.562 252.943 307.562 252.15C307.562 251.357 307.721 250.661 308.038 250.064C308.356 249.467 308.799 249.009 309.368 248.692C309.947 248.365 310.61 248.202 311.356 248.202C312.084 248.202 312.728 248.361 313.288 248.678C313.848 248.995 314.278 249.434 314.576 249.994C314.884 250.545 315.038 251.17 315.038 251.87ZM313.722 251.604C313.722 251.119 313.615 250.703 313.4 250.358C313.186 250.003 312.892 249.737 312.518 249.56C312.154 249.373 311.748 249.28 311.3 249.28C310.656 249.28 310.106 249.485 309.648 249.896C309.2 250.307 308.944 250.876 308.878 251.604H313.722ZM316.244 252.136C316.244 251.352 316.403 250.666 316.72 250.078C317.037 249.481 317.471 249.019 318.022 248.692C318.582 248.365 319.207 248.202 319.898 248.202C320.495 248.202 321.051 248.342 321.564 248.622C322.077 248.893 322.469 249.252 322.74 249.7V245.64H324.028V256H322.74V254.558C322.488 255.015 322.115 255.393 321.62 255.692C321.125 255.981 320.547 256.126 319.884 256.126C319.203 256.126 318.582 255.958 318.022 255.622C317.471 255.286 317.037 254.815 316.72 254.208C316.403 253.601 316.244 252.911 316.244 252.136ZM322.74 252.15C322.74 251.571 322.623 251.067 322.39 250.638C322.157 250.209 321.839 249.882 321.438 249.658C321.046 249.425 320.612 249.308 320.136 249.308C319.66 249.308 319.226 249.42 318.834 249.644C318.442 249.868 318.129 250.195 317.896 250.624C317.663 251.053 317.546 251.557 317.546 252.136C317.546 252.724 317.663 253.237 317.896 253.676C318.129 254.105 318.442 254.437 318.834 254.67C319.226 254.894 319.66 255.006 320.136 255.006C320.612 255.006 321.046 254.894 321.438 254.67C321.839 254.437 322.157 254.105 322.39 253.676C322.623 253.237 322.74 252.729 322.74 252.15Z" fill="#434A5E"/>
<path d="M200.865 277.04V275.878H203.497V286H202.209V277.04H200.865ZM207.324 283.284C207.417 283.816 207.632 284.227 207.968 284.516C208.313 284.805 208.775 284.95 209.354 284.95C210.128 284.95 210.698 284.647 211.062 284.04C211.435 283.433 211.612 282.411 211.594 280.974C211.398 281.394 211.071 281.725 210.614 281.968C210.156 282.201 209.648 282.318 209.088 282.318C208.462 282.318 207.902 282.192 207.408 281.94C206.922 281.679 206.54 281.301 206.26 280.806C205.98 280.311 205.84 279.714 205.84 279.014C205.84 278.015 206.129 277.213 206.708 276.606C207.286 275.99 208.108 275.682 209.172 275.682C210.478 275.682 211.393 276.107 211.916 276.956C212.448 277.805 212.714 279.07 212.714 280.75C212.714 281.926 212.606 282.897 212.392 283.662C212.186 284.427 211.832 285.011 211.328 285.412C210.833 285.813 210.152 286.014 209.284 286.014C208.332 286.014 207.59 285.757 207.058 285.244C206.526 284.731 206.222 284.077 206.148 283.284H207.324ZM209.298 281.24C209.923 281.24 210.436 281.049 210.838 280.666C211.239 280.274 211.44 279.747 211.44 279.084C211.44 278.384 211.244 277.819 210.852 277.39C210.46 276.961 209.909 276.746 209.2 276.746C208.546 276.746 208.024 276.951 207.632 277.362C207.249 277.773 207.058 278.314 207.058 278.986C207.058 279.667 207.249 280.213 207.632 280.624C208.014 281.035 208.57 281.24 209.298 281.24ZM219.721 284.964H223.137V286H218.447V276.242H219.721V284.964ZM231.489 281.87C231.489 282.113 231.475 282.369 231.447 282.64H225.315C225.362 283.396 225.619 283.989 226.085 284.418C226.561 284.838 227.135 285.048 227.807 285.048C228.358 285.048 228.815 284.922 229.179 284.67C229.553 284.409 229.814 284.063 229.963 283.634H231.335C231.13 284.371 230.719 284.973 230.103 285.44C229.487 285.897 228.722 286.126 227.807 286.126C227.079 286.126 226.426 285.963 225.847 285.636C225.278 285.309 224.83 284.847 224.503 284.25C224.177 283.643 224.013 282.943 224.013 282.15C224.013 281.357 224.172 280.661 224.489 280.064C224.807 279.467 225.25 279.009 225.819 278.692C226.398 278.365 227.061 278.202 227.807 278.202C228.535 278.202 229.179 278.361 229.739 278.678C230.299 278.995 230.729 279.434 231.027 279.994C231.335 280.545 231.489 281.17 231.489 281.87ZM230.173 281.604C230.173 281.119 230.066 280.703 229.851 280.358C229.637 280.003 229.343 279.737 228.969 279.56C228.605 279.373 228.199 279.28 227.751 279.28C227.107 279.28 226.557 279.485 226.099 279.896C225.651 280.307 225.395 280.876 225.329 281.604H230.173ZM236.027 284.824L238.407 278.328H239.765L236.755 286H235.271L232.261 278.328H233.633L236.027 284.824ZM248.019 281.87C248.019 282.113 248.005 282.369 247.977 282.64H241.845C241.891 283.396 242.148 283.989 242.615 284.418C243.091 284.838 243.665 285.048 244.337 285.048C244.887 285.048 245.345 284.922 245.709 284.67C246.082 284.409 246.343 284.063 246.493 283.634H247.865C247.659 284.371 247.249 284.973 246.633 285.44C246.017 285.897 245.251 286.126 244.337 286.126C243.609 286.126 242.955 285.963 242.377 285.636C241.807 285.309 241.359 284.847 241.033 284.25C240.706 283.643 240.543 282.943 240.543 282.15C240.543 281.357 240.701 280.661 241.019 280.064C241.336 279.467 241.779 279.009 242.349 278.692C242.927 278.365 243.59 278.202 244.337 278.202C245.065 278.202 245.709 278.361 246.269 278.678C246.829 278.995 247.258 279.434 247.557 279.994C247.865 280.545 248.019 281.17 248.019 281.87ZM246.703 281.604C246.703 281.119 246.595 280.703 246.381 280.358C246.166 280.003 245.872 279.737 245.499 279.56C245.135 279.373 244.729 279.28 244.281 279.28C243.637 279.28 243.086 279.485 242.629 279.896C242.181 280.307 241.924 280.876 241.859 281.604H246.703ZM250.974 275.64V286H249.7V275.64H250.974ZM255.862 286.126C255.274 286.126 254.746 286.028 254.28 285.832C253.813 285.627 253.444 285.347 253.174 284.992C252.903 284.628 252.754 284.213 252.726 283.746H254.042C254.079 284.129 254.256 284.441 254.574 284.684C254.9 284.927 255.325 285.048 255.848 285.048C256.333 285.048 256.716 284.941 256.996 284.726C257.276 284.511 257.416 284.241 257.416 283.914C257.416 283.578 257.266 283.331 256.968 283.172C256.669 283.004 256.207 282.841 255.582 282.682C255.012 282.533 254.546 282.383 254.182 282.234C253.827 282.075 253.519 281.847 253.258 281.548C253.006 281.24 252.88 280.839 252.88 280.344C252.88 279.952 252.996 279.593 253.23 279.266C253.463 278.939 253.794 278.683 254.224 278.496C254.653 278.3 255.143 278.202 255.694 278.202C256.543 278.202 257.229 278.417 257.752 278.846C258.274 279.275 258.554 279.863 258.592 280.61H257.318C257.29 280.209 257.126 279.887 256.828 279.644C256.538 279.401 256.146 279.28 255.652 279.28C255.194 279.28 254.83 279.378 254.56 279.574C254.289 279.77 254.154 280.027 254.154 280.344C254.154 280.596 254.233 280.806 254.392 280.974C254.56 281.133 254.765 281.263 255.008 281.366C255.26 281.459 255.605 281.567 256.044 281.688C256.594 281.837 257.042 281.987 257.388 282.136C257.733 282.276 258.027 282.491 258.27 282.78C258.522 283.069 258.652 283.447 258.662 283.914C258.662 284.334 258.545 284.712 258.312 285.048C258.078 285.384 257.747 285.65 257.318 285.846C256.898 286.033 256.412 286.126 255.862 286.126ZM263.717 281.114C263.717 280.162 263.931 279.308 264.361 278.552C264.79 277.787 265.373 277.189 266.111 276.76C266.857 276.331 267.683 276.116 268.589 276.116C269.653 276.116 270.581 276.373 271.375 276.886C272.168 277.399 272.747 278.127 273.111 279.07H271.585C271.314 278.482 270.922 278.029 270.409 277.712C269.905 277.395 269.298 277.236 268.589 277.236C267.907 277.236 267.296 277.395 266.755 277.712C266.213 278.029 265.789 278.482 265.481 279.07C265.173 279.649 265.019 280.33 265.019 281.114C265.019 281.889 265.173 282.57 265.481 283.158C265.789 283.737 266.213 284.185 266.755 284.502C267.296 284.819 267.907 284.978 268.589 284.978C269.298 284.978 269.905 284.824 270.409 284.516C270.922 284.199 271.314 283.746 271.585 283.158H273.111C272.747 284.091 272.168 284.815 271.375 285.328C270.581 285.832 269.653 286.084 268.589 286.084C267.683 286.084 266.857 285.874 266.111 285.454C265.373 285.025 264.79 284.432 264.361 283.676C263.931 282.92 263.717 282.066 263.717 281.114ZM276.281 275.64V286H275.007V275.64H276.281ZM285.452 281.87C285.452 282.113 285.438 282.369 285.41 282.64H279.278C279.325 283.396 279.582 283.989 280.048 284.418C280.524 284.838 281.098 285.048 281.77 285.048C282.321 285.048 282.778 284.922 283.142 284.67C283.516 284.409 283.777 284.063 283.926 283.634H285.298C285.093 284.371 284.682 284.973 284.066 285.44C283.45 285.897 282.685 286.126 281.77 286.126C281.042 286.126 280.389 285.963 279.81 285.636C279.241 285.309 278.793 284.847 278.466 284.25C278.14 283.643 277.976 282.943 277.976 282.15C277.976 281.357 278.135 280.661 278.452 280.064C278.77 279.467 279.213 279.009 279.782 278.692C280.361 278.365 281.024 278.202 281.77 278.202C282.498 278.202 283.142 278.361 283.702 278.678C284.262 278.995 284.692 279.434 284.99 279.994C285.298 280.545 285.452 281.17 285.452 281.87ZM284.136 281.604C284.136 281.119 284.029 280.703 283.814 280.358C283.6 280.003 283.306 279.737 282.932 279.56C282.568 279.373 282.162 279.28 281.714 279.28C281.07 279.28 280.52 279.485 280.062 279.896C279.614 280.307 279.358 280.876 279.292 281.604H284.136ZM286.658 282.136C286.658 281.352 286.817 280.666 287.134 280.078C287.451 279.481 287.885 279.019 288.436 278.692C288.996 278.365 289.617 278.202 290.298 278.202C290.97 278.202 291.553 278.347 292.048 278.636C292.543 278.925 292.911 279.289 293.154 279.728V278.328H294.442V286H293.154V284.572C292.902 285.02 292.524 285.393 292.02 285.692C291.525 285.981 290.947 286.126 290.284 286.126C289.603 286.126 288.987 285.958 288.436 285.622C287.885 285.286 287.451 284.815 287.134 284.208C286.817 283.601 286.658 282.911 286.658 282.136ZM293.154 282.15C293.154 281.571 293.037 281.067 292.804 280.638C292.571 280.209 292.253 279.882 291.852 279.658C291.46 279.425 291.026 279.308 290.55 279.308C290.074 279.308 289.64 279.42 289.248 279.644C288.856 279.868 288.543 280.195 288.31 280.624C288.077 281.053 287.96 281.557 287.96 282.136C287.96 282.724 288.077 283.237 288.31 283.676C288.543 284.105 288.856 284.437 289.248 284.67C289.64 284.894 290.074 285.006 290.55 285.006C291.026 285.006 291.46 284.894 291.852 284.67C292.253 284.437 292.571 284.105 292.804 283.676C293.037 283.237 293.154 282.729 293.154 282.15ZM297.869 279.574C298.093 279.135 298.41 278.795 298.821 278.552C299.241 278.309 299.75 278.188 300.347 278.188V279.504H300.011C298.583 279.504 297.869 280.279 297.869 281.828V286H296.595V278.328H297.869V279.574ZM308.818 281.87C308.818 282.113 308.804 282.369 308.776 282.64H302.644C302.69 283.396 302.947 283.989 303.414 284.418C303.89 284.838 304.464 285.048 305.136 285.048C305.686 285.048 306.144 284.922 306.508 284.67C306.881 284.409 307.142 284.063 307.292 283.634H308.664C308.458 284.371 308.048 284.973 307.432 285.44C306.816 285.897 306.05 286.126 305.136 286.126C304.408 286.126 303.754 285.963 303.176 285.636C302.606 285.309 302.158 284.847 301.832 284.25C301.505 283.643 301.342 282.943 301.342 282.15C301.342 281.357 301.5 280.661 301.818 280.064C302.135 279.467 302.578 279.009 303.148 278.692C303.726 278.365 304.389 278.202 305.136 278.202C305.864 278.202 306.508 278.361 307.068 278.678C307.628 278.995 308.057 279.434 308.356 279.994C308.664 280.545 308.818 281.17 308.818 281.87ZM307.502 281.604C307.502 281.119 307.394 280.703 307.18 280.358C306.965 280.003 306.671 279.737 306.298 279.56C305.934 279.373 305.528 279.28 305.08 279.28C304.436 279.28 303.885 279.485 303.428 279.896C302.98 280.307 302.723 280.876 302.658 281.604H307.502ZM310.023 282.136C310.023 281.352 310.182 280.666 310.499 280.078C310.817 279.481 311.251 279.019 311.801 278.692C312.361 278.365 312.987 278.202 313.677 278.202C314.275 278.202 314.83 278.342 315.343 278.622C315.857 278.893 316.249 279.252 316.519 279.7V275.64H317.807V286H316.519V284.558C316.267 285.015 315.894 285.393 315.399 285.692C314.905 285.981 314.326 286.126 313.663 286.126C312.982 286.126 312.361 285.958 311.801 285.622C311.251 285.286 310.817 284.815 310.499 284.208C310.182 283.601 310.023 282.911 310.023 282.136ZM316.519 282.15C316.519 281.571 316.403 281.067 316.169 280.638C315.936 280.209 315.619 279.882 315.217 279.658C314.825 279.425 314.391 279.308 313.915 279.308C313.439 279.308 313.005 279.42 312.613 279.644C312.221 279.868 311.909 280.195 311.675 280.624C311.442 281.053 311.325 281.557 311.325 282.136C311.325 282.724 311.442 283.237 311.675 283.676C311.909 284.105 312.221 284.437 312.613 284.67C313.005 284.894 313.439 285.006 313.915 285.006C314.391 285.006 314.825 284.894 315.217 284.67C315.619 284.437 315.936 284.105 316.169 283.676C316.403 283.237 316.519 282.729 316.519 282.15ZM324.351 277.082C324.108 277.082 323.903 276.998 323.735 276.83C323.567 276.662 323.483 276.457 323.483 276.214C323.483 275.971 323.567 275.766 323.735 275.598C323.903 275.43 324.108 275.346 324.351 275.346C324.584 275.346 324.78 275.43 324.939 275.598C325.107 275.766 325.191 275.971 325.191 276.214C325.191 276.457 325.107 276.662 324.939 276.83C324.78 276.998 324.584 277.082 324.351 277.082ZM324.967 278.328V286H323.693V278.328H324.967ZM330.876 278.188C331.809 278.188 332.565 278.473 333.144 279.042C333.723 279.602 334.012 280.414 334.012 281.478V286H332.752V281.66C332.752 280.895 332.561 280.311 332.178 279.91C331.795 279.499 331.273 279.294 330.61 279.294C329.938 279.294 329.401 279.504 329 279.924C328.608 280.344 328.412 280.955 328.412 281.758V286H327.138V278.328H328.412V279.42C328.664 279.028 329.005 278.725 329.434 278.51C329.873 278.295 330.353 278.188 330.876 278.188ZM339.279 277.04V275.878H341.911V286H340.623V277.04H339.279ZM210.637 300.188C211.235 300.188 211.767 300.314 212.233 300.566C212.7 300.809 213.069 301.177 213.339 301.672C213.61 302.167 213.745 302.769 213.745 303.478V308H212.485V303.66C212.485 302.895 212.294 302.311 211.911 301.91C211.538 301.499 211.029 301.294 210.385 301.294C209.723 301.294 209.195 301.509 208.803 301.938C208.411 302.358 208.215 302.969 208.215 303.772V308H206.955V303.66C206.955 302.895 206.764 302.311 206.381 301.91C206.008 301.499 205.499 301.294 204.855 301.294C204.193 301.294 203.665 301.509 203.273 301.938C202.881 302.358 202.685 302.969 202.685 303.772V308H201.411V300.328H202.685V301.434C202.937 301.033 203.273 300.725 203.693 300.51C204.123 300.295 204.594 300.188 205.107 300.188C205.751 300.188 206.321 300.333 206.815 300.622C207.31 300.911 207.679 301.336 207.921 301.896C208.136 301.355 208.491 300.935 208.985 300.636C209.48 300.337 210.031 300.188 210.637 300.188ZM219.181 308.126C218.463 308.126 217.809 307.963 217.221 307.636C216.643 307.309 216.185 306.847 215.849 306.25C215.523 305.643 215.359 304.943 215.359 304.15C215.359 303.366 215.527 302.675 215.863 302.078C216.209 301.471 216.675 301.009 217.263 300.692C217.851 300.365 218.509 300.202 219.237 300.202C219.965 300.202 220.623 300.365 221.211 300.692C221.799 301.009 222.261 301.467 222.597 302.064C222.943 302.661 223.115 303.357 223.115 304.15C223.115 304.943 222.938 305.643 222.583 306.25C222.238 306.847 221.767 307.309 221.169 307.636C220.572 307.963 219.909 308.126 219.181 308.126ZM219.181 307.006C219.639 307.006 220.068 306.899 220.469 306.684C220.871 306.469 221.193 306.147 221.435 305.718C221.687 305.289 221.813 304.766 221.813 304.15C221.813 303.534 221.692 303.011 221.449 302.582C221.207 302.153 220.889 301.835 220.497 301.63C220.105 301.415 219.681 301.308 219.223 301.308C218.757 301.308 218.327 301.415 217.935 301.63C217.553 301.835 217.245 302.153 217.011 302.582C216.778 303.011 216.661 303.534 216.661 304.15C216.661 304.775 216.773 305.303 216.997 305.732C217.231 306.161 217.539 306.483 217.921 306.698C218.304 306.903 218.724 307.006 219.181 307.006ZM228.528 300.188C229.462 300.188 230.218 300.473 230.796 301.042C231.375 301.602 231.664 302.414 231.664 303.478V308H230.404V303.66C230.404 302.895 230.213 302.311 229.83 301.91C229.448 301.499 228.925 301.294 228.262 301.294C227.59 301.294 227.054 301.504 226.652 301.924C226.26 302.344 226.064 302.955 226.064 303.758V308H224.79V300.328H226.064V301.42C226.316 301.028 226.657 300.725 227.086 300.51C227.525 300.295 228.006 300.188 228.528 300.188ZM235.299 301.378V305.9C235.299 306.273 235.379 306.539 235.537 306.698C235.696 306.847 235.971 306.922 236.363 306.922H237.301V308H236.153C235.444 308 234.912 307.837 234.557 307.51C234.203 307.183 234.025 306.647 234.025 305.9V301.378H233.031V300.328H234.025V298.396H235.299V300.328H237.301V301.378H235.299ZM242.653 300.188C243.232 300.188 243.754 300.314 244.221 300.566C244.688 300.809 245.052 301.177 245.313 301.672C245.584 302.167 245.719 302.769 245.719 303.478V308H244.459V303.66C244.459 302.895 244.268 302.311 243.885 301.91C243.502 301.499 242.98 301.294 242.317 301.294C241.645 301.294 241.108 301.504 240.707 301.924C240.315 302.344 240.119 302.955 240.119 303.758V308H238.845V297.64H240.119V301.42C240.371 301.028 240.716 300.725 241.155 300.51C241.603 300.295 242.102 300.188 242.653 300.188Z" fill="#434A5E"/>
<line x1="24.3334" y1="337.5" x2="379" y2="337.5" stroke="#E2E9FC"/>
<path d="M25.2014 372.834C25.2014 371.229 25.4627 369.978 25.9854 369.082C26.508 368.177 27.4227 367.724 28.7294 367.724C30.0267 367.724 30.9367 368.177 31.4594 369.082C31.982 369.978 32.2434 371.229 32.2434 372.834C32.2434 374.467 31.982 375.737 31.4594 376.642C30.9367 377.547 30.0267 378 28.7294 378C27.4227 378 26.508 377.547 25.9854 376.642C25.4627 375.737 25.2014 374.467 25.2014 372.834ZM30.9834 372.834C30.9834 372.022 30.9274 371.336 30.8154 370.776C30.7127 370.207 30.4934 369.749 30.1574 369.404C29.8307 369.059 29.3547 368.886 28.7294 368.886C28.0947 368.886 27.6094 369.059 27.2734 369.404C26.9467 369.749 26.7274 370.207 26.6154 370.776C26.5127 371.336 26.4614 372.022 26.4614 372.834C26.4614 373.674 26.5127 374.379 26.6154 374.948C26.7274 375.517 26.9467 375.975 27.2734 376.32C27.6094 376.665 28.0947 376.838 28.7294 376.838C29.3547 376.838 29.8307 376.665 30.1574 376.32C30.4934 375.975 30.7127 375.517 30.8154 374.948C30.9274 374.379 30.9834 373.674 30.9834 372.834ZM38.6208 369.082C38.3781 369.082 38.1728 368.998 38.0048 368.83C37.8461 368.662 37.7668 368.457 37.7668 368.214C37.7668 367.971 37.8461 367.766 38.0048 367.598C38.1728 367.43 38.3781 367.346 38.6208 367.346C38.8635 367.346 39.0641 367.43 39.2228 367.598C39.3908 367.766 39.4748 367.971 39.4748 368.214C39.4748 368.457 39.3908 368.662 39.2228 368.83C39.0641 368.998 38.8635 369.082 38.6208 369.082ZM39.2508 379.666C39.2508 380.347 39.0781 380.847 38.7328 381.164C38.3875 381.481 37.8835 381.64 37.2208 381.64H36.4788V380.562H37.0108C37.3655 380.562 37.6128 380.492 37.7528 380.352C37.9021 380.212 37.9768 379.974 37.9768 379.638V370.328H39.2508V379.666ZM44.7535 378.126C44.0348 378.126 43.3815 377.963 42.7935 377.636C42.2148 377.309 41.7575 376.847 41.4215 376.25C41.0948 375.643 40.9315 374.943 40.9315 374.15C40.9315 373.366 41.0995 372.675 41.4355 372.078C41.7808 371.471 42.2475 371.009 42.8355 370.692C43.4235 370.365 44.0815 370.202 44.8095 370.202C45.5375 370.202 46.1955 370.365 46.7835 370.692C47.3715 371.009 47.8335 371.467 48.1695 372.064C48.5148 372.661 48.6875 373.357 48.6875 374.15C48.6875 374.943 48.5101 375.643 48.1555 376.25C47.8101 376.847 47.3388 377.309 46.7415 377.636C46.1441 377.963 45.4815 378.126 44.7535 378.126ZM44.7535 377.006C45.2108 377.006 45.6401 376.899 46.0415 376.684C46.4428 376.469 46.7648 376.147 47.0075 375.718C47.2595 375.289 47.3855 374.766 47.3855 374.15C47.3855 373.534 47.2641 373.011 47.0215 372.582C46.7788 372.153 46.4615 371.835 46.0695 371.63C45.6775 371.415 45.2528 371.308 44.7955 371.308C44.3288 371.308 43.8995 371.415 43.5075 371.63C43.1248 371.835 42.8168 372.153 42.5835 372.582C42.3501 373.011 42.2335 373.534 42.2335 374.15C42.2335 374.775 42.3455 375.303 42.5695 375.732C42.8028 376.161 43.1108 376.483 43.4935 376.698C43.8761 376.903 44.2961 377.006 44.7535 377.006ZM51.6365 371.756C51.8979 371.299 52.2805 370.925 52.7845 370.636C53.2885 370.347 53.8625 370.202 54.5065 370.202C55.1972 370.202 55.8179 370.365 56.3685 370.692C56.9192 371.019 57.3532 371.481 57.6705 372.078C57.9879 372.666 58.1465 373.352 58.1465 374.136C58.1465 374.911 57.9879 375.601 57.6705 376.208C57.3532 376.815 56.9145 377.286 56.3545 377.622C55.8039 377.958 55.1879 378.126 54.5065 378.126C53.8439 378.126 53.2605 377.981 52.7565 377.692C52.2619 377.403 51.8885 377.034 51.6365 376.586V378H50.3625V367.64H51.6365V371.756ZM56.8445 374.136C56.8445 373.557 56.7279 373.053 56.4945 372.624C56.2612 372.195 55.9439 371.868 55.5425 371.644C55.1505 371.42 54.7165 371.308 54.2405 371.308C53.7739 371.308 53.3399 371.425 52.9385 371.658C52.5465 371.882 52.2292 372.213 51.9865 372.652C51.7532 373.081 51.6365 373.581 51.6365 374.15C51.6365 374.729 51.7532 375.237 51.9865 375.676C52.2292 376.105 52.5465 376.437 52.9385 376.67C53.3399 376.894 53.7739 377.006 54.2405 377.006C54.7165 377.006 55.1505 376.894 55.5425 376.67C55.9439 376.437 56.2612 376.105 56.4945 375.676C56.7279 375.237 56.8445 374.724 56.8445 374.136ZM62.5395 378.126C61.9515 378.126 61.4242 378.028 60.9575 377.832C60.4908 377.627 60.1222 377.347 59.8515 376.992C59.5808 376.628 59.4315 376.213 59.4035 375.746H60.7195C60.7568 376.129 60.9342 376.441 61.2515 376.684C61.5782 376.927 62.0028 377.048 62.5255 377.048C63.0108 377.048 63.3935 376.941 63.6735 376.726C63.9535 376.511 64.0935 376.241 64.0935 375.914C64.0935 375.578 63.9442 375.331 63.6455 375.172C63.3468 375.004 62.8848 374.841 62.2595 374.682C61.6902 374.533 61.2235 374.383 60.8595 374.234C60.5048 374.075 60.1968 373.847 59.9355 373.548C59.6835 373.24 59.5575 372.839 59.5575 372.344C59.5575 371.952 59.6742 371.593 59.9075 371.266C60.1408 370.939 60.4722 370.683 60.9015 370.496C61.3308 370.3 61.8208 370.202 62.3715 370.202C63.2208 370.202 63.9068 370.417 64.4295 370.846C64.9522 371.275 65.2322 371.863 65.2695 372.61H63.9955C63.9675 372.209 63.8042 371.887 63.5055 371.644C63.2162 371.401 62.8242 371.28 62.3295 371.28C61.8722 371.28 61.5082 371.378 61.2375 371.574C60.9668 371.77 60.8315 372.027 60.8315 372.344C60.8315 372.596 60.9108 372.806 61.0695 372.974C61.2375 373.133 61.4428 373.263 61.6855 373.366C61.9375 373.459 62.2828 373.567 62.7215 373.688C63.2722 373.837 63.7202 373.987 64.0655 374.136C64.4108 374.276 64.7048 374.491 64.9475 374.78C65.1995 375.069 65.3302 375.447 65.3395 375.914C65.3395 376.334 65.2228 376.712 64.9895 377.048C64.7562 377.384 64.4248 377.65 63.9955 377.846C63.5755 378.033 63.0902 378.126 62.5395 378.126ZM70.3944 374.15C70.3944 373.357 70.553 372.666 70.8704 372.078C71.1877 371.481 71.6264 371.019 72.1864 370.692C72.7557 370.365 73.4044 370.202 74.1324 370.202C75.075 370.202 75.8497 370.431 76.4564 370.888C77.0724 371.345 77.4784 371.98 77.6744 372.792H76.3024C76.1717 372.325 75.915 371.957 75.5324 371.686C75.159 371.415 74.6924 371.28 74.1324 371.28C73.4044 371.28 72.8164 371.532 72.3684 372.036C71.9204 372.531 71.6964 373.235 71.6964 374.15C71.6964 375.074 71.9204 375.788 72.3684 376.292C72.8164 376.796 73.4044 377.048 74.1324 377.048C74.6924 377.048 75.159 376.917 75.5324 376.656C75.9057 376.395 76.1624 376.021 76.3024 375.536H77.6744C77.469 376.32 77.0584 376.95 76.4424 377.426C75.8264 377.893 75.0564 378.126 74.1324 378.126C73.4044 378.126 72.7557 377.963 72.1864 377.636C71.6264 377.309 71.1877 376.847 70.8704 376.25C70.553 375.653 70.3944 374.953 70.3944 374.15ZM80.6483 371.574C80.8723 371.135 81.1896 370.795 81.6003 370.552C82.0203 370.309 82.5289 370.188 83.1263 370.188V371.504H82.7903C81.3623 371.504 80.6483 372.279 80.6483 373.828V378H79.3743V370.328H80.6483V371.574ZM91.5969 373.87C91.5969 374.113 91.5829 374.369 91.5549 374.64H85.4229C85.4696 375.396 85.7263 375.989 86.1929 376.418C86.6689 376.838 87.2429 377.048 87.9149 377.048C88.4656 377.048 88.9229 376.922 89.2869 376.67C89.6603 376.409 89.9216 376.063 90.0709 375.634H91.4429C91.2376 376.371 90.8269 376.973 90.2109 377.44C89.5949 377.897 88.8296 378.126 87.9149 378.126C87.1869 378.126 86.5336 377.963 85.9549 377.636C85.3856 377.309 84.9376 376.847 84.6109 376.25C84.2843 375.643 84.1209 374.943 84.1209 374.15C84.1209 373.357 84.2796 372.661 84.5969 372.064C84.9143 371.467 85.3576 371.009 85.9269 370.692C86.5056 370.365 87.1683 370.202 87.9149 370.202C88.6429 370.202 89.2869 370.361 89.8469 370.678C90.4069 370.995 90.8363 371.434 91.1349 371.994C91.4429 372.545 91.5969 373.17 91.5969 373.87ZM90.2809 373.604C90.2809 373.119 90.1736 372.703 89.9589 372.358C89.7443 372.003 89.4503 371.737 89.0769 371.56C88.7129 371.373 88.3069 371.28 87.8589 371.28C87.2149 371.28 86.6643 371.485 86.2069 371.896C85.7589 372.307 85.5023 372.876 85.4369 373.604H90.2809ZM92.8026 374.136C92.8026 373.352 92.9612 372.666 93.2786 372.078C93.5959 371.481 94.0299 371.019 94.5806 370.692C95.1406 370.365 95.7612 370.202 96.4426 370.202C97.1146 370.202 97.6979 370.347 98.1926 370.636C98.6872 370.925 99.0559 371.289 99.2986 371.728V370.328H100.587V378H99.2986V376.572C99.0466 377.02 98.6686 377.393 98.1646 377.692C97.6699 377.981 97.0912 378.126 96.4286 378.126C95.7472 378.126 95.1312 377.958 94.5806 377.622C94.0299 377.286 93.5959 376.815 93.2786 376.208C92.9612 375.601 92.8026 374.911 92.8026 374.136ZM99.2986 374.15C99.2986 373.571 99.1819 373.067 98.9486 372.638C98.7152 372.209 98.3979 371.882 97.9966 371.658C97.6046 371.425 97.1706 371.308 96.6946 371.308C96.2186 371.308 95.7846 371.42 95.3926 371.644C95.0006 371.868 94.6879 372.195 94.4546 372.624C94.2212 373.053 94.1046 373.557 94.1046 374.136C94.1046 374.724 94.2212 375.237 94.4546 375.676C94.6879 376.105 95.0006 376.437 95.3926 376.67C95.7846 376.894 96.2186 377.006 96.6946 377.006C97.1706 377.006 97.6046 376.894 97.9966 376.67C98.3979 376.437 98.7152 376.105 98.9486 375.676C99.1819 375.237 99.2986 374.729 99.2986 374.15ZM104.293 371.378V375.9C104.293 376.273 104.373 376.539 104.531 376.698C104.69 376.847 104.965 376.922 105.357 376.922H106.295V378H105.147C104.438 378 103.906 377.837 103.551 377.51C103.197 377.183 103.019 376.647 103.019 375.9V371.378H102.025V370.328H103.019V368.396H104.293V370.328H106.295V371.378H104.293ZM114.839 373.87C114.839 374.113 114.825 374.369 114.797 374.64H108.665C108.712 375.396 108.968 375.989 109.435 376.418C109.911 376.838 110.485 377.048 111.157 377.048C111.708 377.048 112.165 376.922 112.529 376.67C112.902 376.409 113.164 376.063 113.313 375.634H114.685C114.48 376.371 114.069 376.973 113.453 377.44C112.837 377.897 112.072 378.126 111.157 378.126C110.429 378.126 109.776 377.963 109.197 377.636C108.628 377.309 108.18 376.847 107.853 376.25C107.526 375.643 107.363 374.943 107.363 374.15C107.363 373.357 107.522 372.661 107.839 372.064C108.156 371.467 108.6 371.009 109.169 370.692C109.748 370.365 110.41 370.202 111.157 370.202C111.885 370.202 112.529 370.361 113.089 370.678C113.649 370.995 114.078 371.434 114.377 371.994C114.685 372.545 114.839 373.17 114.839 373.87ZM113.523 373.604C113.523 373.119 113.416 372.703 113.201 372.358C112.986 372.003 112.692 371.737 112.319 371.56C111.955 371.373 111.549 371.28 111.101 371.28C110.457 371.28 109.906 371.485 109.449 371.896C109.001 372.307 108.744 372.876 108.679 373.604H113.523ZM116.045 374.136C116.045 373.352 116.203 372.666 116.521 372.078C116.838 371.481 117.272 371.019 117.823 370.692C118.383 370.365 119.008 370.202 119.699 370.202C120.296 370.202 120.851 370.342 121.365 370.622C121.878 370.893 122.27 371.252 122.541 371.7V367.64H123.829V378H122.541V376.558C122.289 377.015 121.915 377.393 121.421 377.692C120.926 377.981 120.347 378.126 119.685 378.126C119.003 378.126 118.383 377.958 117.823 377.622C117.272 377.286 116.838 376.815 116.521 376.208C116.203 375.601 116.045 374.911 116.045 374.136ZM122.541 374.15C122.541 373.571 122.424 373.067 122.191 372.638C121.957 372.209 121.64 371.882 121.239 371.658C120.847 371.425 120.413 371.308 119.937 371.308C119.461 371.308 119.027 371.42 118.635 371.644C118.243 371.868 117.93 372.195 117.697 372.624C117.463 373.053 117.347 373.557 117.347 374.136C117.347 374.724 117.463 375.237 117.697 375.676C117.93 376.105 118.243 376.437 118.635 376.67C119.027 376.894 119.461 377.006 119.937 377.006C120.413 377.006 120.847 376.894 121.239 376.67C121.64 376.437 121.957 376.105 122.191 375.676C122.424 375.237 122.541 374.729 122.541 374.15ZM139.934 370.328L137.54 378H136.224L134.376 371.91L132.528 378H131.212L128.804 370.328H130.106L131.87 376.768L133.774 370.328H135.076L136.938 376.782L138.674 370.328H139.934ZM141.856 369.082C141.614 369.082 141.408 368.998 141.24 368.83C141.072 368.662 140.988 368.457 140.988 368.214C140.988 367.971 141.072 367.766 141.24 367.598C141.408 367.43 141.614 367.346 141.856 367.346C142.09 367.346 142.286 367.43 142.444 367.598C142.612 367.766 142.696 367.971 142.696 368.214C142.696 368.457 142.612 368.662 142.444 368.83C142.286 368.998 142.09 369.082 141.856 369.082ZM142.472 370.328V378H141.198V370.328H142.472ZM146.198 371.378V375.9C146.198 376.273 146.277 376.539 146.436 376.698C146.594 376.847 146.87 376.922 147.262 376.922H148.2V378H147.052C146.342 378 145.81 377.837 145.456 377.51C145.101 377.183 144.924 376.647 144.924 375.9V371.378H143.93V370.328H144.924V368.396H146.198V370.328H148.2V371.378H146.198ZM153.551 370.188C154.13 370.188 154.653 370.314 155.119 370.566C155.586 370.809 155.95 371.177 156.211 371.672C156.482 372.167 156.617 372.769 156.617 373.478V378H155.357V373.66C155.357 372.895 155.166 372.311 154.783 371.91C154.401 371.499 153.878 371.294 153.215 371.294C152.543 371.294 152.007 371.504 151.605 371.924C151.213 372.344 151.017 372.955 151.017 373.758V378H149.743V367.64H151.017V371.42C151.269 371.028 151.615 370.725 152.053 370.51C152.501 370.295 153.001 370.188 153.551 370.188ZM166.169 370.188C167.102 370.188 167.858 370.473 168.437 371.042C169.016 371.602 169.305 372.414 169.305 373.478V378H168.045V373.66C168.045 372.895 167.854 372.311 167.471 371.91C167.088 371.499 166.566 371.294 165.903 371.294C165.231 371.294 164.694 371.504 164.293 371.924C163.901 372.344 163.705 372.955 163.705 373.758V378H162.431V370.328H163.705V371.42C163.957 371.028 164.298 370.725 164.727 370.51C165.166 370.295 165.646 370.188 166.169 370.188ZM174.732 378.126C174.013 378.126 173.36 377.963 172.772 377.636C172.193 377.309 171.736 376.847 171.4 376.25C171.073 375.643 170.91 374.943 170.91 374.15C170.91 373.366 171.078 372.675 171.414 372.078C171.759 371.471 172.226 371.009 172.814 370.692C173.402 370.365 174.06 370.202 174.788 370.202C175.516 370.202 176.174 370.365 176.762 370.692C177.35 371.009 177.812 371.467 178.148 372.064C178.493 372.661 178.666 373.357 178.666 374.15C178.666 374.943 178.489 375.643 178.134 376.25C177.789 376.847 177.317 377.309 176.72 377.636C176.123 377.963 175.46 378.126 174.732 378.126ZM174.732 377.006C175.189 377.006 175.619 376.899 176.02 376.684C176.421 376.469 176.743 376.147 176.986 375.718C177.238 375.289 177.364 374.766 177.364 374.15C177.364 373.534 177.243 373.011 177 372.582C176.757 372.153 176.44 371.835 176.048 371.63C175.656 371.415 175.231 371.308 174.774 371.308C174.307 371.308 173.878 371.415 173.486 371.63C173.103 371.835 172.795 372.153 172.562 372.582C172.329 373.011 172.212 373.534 172.212 374.15C172.212 374.775 172.324 375.303 172.548 375.732C172.781 376.161 173.089 376.483 173.472 376.698C173.855 376.903 174.275 377.006 174.732 377.006ZM185.627 371.378V375.9C185.627 376.273 185.707 376.539 185.865 376.698C186.024 376.847 186.299 376.922 186.691 376.922H187.629V378H186.481C185.772 378 185.24 377.837 184.885 377.51C184.531 377.183 184.353 376.647 184.353 375.9V371.378H183.359V370.328H184.353V368.396H185.627V370.328H187.629V371.378H185.627ZM189.831 369.082C189.588 369.082 189.383 368.998 189.215 368.83C189.047 368.662 188.963 368.457 188.963 368.214C188.963 367.971 189.047 367.766 189.215 367.598C189.383 367.43 189.588 367.346 189.831 367.346C190.064 367.346 190.26 367.43 190.419 367.598C190.587 367.766 190.671 367.971 190.671 368.214C190.671 368.457 190.587 368.662 190.419 368.83C190.26 368.998 190.064 369.082 189.831 369.082ZM190.447 370.328V378H189.173V370.328H190.447ZM201.844 370.188C202.442 370.188 202.974 370.314 203.44 370.566C203.907 370.809 204.276 371.177 204.546 371.672C204.817 372.167 204.952 372.769 204.952 373.478V378H203.692V373.66C203.692 372.895 203.501 372.311 203.118 371.91C202.745 371.499 202.236 371.294 201.592 371.294C200.93 371.294 200.402 371.509 200.01 371.938C199.618 372.358 199.422 372.969 199.422 373.772V378H198.162V373.66C198.162 372.895 197.971 372.311 197.588 371.91C197.215 371.499 196.706 371.294 196.062 371.294C195.4 371.294 194.872 371.509 194.48 371.938C194.088 372.358 193.892 372.969 193.892 373.772V378H192.618V370.328H193.892V371.434C194.144 371.033 194.48 370.725 194.9 370.51C195.33 370.295 195.801 370.188 196.314 370.188C196.958 370.188 197.528 370.333 198.022 370.622C198.517 370.911 198.886 371.336 199.128 371.896C199.343 371.355 199.698 370.935 200.192 370.636C200.687 370.337 201.238 370.188 201.844 370.188ZM214.042 373.87C214.042 374.113 214.028 374.369 214 374.64H207.868C207.915 375.396 208.172 375.989 208.638 376.418C209.114 376.838 209.688 377.048 210.36 377.048C210.911 377.048 211.368 376.922 211.732 376.67C212.106 376.409 212.367 376.063 212.516 375.634H213.888C213.683 376.371 213.272 376.973 212.656 377.44C212.04 377.897 211.275 378.126 210.36 378.126C209.632 378.126 208.979 377.963 208.4 377.636C207.831 377.309 207.383 376.847 207.056 376.25C206.73 375.643 206.566 374.943 206.566 374.15C206.566 373.357 206.725 372.661 207.042 372.064C207.36 371.467 207.803 371.009 208.372 370.692C208.951 370.365 209.614 370.202 210.36 370.202C211.088 370.202 211.732 370.361 212.292 370.678C212.852 370.995 213.282 371.434 213.58 371.994C213.888 372.545 214.042 373.17 214.042 373.87ZM212.726 373.604C212.726 373.119 212.619 372.703 212.404 372.358C212.19 372.003 211.896 371.737 211.522 371.56C211.158 371.373 210.752 371.28 210.304 371.28C209.66 371.28 209.11 371.485 208.652 371.896C208.204 372.307 207.948 372.876 207.882 373.604H212.726Z" fill="#434A5E"/>
</svg>
