<svg width="403" height="432" viewBox="0 0 403 432" fill="none" xmlns="http://www.w3.org/2000/svg">
<rect width="402.667" height="432" rx="24" fill="white"/>
<path d="M29.056 42.112C28.2347 42.112 27.4987 41.9787 26.848 41.712C26.1973 41.4453 25.6747 41.0507 25.28 40.528C24.896 40.0053 24.6933 39.376 24.672 38.64H27.584C27.6267 39.056 27.7707 39.376 28.016 39.6C28.2613 39.8133 28.5813 39.92 28.976 39.92C29.3813 39.92 29.7013 39.8293 29.936 39.648C30.1707 39.456 30.288 39.1947 30.288 38.864C30.288 38.5867 30.192 38.3573 30 38.176C29.8187 37.9947 29.5893 37.8453 29.312 37.728C29.0453 37.6107 28.6613 37.4773 28.16 37.328C27.4347 37.104 26.8427 36.88 26.384 36.656C25.9253 36.432 25.5307 36.1013 25.2 35.664C24.8693 35.2267 24.704 34.656 24.704 33.952C24.704 32.9067 25.0827 32.0907 25.84 31.504C26.5973 30.9067 27.584 30.608 28.8 30.608C30.0373 30.608 31.0347 30.9067 31.792 31.504C32.5493 32.0907 32.9547 32.912 33.008 33.968H30.048C30.0267 33.6053 29.8933 33.3227 29.648 33.12C29.4027 32.9067 29.088 32.8 28.704 32.8C28.3733 32.8 28.1067 32.8907 27.904 33.072C27.7013 33.2427 27.6 33.4933 27.6 33.824C27.6 34.1867 27.7707 34.4693 28.112 34.672C28.4533 34.8747 28.9867 35.0933 29.712 35.328C30.4373 35.5733 31.024 35.808 31.472 36.032C31.9307 36.256 32.3253 36.5813 32.656 37.008C32.9867 37.4347 33.152 37.984 33.152 38.656C33.152 39.296 32.9867 39.8773 32.656 40.4C32.336 40.9227 31.8667 41.3387 31.248 41.648C30.6293 41.9573 29.8987 42.112 29.056 42.112ZM39.8118 39.68V42H38.4198C37.4278 42 36.6544 41.76 36.0998 41.28C35.5451 40.7893 35.2678 39.9947 35.2678 38.896V35.344H34.1798V33.072H35.2678V30.896H38.0038V33.072H39.7958V35.344H38.0038V38.928C38.0038 39.1947 38.0678 39.3867 38.1958 39.504C38.3238 39.6213 38.5371 39.68 38.8358 39.68H39.8118ZM40.7918 37.52C40.7918 36.6027 40.9624 35.7973 41.3038 35.104C41.6558 34.4107 42.1304 33.8773 42.7278 33.504C43.3251 33.1307 43.9918 32.944 44.7278 32.944C45.3571 32.944 45.9064 33.072 46.3758 33.328C46.8558 33.584 47.2238 33.92 47.4798 34.336V33.072H50.2158V42H47.4798V40.736C47.2131 41.152 46.8398 41.488 46.3598 41.744C45.8904 42 45.3411 42.128 44.7118 42.128C43.9864 42.128 43.3251 41.9413 42.7278 41.568C42.1304 41.184 41.6558 40.6453 41.3038 39.952C40.9624 39.248 40.7918 38.4373 40.7918 37.52ZM47.4798 37.536C47.4798 36.8533 47.2878 36.3147 46.9038 35.92C46.5304 35.5253 46.0718 35.328 45.5278 35.328C44.9838 35.328 44.5198 35.5253 44.1358 35.92C43.7624 36.304 43.5758 36.8373 43.5758 37.52C43.5758 38.2027 43.7624 38.7467 44.1358 39.152C44.5198 39.5467 44.9838 39.744 45.5278 39.744C46.0718 39.744 46.5304 39.5467 46.9038 39.152C47.2878 38.7573 47.4798 38.2187 47.4798 37.536ZM55.5871 32.944C56.2165 32.944 56.7658 33.072 57.2351 33.328C57.7151 33.584 58.0831 33.92 58.3391 34.336V33.072H61.0751V41.984C61.0751 42.8053 60.9098 43.5467 60.5791 44.208C60.2591 44.88 59.7631 45.4133 59.0911 45.808C58.4298 46.2027 57.6031 46.4 56.6111 46.4C55.2885 46.4 54.2165 46.0853 53.3951 45.456C52.5738 44.8373 52.1045 43.9947 51.9871 42.928H54.6911C54.7765 43.2693 54.9791 43.536 55.2991 43.728C55.6191 43.9307 56.0138 44.032 56.4831 44.032C57.0485 44.032 57.4965 43.8667 57.8271 43.536C58.1685 43.216 58.3391 42.6987 58.3391 41.984V40.72C58.0725 41.136 57.7045 41.4773 57.2351 41.744C56.7658 42 56.2165 42.128 55.5871 42.128C54.8511 42.128 54.1845 41.9413 53.5871 41.568C52.9898 41.184 52.5151 40.6453 52.1631 39.952C51.8218 39.248 51.6511 38.4373 51.6511 37.52C51.6511 36.6027 51.8218 35.7973 52.1631 35.104C52.5151 34.4107 52.9898 33.8773 53.5871 33.504C54.1845 33.1307 54.8511 32.944 55.5871 32.944ZM58.3391 37.536C58.3391 36.8533 58.1471 36.3147 57.7631 35.92C57.3898 35.5253 56.9311 35.328 56.3871 35.328C55.8431 35.328 55.3791 35.5253 54.9951 35.92C54.6218 36.304 54.4351 36.8373 54.4351 37.52C54.4351 38.2027 54.6218 38.7467 54.9951 39.152C55.3791 39.5467 55.8431 39.744 56.3871 39.744C56.9311 39.744 57.3898 39.5467 57.7631 39.152C58.1471 38.7573 58.3391 38.2187 58.3391 37.536ZM71.4705 37.392C71.4705 37.648 71.4545 37.9147 71.4225 38.192H65.2305C65.2732 38.7467 65.4492 39.1733 65.7585 39.472C66.0785 39.76 66.4678 39.904 66.9265 39.904C67.6092 39.904 68.0838 39.616 68.3505 39.04H71.2625C71.1132 39.6267 70.8412 40.1547 70.4465 40.624C70.0625 41.0933 69.5772 41.4613 68.9905 41.728C68.4038 41.9947 67.7478 42.128 67.0225 42.128C66.1478 42.128 65.3692 41.9413 64.6865 41.568C64.0038 41.1947 63.4705 40.6613 63.0865 39.968C62.7025 39.2747 62.5105 38.464 62.5105 37.536C62.5105 36.608 62.6972 35.7973 63.0705 35.104C63.4545 34.4107 63.9878 33.8773 64.6705 33.504C65.3532 33.1307 66.1372 32.944 67.0225 32.944C67.8865 32.944 68.6545 33.1253 69.3265 33.488C69.9985 33.8507 70.5212 34.368 70.8945 35.04C71.2785 35.712 71.4705 36.496 71.4705 37.392ZM68.6705 36.672C68.6705 36.2027 68.5105 35.8293 68.1905 35.552C67.8705 35.2747 67.4705 35.136 66.9905 35.136C66.5318 35.136 66.1425 35.2693 65.8225 35.536C65.5132 35.8027 65.3212 36.1813 65.2465 36.672H68.6705ZM76.5459 42.128C75.7672 42.128 75.0739 41.9947 74.4659 41.728C73.8579 41.4613 73.3779 41.0987 73.0259 40.64C72.6739 40.1707 72.4765 39.648 72.4339 39.072H75.1379C75.1699 39.3813 75.3139 39.632 75.5699 39.824C75.8259 40.016 76.1405 40.112 76.5139 40.112C76.8552 40.112 77.1165 40.048 77.2979 39.92C77.4899 39.7813 77.5859 39.6053 77.5859 39.392C77.5859 39.136 77.4525 38.9493 77.1859 38.832C76.9192 38.704 76.4872 38.5653 75.8899 38.416C75.2499 38.2667 74.7165 38.112 74.2899 37.952C73.8632 37.7813 73.4952 37.52 73.1859 37.168C72.8765 36.8053 72.7219 36.32 72.7219 35.712C72.7219 35.2 72.8605 34.736 73.1379 34.32C73.4259 33.8933 73.8419 33.5573 74.3859 33.312C74.9405 33.0667 75.5965 32.944 76.3539 32.944C77.4739 32.944 78.3539 33.2213 78.9939 33.776C79.6445 34.3307 80.0179 35.0667 80.1139 35.984H77.5859C77.5432 35.6747 77.4045 35.4293 77.1699 35.248C76.9459 35.0667 76.6472 34.976 76.2739 34.976C75.9539 34.976 75.7085 35.04 75.5379 35.168C75.3672 35.2853 75.2819 35.4507 75.2819 35.664C75.2819 35.92 75.4152 36.112 75.6819 36.24C75.9592 36.368 76.3859 36.496 76.9619 36.624C77.6232 36.7947 78.1619 36.9653 78.5779 37.136C78.9939 37.296 79.3565 37.5627 79.6659 37.936C79.9859 38.2987 80.1512 38.7893 80.1619 39.408C80.1619 39.9307 80.0125 40.4 79.7139 40.816C79.4259 41.2213 79.0045 41.5413 78.4499 41.776C77.9059 42.0107 77.2712 42.128 76.5459 42.128ZM84.7624 36.368C84.7624 35.2587 85.0024 34.272 85.4824 33.408C85.9624 32.5333 86.629 31.856 87.4824 31.376C88.3464 30.8853 89.3224 30.64 90.4104 30.64C91.7437 30.64 92.885 30.992 93.8344 31.696C94.7837 32.4 95.4184 33.36 95.7384 34.576H92.7304C92.5064 34.1067 92.1864 33.7493 91.7704 33.504C91.365 33.2587 90.901 33.136 90.3784 33.136C89.5357 33.136 88.853 33.4293 88.3304 34.016C87.8077 34.6027 87.5464 35.3867 87.5464 36.368C87.5464 37.3493 87.8077 38.1333 88.3304 38.72C88.853 39.3067 89.5357 39.6 90.3784 39.6C90.901 39.6 91.365 39.4773 91.7704 39.232C92.1864 38.9867 92.5064 38.6293 92.7304 38.16H95.7384C95.4184 39.376 94.7837 40.336 93.8344 41.04C92.885 41.7333 91.7437 42.08 90.4104 42.08C89.3224 42.08 88.3464 41.84 87.4824 41.36C86.629 40.8693 85.9624 40.192 85.4824 39.328C85.0024 38.464 84.7624 37.4773 84.7624 36.368ZM101.478 42.128C100.603 42.128 99.8139 41.9413 99.1099 41.568C98.4165 41.1947 97.8672 40.6613 97.4619 39.968C97.0672 39.2747 96.8699 38.464 96.8699 37.536C96.8699 36.6187 97.0725 35.8133 97.4779 35.12C97.8832 34.416 98.4379 33.8773 99.1419 33.504C99.8459 33.1307 100.635 32.944 101.51 32.944C102.385 32.944 103.174 33.1307 103.878 33.504C104.582 33.8773 105.137 34.416 105.542 35.12C105.947 35.8133 106.15 36.6187 106.15 37.536C106.15 38.4533 105.942 39.264 105.526 39.968C105.121 40.6613 104.561 41.1947 103.846 41.568C103.142 41.9413 102.353 42.128 101.478 42.128ZM101.478 39.76C102.001 39.76 102.443 39.568 102.806 39.184C103.179 38.8 103.366 38.2507 103.366 37.536C103.366 36.8213 103.185 36.272 102.822 35.888C102.47 35.504 102.033 35.312 101.51 35.312C100.977 35.312 100.534 35.504 100.182 35.888C99.8299 36.2613 99.6539 36.8107 99.6539 37.536C99.6539 38.2507 99.8245 38.8 100.166 39.184C100.518 39.568 100.955 39.76 101.478 39.76ZM118.993 32.976C120.103 32.976 120.983 33.312 121.633 33.984C122.295 34.656 122.625 35.5893 122.625 36.784V42H119.905V37.152C119.905 36.576 119.751 36.1333 119.441 35.824C119.143 35.504 118.727 35.344 118.193 35.344C117.66 35.344 117.239 35.504 116.929 35.824C116.631 36.1333 116.481 36.576 116.481 37.152V42H113.761V37.152C113.761 36.576 113.607 36.1333 113.297 35.824C112.999 35.504 112.583 35.344 112.049 35.344C111.516 35.344 111.095 35.504 110.785 35.824C110.487 36.1333 110.337 36.576 110.337 37.152V42H107.601V33.072H110.337V34.192C110.615 33.8187 110.977 33.5253 111.425 33.312C111.873 33.088 112.38 32.976 112.945 32.976C113.617 32.976 114.215 33.12 114.737 33.408C115.271 33.696 115.687 34.1067 115.985 34.64C116.295 34.1493 116.716 33.7493 117.249 33.44C117.783 33.1307 118.364 32.976 118.993 32.976ZM127.275 34.336C127.542 33.92 127.91 33.584 128.379 33.328C128.848 33.072 129.398 32.944 130.027 32.944C130.763 32.944 131.43 33.1307 132.027 33.504C132.624 33.8773 133.094 34.4107 133.435 35.104C133.787 35.7973 133.963 36.6027 133.963 37.52C133.963 38.4373 133.787 39.248 133.435 39.952C133.094 40.6453 132.624 41.184 132.027 41.568C131.43 41.9413 130.763 42.128 130.027 42.128C129.408 42.128 128.859 42 128.379 41.744C127.91 41.488 127.542 41.1573 127.275 40.752V46.256H124.539V33.072H127.275V34.336ZM131.179 37.52C131.179 36.8373 130.987 36.304 130.603 35.92C130.23 35.5253 129.766 35.328 129.211 35.328C128.667 35.328 128.203 35.5253 127.819 35.92C127.446 36.3147 127.259 36.8533 127.259 37.536C127.259 38.2187 127.446 38.7573 127.819 39.152C128.203 39.5467 128.667 39.744 129.211 39.744C129.755 39.744 130.219 39.5467 130.603 39.152C130.987 38.7467 131.179 38.2027 131.179 37.52ZM138.134 30.16V42H135.398V30.16H138.134ZM148.533 37.392C148.533 37.648 148.517 37.9147 148.485 38.192H142.293C142.336 38.7467 142.512 39.1733 142.821 39.472C143.141 39.76 143.53 39.904 143.989 39.904C144.672 39.904 145.146 39.616 145.413 39.04H148.325C148.176 39.6267 147.904 40.1547 147.509 40.624C147.125 41.0933 146.64 41.4613 146.053 41.728C145.466 41.9947 144.81 42.128 144.085 42.128C143.21 42.128 142.432 41.9413 141.749 41.568C141.066 41.1947 140.533 40.6613 140.149 39.968C139.765 39.2747 139.573 38.464 139.573 37.536C139.573 36.608 139.76 35.7973 140.133 35.104C140.517 34.4107 141.05 33.8773 141.733 33.504C142.416 33.1307 143.2 32.944 144.085 32.944C144.949 32.944 145.717 33.1253 146.389 33.488C147.061 33.8507 147.584 34.368 147.957 35.04C148.341 35.712 148.533 36.496 148.533 37.392ZM145.733 36.672C145.733 36.2027 145.573 35.8293 145.253 35.552C144.933 35.2747 144.533 35.136 144.053 35.136C143.594 35.136 143.205 35.2693 142.885 35.536C142.576 35.8027 142.384 36.1813 142.309 36.672H145.733ZM154.952 39.68V42H153.56C152.568 42 151.795 41.76 151.24 41.28C150.686 40.7893 150.408 39.9947 150.408 38.896V35.344H149.32V33.072H150.408V30.896H153.144V33.072H154.936V35.344H153.144V38.928C153.144 39.1947 153.208 39.3867 153.336 39.504C153.464 39.6213 153.678 39.68 153.976 39.68H154.952ZM164.892 37.392C164.892 37.648 164.876 37.9147 164.844 38.192H158.652C158.695 38.7467 158.871 39.1733 159.18 39.472C159.5 39.76 159.89 39.904 160.348 39.904C161.031 39.904 161.506 39.616 161.772 39.04H164.684C164.535 39.6267 164.263 40.1547 163.868 40.624C163.484 41.0933 162.999 41.4613 162.412 41.728C161.826 41.9947 161.17 42.128 160.444 42.128C159.57 42.128 158.791 41.9413 158.108 41.568C157.426 41.1947 156.892 40.6613 156.508 39.968C156.124 39.2747 155.932 38.464 155.932 37.536C155.932 36.608 156.119 35.7973 156.492 35.104C156.876 34.4107 157.41 33.8773 158.092 33.504C158.775 33.1307 159.559 32.944 160.444 32.944C161.308 32.944 162.076 33.1253 162.748 33.488C163.42 33.8507 163.943 34.368 164.316 35.04C164.7 35.712 164.892 36.496 164.892 37.392ZM162.092 36.672C162.092 36.2027 161.932 35.8293 161.612 35.552C161.292 35.2747 160.892 35.136 160.412 35.136C159.954 35.136 159.564 35.2693 159.244 35.536C158.935 35.8027 158.743 36.1813 158.668 36.672H162.092ZM165.792 37.52C165.792 36.6027 165.962 35.7973 166.304 35.104C166.656 34.4107 167.13 33.8773 167.728 33.504C168.325 33.1307 168.992 32.944 169.728 32.944C170.314 32.944 170.848 33.0667 171.328 33.312C171.818 33.5573 172.202 33.888 172.48 34.304V30.16H175.216V42H172.48V40.72C172.224 41.1467 171.856 41.488 171.376 41.744C170.906 42 170.357 42.128 169.728 42.128C168.992 42.128 168.325 41.9413 167.728 41.568C167.13 41.184 166.656 40.6453 166.304 39.952C165.962 39.248 165.792 38.4373 165.792 37.52ZM172.48 37.536C172.48 36.8533 172.288 36.3147 171.904 35.92C171.53 35.5253 171.072 35.328 170.528 35.328C169.984 35.328 169.52 35.5253 169.136 35.92C168.762 36.304 168.576 36.8373 168.576 37.52C168.576 38.2027 168.762 38.7467 169.136 39.152C169.52 39.5467 169.984 39.744 170.528 39.744C171.072 39.744 171.53 39.5467 171.904 39.152C172.288 38.7573 172.48 38.2187 172.48 37.536Z" fill="#212633"/>
<path d="M201.164 80.1414C215.266 80.1232 229.213 83.0879 242.088 88.841C254.964 94.5941 266.477 103.005 275.872 113.523C285.266 124.04 292.33 136.425 296.6 149.866C300.869 163.306 302.248 177.498 300.645 191.509L276.869 188.788C278.088 178.131 277.039 167.335 273.792 157.111C270.544 146.887 265.17 137.466 258.024 129.465C250.877 121.465 242.12 115.067 232.325 110.69C222.531 106.314 211.922 104.059 201.195 104.073L201.164 80.1414Z" fill="white"/>
<path d="M199.695 104.075L199.697 105.575L201.197 105.573C211.713 105.559 222.112 107.77 231.714 112.06C241.315 116.35 249.9 122.622 256.905 130.465C263.911 138.307 269.178 147.543 272.362 157.565C275.546 167.588 276.574 178.17 275.378 188.618L275.208 190.108L276.698 190.279L300.474 192.999L301.965 193.17L302.135 191.679C302.912 184.886 302.999 178.051 302.405 171.278C301.756 163.871 300.293 156.537 298.03 149.412C293.696 135.77 286.526 123.198 276.99 112.523C267.455 101.848 255.769 93.3109 242.7 87.4715C235.874 84.4215 228.752 82.1435 221.465 80.6659C214.801 79.3146 207.999 78.6326 201.162 78.6414L199.662 78.6433L199.664 80.1433L199.695 104.075Z" fill="#F93535" stroke="#F3F6FF" stroke-width="3"/>
<path d="M300.649 191.477C298.996 205.963 294.196 219.912 286.585 232.347C278.973 244.782 268.735 255.402 256.587 263.464C244.439 271.525 230.675 276.833 216.26 279.015C201.845 281.197 187.127 280.201 173.137 276.096L179.875 253.132C190.517 256.255 201.713 257.013 212.678 255.353C223.644 253.693 234.114 249.656 243.355 243.523C252.595 237.391 260.384 229.312 266.173 219.853C271.963 210.394 275.615 199.783 276.872 188.764L300.649 191.477Z" fill="white"/>
<path d="M172.715 277.535L172.716 277.535L172.716 277.535L172.716 277.535L172.716 277.535L172.716 277.535L172.716 277.535L172.716 277.535L172.716 277.535L172.716 277.535L172.716 277.535L172.716 277.535L172.716 277.535L172.716 277.535L172.716 277.535L172.716 277.535L172.716 277.535L172.716 277.535L172.716 277.535L172.716 277.535L172.716 277.535L172.716 277.535L172.716 277.535L172.716 277.535L172.716 277.535L172.716 277.535L172.716 277.535L172.716 277.535L172.716 277.535L172.716 277.535L172.716 277.535L172.716 277.535L172.716 277.535L172.716 277.535L172.716 277.535L172.716 277.535L172.716 277.535L172.716 277.535L172.716 277.535L172.716 277.535L172.716 277.535L172.716 277.535L172.716 277.535L172.716 277.535L172.716 277.535L172.716 277.535L172.716 277.535L172.716 277.535L172.716 277.535L172.716 277.535L172.716 277.535L172.716 277.535L172.716 277.535L172.716 277.535L172.716 277.535L172.716 277.535L172.716 277.535L172.716 277.535L172.716 277.535L172.716 277.535L172.716 277.535L172.716 277.535L172.716 277.535L172.716 277.535L172.716 277.535L172.716 277.535L172.717 277.535L172.717 277.535L172.717 277.535L172.717 277.535L172.717 277.535L172.717 277.535L172.717 277.535L172.717 277.535L172.717 277.535L172.717 277.535L172.717 277.535L172.717 277.535L172.717 277.535L172.717 277.535L172.717 277.535L172.717 277.535L172.717 277.535L172.717 277.535L172.717 277.535L172.717 277.535L172.717 277.535L172.717 277.535L172.717 277.535L172.717 277.535L172.717 277.535L172.717 277.535L172.717 277.535L172.717 277.535L172.717 277.535L172.717 277.536L172.717 277.536L172.717 277.536L172.717 277.536L172.717 277.536L172.717 277.536L172.717 277.536L172.717 277.536L172.717 277.536L172.717 277.536L172.717 277.536L172.717 277.536L172.717 277.536L172.717 277.536L172.717 277.536L172.717 277.536L172.717 277.536L172.717 277.536L172.717 277.536L172.717 277.536L172.717 277.536L172.717 277.536L172.717 277.536L172.717 277.536L172.717 277.536L172.717 277.536L172.717 277.536L172.717 277.536L172.717 277.536L172.717 277.536L172.717 277.536L172.717 277.536L172.717 277.536L172.717 277.536L172.717 277.536L172.717 277.536L172.717 277.536L172.718 277.536L172.718 277.536L172.718 277.536L172.718 277.536L172.718 277.536L172.718 277.536L172.718 277.536L172.718 277.536L172.718 277.536L172.718 277.536L172.718 277.536L172.718 277.536L172.718 277.536L172.718 277.536L172.718 277.536L172.718 277.536L172.718 277.536L172.718 277.536L172.718 277.536L172.718 277.536L172.718 277.536L172.718 277.536L172.718 277.536L172.718 277.536L172.718 277.536L172.718 277.536L172.718 277.536L172.718 277.536L172.718 277.536L172.718 277.536L172.718 277.536L172.718 277.536L172.718 277.536L172.718 277.536L172.718 277.536L172.718 277.536L172.718 277.536L172.718 277.536L172.718 277.536L172.718 277.536L172.718 277.536L172.718 277.536L172.718 277.536L172.718 277.536L172.718 277.536L172.718 277.536L172.718 277.536L172.718 277.536L172.718 277.536L172.718 277.536L172.718 277.536L172.718 277.536L172.718 277.536L172.718 277.536L172.718 277.536L172.718 277.536L172.718 277.536L172.718 277.536L172.718 277.536L172.718 277.536L172.718 277.536L172.718 277.536L172.718 277.536L172.718 277.536L172.718 277.536L172.718 277.536L172.719 277.536L172.719 277.536L172.719 277.536L172.719 277.536L172.719 277.536L172.719 277.536L172.719 277.536L172.719 277.536L172.719 277.536L172.719 277.536L172.719 277.536L172.719 277.536L172.719 277.536L172.719 277.536L172.719 277.536L172.719 277.536L172.719 277.536L172.719 277.536L172.719 277.536L172.719 277.536L172.719 277.536L172.719 277.536L172.719 277.536L172.719 277.536L172.719 277.536L172.719 277.536L172.719 277.536L172.719 277.536L172.719 277.536L172.719 277.536L172.719 277.536L172.719 277.536L172.719 277.536L172.719 277.536L172.719 277.536L172.719 277.536L172.719 277.536L172.719 277.536L172.719 277.536L172.719 277.536L172.719 277.536L172.719 277.536L172.719 277.536L172.719 277.536L172.719 277.536L172.719 277.536L172.719 277.536L172.719 277.536L172.719 277.536L172.719 277.536L172.719 277.536L172.719 277.536L172.719 277.536L172.719 277.536L172.719 277.536L172.719 277.536L172.719 277.536L172.719 277.536L172.719 277.536L172.719 277.536L172.719 277.536L172.719 277.536L172.719 277.536L172.719 277.536L172.719 277.536L172.719 277.536L172.72 277.536L172.72 277.536L172.72 277.536L172.72 277.536L172.72 277.536L172.72 277.536L172.72 277.536L172.72 277.536L172.72 277.536L172.72 277.536L172.72 277.536L172.72 277.536L172.72 277.536L172.72 277.536L172.72 277.536L172.72 277.536L172.72 277.536L172.72 277.536L172.72 277.536L172.72 277.536L172.72 277.536L172.72 277.536L172.72 277.536L172.72 277.536L172.72 277.536L172.72 277.536L172.72 277.536L172.72 277.536L172.72 277.536L172.72 277.536L172.72 277.536L172.72 277.536L172.72 277.536L172.72 277.536L172.72 277.536L172.72 277.536L172.72 277.536L172.72 277.536L172.72 277.536L172.72 277.536L172.72 277.536L172.72 277.536L172.72 277.536L172.72 277.536L172.72 277.536L172.72 277.536L172.72 277.536L172.72 277.536L172.72 277.536L172.72 277.536L172.72 277.536L172.72 277.536L172.72 277.536L172.72 277.536L172.72 277.536L172.72 277.536L172.72 277.537L172.72 277.537L172.72 277.537L172.72 277.537L172.72 277.537L172.72 277.537L172.72 277.537L172.72 277.537L172.72 277.537L172.72 277.537L172.72 277.537L172.721 277.537L172.721 277.537L172.721 277.537L172.721 277.537L172.721 277.537L172.721 277.537L172.721 277.537L172.721 277.537L172.721 277.537L172.721 277.537L172.721 277.537L172.721 277.537L172.721 277.537L172.721 277.537L172.721 277.537L172.721 277.537L172.721 277.537L172.721 277.537L172.721 277.537L172.721 277.537L172.721 277.537L172.721 277.537L172.721 277.537L172.721 277.537L172.721 277.537L172.721 277.537L172.721 277.537L172.721 277.537L172.721 277.537L172.721 277.537L172.721 277.537L172.721 277.537L172.721 277.537L172.721 277.537L172.721 277.537L172.721 277.537L172.721 277.537L172.721 277.537L172.721 277.537L172.721 277.537L172.721 277.537L172.721 277.537L172.721 277.537L172.721 277.537L172.721 277.537L172.721 277.537L172.721 277.537L172.721 277.537L172.721 277.537L172.721 277.537L172.721 277.537L172.721 277.537L172.721 277.537L172.721 277.537L172.721 277.537L172.721 277.537L172.721 277.537L172.721 277.537L172.721 277.537L172.721 277.537L172.721 277.537L172.721 277.537L172.721 277.537L172.721 277.537L172.721 277.537L172.721 277.537L172.722 277.537L172.722 277.537L172.722 277.537L172.722 277.537L172.722 277.537L172.722 277.537L172.722 277.537L172.722 277.537L172.722 277.537L172.722 277.537L172.722 277.537L172.722 277.537L172.722 277.537L172.722 277.537L172.722 277.537L172.722 277.537L172.722 277.537L172.722 277.537L172.722 277.537L172.722 277.537L172.722 277.537L172.722 277.537L172.722 277.537L172.722 277.537L172.722 277.537L172.722 277.537L172.722 277.537L172.722 277.537L172.722 277.537L172.722 277.537L172.722 277.537L172.722 277.537L172.722 277.537L172.722 277.537L172.722 277.537L172.722 277.537L172.722 277.537L172.722 277.537L172.722 277.537L172.722 277.537L172.722 277.537L172.722 277.537L172.722 277.537L172.722 277.537L172.722 277.537L172.722 277.537L172.722 277.537L172.722 277.537L172.722 277.537L172.722 277.537L172.722 277.537L172.722 277.537L172.722 277.537L172.722 277.537L172.722 277.537L172.722 277.537L172.722 277.537L172.722 277.537L172.722 277.537L172.722 277.537L172.722 277.537L172.722 277.537L172.722 277.537C172.723 277.537 172.723 277.537 172.723 277.537C172.723 277.537 172.723 277.537 172.723 277.537C172.723 277.537 172.723 277.537 172.723 277.537C172.723 277.537 172.723 277.537 172.723 277.537C179.282 279.461 185.999 280.712 192.771 281.283C200.656 281.947 208.615 281.689 216.484 280.498C231.116 278.283 245.086 272.896 257.417 264.714C269.747 256.531 280.139 245.751 287.864 233.13C292.02 226.341 295.349 219.108 297.801 211.584C299.907 205.12 301.364 198.442 302.139 191.647L302.309 190.157L300.819 189.987L277.042 187.274L275.552 187.104L275.382 188.594C274.149 199.396 270.57 209.798 264.894 219.07C259.218 228.343 251.584 236.262 242.525 242.274C233.467 248.285 223.203 252.243 212.454 253.87C201.705 255.497 190.729 254.754 180.298 251.693L178.858 251.271L178.436 252.71L171.698 275.673L171.275 277.113L172.715 277.535ZM172.715 277.535V277.535Z" fill="#356CF9" stroke="#F3F6FF" stroke-width="3"/>
<path d="M173.095 276.083C148.669 268.905 127.901 252.68 115.025 230.717C102.149 208.754 98.1343 182.706 103.8 157.886L127.132 163.212C122.822 182.093 125.875 201.906 135.67 218.613C145.464 235.32 161.262 247.662 179.843 253.123L173.095 276.083Z" fill="white"/>
<path d="M181.282 253.546L181.705 252.107L180.266 251.684C162.052 246.331 146.565 234.232 136.964 217.855C127.362 201.477 124.369 182.054 128.594 163.546L128.928 162.083L127.465 161.749L104.134 156.423L102.671 156.089L102.338 157.553L102.334 157.571L102.329 157.59C102.329 157.59 102.329 157.59 102.329 157.59C100.807 164.273 99.975 171.042 99.8191 177.799C99.3877 196.503 104.134 215.107 113.731 231.475C123.327 247.844 137.242 261.072 153.774 269.831C159.757 273.002 166.084 275.586 172.672 277.523L174.111 277.946L174.534 276.506L181.282 253.546Z" fill="#F9AB35" stroke="#F3F6FF" stroke-width="3"/>
<path d="M103.741 158.141C108.732 136.013 121.097 116.24 138.807 102.066C156.518 87.8923 178.521 80.161 201.205 80.1414L201.225 104.073C183.97 104.088 167.233 109.969 153.761 120.75C140.289 131.532 130.883 146.574 127.086 163.406L103.741 158.141Z" fill="white"/>
<path d="M126.756 164.87L128.22 165.2L128.55 163.736C132.271 147.236 141.492 132.491 154.698 121.922C167.904 111.353 184.312 105.587 201.227 105.573L202.727 105.571L202.725 104.071L202.705 80.14L202.703 78.6401L201.203 78.6413C194.344 78.6473 187.545 79.348 180.905 80.7095C165.258 83.9177 150.491 90.7947 137.87 100.895C125.25 110.995 115.304 123.897 108.744 138.46C105.961 144.64 103.787 151.12 102.278 157.811L101.948 159.275L103.411 159.605L126.756 164.87Z" fill="#34C759" stroke="#F3F6FF" stroke-width="3"/>
<path d="M175.102 175.32C178.686 172.221 181.505 169.683 183.558 167.704C185.649 165.688 187.385 163.597 188.766 161.432C190.148 159.267 190.838 157.101 190.838 154.936C190.838 152.696 190.297 150.941 189.214 149.672C188.169 148.403 186.508 147.768 184.23 147.768C182.028 147.768 180.31 148.477 179.078 149.896C177.884 151.277 177.249 153.144 177.174 155.496H171.014C171.126 151.24 172.396 147.992 174.822 145.752C177.286 143.475 180.404 142.336 184.174 142.336C188.244 142.336 191.417 143.456 193.694 145.696C196.009 147.936 197.166 150.923 197.166 154.656C197.166 157.344 196.476 159.939 195.094 162.44C193.75 164.904 192.126 167.125 190.222 169.104C188.356 171.045 185.966 173.304 183.054 175.88L180.534 178.12H198.286V183.44H171.07V178.792L175.102 175.32ZM203.782 153.256C204.006 149.784 205.332 147.077 207.758 145.136C210.222 143.195 213.358 142.224 217.166 142.224C219.78 142.224 222.038 142.691 223.942 143.624C225.846 144.557 227.284 145.827 228.254 147.432C229.225 149.037 229.71 150.848 229.71 152.864C229.71 155.179 229.094 157.157 227.862 158.8C226.63 160.443 225.156 161.544 223.438 162.104V162.328C225.641 163 227.358 164.232 228.59 166.024C229.822 167.779 230.438 170.037 230.438 172.8C230.438 175.003 229.934 176.963 228.926 178.68C227.918 180.397 226.425 181.76 224.446 182.768C222.468 183.739 220.097 184.224 217.334 184.224C213.302 184.224 209.98 183.197 207.366 181.144C204.79 179.053 203.409 176.067 203.222 172.184H209.382C209.532 174.163 210.297 175.787 211.678 177.056C213.06 178.288 214.926 178.904 217.278 178.904C219.556 178.904 221.31 178.288 222.542 177.056C223.774 175.787 224.39 174.163 224.39 172.184C224.39 169.571 223.55 167.723 221.87 166.64C220.228 165.52 217.689 164.96 214.254 164.96H212.798V159.696H214.31C217.334 159.659 219.63 159.155 221.198 158.184C222.804 157.213 223.606 155.683 223.606 153.592C223.606 151.8 223.028 150.381 221.87 149.336C220.713 148.253 219.07 147.712 216.942 147.712C214.852 147.712 213.228 148.253 212.07 149.336C210.913 150.381 210.222 151.688 209.998 153.256H203.782Z" fill="#212633"/>
<path d="M172.506 221.14C171.586 221.14 170.76 220.98 170.026 220.66C169.306 220.327 168.74 219.873 168.326 219.3C167.913 218.713 167.7 218.04 167.686 217.28H169.626C169.693 217.933 169.96 218.487 170.426 218.94C170.906 219.38 171.6 219.6 172.506 219.6C173.373 219.6 174.053 219.387 174.546 218.96C175.053 218.52 175.306 217.96 175.306 217.28C175.306 216.747 175.16 216.313 174.866 215.98C174.573 215.647 174.206 215.393 173.766 215.22C173.326 215.047 172.733 214.86 171.986 214.66C171.066 214.42 170.326 214.18 169.766 213.94C169.22 213.7 168.746 213.327 168.346 212.82C167.96 212.3 167.766 211.607 167.766 210.74C167.766 209.98 167.96 209.307 168.346 208.72C168.733 208.133 169.273 207.68 169.966 207.36C170.673 207.04 171.48 206.88 172.386 206.88C173.693 206.88 174.76 207.207 175.586 207.86C176.426 208.513 176.9 209.38 177.006 210.46H175.006C174.94 209.927 174.66 209.46 174.166 209.06C173.673 208.647 173.02 208.44 172.206 208.44C171.446 208.44 170.826 208.64 170.346 209.04C169.866 209.427 169.626 209.973 169.626 210.68C169.626 211.187 169.766 211.6 170.046 211.92C170.34 212.24 170.693 212.487 171.106 212.66C171.533 212.82 172.126 213.007 172.886 213.22C173.806 213.473 174.546 213.727 175.106 213.98C175.666 214.22 176.146 214.6 176.546 215.12C176.946 215.627 177.146 216.32 177.146 217.2C177.146 217.88 176.966 218.52 176.606 219.12C176.246 219.72 175.713 220.207 175.006 220.58C174.3 220.953 173.466 221.14 172.506 221.14ZM182.044 211.54V218C182.044 218.533 182.158 218.913 182.384 219.14C182.611 219.353 183.004 219.46 183.564 219.46H184.904V221H183.264C182.251 221 181.491 220.767 180.984 220.3C180.478 219.833 180.224 219.067 180.224 218V211.54H178.804V210.04H180.224V207.28H182.044V210.04H184.904V211.54H182.044ZM186.43 215.48C186.43 214.36 186.656 213.38 187.11 212.54C187.563 211.687 188.183 211.027 188.97 210.56C189.77 210.093 190.656 209.86 191.63 209.86C192.59 209.86 193.423 210.067 194.13 210.48C194.836 210.893 195.363 211.413 195.71 212.04V210.04H197.55V221H195.71V218.96C195.35 219.6 194.81 220.133 194.09 220.56C193.383 220.973 192.556 221.18 191.61 221.18C190.636 221.18 189.756 220.94 188.97 220.46C188.183 219.98 187.563 219.307 187.11 218.44C186.656 217.573 186.43 216.587 186.43 215.48ZM195.71 215.5C195.71 214.673 195.543 213.953 195.21 213.34C194.876 212.727 194.423 212.26 193.85 211.94C193.29 211.607 192.67 211.44 191.99 211.44C191.31 211.44 190.69 211.6 190.13 211.92C189.57 212.24 189.123 212.707 188.79 213.32C188.456 213.933 188.29 214.653 188.29 215.48C188.29 216.32 188.456 217.053 188.79 217.68C189.123 218.293 189.57 218.767 190.13 219.1C190.69 219.42 191.31 219.58 191.99 219.58C192.67 219.58 193.29 219.42 193.85 219.1C194.423 218.767 194.876 218.293 195.21 217.68C195.543 217.053 195.71 216.327 195.71 215.5ZM205.145 209.86C206.092 209.86 206.919 210.067 207.625 210.48C208.345 210.893 208.879 211.413 209.225 212.04V210.04H211.065V221.24C211.065 222.24 210.852 223.127 210.425 223.9C209.999 224.687 209.385 225.3 208.585 225.74C207.799 226.18 206.879 226.4 205.825 226.4C204.385 226.4 203.185 226.06 202.225 225.38C201.265 224.7 200.699 223.773 200.525 222.6H202.325C202.525 223.267 202.939 223.8 203.565 224.2C204.192 224.613 204.945 224.82 205.825 224.82C206.825 224.82 207.639 224.507 208.265 223.88C208.905 223.253 209.225 222.373 209.225 221.24V218.94C208.865 219.58 208.332 220.113 207.625 220.54C206.919 220.967 206.092 221.18 205.145 221.18C204.172 221.18 203.285 220.94 202.485 220.46C201.699 219.98 201.079 219.307 200.625 218.44C200.172 217.573 199.945 216.587 199.945 215.48C199.945 214.36 200.172 213.38 200.625 212.54C201.079 211.687 201.699 211.027 202.485 210.56C203.285 210.093 204.172 209.86 205.145 209.86ZM209.225 215.5C209.225 214.673 209.059 213.953 208.725 213.34C208.392 212.727 207.939 212.26 207.365 211.94C206.805 211.607 206.185 211.44 205.505 211.44C204.825 211.44 204.205 211.6 203.645 211.92C203.085 212.24 202.639 212.707 202.305 213.32C201.972 213.933 201.805 214.653 201.805 215.48C201.805 216.32 201.972 217.053 202.305 217.68C202.639 218.293 203.085 218.767 203.645 219.1C204.205 219.42 204.825 219.58 205.505 219.58C206.185 219.58 206.805 219.42 207.365 219.1C207.939 218.767 208.392 218.293 208.725 217.68C209.059 217.053 209.225 216.327 209.225 215.5ZM224.141 215.1C224.141 215.447 224.121 215.813 224.081 216.2H215.321C215.388 217.28 215.754 218.127 216.421 218.74C217.101 219.34 217.921 219.64 218.881 219.64C219.668 219.64 220.321 219.46 220.841 219.1C221.374 218.727 221.748 218.233 221.961 217.62H223.921C223.628 218.673 223.041 219.533 222.161 220.2C221.281 220.853 220.188 221.18 218.881 221.18C217.841 221.18 216.908 220.947 216.081 220.48C215.268 220.013 214.628 219.353 214.161 218.5C213.694 217.633 213.461 216.633 213.461 215.5C213.461 214.367 213.688 213.373 214.141 212.52C214.594 211.667 215.228 211.013 216.041 210.56C216.868 210.093 217.814 209.86 218.881 209.86C219.921 209.86 220.841 210.087 221.641 210.54C222.441 210.993 223.054 211.62 223.481 212.42C223.921 213.207 224.141 214.1 224.141 215.1ZM222.261 214.72C222.261 214.027 222.108 213.433 221.801 212.94C221.494 212.433 221.074 212.053 220.541 211.8C220.021 211.533 219.441 211.4 218.801 211.4C217.881 211.4 217.094 211.693 216.441 212.28C215.801 212.867 215.434 213.68 215.341 214.72H222.261ZM230.423 221.18C229.583 221.18 228.83 221.04 228.163 220.76C227.497 220.467 226.97 220.067 226.583 219.56C226.197 219.04 225.983 218.447 225.943 217.78H227.823C227.877 218.327 228.13 218.773 228.583 219.12C229.05 219.467 229.657 219.64 230.403 219.64C231.097 219.64 231.643 219.487 232.043 219.18C232.443 218.873 232.643 218.487 232.643 218.02C232.643 217.54 232.43 217.187 232.003 216.96C231.577 216.72 230.917 216.487 230.023 216.26C229.21 216.047 228.543 215.833 228.023 215.62C227.517 215.393 227.077 215.067 226.703 214.64C226.343 214.2 226.163 213.627 226.163 212.92C226.163 212.36 226.33 211.847 226.663 211.38C226.997 210.913 227.47 210.547 228.083 210.28C228.697 210 229.397 209.86 230.183 209.86C231.397 209.86 232.377 210.167 233.123 210.78C233.87 211.393 234.27 212.233 234.323 213.3H232.503C232.463 212.727 232.23 212.267 231.803 211.92C231.39 211.573 230.83 211.4 230.123 211.4C229.47 211.4 228.95 211.54 228.563 211.82C228.177 212.1 227.983 212.467 227.983 212.92C227.983 213.28 228.097 213.58 228.323 213.82C228.563 214.047 228.857 214.233 229.203 214.38C229.563 214.513 230.057 214.667 230.683 214.84C231.47 215.053 232.11 215.267 232.603 215.48C233.097 215.68 233.517 215.987 233.863 216.4C234.223 216.813 234.41 217.353 234.423 218.02C234.423 218.62 234.257 219.16 233.923 219.64C233.59 220.12 233.117 220.5 232.503 220.78C231.903 221.047 231.21 221.18 230.423 221.18Z" fill="#8E9ABB"/>
<rect x="56" y="331" width="16" height="16" rx="4" fill="#34C759"/>
<path d="M84.116 334.242C85.18 334.242 86.0993 334.443 86.874 334.844C87.658 335.236 88.2553 335.801 88.666 336.538C89.086 337.275 89.296 338.143 89.296 339.142C89.296 340.141 89.086 341.009 88.666 341.746C88.2553 342.474 87.658 343.034 86.874 343.426C86.0993 343.809 85.18 344 84.116 344H81.078V334.242H84.116ZM84.116 342.95C85.376 342.95 86.3373 342.619 87 341.956C87.6627 341.284 87.994 340.346 87.994 339.142C87.994 337.929 87.658 336.981 86.986 336.3C86.3233 335.619 85.3667 335.278 84.116 335.278H82.352V342.95H84.116ZM94.3224 344.126C93.6038 344.126 92.9504 343.963 92.3624 343.636C91.7838 343.309 91.3264 342.847 90.9904 342.25C90.6638 341.643 90.5004 340.943 90.5004 340.15C90.5004 339.366 90.6684 338.675 91.0044 338.078C91.3498 337.471 91.8164 337.009 92.4044 336.692C92.9924 336.365 93.6504 336.202 94.3784 336.202C95.1064 336.202 95.7644 336.365 96.3524 336.692C96.9404 337.009 97.4024 337.467 97.7384 338.064C98.0838 338.661 98.2564 339.357 98.2564 340.15C98.2564 340.943 98.0791 341.643 97.7244 342.25C97.3791 342.847 96.9078 343.309 96.3104 343.636C95.7131 343.963 95.0504 344.126 94.3224 344.126ZM94.3224 343.006C94.7798 343.006 95.2091 342.899 95.6104 342.684C96.0118 342.469 96.3338 342.147 96.5764 341.718C96.8284 341.289 96.9544 340.766 96.9544 340.15C96.9544 339.534 96.8331 339.011 96.5904 338.582C96.3478 338.153 96.0304 337.835 95.6384 337.63C95.2464 337.415 94.8218 337.308 94.3644 337.308C93.8978 337.308 93.4684 337.415 93.0764 337.63C92.6938 337.835 92.3858 338.153 92.1524 338.582C91.9191 339.011 91.8024 339.534 91.8024 340.15C91.8024 340.775 91.9144 341.303 92.1384 341.732C92.3718 342.161 92.6798 342.483 93.0624 342.698C93.4451 342.903 93.8651 343.006 94.3224 343.006ZM103.67 336.188C104.603 336.188 105.359 336.473 105.938 337.042C106.516 337.602 106.806 338.414 106.806 339.478V344H105.546V339.66C105.546 338.895 105.354 338.311 104.972 337.91C104.589 337.499 104.066 337.294 103.404 337.294C102.732 337.294 102.195 337.504 101.794 337.924C101.402 338.344 101.206 338.955 101.206 339.758V344H99.9315V336.328H101.206V337.42C101.458 337.028 101.798 336.725 102.228 336.51C102.666 336.295 103.147 336.188 103.67 336.188ZM115.887 339.87C115.887 340.113 115.873 340.369 115.845 340.64H109.713C109.759 341.396 110.016 341.989 110.483 342.418C110.959 342.838 111.533 343.048 112.205 343.048C112.755 343.048 113.213 342.922 113.577 342.67C113.95 342.409 114.211 342.063 114.361 341.634H115.733C115.527 342.371 115.117 342.973 114.501 343.44C113.885 343.897 113.119 344.126 112.205 344.126C111.477 344.126 110.823 343.963 110.245 343.636C109.675 343.309 109.227 342.847 108.901 342.25C108.574 341.643 108.411 340.943 108.411 340.15C108.411 339.357 108.569 338.661 108.887 338.064C109.204 337.467 109.647 337.009 110.217 336.692C110.795 336.365 111.458 336.202 112.205 336.202C112.933 336.202 113.577 336.361 114.137 336.678C114.697 336.995 115.126 337.434 115.425 337.994C115.733 338.545 115.887 339.17 115.887 339.87ZM114.571 339.604C114.571 339.119 114.463 338.703 114.249 338.358C114.034 338.003 113.74 337.737 113.367 337.56C113.003 337.373 112.597 337.28 112.149 337.28C111.505 337.28 110.954 337.485 110.497 337.896C110.049 338.307 109.792 338.876 109.727 339.604H114.571Z" fill="#212633"/>
<rect x="213.333" y="331" width="16" height="16" rx="4" fill="#F93535"/>
<path d="M243.38 344.098C242.475 344.098 241.649 343.888 240.902 343.468C240.156 343.039 239.563 342.446 239.124 341.69C238.695 340.925 238.48 340.066 238.48 339.114C238.48 338.162 238.695 337.308 239.124 336.552C239.563 335.787 240.156 335.194 240.902 334.774C241.649 334.345 242.475 334.13 243.38 334.13C244.295 334.13 245.126 334.345 245.872 334.774C246.619 335.194 247.207 335.782 247.636 336.538C248.066 337.294 248.28 338.153 248.28 339.114C248.28 340.075 248.066 340.934 247.636 341.69C247.207 342.446 246.619 343.039 245.872 343.468C245.126 343.888 244.295 344.098 243.38 344.098ZM243.38 342.992C244.062 342.992 244.673 342.833 245.214 342.516C245.765 342.199 246.194 341.746 246.502 341.158C246.82 340.57 246.978 339.889 246.978 339.114C246.978 338.33 246.82 337.649 246.502 337.07C246.194 336.482 245.77 336.029 245.228 335.712C244.687 335.395 244.071 335.236 243.38 335.236C242.69 335.236 242.074 335.395 241.532 335.712C240.991 336.029 240.562 336.482 240.244 337.07C239.936 337.649 239.782 338.33 239.782 339.114C239.782 339.889 239.936 340.57 240.244 341.158C240.562 341.746 240.991 342.199 241.532 342.516C242.083 342.833 242.699 342.992 243.38 342.992ZM252.818 342.824L255.198 336.328H256.556L253.546 344H252.062L249.052 336.328H250.424L252.818 342.824ZM264.81 339.87C264.81 340.113 264.796 340.369 264.768 340.64H258.636C258.682 341.396 258.939 341.989 259.406 342.418C259.882 342.838 260.456 343.048 261.128 343.048C261.678 343.048 262.136 342.922 262.5 342.67C262.873 342.409 263.134 342.063 263.284 341.634H264.656C264.45 342.371 264.04 342.973 263.424 343.44C262.808 343.897 262.042 344.126 261.128 344.126C260.4 344.126 259.746 343.963 259.168 343.636C258.598 343.309 258.15 342.847 257.824 342.25C257.497 341.643 257.334 340.943 257.334 340.15C257.334 339.357 257.492 338.661 257.81 338.064C258.127 337.467 258.57 337.009 259.14 336.692C259.718 336.365 260.381 336.202 261.128 336.202C261.856 336.202 262.5 336.361 263.06 336.678C263.62 336.995 264.049 337.434 264.348 337.994C264.656 338.545 264.81 339.17 264.81 339.87ZM263.494 339.604C263.494 339.119 263.386 338.703 263.172 338.358C262.957 338.003 262.663 337.737 262.29 337.56C261.926 337.373 261.52 337.28 261.072 337.28C260.428 337.28 259.877 337.485 259.42 337.896C258.972 338.307 258.715 338.876 258.65 339.604H263.494ZM267.765 337.574C267.989 337.135 268.307 336.795 268.717 336.552C269.137 336.309 269.646 336.188 270.243 336.188V337.504H269.907C268.479 337.504 267.765 338.279 267.765 339.828V344H266.491V336.328H267.765V337.574ZM271.238 340.136C271.238 339.352 271.397 338.666 271.714 338.078C272.031 337.481 272.465 337.019 273.016 336.692C273.576 336.365 274.201 336.202 274.892 336.202C275.489 336.202 276.045 336.342 276.558 336.622C277.071 336.893 277.463 337.252 277.734 337.7V333.64H279.022V344H277.734V342.558C277.482 343.015 277.109 343.393 276.614 343.692C276.119 343.981 275.541 344.126 274.878 344.126C274.197 344.126 273.576 343.958 273.016 343.622C272.465 343.286 272.031 342.815 271.714 342.208C271.397 341.601 271.238 340.911 271.238 340.136ZM277.734 340.15C277.734 339.571 277.617 339.067 277.384 338.638C277.151 338.209 276.833 337.882 276.432 337.658C276.04 337.425 275.606 337.308 275.13 337.308C274.654 337.308 274.22 337.42 273.828 337.644C273.436 337.868 273.123 338.195 272.89 338.624C272.657 339.053 272.54 339.557 272.54 340.136C272.54 340.724 272.657 341.237 272.89 341.676C273.123 342.105 273.436 342.437 273.828 342.67C274.22 342.894 274.654 343.006 275.13 343.006C275.606 343.006 276.04 342.894 276.432 342.67C276.833 342.437 277.151 342.105 277.384 341.676C277.617 341.237 277.734 340.729 277.734 340.15ZM287.979 336.328V344H286.705V342.866C286.462 343.258 286.122 343.566 285.683 343.79C285.254 344.005 284.778 344.112 284.255 344.112C283.658 344.112 283.121 343.991 282.645 343.748C282.169 343.496 281.791 343.123 281.511 342.628C281.24 342.133 281.105 341.531 281.105 340.822V336.328H282.365V340.654C282.365 341.41 282.556 341.993 282.939 342.404C283.322 342.805 283.844 343.006 284.507 343.006C285.188 343.006 285.725 342.796 286.117 342.376C286.509 341.956 286.705 341.345 286.705 340.542V336.328H287.979ZM297.13 339.87C297.13 340.113 297.116 340.369 297.088 340.64H290.956C291.003 341.396 291.259 341.989 291.726 342.418C292.202 342.838 292.776 343.048 293.448 343.048C293.999 343.048 294.456 342.922 294.82 342.67C295.193 342.409 295.455 342.063 295.604 341.634H296.976C296.771 342.371 296.36 342.973 295.744 343.44C295.128 343.897 294.363 344.126 293.448 344.126C292.72 344.126 292.067 343.963 291.488 343.636C290.919 343.309 290.471 342.847 290.144 342.25C289.817 341.643 289.654 340.943 289.654 340.15C289.654 339.357 289.813 338.661 290.13 338.064C290.447 337.467 290.891 337.009 291.46 336.692C292.039 336.365 292.701 336.202 293.448 336.202C294.176 336.202 294.82 336.361 295.38 336.678C295.94 336.995 296.369 337.434 296.668 337.994C296.976 338.545 297.13 339.17 297.13 339.87ZM295.814 339.604C295.814 339.119 295.707 338.703 295.492 338.358C295.277 338.003 294.983 337.737 294.61 337.56C294.246 337.373 293.84 337.28 293.392 337.28C292.748 337.28 292.197 337.485 291.74 337.896C291.292 338.307 291.035 338.876 290.97 339.604H295.814ZM312.764 336.328L310.37 344H309.054L307.206 337.91L305.358 344H304.042L301.634 336.328H302.936L304.7 342.768L306.604 336.328H307.906L309.768 342.782L311.504 336.328H312.764ZM317.375 344.126C316.656 344.126 316.003 343.963 315.415 343.636C314.836 343.309 314.379 342.847 314.043 342.25C313.716 341.643 313.553 340.943 313.553 340.15C313.553 339.366 313.721 338.675 314.057 338.078C314.402 337.471 314.869 337.009 315.457 336.692C316.045 336.365 316.703 336.202 317.431 336.202C318.159 336.202 318.817 336.365 319.405 336.692C319.993 337.009 320.455 337.467 320.791 338.064C321.136 338.661 321.309 339.357 321.309 340.15C321.309 340.943 321.131 341.643 320.777 342.25C320.431 342.847 319.96 343.309 319.363 343.636C318.765 343.963 318.103 344.126 317.375 344.126ZM317.375 343.006C317.832 343.006 318.261 342.899 318.663 342.684C319.064 342.469 319.386 342.147 319.629 341.718C319.881 341.289 320.007 340.766 320.007 340.15C320.007 339.534 319.885 339.011 319.643 338.582C319.4 338.153 319.083 337.835 318.691 337.63C318.299 337.415 317.874 337.308 317.417 337.308C316.95 337.308 316.521 337.415 316.129 337.63C315.746 337.835 315.438 338.153 315.205 338.582C314.971 339.011 314.855 339.534 314.855 340.15C314.855 340.775 314.967 341.303 315.191 341.732C315.424 342.161 315.732 342.483 316.115 342.698C316.497 342.903 316.917 343.006 317.375 343.006ZM324.258 337.574C324.482 337.135 324.799 336.795 325.21 336.552C325.63 336.309 326.138 336.188 326.736 336.188V337.504H326.4C324.972 337.504 324.258 338.279 324.258 339.828V344H322.984V336.328H324.258V337.574ZM332.49 344L329.48 340.612V344H328.206V333.64H329.48V339.73L332.434 336.328H334.212L330.6 340.15L334.226 344H332.49Z" fill="#212633"/>
<rect x="56" y="369" width="16" height="16" rx="4" fill="#F9AB35"/>
<path d="M94.2834 372.242L91.4554 382H90.0274L87.7594 374.146L85.4074 382L83.9934 382.014L81.2634 372.242H82.6214L84.7494 380.516L87.1014 372.242H88.5294L90.7694 380.488L92.9114 372.242H94.2834ZM99.0236 382.126C98.3049 382.126 97.6516 381.963 97.0636 381.636C96.4849 381.309 96.0276 380.847 95.6916 380.25C95.3649 379.643 95.2016 378.943 95.2016 378.15C95.2016 377.366 95.3696 376.675 95.7056 376.078C96.0509 375.471 96.5176 375.009 97.1056 374.692C97.6936 374.365 98.3516 374.202 99.0796 374.202C99.8076 374.202 100.466 374.365 101.054 374.692C101.642 375.009 102.104 375.467 102.44 376.064C102.785 376.661 102.958 377.357 102.958 378.15C102.958 378.943 102.78 379.643 102.426 380.25C102.08 380.847 101.609 381.309 101.012 381.636C100.414 381.963 99.7516 382.126 99.0236 382.126ZM99.0236 381.006C99.4809 381.006 99.9103 380.899 100.312 380.684C100.713 380.469 101.035 380.147 101.278 379.718C101.53 379.289 101.656 378.766 101.656 378.15C101.656 377.534 101.534 377.011 101.292 376.582C101.049 376.153 100.732 375.835 100.34 375.63C99.9476 375.415 99.5229 375.308 99.0656 375.308C98.5989 375.308 98.1696 375.415 97.7776 375.63C97.3949 375.835 97.0869 376.153 96.8536 376.582C96.6203 377.011 96.5036 377.534 96.5036 378.15C96.5036 378.775 96.6156 379.303 96.8396 379.732C97.0729 380.161 97.3809 380.483 97.7636 380.698C98.1463 380.903 98.5663 381.006 99.0236 381.006ZM105.907 375.574C106.131 375.135 106.448 374.795 106.859 374.552C107.279 374.309 107.787 374.188 108.385 374.188V375.504H108.049C106.621 375.504 105.907 376.279 105.907 377.828V382H104.633V374.328H105.907V375.574ZM114.139 382L111.129 378.612V382H109.855V371.64H111.129V377.73L114.083 374.328H115.861L112.249 378.15L115.875 382H114.139ZM123.915 375.378H122.305V382H121.031V375.378H120.037V374.328H121.031V373.782C121.031 372.923 121.25 372.298 121.689 371.906C122.137 371.505 122.851 371.304 123.831 371.304V372.368C123.271 372.368 122.874 372.48 122.641 372.704C122.417 372.919 122.305 373.278 122.305 373.782V374.328H123.915V375.378ZM126.058 373.082C125.816 373.082 125.61 372.998 125.442 372.83C125.274 372.662 125.19 372.457 125.19 372.214C125.19 371.971 125.274 371.766 125.442 371.598C125.61 371.43 125.816 371.346 126.058 371.346C126.292 371.346 126.488 371.43 126.646 371.598C126.814 371.766 126.898 371.971 126.898 372.214C126.898 372.457 126.814 372.662 126.646 372.83C126.488 372.998 126.292 373.082 126.058 373.082ZM126.674 374.328V382H125.4V374.328H126.674ZM132.584 374.188C133.517 374.188 134.273 374.473 134.852 375.042C135.43 375.602 135.72 376.414 135.72 377.478V382H134.46V377.66C134.46 376.895 134.268 376.311 133.886 375.91C133.503 375.499 132.98 375.294 132.318 375.294C131.646 375.294 131.109 375.504 130.708 375.924C130.316 376.344 130.12 376.955 130.12 377.758V382H128.846V374.328H130.12V375.42C130.372 375.028 130.712 374.725 131.142 374.51C131.58 374.295 132.061 374.188 132.584 374.188ZM138.459 373.082C138.216 373.082 138.011 372.998 137.843 372.83C137.675 372.662 137.591 372.457 137.591 372.214C137.591 371.971 137.675 371.766 137.843 371.598C138.011 371.43 138.216 371.346 138.459 371.346C138.692 371.346 138.888 371.43 139.047 371.598C139.215 371.766 139.299 371.971 139.299 372.214C139.299 372.457 139.215 372.662 139.047 372.83C138.888 372.998 138.692 373.082 138.459 373.082ZM139.075 374.328V382H137.801V374.328H139.075ZM143.962 382.126C143.374 382.126 142.847 382.028 142.38 381.832C141.913 381.627 141.545 381.347 141.274 380.992C141.003 380.628 140.854 380.213 140.826 379.746H142.142C142.179 380.129 142.357 380.441 142.674 380.684C143.001 380.927 143.425 381.048 143.948 381.048C144.433 381.048 144.816 380.941 145.096 380.726C145.376 380.511 145.516 380.241 145.516 379.914C145.516 379.578 145.367 379.331 145.068 379.172C144.769 379.004 144.307 378.841 143.682 378.682C143.113 378.533 142.646 378.383 142.282 378.234C141.927 378.075 141.619 377.847 141.358 377.548C141.106 377.24 140.98 376.839 140.98 376.344C140.98 375.952 141.097 375.593 141.33 375.266C141.563 374.939 141.895 374.683 142.324 374.496C142.753 374.3 143.243 374.202 143.794 374.202C144.643 374.202 145.329 374.417 145.852 374.846C146.375 375.275 146.655 375.863 146.692 376.61H145.418C145.39 376.209 145.227 375.887 144.928 375.644C144.639 375.401 144.247 375.28 143.752 375.28C143.295 375.28 142.931 375.378 142.66 375.574C142.389 375.77 142.254 376.027 142.254 376.344C142.254 376.596 142.333 376.806 142.492 376.974C142.66 377.133 142.865 377.263 143.108 377.366C143.36 377.459 143.705 377.567 144.144 377.688C144.695 377.837 145.143 377.987 145.488 378.136C145.833 378.276 146.127 378.491 146.37 378.78C146.622 379.069 146.753 379.447 146.762 379.914C146.762 380.334 146.645 380.712 146.412 381.048C146.179 381.384 145.847 381.65 145.418 381.846C144.998 382.033 144.513 382.126 143.962 382.126ZM152.368 374.188C152.947 374.188 153.47 374.314 153.936 374.566C154.403 374.809 154.767 375.177 155.028 375.672C155.299 376.167 155.434 376.769 155.434 377.478V382H154.174V377.66C154.174 376.895 153.983 376.311 153.6 375.91C153.218 375.499 152.695 375.294 152.032 375.294C151.36 375.294 150.824 375.504 150.422 375.924C150.03 376.344 149.834 376.955 149.834 377.758V382H148.56V371.64H149.834V375.42C150.086 375.028 150.432 374.725 150.87 374.51C151.318 374.295 151.818 374.188 152.368 374.188ZM164.516 377.87C164.516 378.113 164.502 378.369 164.474 378.64H158.342C158.388 379.396 158.645 379.989 159.112 380.418C159.588 380.838 160.162 381.048 160.834 381.048C161.384 381.048 161.842 380.922 162.206 380.67C162.579 380.409 162.84 380.063 162.99 379.634H164.362C164.156 380.371 163.746 380.973 163.13 381.44C162.514 381.897 161.748 382.126 160.834 382.126C160.106 382.126 159.452 381.963 158.874 381.636C158.304 381.309 157.856 380.847 157.53 380.25C157.203 379.643 157.04 378.943 157.04 378.15C157.04 377.357 157.198 376.661 157.516 376.064C157.833 375.467 158.276 375.009 158.846 374.692C159.424 374.365 160.087 374.202 160.834 374.202C161.562 374.202 162.206 374.361 162.766 374.678C163.326 374.995 163.755 375.434 164.054 375.994C164.362 376.545 164.516 377.17 164.516 377.87ZM163.2 377.604C163.2 377.119 163.092 376.703 162.878 376.358C162.663 376.003 162.369 375.737 161.996 375.56C161.632 375.373 161.226 375.28 160.778 375.28C160.134 375.28 159.583 375.485 159.126 375.896C158.678 376.307 158.421 376.876 158.356 377.604H163.2ZM165.721 378.136C165.721 377.352 165.88 376.666 166.197 376.078C166.514 375.481 166.948 375.019 167.499 374.692C168.059 374.365 168.684 374.202 169.375 374.202C169.972 374.202 170.528 374.342 171.041 374.622C171.554 374.893 171.946 375.252 172.217 375.7V371.64H173.505V382H172.217V380.558C171.965 381.015 171.592 381.393 171.097 381.692C170.602 381.981 170.024 382.126 169.361 382.126C168.68 382.126 168.059 381.958 167.499 381.622C166.948 381.286 166.514 380.815 166.197 380.208C165.88 379.601 165.721 378.911 165.721 378.136ZM172.217 378.15C172.217 377.571 172.1 377.067 171.867 376.638C171.634 376.209 171.316 375.882 170.915 375.658C170.523 375.425 170.089 375.308 169.613 375.308C169.137 375.308 168.703 375.42 168.311 375.644C167.919 375.868 167.606 376.195 167.373 376.624C167.14 377.053 167.023 377.557 167.023 378.136C167.023 378.724 167.14 379.237 167.373 379.676C167.606 380.105 167.919 380.437 168.311 380.67C168.703 380.894 169.137 381.006 169.613 381.006C170.089 381.006 170.523 380.894 170.915 380.67C171.316 380.437 171.634 380.105 171.867 379.676C172.1 379.237 172.217 378.729 172.217 378.15ZM180.665 371.64V382H179.391V371.64H180.665ZM182.36 378.136C182.36 377.352 182.518 376.666 182.836 376.078C183.153 375.481 183.587 375.019 184.138 374.692C184.698 374.365 185.318 374.202 186 374.202C186.672 374.202 187.255 374.347 187.75 374.636C188.244 374.925 188.613 375.289 188.856 375.728V374.328H190.144V382H188.856V380.572C188.604 381.02 188.226 381.393 187.722 381.692C187.227 381.981 186.648 382.126 185.986 382.126C185.304 382.126 184.688 381.958 184.138 381.622C183.587 381.286 183.153 380.815 182.836 380.208C182.518 379.601 182.36 378.911 182.36 378.136ZM188.856 378.15C188.856 377.571 188.739 377.067 188.506 376.638C188.272 376.209 187.955 375.882 187.554 375.658C187.162 375.425 186.728 375.308 186.252 375.308C185.776 375.308 185.342 375.42 184.95 375.644C184.558 375.868 184.245 376.195 184.012 376.624C183.778 377.053 183.662 377.557 183.662 378.136C183.662 378.724 183.778 379.237 184.012 379.676C184.245 380.105 184.558 380.437 184.95 380.67C185.342 380.894 185.776 381.006 186.252 381.006C186.728 381.006 187.162 380.894 187.554 380.67C187.955 380.437 188.272 380.105 188.506 379.676C188.739 379.237 188.856 378.729 188.856 378.15ZM193.851 375.378V379.9C193.851 380.273 193.93 380.539 194.089 380.698C194.247 380.847 194.523 380.922 194.915 380.922H195.853V382H194.705C193.995 382 193.463 381.837 193.109 381.51C192.754 381.183 192.577 380.647 192.577 379.9V375.378H191.583V374.328H192.577V372.396H193.851V374.328H195.853V375.378H193.851ZM204.396 377.87C204.396 378.113 204.382 378.369 204.354 378.64H198.222C198.269 379.396 198.526 379.989 198.992 380.418C199.468 380.838 200.042 381.048 200.714 381.048C201.265 381.048 201.722 380.922 202.086 380.67C202.46 380.409 202.721 380.063 202.87 379.634H204.242C204.037 380.371 203.626 380.973 203.01 381.44C202.394 381.897 201.629 382.126 200.714 382.126C199.986 382.126 199.333 381.963 198.754 381.636C198.185 381.309 197.737 380.847 197.41 380.25C197.084 379.643 196.92 378.943 196.92 378.15C196.92 377.357 197.079 376.661 197.396 376.064C197.714 375.467 198.157 375.009 198.726 374.692C199.305 374.365 199.968 374.202 200.714 374.202C201.442 374.202 202.086 374.361 202.646 374.678C203.206 374.995 203.636 375.434 203.934 375.994C204.242 376.545 204.396 377.17 204.396 377.87ZM203.08 377.604C203.08 377.119 202.973 376.703 202.758 376.358C202.544 376.003 202.25 375.737 201.876 375.56C201.512 375.373 201.106 375.28 200.658 375.28C200.014 375.28 199.464 375.485 199.006 375.896C198.558 376.307 198.302 376.876 198.236 377.604H203.08Z" fill="#212633"/>
<rect x="213.333" y="369" width="16" height="16" rx="4" fill="#356CF9"/>
<path d="M244.974 375.098C244.974 375.91 244.694 376.587 244.134 377.128C243.584 377.66 242.739 377.926 241.6 377.926H239.724V382H238.45V372.242H241.6C242.702 372.242 243.537 372.508 244.106 373.04C244.685 373.572 244.974 374.258 244.974 375.098ZM241.6 376.876C242.31 376.876 242.832 376.722 243.168 376.414C243.504 376.106 243.672 375.667 243.672 375.098C243.672 373.894 242.982 373.292 241.6 373.292H239.724V376.876H241.6ZM247.832 375.574C248.056 375.135 248.373 374.795 248.784 374.552C249.204 374.309 249.712 374.188 250.31 374.188V375.504H249.974C248.546 375.504 247.832 376.279 247.832 377.828V382H246.558V374.328H247.832V375.574ZM255.126 382.126C254.408 382.126 253.754 381.963 253.166 381.636C252.588 381.309 252.13 380.847 251.794 380.25C251.468 379.643 251.304 378.943 251.304 378.15C251.304 377.366 251.472 376.675 251.808 376.078C252.154 375.471 252.62 375.009 253.208 374.692C253.796 374.365 254.454 374.202 255.182 374.202C255.91 374.202 256.568 374.365 257.156 374.692C257.744 375.009 258.206 375.467 258.542 376.064C258.888 376.661 259.06 377.357 259.06 378.15C259.06 378.943 258.883 379.643 258.528 380.25C258.183 380.847 257.712 381.309 257.114 381.636C256.517 381.963 255.854 382.126 255.126 382.126ZM255.126 381.006C255.584 381.006 256.013 380.899 256.414 380.684C256.816 380.469 257.138 380.147 257.38 379.718C257.632 379.289 257.758 378.766 257.758 378.15C257.758 377.534 257.637 377.011 257.394 376.582C257.152 376.153 256.834 375.835 256.442 375.63C256.05 375.415 255.626 375.308 255.168 375.308C254.702 375.308 254.272 375.415 253.88 375.63C253.498 375.835 253.19 376.153 252.956 376.582C252.723 377.011 252.606 377.534 252.606 378.15C252.606 378.775 252.718 379.303 252.942 379.732C253.176 380.161 253.484 380.483 253.866 380.698C254.249 380.903 254.669 381.006 255.126 381.006ZM260.26 378.15C260.26 377.357 260.418 376.666 260.736 376.078C261.053 375.481 261.492 375.019 262.052 374.692C262.621 374.365 263.27 374.202 263.998 374.202C264.94 374.202 265.715 374.431 266.322 374.888C266.938 375.345 267.344 375.98 267.54 376.792H266.168C266.037 376.325 265.78 375.957 265.398 375.686C265.024 375.415 264.558 375.28 263.998 375.28C263.27 375.28 262.682 375.532 262.234 376.036C261.786 376.531 261.562 377.235 261.562 378.15C261.562 379.074 261.786 379.788 262.234 380.292C262.682 380.796 263.27 381.048 263.998 381.048C264.558 381.048 265.024 380.917 265.398 380.656C265.771 380.395 266.028 380.021 266.168 379.536H267.54C267.334 380.32 266.924 380.95 266.308 381.426C265.692 381.893 264.922 382.126 263.998 382.126C263.27 382.126 262.621 381.963 262.052 381.636C261.492 381.309 261.053 380.847 260.736 380.25C260.418 379.653 260.26 378.953 260.26 378.15ZM276.239 377.87C276.239 378.113 276.225 378.369 276.197 378.64H270.065C270.112 379.396 270.369 379.989 270.835 380.418C271.311 380.838 271.885 381.048 272.557 381.048C273.108 381.048 273.565 380.922 273.929 380.67C274.303 380.409 274.564 380.063 274.713 379.634H276.085C275.88 380.371 275.469 380.973 274.853 381.44C274.237 381.897 273.472 382.126 272.557 382.126C271.829 382.126 271.176 381.963 270.597 381.636C270.028 381.309 269.58 380.847 269.253 380.25C268.927 379.643 268.763 378.943 268.763 378.15C268.763 377.357 268.922 376.661 269.239 376.064C269.557 375.467 270 375.009 270.569 374.692C271.148 374.365 271.811 374.202 272.557 374.202C273.285 374.202 273.929 374.361 274.489 374.678C275.049 374.995 275.479 375.434 275.777 375.994C276.085 376.545 276.239 377.17 276.239 377.87ZM274.923 377.604C274.923 377.119 274.816 376.703 274.601 376.358C274.387 376.003 274.093 375.737 273.719 375.56C273.355 375.373 272.949 375.28 272.501 375.28C271.857 375.28 271.307 375.485 270.849 375.896C270.401 376.307 270.145 376.876 270.079 377.604H274.923ZM280.637 382.126C280.049 382.126 279.522 382.028 279.055 381.832C278.588 381.627 278.22 381.347 277.949 380.992C277.678 380.628 277.529 380.213 277.501 379.746H278.817C278.854 380.129 279.032 380.441 279.349 380.684C279.676 380.927 280.1 381.048 280.623 381.048C281.108 381.048 281.491 380.941 281.771 380.726C282.051 380.511 282.191 380.241 282.191 379.914C282.191 379.578 282.042 379.331 281.743 379.172C281.444 379.004 280.982 378.841 280.357 378.682C279.788 378.533 279.321 378.383 278.957 378.234C278.602 378.075 278.294 377.847 278.033 377.548C277.781 377.24 277.655 376.839 277.655 376.344C277.655 375.952 277.772 375.593 278.005 375.266C278.238 374.939 278.57 374.683 278.999 374.496C279.428 374.3 279.918 374.202 280.469 374.202C281.318 374.202 282.004 374.417 282.527 374.846C283.05 375.275 283.33 375.863 283.367 376.61H282.093C282.065 376.209 281.902 375.887 281.603 375.644C281.314 375.401 280.922 375.28 280.427 375.28C279.97 375.28 279.606 375.378 279.335 375.574C279.064 375.77 278.929 376.027 278.929 376.344C278.929 376.596 279.008 376.806 279.167 376.974C279.335 377.133 279.54 377.263 279.783 377.366C280.035 377.459 280.38 377.567 280.819 377.688C281.37 377.837 281.818 377.987 282.163 378.136C282.508 378.276 282.802 378.491 283.045 378.78C283.297 379.069 283.428 379.447 283.437 379.914C283.437 380.334 283.32 380.712 283.087 381.048C282.854 381.384 282.522 381.65 282.093 381.846C281.673 382.033 281.188 382.126 280.637 382.126ZM287.952 382.126C287.364 382.126 286.836 382.028 286.37 381.832C285.903 381.627 285.534 381.347 285.264 380.992C284.993 380.628 284.844 380.213 284.816 379.746H286.132C286.169 380.129 286.346 380.441 286.664 380.684C286.99 380.927 287.415 381.048 287.938 381.048C288.423 381.048 288.806 380.941 289.086 380.726C289.366 380.511 289.506 380.241 289.506 379.914C289.506 379.578 289.356 379.331 289.058 379.172C288.759 379.004 288.297 378.841 287.672 378.682C287.102 378.533 286.636 378.383 286.272 378.234C285.917 378.075 285.609 377.847 285.348 377.548C285.096 377.24 284.97 376.839 284.97 376.344C284.97 375.952 285.086 375.593 285.32 375.266C285.553 374.939 285.884 374.683 286.314 374.496C286.743 374.3 287.233 374.202 287.784 374.202C288.633 374.202 289.319 374.417 289.842 374.846C290.364 375.275 290.644 375.863 290.682 376.61H289.408C289.38 376.209 289.216 375.887 288.918 375.644C288.628 375.401 288.236 375.28 287.742 375.28C287.284 375.28 286.92 375.378 286.65 375.574C286.379 375.77 286.244 376.027 286.244 376.344C286.244 376.596 286.323 376.806 286.482 376.974C286.65 377.133 286.855 377.263 287.098 377.366C287.35 377.459 287.695 377.567 288.134 377.688C288.684 377.837 289.132 377.987 289.478 378.136C289.823 378.276 290.117 378.491 290.36 378.78C290.612 379.069 290.742 379.447 290.752 379.914C290.752 380.334 290.635 380.712 290.402 381.048C290.168 381.384 289.837 381.65 289.408 381.846C288.988 382.033 288.502 382.126 287.952 382.126ZM293.208 373.082C292.965 373.082 292.76 372.998 292.592 372.83C292.424 372.662 292.34 372.457 292.34 372.214C292.34 371.971 292.424 371.766 292.592 371.598C292.76 371.43 292.965 371.346 293.208 371.346C293.441 371.346 293.637 371.43 293.796 371.598C293.964 371.766 294.048 371.971 294.048 372.214C294.048 372.457 293.964 372.662 293.796 372.83C293.637 372.998 293.441 373.082 293.208 373.082ZM293.824 374.328V382H292.55V374.328H293.824ZM299.733 374.188C300.667 374.188 301.423 374.473 302.001 375.042C302.58 375.602 302.869 376.414 302.869 377.478V382H301.609V377.66C301.609 376.895 301.418 376.311 301.035 375.91C300.653 375.499 300.13 375.294 299.467 375.294C298.795 375.294 298.259 375.504 297.857 375.924C297.465 376.344 297.269 376.955 297.269 377.758V382H295.995V374.328H297.269V375.42C297.521 375.028 297.862 374.725 298.291 374.51C298.73 374.295 299.211 374.188 299.733 374.188ZM308.114 374.202C308.777 374.202 309.356 374.347 309.85 374.636C310.354 374.925 310.728 375.289 310.97 375.728V374.328H312.258V382.168C312.258 382.868 312.109 383.489 311.81 384.03C311.512 384.581 311.082 385.01 310.522 385.318C309.972 385.626 309.328 385.78 308.59 385.78C307.582 385.78 306.742 385.542 306.07 385.066C305.398 384.59 305.002 383.941 304.88 383.12H306.14C306.28 383.587 306.57 383.96 307.008 384.24C307.447 384.529 307.974 384.674 308.59 384.674C309.29 384.674 309.86 384.455 310.298 384.016C310.746 383.577 310.97 382.961 310.97 382.168V380.558C310.718 381.006 310.345 381.379 309.85 381.678C309.356 381.977 308.777 382.126 308.114 382.126C307.433 382.126 306.812 381.958 306.252 381.622C305.702 381.286 305.268 380.815 304.95 380.208C304.633 379.601 304.474 378.911 304.474 378.136C304.474 377.352 304.633 376.666 304.95 376.078C305.268 375.481 305.702 375.019 306.252 374.692C306.812 374.365 307.433 374.202 308.114 374.202ZM310.97 378.15C310.97 377.571 310.854 377.067 310.62 376.638C310.387 376.209 310.07 375.882 309.668 375.658C309.276 375.425 308.842 375.308 308.366 375.308C307.89 375.308 307.456 375.42 307.064 375.644C306.672 375.868 306.36 376.195 306.126 376.624C305.893 377.053 305.776 377.557 305.776 378.136C305.776 378.724 305.893 379.237 306.126 379.676C306.36 380.105 306.672 380.437 307.064 380.67C307.456 380.894 307.89 381.006 308.366 381.006C308.842 381.006 309.276 380.894 309.668 380.67C310.07 380.437 310.387 380.105 310.62 379.676C310.854 379.237 310.97 378.729 310.97 378.15Z" fill="#212633"/>
</svg>
